<?xml version="1.0" encoding="UTF-8"?>
<svg xmlns="http://www.w3.org/2000/svg" xmlns:xlink="http://www.w3.org/1999/xlink" width="2560pt" height="192pt" viewBox="0 0 2560 192" version="1.1">
<g id="surface1">
<rect x="0" y="0" width="2560" height="192" style="fill:rgb(98.039216%,98.039216%,98.039216%);fill-opacity:1;stroke:none;"/>
<path style=" stroke:none;fill-rule:nonzero;fill:rgb(91.372549%,61.176471%,12.156863%);fill-opacity:1;" d="M 212.710938 96 C 212.710938 125.113281 189.113281 148.710938 160 148.710938 C 130.886719 148.710938 107.289063 125.113281 107.289063 96 C 107.289063 66.886719 130.886719 43.289063 160 43.289063 C 189.113281 43.289063 212.710938 66.886719 212.710938 96 "/>
<path style=" stroke:none;fill-rule:nonzero;fill:rgb(81.176471%,84.705882%,89.803922%);fill-opacity:1;" d="M 376.910156 96 C 376.910156 127.429688 351.429688 152.910156 320 152.910156 C 288.570313 152.910156 263.089844 127.429688 263.089844 96 C 263.089844 64.570313 288.570313 39.089844 320 39.089844 C 351.429688 39.089844 376.910156 64.570313 376.910156 96 "/>
<path style=" stroke:none;fill-rule:nonzero;fill:rgb(81.176471%,84.705882%,89.803922%);fill-opacity:1;" d="M 531.488281 96 C 531.488281 124.4375 508.4375 147.488281 480 147.488281 C 451.5625 147.488281 428.511719 124.4375 428.511719 96 C 428.511719 67.5625 451.5625 44.511719 480 44.511719 C 508.4375 44.511719 531.488281 67.5625 531.488281 96 "/>
<path style=" stroke:none;fill-rule:nonzero;fill:rgb(87.843137%,44.313725%,56.078431%);fill-opacity:1;" d="M 694.957031 96 C 694.957031 126.351563 670.351563 150.957031 640 150.957031 C 609.648438 150.957031 585.042969 126.351563 585.042969 96 C 585.042969 65.648438 609.648438 41.042969 640 41.042969 C 670.351563 41.042969 694.957031 65.648438 694.957031 96 "/>
<path style=" stroke:none;fill-rule:nonzero;fill:rgb(59.215686%,60%,50.588235%);fill-opacity:1;" d="M 851.152344 96 C 851.152344 124.25 828.25 147.152344 800 147.152344 C 771.75 147.152344 748.847656 124.25 748.847656 96 C 748.847656 67.75 771.75 44.847656 800 44.847656 C 828.25 44.847656 851.152344 67.75 851.152344 96 "/>
<path style=" stroke:none;fill-rule:nonzero;fill:rgb(87.843137%,44.313725%,56.078431%);fill-opacity:1;" d="M 1014.871094 96 C 1014.871094 126.304688 990.304688 150.871094 960 150.871094 C 929.695313 150.871094 905.128906 126.304688 905.128906 96 C 905.128906 65.695313 929.695313 41.128906 960 41.128906 C 990.304688 41.128906 1014.871094 65.695313 1014.871094 96 "/>
<path style=" stroke:none;fill-rule:nonzero;fill:rgb(27.45098%,26.27451%,17.647059%);fill-opacity:1;" d="M 1176.085938 96 C 1176.085938 126.972656 1150.972656 152.085938 1120 152.085938 C 1089.027344 152.085938 1063.914063 126.972656 1063.914063 96 C 1063.914063 65.027344 1089.027344 39.914063 1120 39.914063 C 1150.972656 39.914063 1176.085938 65.027344 1176.085938 96 "/>
<path style=" stroke:none;fill-rule:nonzero;fill:rgb(43.137255%,44.705882%,32.156863%);fill-opacity:1;" d="M 1337.230469 96 C 1337.230469 127.609375 1311.609375 153.230469 1280 153.230469 C 1248.390625 153.230469 1222.769531 127.609375 1222.769531 96 C 1222.769531 64.390625 1248.390625 38.769531 1280 38.769531 C 1311.609375 38.769531 1337.230469 64.390625 1337.230469 96 "/>
<path style=" stroke:none;fill-rule:nonzero;fill:rgb(81.176471%,84.705882%,89.803922%);fill-opacity:1;" d="M 1496.324219 96 C 1496.324219 127.109375 1471.109375 152.324219 1440 152.324219 C 1408.890625 152.324219 1383.675781 127.109375 1383.675781 96 C 1383.675781 64.890625 1408.890625 39.675781 1440 39.675781 C 1471.109375 39.675781 1496.324219 64.890625 1496.324219 96 "/>
<path style=" stroke:none;fill-rule:nonzero;fill:rgb(27.45098%,26.27451%,17.647059%);fill-opacity:1;" d="M 1655.289063 96 C 1655.289063 126.535156 1630.535156 151.289063 1600 151.289063 C 1569.464844 151.289063 1544.710938 126.535156 1544.710938 96 C 1544.710938 65.464844 1569.464844 40.710938 1600 40.710938 C 1630.535156 40.710938 1655.289063 65.464844 1655.289063 96 "/>
<path style=" stroke:none;fill-rule:nonzero;fill:rgb(59.215686%,60%,50.588235%);fill-opacity:1;" d="M 1816.410156 96 C 1816.410156 127.152344 1791.152344 152.410156 1760 152.410156 C 1728.847656 152.410156 1703.589844 127.152344 1703.589844 96 C 1703.589844 64.847656 1728.847656 39.589844 1760 39.589844 C 1791.152344 39.589844 1816.410156 64.847656 1816.410156 96 "/>
<path style=" stroke:none;fill-rule:nonzero;fill:rgb(91.372549%,61.176471%,12.156863%);fill-opacity:1;" d="M 1976.402344 96 C 1976.402344 127.152344 1951.152344 152.402344 1920 152.402344 C 1888.847656 152.402344 1863.597656 127.152344 1863.597656 96 C 1863.597656 64.847656 1888.847656 39.597656 1920 39.597656 C 1951.152344 39.597656 1976.402344 64.847656 1976.402344 96 "/>
<path style=" stroke:none;fill-rule:nonzero;fill:rgb(27.45098%,26.27451%,17.647059%);fill-opacity:1;" d="M 2135.371094 96 C 2135.371094 126.582031 2110.582031 151.371094 2080 151.371094 C 2049.417969 151.371094 2024.628906 126.582031 2024.628906 96 C 2024.628906 65.417969 2049.417969 40.628906 2080 40.628906 C 2110.582031 40.628906 2135.371094 65.417969 2135.371094 96 "/>
<path style=" stroke:none;fill-rule:nonzero;fill:rgb(43.137255%,44.705882%,32.156863%);fill-opacity:1;" d="M 2299.671875 96 C 2299.671875 128.953125 2272.953125 155.671875 2240 155.671875 C 2207.046875 155.671875 2180.328125 128.953125 2180.328125 96 C 2180.328125 63.046875 2207.046875 36.328125 2240 36.328125 C 2272.953125 36.328125 2299.671875 63.046875 2299.671875 96 "/>
<path style=" stroke:none;fill-rule:nonzero;fill:rgb(43.137255%,44.705882%,32.156863%);fill-opacity:1;" d="M 2457.976563 96 C 2457.976563 128.019531 2432.019531 153.976563 2400 153.976563 C 2367.980469 153.976563 2342.023438 128.019531 2342.023438 96 C 2342.023438 63.980469 2367.980469 38.023438 2400 38.023438 C 2432.019531 38.023438 2457.976563 63.980469 2457.976563 96 "/>
</g>
</svg>
