<?xml version="1.0" encoding="UTF-8"?>
<svg xmlns="http://www.w3.org/2000/svg" xmlns:xlink="http://www.w3.org/1999/xlink" width="995pt" height="995pt" viewBox="0 0 995 995" version="1.1">
<g id="surface1">
<rect x="0" y="0" width="995" height="995" style="fill:rgb(94.117647%,94.117647%,94.117647%);fill-opacity:1;stroke:none;"/>
<path style="fill:none;stroke-width:20;stroke-linecap:butt;stroke-linejoin:miter;stroke:rgb(56.470588%,50.980392%,75.294118%);stroke-opacity:1;stroke-miterlimit:10;" d="M 519.265625 497 C 519.265625 509.296875 509.296875 519.265625 497 519.265625 C 484.703125 519.265625 474.734375 509.296875 474.734375 497 C 474.734375 484.703125 484.703125 474.734375 497 474.734375 C 509.296875 474.734375 519.265625 484.703125 519.265625 497 "/>
<path style="fill:none;stroke-width:18.657256;stroke-linecap:butt;stroke-linejoin:miter;stroke:rgb(97.647059%,67.45098%,38.823529%);stroke-opacity:1;stroke-miterlimit:10;" d="M 554.265625 497 C 554.265625 528.625 528.625 554.265625 497 554.265625 C 465.375 554.265625 439.734375 528.625 439.734375 497 C 439.734375 465.375 465.375 439.734375 497 439.734375 C 528.625 439.734375 554.265625 465.375 554.265625 497 "/>
<path style="fill:none;stroke-width:17.664395;stroke-linecap:butt;stroke-linejoin:miter;stroke:rgb(48.235294%,45.098039%,71.764706%);stroke-opacity:1;stroke-miterlimit:10;" d="M 589.265625 497 C 589.265625 547.957031 547.957031 589.265625 497 589.265625 C 446.042969 589.265625 404.734375 547.957031 404.734375 497 C 404.734375 446.042969 446.042969 404.734375 497 404.734375 C 547.957031 404.734375 589.265625 446.042969 589.265625 497 "/>
<path style="fill:none;stroke-width:16.906982;stroke-linecap:butt;stroke-linejoin:miter;stroke:rgb(48.235294%,45.098039%,71.764706%);stroke-opacity:1;stroke-miterlimit:10;" d="M 624.265625 497 C 624.265625 567.285156 567.285156 624.265625 497 624.265625 C 426.714844 624.265625 369.734375 567.285156 369.734375 497 C 369.734375 426.714844 426.714844 369.734375 497 369.734375 C 567.285156 369.734375 624.265625 426.714844 624.265625 497 "/>
<path style="fill:none;stroke-width:15.916416;stroke-linecap:butt;stroke-linejoin:miter;stroke:rgb(65.882353%,57.254902%,78.823529%);stroke-opacity:1;stroke-miterlimit:10;" d="M 659.265625 497 C 659.265625 586.617188 586.617188 659.265625 497 659.265625 C 407.382813 659.265625 334.734375 586.617188 334.734375 497 C 334.734375 407.382813 407.382813 334.734375 497 334.734375 C 586.617188 334.734375 659.265625 407.382813 659.265625 497 "/>
<path style="fill:none;stroke-width:15.24864;stroke-linecap:butt;stroke-linejoin:miter;stroke:rgb(56.470588%,50.980392%,75.294118%);stroke-opacity:1;stroke-miterlimit:10;" d="M 694.265625 497 C 694.265625 605.945313 605.945313 694.265625 497 694.265625 C 388.054688 694.265625 299.734375 605.945313 299.734375 497 C 299.734375 388.054688 388.054688 299.734375 497 299.734375 C 605.945313 299.734375 694.265625 388.054688 694.265625 497 "/>
<path style="fill:none;stroke-width:14.114927;stroke-linecap:butt;stroke-linejoin:miter;stroke:rgb(48.235294%,45.098039%,71.764706%);stroke-opacity:1;stroke-miterlimit:10;" d="M 729.265625 497 C 729.265625 625.277344 625.277344 729.265625 497 729.265625 C 368.722656 729.265625 264.734375 625.277344 264.734375 497 C 264.734375 368.722656 368.722656 264.734375 497 264.734375 C 625.277344 264.734375 729.265625 368.722656 729.265625 497 "/>
<path style="fill:none;stroke-width:13.383455;stroke-linecap:butt;stroke-linejoin:miter;stroke:rgb(73.333333%,61.176471%,80.392157%);stroke-opacity:1;stroke-miterlimit:10;" d="M 764.265625 497 C 764.265625 644.605469 644.605469 764.265625 497 764.265625 C 349.394531 764.265625 229.734375 644.605469 229.734375 497 C 229.734375 349.394531 349.394531 229.734375 497 229.734375 C 644.605469 229.734375 764.265625 349.394531 764.265625 497 "/>
<path style="fill:none;stroke-width:12.241392;stroke-linecap:butt;stroke-linejoin:miter;stroke:rgb(56.470588%,50.980392%,75.294118%);stroke-opacity:1;stroke-miterlimit:10;" d="M 799.265625 497 C 799.265625 663.9375 663.9375 799.265625 497 799.265625 C 330.0625 799.265625 194.734375 663.9375 194.734375 497 C 194.734375 330.0625 330.0625 194.734375 497 194.734375 C 663.9375 194.734375 799.265625 330.0625 799.265625 497 "/>
<path style="fill:none;stroke-width:11.214707;stroke-linecap:butt;stroke-linejoin:miter;stroke:rgb(73.333333%,61.176471%,80.392157%);stroke-opacity:1;stroke-miterlimit:10;" d="M 834.265625 497 C 834.265625 683.265625 683.265625 834.265625 497 834.265625 C 310.734375 834.265625 159.734375 683.265625 159.734375 497 C 159.734375 310.734375 310.734375 159.734375 497 159.734375 C 683.265625 159.734375 834.265625 310.734375 834.265625 497 "/>
<path style="fill:none;stroke-width:10.064625;stroke-linecap:butt;stroke-linejoin:miter;stroke:rgb(48.235294%,45.098039%,71.764706%);stroke-opacity:1;stroke-miterlimit:10;" d="M 869.265625 497 C 869.265625 629.996094 798.3125 752.890625 683.132813 819.390625 C 567.953125 885.890625 426.046875 885.890625 310.867188 819.390625 C 195.6875 752.890625 124.734375 629.996094 124.734375 497 C 124.734375 364.003906 195.6875 241.109375 310.867188 174.609375 C 426.046875 108.109375 567.953125 108.109375 683.132813 174.609375 C 798.3125 241.109375 869.265625 364.003906 869.265625 497 "/>
</g>
</svg>
