<?xml version="1.0" encoding="UTF-8"?>
<svg xmlns="http://www.w3.org/2000/svg" xmlns:xlink="http://www.w3.org/1999/xlink" width="995pt" height="995pt" viewBox="0 0 995 995" version="1.1">
<g id="surface1">
<rect x="0" y="0" width="995" height="995" style="fill:rgb(94.117647%,94.117647%,94.117647%);fill-opacity:1;stroke:none;"/>
<path style="fill:none;stroke-width:20;stroke-linecap:butt;stroke-linejoin:miter;stroke:rgb(38.431373%,36.470588%,16.470588%);stroke-opacity:1;stroke-miterlimit:10;" d="M 517.625 497 C 517.625 508.390625 508.390625 517.625 497 517.625 C 485.609375 517.625 476.375 508.390625 476.375 497 C 476.375 485.609375 485.609375 476.375 497 476.375 C 508.390625 476.375 517.625 485.609375 517.625 497 "/>
<path style="fill:none;stroke-width:24.508006;stroke-linecap:butt;stroke-linejoin:miter;stroke:rgb(25.490196%,25.098039%,10.196078%);stroke-opacity:1;stroke-miterlimit:10;" d="M 552.625 497 C 552.625 527.71875 527.71875 552.625 497 552.625 C 466.28125 552.625 441.375 527.71875 441.375 497 C 441.375 466.28125 466.28125 441.375 497 441.375 C 527.71875 441.375 552.625 466.28125 552.625 497 "/>
<path style="fill:none;stroke-width:18.723536;stroke-linecap:butt;stroke-linejoin:miter;stroke:rgb(85.882353%,87.45098%,89.411765%);stroke-opacity:1;stroke-miterlimit:10;" d="M 587.625 497 C 587.625 547.050781 547.050781 587.625 497 587.625 C 446.949219 587.625 406.375 547.050781 406.375 497 C 406.375 446.949219 446.949219 406.375 497 406.375 C 547.050781 406.375 587.625 446.949219 587.625 497 "/>
<path style="fill:none;stroke-width:25.777111;stroke-linecap:butt;stroke-linejoin:miter;stroke:rgb(85.882353%,87.45098%,89.411765%);stroke-opacity:1;stroke-miterlimit:10;" d="M 622.625 497 C 622.625 566.378906 566.378906 622.625 497 622.625 C 427.621094 622.625 371.375 566.378906 371.375 497 C 371.375 427.621094 427.621094 371.375 497 371.375 C 566.378906 371.375 622.625 427.621094 622.625 497 "/>
<path style="fill:none;stroke-width:28.869832;stroke-linecap:butt;stroke-linejoin:miter;stroke:rgb(53.72549%,49.411765%,38.823529%);stroke-opacity:1;stroke-miterlimit:10;" d="M 657.625 497 C 657.625 585.710938 585.710938 657.625 497 657.625 C 408.289063 657.625 336.375 585.710938 336.375 497 C 336.375 408.289063 408.289063 336.375 497 336.375 C 585.710938 336.375 657.625 408.289063 657.625 497 "/>
<path style="fill:none;stroke-width:29.682805;stroke-linecap:butt;stroke-linejoin:miter;stroke:rgb(38.431373%,36.470588%,16.470588%);stroke-opacity:1;stroke-miterlimit:10;" d="M 692.625 497 C 692.625 605.039063 605.039063 692.625 497 692.625 C 388.960938 692.625 301.375 605.039063 301.375 497 C 301.375 388.960938 388.960938 301.375 497 301.375 C 605.039063 301.375 692.625 388.960938 692.625 497 "/>
<path style="fill:none;stroke-width:23.86036;stroke-linecap:butt;stroke-linejoin:miter;stroke:rgb(85.882353%,87.45098%,89.411765%);stroke-opacity:1;stroke-miterlimit:10;" d="M 727.625 497 C 727.625 624.371094 624.371094 727.625 497 727.625 C 369.628906 727.625 266.375 624.371094 266.375 497 C 266.375 369.628906 369.628906 266.375 497 266.375 C 624.371094 266.375 727.625 369.628906 727.625 497 "/>
<path style="fill:none;stroke-width:24.523776;stroke-linecap:butt;stroke-linejoin:miter;stroke:rgb(25.490196%,25.098039%,10.196078%);stroke-opacity:1;stroke-miterlimit:10;" d="M 762.625 497 C 762.625 643.699219 643.699219 762.625 497 762.625 C 350.300781 762.625 231.375 643.699219 231.375 497 C 231.375 350.300781 350.300781 231.375 497 231.375 C 643.699219 231.375 762.625 350.300781 762.625 497 "/>
<path style="fill:none;stroke-width:26.473774;stroke-linecap:butt;stroke-linejoin:miter;stroke:rgb(25.490196%,25.098039%,10.196078%);stroke-opacity:1;stroke-miterlimit:10;" d="M 797.625 497 C 797.625 663.03125 663.03125 797.625 497 797.625 C 330.96875 797.625 196.375 663.03125 196.375 497 C 196.375 330.96875 330.96875 196.375 497 196.375 C 663.03125 196.375 797.625 330.96875 797.625 497 "/>
<path style="fill:none;stroke-width:22.793569;stroke-linecap:butt;stroke-linejoin:miter;stroke:rgb(38.431373%,36.470588%,16.470588%);stroke-opacity:1;stroke-miterlimit:10;" d="M 832.625 497 C 832.625 682.359375 682.359375 832.625 497 832.625 C 311.640625 832.625 161.375 682.359375 161.375 497 C 161.375 311.640625 311.640625 161.375 497 161.375 C 682.359375 161.375 832.625 311.640625 832.625 497 "/>
<path style="fill:none;stroke-width:26.266416;stroke-linecap:butt;stroke-linejoin:miter;stroke:rgb(38.431373%,36.470588%,16.470588%);stroke-opacity:1;stroke-miterlimit:10;" d="M 867.625 497 C 867.625 629.410156 796.984375 751.765625 682.3125 817.96875 C 567.640625 884.175781 426.359375 884.175781 311.6875 817.96875 C 197.015625 751.765625 126.375 629.410156 126.375 497 C 126.375 364.589844 197.015625 242.234375 311.6875 176.03125 C 426.359375 109.824219 567.640625 109.824219 682.3125 176.03125 C 796.984375 242.234375 867.625 364.589844 867.625 497 "/>
</g>
</svg>
