<?xml version="1.0" encoding="UTF-8"?>
<svg xmlns="http://www.w3.org/2000/svg" xmlns:xlink="http://www.w3.org/1999/xlink" width="995pt" height="995pt" viewBox="0 0 995 995" version="1.1">
<g id="surface1">
<rect x="0" y="0" width="995" height="995" style="fill:rgb(94.117647%,94.117647%,94.117647%);fill-opacity:1;stroke:none;"/>
<path style="fill:none;stroke-width:13;stroke-linecap:butt;stroke-linejoin:miter;stroke:rgb(73.333333%,67.058824%,32.156863%);stroke-opacity:1;stroke-miterlimit:10;" d="M 516.617188 497 C 516.617188 507.832031 507.832031 516.617188 497 516.617188 C 486.167969 516.617188 477.382813 507.832031 477.382813 497 C 477.382813 486.167969 486.167969 477.382813 497 477.382813 C 507.832031 477.382813 516.617188 486.167969 516.617188 497 "/>
<path style="fill:none;stroke-width:13;stroke-linecap:butt;stroke-linejoin:miter;stroke:rgb(25.490196%,25.098039%,10.196078%);stroke-opacity:1;stroke-miterlimit:10;" d="M 542.066406 497 C 542.066406 521.886719 521.886719 542.066406 497 542.066406 C 472.113281 542.066406 451.933594 521.886719 451.933594 497 C 451.933594 472.113281 472.113281 451.933594 497 451.933594 C 521.886719 451.933594 542.066406 472.113281 542.066406 497 "/>
<path style="fill:none;stroke-width:13;stroke-linecap:butt;stroke-linejoin:miter;stroke:rgb(25.490196%,25.098039%,10.196078%);stroke-opacity:1;stroke-miterlimit:10;" d="M 568.113281 497 C 568.113281 536.273438 536.273438 568.113281 497 568.113281 C 457.726563 568.113281 425.886719 536.273438 425.886719 497 C 425.886719 457.726563 457.726563 425.886719 497 425.886719 C 536.273438 425.886719 568.113281 457.726563 568.113281 497 "/>
<path style="fill:none;stroke-width:13;stroke-linecap:butt;stroke-linejoin:miter;stroke:rgb(25.490196%,25.098039%,10.196078%);stroke-opacity:1;stroke-miterlimit:10;" d="M 596.28125 497 C 596.28125 551.832031 551.832031 596.28125 497 596.28125 C 442.167969 596.28125 397.71875 551.832031 397.71875 497 C 397.71875 442.167969 442.167969 397.71875 497 397.71875 C 551.832031 397.71875 596.28125 442.167969 596.28125 497 "/>
<path style="fill:none;stroke-width:13;stroke-linecap:butt;stroke-linejoin:miter;stroke:rgb(38.431373%,36.470588%,16.470588%);stroke-opacity:1;stroke-miterlimit:10;" d="M 619.117188 497 C 619.117188 564.445313 564.445313 619.117188 497 619.117188 C 429.554688 619.117188 374.882813 564.445313 374.882813 497 C 374.882813 429.554688 429.554688 374.882813 497 374.882813 C 564.445313 374.882813 619.117188 429.554688 619.117188 497 "/>
<path style="fill:none;stroke-width:13;stroke-linecap:butt;stroke-linejoin:miter;stroke:rgb(25.490196%,25.098039%,10.196078%);stroke-opacity:1;stroke-miterlimit:10;" d="M 640.601563 497 C 640.601563 576.308594 576.308594 640.601563 497 640.601563 C 417.691406 640.601563 353.398438 576.308594 353.398438 497 C 353.398438 417.691406 417.691406 353.398438 497 353.398438 C 576.308594 353.398438 640.601563 417.691406 640.601563 497 "/>
<path style="fill:none;stroke-width:13;stroke-linecap:butt;stroke-linejoin:miter;stroke:rgb(38.431373%,36.470588%,16.470588%);stroke-opacity:1;stroke-miterlimit:10;" d="M 665.226563 497 C 665.226563 589.910156 589.910156 665.226563 497 665.226563 C 404.089844 665.226563 328.773438 589.910156 328.773438 497 C 328.773438 404.089844 404.089844 328.773438 497 328.773438 C 589.910156 328.773438 665.226563 404.089844 665.226563 497 "/>
<path style="fill:none;stroke-width:13;stroke-linecap:butt;stroke-linejoin:miter;stroke:rgb(25.490196%,25.098039%,10.196078%);stroke-opacity:1;stroke-miterlimit:10;" d="M 691.054688 497 C 691.054688 604.171875 604.171875 691.054688 497 691.054688 C 389.828125 691.054688 302.945313 604.171875 302.945313 497 C 302.945313 389.828125 389.828125 302.945313 497 302.945313 C 604.171875 302.945313 691.054688 389.828125 691.054688 497 "/>
<path style="fill:none;stroke-width:13;stroke-linecap:butt;stroke-linejoin:miter;stroke:rgb(85.882353%,87.45098%,89.411765%);stroke-opacity:1;stroke-miterlimit:10;" d="M 716.046875 497 C 716.046875 617.976563 617.976563 716.046875 497 716.046875 C 376.023438 716.046875 277.953125 617.976563 277.953125 497 C 277.953125 376.023438 376.023438 277.953125 497 277.953125 C 617.976563 277.953125 716.046875 376.023438 716.046875 497 "/>
<path style="fill:none;stroke-width:13;stroke-linecap:butt;stroke-linejoin:miter;stroke:rgb(25.490196%,25.098039%,10.196078%);stroke-opacity:1;stroke-miterlimit:10;" d="M 742.3125 497 C 742.3125 632.484375 632.484375 742.3125 497 742.3125 C 361.515625 742.3125 251.6875 632.484375 251.6875 497 C 251.6875 361.515625 361.515625 251.6875 497 251.6875 C 632.484375 251.6875 742.3125 361.515625 742.3125 497 "/>
<path style="fill:none;stroke-width:13;stroke-linecap:butt;stroke-linejoin:miter;stroke:rgb(25.490196%,25.098039%,10.196078%);stroke-opacity:1;stroke-miterlimit:10;" d="M 769.625 497 C 769.625 647.566406 647.566406 769.625 497 769.625 C 346.433594 769.625 224.375 647.566406 224.375 497 C 224.375 346.433594 346.433594 224.375 497 224.375 C 647.566406 224.375 769.625 346.433594 769.625 497 "/>
<path style="fill:none;stroke-width:13;stroke-linecap:butt;stroke-linejoin:miter;stroke:rgb(85.882353%,87.45098%,89.411765%);stroke-opacity:1;stroke-miterlimit:10;" d="M 794.625 497 C 794.625 661.375 661.375 794.625 497 794.625 C 332.625 794.625 199.375 661.375 199.375 497 C 199.375 332.625 332.625 199.375 497 199.375 C 661.375 199.375 794.625 332.625 794.625 497 "/>
<path style="fill:none;stroke-width:13;stroke-linecap:butt;stroke-linejoin:miter;stroke:rgb(25.490196%,25.098039%,10.196078%);stroke-opacity:1;stroke-miterlimit:10;" d="M 826.527344 497 C 826.527344 678.992188 678.992188 826.527344 497 826.527344 C 315.007813 826.527344 167.472656 678.992188 167.472656 497 C 167.472656 315.007813 315.007813 167.472656 497 167.472656 C 678.992188 167.472656 826.527344 315.007813 826.527344 497 "/>
<path style="fill:none;stroke-width:13;stroke-linecap:butt;stroke-linejoin:miter;stroke:rgb(38.431373%,36.470588%,16.470588%);stroke-opacity:1;stroke-miterlimit:10;" d="M 859.527344 497 C 859.527344 697.21875 697.21875 859.527344 497 859.527344 C 296.78125 859.527344 134.472656 697.21875 134.472656 497 C 134.472656 296.78125 296.78125 134.472656 497 134.472656 C 697.21875 134.472656 859.527344 296.78125 859.527344 497 "/>
<path style="fill:none;stroke-width:13;stroke-linecap:butt;stroke-linejoin:miter;stroke:rgb(56.470588%,50.588235%,18.039216%);stroke-opacity:1;stroke-miterlimit:10;" d="M 892.605469 497 C 892.605469 638.335938 817.203125 768.9375 694.804688 839.605469 C 572.402344 910.273438 421.597656 910.273438 299.195313 839.605469 C 176.796875 768.9375 101.394531 638.335938 101.394531 497 C 101.394531 355.664063 176.796875 225.0625 299.195313 154.394531 C 421.597656 83.726563 572.402344 83.726563 694.804688 154.394531 C 817.203125 225.0625 892.605469 355.664063 892.605469 497 "/>
<path style="fill:none;stroke-width:13;stroke-linecap:butt;stroke-linejoin:miter;stroke:rgb(53.72549%,49.411765%,38.823529%);stroke-opacity:1;stroke-miterlimit:10;" d="M 929.582031 497 C 929.582031 651.546875 847.132813 794.351563 713.289063 871.625 C 579.449219 948.898438 414.550781 948.898438 280.710938 871.625 C 146.867188 794.351563 64.417969 651.546875 64.417969 497 C 64.417969 342.453125 146.867188 199.648438 280.710938 122.375 C 414.550781 45.101563 579.449219 45.101563 713.289063 122.375 C 847.132813 199.648438 929.582031 342.453125 929.582031 497 "/>
<path style="fill:none;stroke-width:13;stroke-linecap:butt;stroke-linejoin:miter;stroke:rgb(53.72549%,49.411765%,38.823529%);stroke-opacity:1;stroke-miterlimit:10;" d="M 971.621094 497 C 971.621094 666.566406 881.15625 823.25 734.308594 908.03125 C 587.460938 992.816406 406.539063 992.816406 259.691406 908.03125 C 112.84375 823.25 22.378906 666.566406 22.378906 497 C 22.378906 327.433594 112.84375 170.75 259.691406 85.96875 C 406.539063 1.183594 587.460938 1.183594 734.308594 85.96875 C 881.15625 170.75 971.621094 327.433594 971.621094 497 "/>
</g>
</svg>
