<?xml version="1.0" encoding="UTF-8"?>
<svg xmlns="http://www.w3.org/2000/svg" xmlns:xlink="http://www.w3.org/1999/xlink" width="995pt" height="995pt" viewBox="0 0 995 995" version="1.1">
<g id="surface1">
<rect x="0" y="0" width="995" height="995" style="fill:rgb(94.117647%,94.117647%,94.117647%);fill-opacity:1;stroke:none;"/>
<path style="fill:none;stroke-width:13;stroke-linecap:butt;stroke-linejoin:miter;stroke:rgb(69.411765%,59.215686%,79.607843%);stroke-opacity:1;stroke-miterlimit:10;" d="M 518.519531 497 C 518.519531 508.886719 508.886719 518.519531 497 518.519531 C 485.113281 518.519531 475.480469 508.886719 475.480469 497 C 475.480469 485.113281 485.113281 475.480469 497 475.480469 C 508.886719 475.480469 518.519531 485.113281 518.519531 497 "/>
<path style="fill:none;stroke-width:13;stroke-linecap:butt;stroke-linejoin:miter;stroke:rgb(48.627451%,45.490196%,71.764706%);stroke-opacity:1;stroke-miterlimit:10;" d="M 544.65625 497 C 544.65625 523.320313 523.320313 544.65625 497 544.65625 C 470.679688 544.65625 449.34375 523.320313 449.34375 497 C 449.34375 470.679688 470.679688 449.34375 497 449.34375 C 523.320313 449.34375 544.65625 470.679688 544.65625 497 "/>
<path style="fill:none;stroke-width:13;stroke-linecap:butt;stroke-linejoin:miter;stroke:rgb(69.411765%,59.215686%,79.607843%);stroke-opacity:1;stroke-miterlimit:10;" d="M 570.140625 497 C 570.140625 537.394531 537.394531 570.140625 497 570.140625 C 456.605469 570.140625 423.859375 537.394531 423.859375 497 C 423.859375 456.605469 456.605469 423.859375 497 423.859375 C 537.394531 423.859375 570.140625 456.605469 570.140625 497 "/>
<path style="fill:none;stroke-width:13;stroke-linecap:butt;stroke-linejoin:miter;stroke:rgb(85.098039%,66.666667%,75.686275%);stroke-opacity:1;stroke-miterlimit:10;" d="M 600.636719 497 C 600.636719 554.238281 554.238281 600.636719 497 600.636719 C 439.761719 600.636719 393.363281 554.238281 393.363281 497 C 393.363281 439.761719 439.761719 393.363281 497 393.363281 C 554.238281 393.363281 600.636719 439.761719 600.636719 497 "/>
<path style="fill:none;stroke-width:13;stroke-linecap:butt;stroke-linejoin:miter;stroke:rgb(93.72549%,68.235294%,61.960784%);stroke-opacity:1;stroke-miterlimit:10;" d="M 621.996094 497 C 621.996094 566.035156 566.035156 621.996094 497 621.996094 C 427.964844 621.996094 372.003906 566.035156 372.003906 497 C 372.003906 427.964844 427.964844 372.003906 497 372.003906 C 566.035156 372.003906 621.996094 427.964844 621.996094 497 "/>
<path style="fill:none;stroke-width:13;stroke-linecap:butt;stroke-linejoin:miter;stroke:rgb(69.411765%,59.215686%,79.607843%);stroke-opacity:1;stroke-miterlimit:10;" d="M 651.203125 497 C 651.203125 582.164063 582.164063 651.203125 497 651.203125 C 411.835938 651.203125 342.796875 582.164063 342.796875 497 C 342.796875 411.835938 411.835938 342.796875 497 342.796875 C 582.164063 342.796875 651.203125 411.835938 651.203125 497 "/>
<path style="fill:none;stroke-width:13;stroke-linecap:butt;stroke-linejoin:miter;stroke:rgb(57.647059%,52.156863%,76.078431%);stroke-opacity:1;stroke-miterlimit:10;" d="M 669.628906 497 C 669.628906 592.339844 592.339844 669.628906 497 669.628906 C 401.660156 669.628906 324.371094 592.339844 324.371094 497 C 324.371094 401.660156 401.660156 324.371094 497 324.371094 C 592.339844 324.371094 669.628906 401.660156 669.628906 497 "/>
<path style="fill:none;stroke-width:13;stroke-linecap:butt;stroke-linejoin:miter;stroke:rgb(69.411765%,59.215686%,79.607843%);stroke-opacity:1;stroke-miterlimit:10;" d="M 694.636719 497 C 694.636719 606.152344 606.152344 694.636719 497 694.636719 C 387.847656 694.636719 299.363281 606.152344 299.363281 497 C 299.363281 387.847656 387.847656 299.363281 497 299.363281 C 606.152344 299.363281 694.636719 387.847656 694.636719 497 "/>
<path style="fill:none;stroke-width:13;stroke-linecap:butt;stroke-linejoin:miter;stroke:rgb(69.411765%,59.215686%,79.607843%);stroke-opacity:1;stroke-miterlimit:10;" d="M 725.832031 497 C 725.832031 623.382813 623.382813 725.832031 497 725.832031 C 370.617188 725.832031 268.167969 623.382813 268.167969 497 C 268.167969 370.617188 370.617188 268.167969 497 268.167969 C 623.382813 268.167969 725.832031 370.617188 725.832031 497 "/>
<path style="fill:none;stroke-width:13;stroke-linecap:butt;stroke-linejoin:miter;stroke:rgb(48.627451%,45.490196%,71.764706%);stroke-opacity:1;stroke-miterlimit:10;" d="M 761.425781 497 C 761.425781 643.039063 643.039063 761.425781 497 761.425781 C 350.960938 761.425781 232.574219 643.039063 232.574219 497 C 232.574219 350.960938 350.960938 232.574219 497 232.574219 C 643.039063 232.574219 761.425781 350.960938 761.425781 497 "/>
<path style="fill:none;stroke-width:13;stroke-linecap:butt;stroke-linejoin:miter;stroke:rgb(48.627451%,45.490196%,71.764706%);stroke-opacity:1;stroke-miterlimit:10;" d="M 789.859375 497 C 789.859375 658.742188 658.742188 789.859375 497 789.859375 C 335.257813 789.859375 204.140625 658.742188 204.140625 497 C 204.140625 335.257813 335.257813 204.140625 497 204.140625 C 658.742188 204.140625 789.859375 335.257813 789.859375 497 "/>
<path style="fill:none;stroke-width:13;stroke-linecap:butt;stroke-linejoin:miter;stroke:rgb(69.411765%,59.215686%,79.607843%);stroke-opacity:1;stroke-miterlimit:10;" d="M 804.246094 497 C 804.246094 666.6875 666.6875 804.246094 497 804.246094 C 327.3125 804.246094 189.753906 666.6875 189.753906 497 C 189.753906 327.3125 327.3125 189.753906 497 189.753906 C 666.6875 189.753906 804.246094 327.3125 804.246094 497 "/>
<path style="fill:none;stroke-width:13;stroke-linecap:butt;stroke-linejoin:miter;stroke:rgb(69.411765%,59.215686%,79.607843%);stroke-opacity:1;stroke-miterlimit:10;" d="M 835.808594 497 C 835.808594 684.117188 684.117188 835.808594 497 835.808594 C 309.882813 835.808594 158.191406 684.117188 158.191406 497 C 158.191406 309.882813 309.882813 158.191406 497 158.191406 C 684.117188 158.191406 835.808594 309.882813 835.808594 497 "/>
<path style="fill:none;stroke-width:13;stroke-linecap:butt;stroke-linejoin:miter;stroke:rgb(85.098039%,66.666667%,75.686275%);stroke-opacity:1;stroke-miterlimit:10;" d="M 873.183594 497 C 873.183594 631.398438 801.484375 755.585938 685.089844 822.785156 C 568.699219 889.984375 425.300781 889.984375 308.910156 822.785156 C 192.515625 755.585938 120.816406 631.398438 120.816406 497 C 120.816406 362.601563 192.515625 238.414063 308.910156 171.214844 C 425.300781 104.015625 568.699219 104.015625 685.089844 171.214844 C 801.484375 238.414063 873.183594 362.601563 873.183594 497 "/>
<path style="fill:none;stroke-width:13;stroke-linecap:butt;stroke-linejoin:miter;stroke:rgb(93.72549%,68.235294%,61.960784%);stroke-opacity:1;stroke-miterlimit:10;" d="M 905.820313 497 C 905.820313 643.058594 827.898438 778.019531 701.410156 851.046875 C 574.921875 924.074219 419.078125 924.074219 292.589844 851.046875 C 166.101563 778.019531 88.179688 643.058594 88.179688 497 C 88.179688 350.941406 166.101563 215.980469 292.589844 142.953125 C 419.078125 69.925781 574.921875 69.925781 701.410156 142.953125 C 827.898438 215.980469 905.820313 350.941406 905.820313 497 "/>
<path style="fill:none;stroke-width:13;stroke-linecap:butt;stroke-linejoin:miter;stroke:rgb(69.411765%,59.215686%,79.607843%);stroke-opacity:1;stroke-miterlimit:10;" d="M 926.953125 497 C 926.953125 650.609375 845.003906 792.546875 711.976563 869.351563 C 578.949219 946.15625 415.050781 946.15625 282.023438 869.351563 C 148.996094 792.546875 67.046875 650.609375 67.046875 497 C 67.046875 343.390625 148.996094 201.453125 282.023438 124.648438 C 415.050781 47.84375 578.949219 47.84375 711.976563 124.648438 C 845.003906 201.453125 926.953125 343.390625 926.953125 497 "/>
<path style="fill:none;stroke-width:13;stroke-linecap:butt;stroke-linejoin:miter;stroke:rgb(48.627451%,45.490196%,71.764706%);stroke-opacity:1;stroke-miterlimit:10;" d="M 969.871094 497 C 969.871094 665.941406 879.742188 822.046875 733.4375 906.519531 C 587.128906 990.988281 406.871094 990.988281 260.5625 906.519531 C 114.257813 822.046875 24.128906 665.941406 24.128906 497 C 24.128906 328.058594 114.257813 171.953125 260.5625 87.480469 C 406.871094 3.011719 587.128906 3.011719 733.4375 87.480469 C 879.742188 171.953125 969.871094 328.058594 969.871094 497 "/>
</g>
</svg>
