<?xml version="1.0" encoding="UTF-8"?>
<svg xmlns="http://www.w3.org/2000/svg" xmlns:xlink="http://www.w3.org/1999/xlink" width="995pt" height="995pt" viewBox="0 0 995 995" version="1.1">
<g id="surface1">
<rect x="0" y="0" width="995" height="995" style="fill:rgb(94.117647%,94.117647%,94.117647%);fill-opacity:1;stroke:none;"/>
<path style="fill:none;stroke-width:20;stroke-linecap:butt;stroke-linejoin:miter;stroke:rgb(80%,74.509804%,62.745098%);stroke-opacity:1;stroke-miterlimit:10;" d="M 518.503906 497 C 518.503906 508.878906 508.878906 518.503906 497 518.503906 C 485.121094 518.503906 475.496094 508.878906 475.496094 497 C 475.496094 485.121094 485.121094 475.496094 497 475.496094 C 508.878906 475.496094 518.503906 485.121094 518.503906 497 "/>
<path style="fill:none;stroke-width:14.818392;stroke-linecap:butt;stroke-linejoin:miter;stroke:rgb(63.921569%,59.215686%,52.156863%);stroke-opacity:1;stroke-miterlimit:10;" d="M 553.503906 497 C 553.503906 528.207031 528.207031 553.503906 497 553.503906 C 465.792969 553.503906 440.496094 528.207031 440.496094 497 C 440.496094 465.792969 465.792969 440.496094 497 440.496094 C 528.207031 440.496094 553.503906 465.792969 553.503906 497 "/>
<path style="fill:none;stroke-width:26.105907;stroke-linecap:butt;stroke-linejoin:miter;stroke:rgb(55.294118%,49.019608%,41.960784%);stroke-opacity:1;stroke-miterlimit:10;" d="M 588.503906 497 C 588.503906 547.535156 547.535156 588.503906 497 588.503906 C 446.464844 588.503906 405.496094 547.535156 405.496094 497 C 405.496094 446.464844 446.464844 405.496094 497 405.496094 C 547.535156 405.496094 588.503906 446.464844 588.503906 497 "/>
<path style="fill:none;stroke-width:21.843284;stroke-linecap:butt;stroke-linejoin:miter;stroke:rgb(63.921569%,59.215686%,52.156863%);stroke-opacity:1;stroke-miterlimit:10;" d="M 623.503906 497 C 623.503906 566.867188 566.867188 623.503906 497 623.503906 C 427.132813 623.503906 370.496094 566.867188 370.496094 497 C 370.496094 427.132813 427.132813 370.496094 497 370.496094 C 566.867188 370.496094 623.503906 427.132813 623.503906 497 "/>
<path style="fill:none;stroke-width:23.881899;stroke-linecap:butt;stroke-linejoin:miter;stroke:rgb(43.137255%,38.431373%,32.941176%);stroke-opacity:1;stroke-miterlimit:10;" d="M 658.503906 497 C 658.503906 586.195313 586.195313 658.503906 497 658.503906 C 407.804688 658.503906 335.496094 586.195313 335.496094 497 C 335.496094 407.804688 407.804688 335.496094 497 335.496094 C 586.195313 335.496094 658.503906 407.804688 658.503906 497 "/>
<path style="fill:none;stroke-width:25.906903;stroke-linecap:butt;stroke-linejoin:miter;stroke:rgb(29.411765%,25.882353%,22.352941%);stroke-opacity:1;stroke-miterlimit:10;" d="M 693.503906 497 C 693.503906 605.527344 605.527344 693.503906 497 693.503906 C 388.472656 693.503906 300.496094 605.527344 300.496094 497 C 300.496094 388.472656 388.472656 300.496094 497 300.496094 C 605.527344 300.496094 693.503906 388.472656 693.503906 497 "/>
<path style="fill:none;stroke-width:23.779793;stroke-linecap:butt;stroke-linejoin:miter;stroke:rgb(43.137255%,38.431373%,32.941176%);stroke-opacity:1;stroke-miterlimit:10;" d="M 728.503906 497 C 728.503906 624.855469 624.855469 728.503906 497 728.503906 C 369.144531 728.503906 265.496094 624.855469 265.496094 497 C 265.496094 369.144531 369.144531 265.496094 497 265.496094 C 624.855469 265.496094 728.503906 369.144531 728.503906 497 "/>
<path style="fill:none;stroke-width:18.959062;stroke-linecap:butt;stroke-linejoin:miter;stroke:rgb(63.921569%,59.215686%,52.156863%);stroke-opacity:1;stroke-miterlimit:10;" d="M 763.503906 497 C 763.503906 644.1875 644.1875 763.503906 497 763.503906 C 349.8125 763.503906 230.496094 644.1875 230.496094 497 C 230.496094 349.8125 349.8125 230.496094 497 230.496094 C 644.1875 230.496094 763.503906 349.8125 763.503906 497 "/>
<path style="fill:none;stroke-width:27.566037;stroke-linecap:butt;stroke-linejoin:miter;stroke:rgb(80%,74.509804%,62.745098%);stroke-opacity:1;stroke-miterlimit:10;" d="M 798.503906 497 C 798.503906 663.515625 663.515625 798.503906 497 798.503906 C 330.484375 798.503906 195.496094 663.515625 195.496094 497 C 195.496094 330.484375 330.484375 195.496094 497 195.496094 C 663.515625 195.496094 798.503906 330.484375 798.503906 497 "/>
<path style="fill:none;stroke-width:26.72284;stroke-linecap:butt;stroke-linejoin:miter;stroke:rgb(55.294118%,49.019608%,41.960784%);stroke-opacity:1;stroke-miterlimit:10;" d="M 833.503906 497 C 833.503906 682.847656 682.847656 833.503906 497 833.503906 C 311.152344 833.503906 160.496094 682.847656 160.496094 497 C 160.496094 311.152344 311.152344 160.496094 497 160.496094 C 682.847656 160.496094 833.503906 311.152344 833.503906 497 "/>
<path style="fill:none;stroke-width:33.715658;stroke-linecap:butt;stroke-linejoin:miter;stroke:rgb(55.294118%,49.019608%,41.960784%);stroke-opacity:1;stroke-miterlimit:10;" d="M 868.503906 497 C 868.503906 629.726563 797.695313 752.371094 682.753906 818.734375 C 567.808594 885.097656 426.191406 885.097656 311.246094 818.734375 C 196.304688 752.371094 125.496094 629.726563 125.496094 497 C 125.496094 364.273438 196.304688 241.628906 311.246094 175.265625 C 426.191406 108.902344 567.808594 108.902344 682.753906 175.265625 C 797.695313 241.628906 868.503906 364.273438 868.503906 497 "/>
</g>
</svg>
