<?xml version="1.0" encoding="UTF-8"?>
<svg xmlns="http://www.w3.org/2000/svg" xmlns:xlink="http://www.w3.org/1999/xlink" width="995pt" height="995pt" viewBox="0 0 995 995" version="1.1">
<g id="surface1">
<rect x="0" y="0" width="995" height="995" style="fill:rgb(94.117647%,94.117647%,94.117647%);fill-opacity:1;stroke:none;"/>
<path style="fill:none;stroke-width:20;stroke-linecap:butt;stroke-linejoin:miter;stroke:rgb(59.215686%,59.607843%,70.980392%);stroke-opacity:1;stroke-miterlimit:10;" d="M 517.914063 497 C 517.914063 508.550781 508.550781 517.914063 497 517.914063 C 485.449219 517.914063 476.085938 508.550781 476.085938 497 C 476.085938 485.449219 485.449219 476.085938 497 476.085938 C 508.550781 476.085938 517.914063 485.449219 517.914063 497 "/>
<path style="fill:none;stroke-width:15.00895;stroke-linecap:butt;stroke-linejoin:miter;stroke:rgb(59.215686%,59.607843%,70.980392%);stroke-opacity:1;stroke-miterlimit:10;" d="M 552.914063 497 C 552.914063 527.878906 527.878906 552.914063 497 552.914063 C 466.121094 552.914063 441.085938 527.878906 441.085938 497 C 441.085938 466.121094 466.121094 441.085938 497 441.085938 C 527.878906 441.085938 552.914063 466.121094 552.914063 497 "/>
<path style="fill:none;stroke-width:16.043598;stroke-linecap:butt;stroke-linejoin:miter;stroke:rgb(76.078431%,73.72549%,89.411765%);stroke-opacity:1;stroke-miterlimit:10;" d="M 587.914063 497 C 587.914063 547.210938 547.210938 587.914063 497 587.914063 C 446.789063 587.914063 406.085938 547.210938 406.085938 497 C 406.085938 446.789063 446.789063 406.085938 497 406.085938 C 547.210938 406.085938 587.914063 446.789063 587.914063 497 "/>
<path style="fill:none;stroke-width:11.542613;stroke-linecap:butt;stroke-linejoin:miter;stroke:rgb(67.058824%,65.098039%,80%);stroke-opacity:1;stroke-miterlimit:10;" d="M 622.914063 497 C 622.914063 566.539063 566.539063 622.914063 497 622.914063 C 427.460938 622.914063 371.085938 566.539063 371.085938 497 C 371.085938 427.460938 427.460938 371.085938 497 371.085938 C 566.539063 371.085938 622.914063 427.460938 622.914063 497 "/>
<path style="fill:none;stroke-width:12.204091;stroke-linecap:butt;stroke-linejoin:miter;stroke:rgb(76.078431%,73.72549%,89.411765%);stroke-opacity:1;stroke-miterlimit:10;" d="M 657.914063 497 C 657.914063 585.871094 585.871094 657.914063 497 657.914063 C 408.128906 657.914063 336.085938 585.871094 336.085938 497 C 336.085938 408.128906 408.128906 336.085938 497 336.085938 C 585.871094 336.085938 657.914063 408.128906 657.914063 497 "/>
<path style="fill:none;stroke-width:11.618918;stroke-linecap:butt;stroke-linejoin:miter;stroke:rgb(76.078431%,73.72549%,89.411765%);stroke-opacity:1;stroke-miterlimit:10;" d="M 692.914063 497 C 692.914063 605.199219 605.199219 692.914063 497 692.914063 C 388.800781 692.914063 301.085938 605.199219 301.085938 497 C 301.085938 388.800781 388.800781 301.085938 497 301.085938 C 605.199219 301.085938 692.914063 388.800781 692.914063 497 "/>
<path style="fill:none;stroke-width:11.418749;stroke-linecap:butt;stroke-linejoin:miter;stroke:rgb(68.235294%,69.803922%,94.509804%);stroke-opacity:1;stroke-miterlimit:10;" d="M 727.914063 497 C 727.914063 624.53125 624.53125 727.914063 497 727.914063 C 369.46875 727.914063 266.085938 624.53125 266.085938 497 C 266.085938 369.46875 369.46875 266.085938 497 266.085938 C 624.53125 266.085938 727.914063 369.46875 727.914063 497 "/>
<path style="fill:none;stroke-width:15.785023;stroke-linecap:butt;stroke-linejoin:miter;stroke:rgb(68.235294%,69.803922%,94.509804%);stroke-opacity:1;stroke-miterlimit:10;" d="M 762.914063 497 C 762.914063 643.859375 643.859375 762.914063 497 762.914063 C 350.140625 762.914063 231.085938 643.859375 231.085938 497 C 231.085938 350.140625 350.140625 231.085938 497 231.085938 C 643.859375 231.085938 762.914063 350.140625 762.914063 497 "/>
<path style="fill:none;stroke-width:12.295079;stroke-linecap:butt;stroke-linejoin:miter;stroke:rgb(59.215686%,59.607843%,70.980392%);stroke-opacity:1;stroke-miterlimit:10;" d="M 797.914063 497 C 797.914063 663.191406 663.191406 797.914063 497 797.914063 C 330.808594 797.914063 196.085938 663.191406 196.085938 497 C 196.085938 330.808594 330.808594 196.085938 497 196.085938 C 663.191406 196.085938 797.914063 330.808594 797.914063 497 "/>
<path style="fill:none;stroke-width:13.906917;stroke-linecap:butt;stroke-linejoin:miter;stroke:rgb(76.078431%,73.72549%,89.411765%);stroke-opacity:1;stroke-miterlimit:10;" d="M 832.914063 497 C 832.914063 682.519531 682.519531 832.914063 497 832.914063 C 311.480469 832.914063 161.085938 682.519531 161.085938 497 C 161.085938 311.480469 311.480469 161.085938 497 161.085938 C 682.519531 161.085938 832.914063 311.480469 832.914063 497 "/>
<path style="fill:none;stroke-width:22.219994;stroke-linecap:butt;stroke-linejoin:miter;stroke:rgb(67.058824%,65.098039%,80%);stroke-opacity:1;stroke-miterlimit:10;" d="M 867.914063 497 C 867.914063 629.515625 797.21875 751.964844 682.457031 818.222656 C 567.695313 884.480469 426.304688 884.480469 311.542969 818.222656 C 196.78125 751.964844 126.085938 629.515625 126.085938 497 C 126.085938 364.484375 196.78125 242.035156 311.542969 175.777344 C 426.304688 109.519531 567.695313 109.519531 682.457031 175.777344 C 797.21875 242.035156 867.914063 364.484375 867.914063 497 "/>
</g>
</svg>
