<?xml version="1.0" encoding="UTF-8"?>
<svg xmlns="http://www.w3.org/2000/svg" xmlns:xlink="http://www.w3.org/1999/xlink" width="995pt" height="995pt" viewBox="0 0 995 995" version="1.1">
<g id="surface1">
<rect x="0" y="0" width="995" height="995" style="fill:rgb(94.117647%,94.117647%,94.117647%);fill-opacity:1;stroke:none;"/>
<path style="fill:none;stroke-width:13;stroke-linecap:butt;stroke-linejoin:miter;stroke:rgb(68.235294%,69.803922%,94.509804%);stroke-opacity:1;stroke-miterlimit:10;" d="M 516.566406 497 C 516.566406 507.804688 507.804688 516.566406 497 516.566406 C 486.195313 516.566406 477.433594 507.804688 477.433594 497 C 477.433594 486.195313 486.195313 477.433594 497 477.433594 C 507.804688 477.433594 516.566406 486.195313 516.566406 497 "/>
<path style="fill:none;stroke-width:13;stroke-linecap:butt;stroke-linejoin:miter;stroke:rgb(59.215686%,59.607843%,70.980392%);stroke-opacity:1;stroke-miterlimit:10;" d="M 541.265625 497 C 541.265625 521.449219 521.449219 541.265625 497 541.265625 C 472.550781 541.265625 452.734375 521.449219 452.734375 497 C 452.734375 472.550781 472.550781 452.734375 497 452.734375 C 521.449219 452.734375 541.265625 472.550781 541.265625 497 "/>
<path style="fill:none;stroke-width:13;stroke-linecap:butt;stroke-linejoin:miter;stroke:rgb(27.058824%,23.529412%,33.333333%);stroke-opacity:1;stroke-miterlimit:10;" d="M 568.714844 497 C 568.714844 536.605469 536.605469 568.714844 497 568.714844 C 457.394531 568.714844 425.285156 536.605469 425.285156 497 C 425.285156 457.394531 457.394531 425.285156 497 425.285156 C 536.605469 425.285156 568.714844 457.394531 568.714844 497 "/>
<path style="fill:none;stroke-width:13;stroke-linecap:butt;stroke-linejoin:miter;stroke:rgb(76.078431%,73.72549%,89.411765%);stroke-opacity:1;stroke-miterlimit:10;" d="M 595.878906 497 C 595.878906 551.609375 551.609375 595.878906 497 595.878906 C 442.390625 595.878906 398.121094 551.609375 398.121094 497 C 398.121094 442.390625 442.390625 398.121094 497 398.121094 C 551.609375 398.121094 595.878906 442.390625 595.878906 497 "/>
<path style="fill:none;stroke-width:13;stroke-linecap:butt;stroke-linejoin:miter;stroke:rgb(59.215686%,59.607843%,70.980392%);stroke-opacity:1;stroke-miterlimit:10;" d="M 624.902344 497 C 624.902344 567.636719 567.636719 624.902344 497 624.902344 C 426.363281 624.902344 369.097656 567.636719 369.097656 497 C 369.097656 426.363281 426.363281 369.097656 497 369.097656 C 567.636719 369.097656 624.902344 426.363281 624.902344 497 "/>
<path style="fill:none;stroke-width:13;stroke-linecap:butt;stroke-linejoin:miter;stroke:rgb(59.215686%,59.607843%,70.980392%);stroke-opacity:1;stroke-miterlimit:10;" d="M 654.199219 497 C 654.199219 583.816406 583.816406 654.199219 497 654.199219 C 410.183594 654.199219 339.800781 583.816406 339.800781 497 C 339.800781 410.183594 410.183594 339.800781 497 339.800781 C 583.816406 339.800781 654.199219 410.183594 654.199219 497 "/>
<path style="fill:none;stroke-width:13;stroke-linecap:butt;stroke-linejoin:miter;stroke:rgb(67.058824%,65.098039%,80%);stroke-opacity:1;stroke-miterlimit:10;" d="M 673.195313 497 C 673.195313 594.308594 594.308594 673.195313 497 673.195313 C 399.691406 673.195313 320.804688 594.308594 320.804688 497 C 320.804688 399.691406 399.691406 320.804688 497 320.804688 C 594.308594 320.804688 673.195313 399.691406 673.195313 497 "/>
<path style="fill:none;stroke-width:13;stroke-linecap:butt;stroke-linejoin:miter;stroke:rgb(59.215686%,59.607843%,70.980392%);stroke-opacity:1;stroke-miterlimit:10;" d="M 698.574219 497 C 698.574219 608.324219 608.324219 698.574219 497 698.574219 C 385.675781 698.574219 295.425781 608.324219 295.425781 497 C 295.425781 385.675781 385.675781 295.425781 497 295.425781 C 608.324219 295.425781 698.574219 385.675781 698.574219 497 "/>
<path style="fill:none;stroke-width:13;stroke-linecap:butt;stroke-linejoin:miter;stroke:rgb(67.058824%,65.098039%,80%);stroke-opacity:1;stroke-miterlimit:10;" d="M 737.085938 497 C 737.085938 629.597656 629.597656 737.085938 497 737.085938 C 364.402344 737.085938 256.914063 629.597656 256.914063 497 C 256.914063 364.402344 364.402344 256.914063 497 256.914063 C 629.597656 256.914063 737.085938 364.402344 737.085938 497 "/>
<path style="fill:none;stroke-width:13;stroke-linecap:butt;stroke-linejoin:miter;stroke:rgb(68.235294%,69.803922%,94.509804%);stroke-opacity:1;stroke-miterlimit:10;" d="M 754.28125 497 C 754.28125 639.09375 639.09375 754.28125 497 754.28125 C 354.90625 754.28125 239.71875 639.09375 239.71875 497 C 239.71875 354.90625 354.90625 239.71875 497 239.71875 C 639.09375 239.71875 754.28125 354.90625 754.28125 497 "/>
<path style="fill:none;stroke-width:13;stroke-linecap:butt;stroke-linejoin:miter;stroke:rgb(68.235294%,69.803922%,94.509804%);stroke-opacity:1;stroke-miterlimit:10;" d="M 774.335938 497 C 774.335938 650.167969 650.167969 774.335938 497 774.335938 C 343.832031 774.335938 219.664063 650.167969 219.664063 497 C 219.664063 343.832031 343.832031 219.664063 497 219.664063 C 650.167969 219.664063 774.335938 343.832031 774.335938 497 "/>
<path style="fill:none;stroke-width:13;stroke-linecap:butt;stroke-linejoin:miter;stroke:rgb(68.235294%,69.803922%,94.509804%);stroke-opacity:1;stroke-miterlimit:10;" d="M 795.355469 497 C 795.355469 661.777344 661.777344 795.355469 497 795.355469 C 332.222656 795.355469 198.644531 661.777344 198.644531 497 C 198.644531 332.222656 332.222656 198.644531 497 198.644531 C 661.777344 198.644531 795.355469 332.222656 795.355469 497 "/>
<path style="fill:none;stroke-width:13;stroke-linecap:butt;stroke-linejoin:miter;stroke:rgb(59.215686%,59.607843%,70.980392%);stroke-opacity:1;stroke-miterlimit:10;" d="M 805.058594 497 C 805.058594 667.136719 667.136719 805.058594 497 805.058594 C 326.863281 805.058594 188.941406 667.136719 188.941406 497 C 188.941406 326.863281 326.863281 188.941406 497 188.941406 C 667.136719 188.941406 805.058594 326.863281 805.058594 497 "/>
<path style="fill:none;stroke-width:13;stroke-linecap:butt;stroke-linejoin:miter;stroke:rgb(76.078431%,73.72549%,89.411765%);stroke-opacity:1;stroke-miterlimit:10;" d="M 846.261719 497 C 846.261719 689.890625 689.890625 846.261719 497 846.261719 C 304.109375 846.261719 147.738281 689.890625 147.738281 497 C 147.738281 304.109375 304.109375 147.738281 497 147.738281 C 689.890625 147.738281 846.261719 304.109375 846.261719 497 "/>
<path style="fill:none;stroke-width:13;stroke-linecap:butt;stroke-linejoin:miter;stroke:rgb(76.078431%,73.72549%,89.411765%);stroke-opacity:1;stroke-miterlimit:10;" d="M 872.859375 497 C 872.859375 631.28125 801.222656 755.363281 684.929688 822.503906 C 568.636719 889.644531 425.363281 889.644531 309.070313 822.503906 C 192.777344 755.363281 121.140625 631.28125 121.140625 497 C 121.140625 362.71875 192.777344 238.636719 309.070313 171.496094 C 425.363281 104.355469 568.636719 104.355469 684.929688 171.496094 C 801.222656 238.636719 872.859375 362.71875 872.859375 497 "/>
<path style="fill:none;stroke-width:13;stroke-linecap:butt;stroke-linejoin:miter;stroke:rgb(76.078431%,73.72549%,89.411765%);stroke-opacity:1;stroke-miterlimit:10;" d="M 923.53125 497 C 923.53125 649.386719 842.234375 790.195313 710.265625 866.386719 C 578.296875 942.578125 415.703125 942.578125 283.734375 866.386719 C 151.765625 790.195313 70.46875 649.386719 70.46875 497 C 70.46875 344.613281 151.765625 203.804688 283.734375 127.613281 C 415.703125 51.421875 578.296875 51.421875 710.265625 127.613281 C 842.234375 203.804688 923.53125 344.613281 923.53125 497 "/>
<path style="fill:none;stroke-width:13;stroke-linecap:butt;stroke-linejoin:miter;stroke:rgb(59.215686%,59.607843%,70.980392%);stroke-opacity:1;stroke-miterlimit:10;" d="M 937.472656 497 C 937.472656 654.367188 853.519531 799.777344 717.238281 878.460938 C 580.953125 957.144531 413.046875 957.144531 276.761719 878.460938 C 140.480469 799.777344 56.527344 654.367188 56.527344 497 C 56.527344 339.632813 140.480469 194.222656 276.761719 115.539063 C 413.046875 36.855469 580.953125 36.855469 717.238281 115.539063 C 853.519531 194.222656 937.472656 339.632813 937.472656 497 "/>
<path style="fill:none;stroke-width:13;stroke-linecap:butt;stroke-linejoin:miter;stroke:rgb(67.058824%,65.098039%,80%);stroke-opacity:1;stroke-miterlimit:10;" d="M 955.390625 497 C 955.390625 660.769531 868.023438 812.09375 726.195313 893.980469 C 584.367188 975.863281 409.632813 975.863281 267.804688 893.980469 C 125.976563 812.09375 38.609375 660.769531 38.609375 497 C 38.609375 333.230469 125.976563 181.90625 267.804688 100.019531 C 409.632813 18.136719 584.367188 18.136719 726.195313 100.019531 C 868.023438 181.90625 955.390625 333.230469 955.390625 497 "/>
<path style="fill:none;stroke-width:13;stroke-linecap:butt;stroke-linejoin:miter;stroke:rgb(59.215686%,59.607843%,70.980392%);stroke-opacity:1;stroke-miterlimit:10;" d="M 970.445313 497 C 970.445313 666.144531 880.207031 822.441406 733.722656 907.015625 C 587.238281 991.589844 406.761719 991.589844 260.277344 907.015625 C 113.792969 822.441406 23.554688 666.144531 23.554688 497 C 23.554688 327.855469 113.792969 171.558594 260.277344 86.984375 C 406.761719 2.410156 587.238281 2.410156 733.722656 86.984375 C 880.207031 171.558594 970.445313 327.855469 970.445313 497 "/>
</g>
</svg>
