<?xml version="1.0" encoding="UTF-8"?>
<svg xmlns="http://www.w3.org/2000/svg" xmlns:xlink="http://www.w3.org/1999/xlink" width="995pt" height="995pt" viewBox="0 0 995 995" version="1.1">
<g id="surface1">
<rect x="0" y="0" width="995" height="995" style="fill:rgb(94.117647%,94.117647%,94.117647%);fill-opacity:1;stroke:none;"/>
<path style="fill:none;stroke-width:20;stroke-linecap:butt;stroke-linejoin:miter;stroke:rgb(17.647059%,21.568627%,24.705882%);stroke-opacity:1;stroke-miterlimit:10;" d="M 519.066406 497 C 519.066406 509.1875 509.1875 519.066406 497 519.066406 C 484.8125 519.066406 474.933594 509.1875 474.933594 497 C 474.933594 484.8125 484.8125 474.933594 497 474.933594 C 509.1875 474.933594 519.066406 484.8125 519.066406 497 "/>
<path style="fill:none;stroke-width:18.674732;stroke-linecap:butt;stroke-linejoin:miter;stroke:rgb(17.647059%,21.568627%,24.705882%);stroke-opacity:1;stroke-miterlimit:10;" d="M 553.820313 497 C 553.820313 528.378906 528.378906 553.820313 497 553.820313 C 465.621094 553.820313 440.179688 528.378906 440.179688 497 C 440.179688 465.621094 465.621094 440.179688 497 440.179688 C 528.378906 440.179688 553.820313 465.621094 553.820313 497 "/>
<path style="fill:none;stroke-width:17.98349;stroke-linecap:butt;stroke-linejoin:miter;stroke:rgb(41.176471%,69.803922%,62.745098%);stroke-opacity:1;stroke-miterlimit:10;" d="M 588.328125 497 C 588.328125 547.4375 547.4375 588.328125 497 588.328125 C 446.5625 588.328125 405.671875 547.4375 405.671875 497 C 405.671875 446.5625 446.5625 405.671875 497 405.671875 C 547.4375 405.671875 588.328125 446.5625 588.328125 497 "/>
<path style="fill:none;stroke-width:16.962474;stroke-linecap:butt;stroke-linejoin:miter;stroke:rgb(17.647059%,21.568627%,24.705882%);stroke-opacity:1;stroke-miterlimit:10;" d="M 623.417969 497 C 623.417969 566.820313 566.820313 623.417969 497 623.417969 C 427.179688 623.417969 370.582031 566.820313 370.582031 497 C 370.582031 427.179688 427.179688 370.582031 497 370.582031 C 566.820313 370.582031 623.417969 427.179688 623.417969 497 "/>
<path style="fill:none;stroke-width:15.584321;stroke-linecap:butt;stroke-linejoin:miter;stroke:rgb(17.647059%,21.568627%,24.705882%);stroke-opacity:1;stroke-miterlimit:10;" d="M 658.003906 497 C 658.003906 585.921875 585.921875 658.003906 497 658.003906 C 408.078125 658.003906 335.996094 585.921875 335.996094 497 C 335.996094 408.078125 408.078125 335.996094 497 335.996094 C 585.921875 335.996094 658.003906 408.078125 658.003906 497 "/>
<path style="fill:none;stroke-width:14.844462;stroke-linecap:butt;stroke-linejoin:miter;stroke:rgb(17.647059%,21.568627%,24.705882%);stroke-opacity:1;stroke-miterlimit:10;" d="M 692.902344 497 C 692.902344 605.195313 605.195313 692.902344 497 692.902344 C 388.804688 692.902344 301.097656 605.195313 301.097656 497 C 301.097656 388.804688 388.804688 301.097656 497 301.097656 C 605.195313 301.097656 692.902344 388.804688 692.902344 497 "/>
<path style="fill:none;stroke-width:13.920104;stroke-linecap:butt;stroke-linejoin:miter;stroke:rgb(51.372549%,42.352941%,45.098039%);stroke-opacity:1;stroke-miterlimit:10;" d="M 728.042969 497 C 728.042969 624.601563 624.601563 728.042969 497 728.042969 C 369.398438 728.042969 265.957031 624.601563 265.957031 497 C 265.957031 369.398438 369.398438 265.957031 497 265.957031 C 624.601563 265.957031 728.042969 369.398438 728.042969 497 "/>
<path style="fill:none;stroke-width:12.677205;stroke-linecap:butt;stroke-linejoin:miter;stroke:rgb(17.647059%,21.568627%,24.705882%);stroke-opacity:1;stroke-miterlimit:10;" d="M 762.753906 497 C 762.753906 643.773438 643.773438 762.753906 497 762.753906 C 350.226563 762.753906 231.246094 643.773438 231.246094 497 C 231.246094 350.226563 350.226563 231.246094 497 231.246094 C 643.773438 231.246094 762.753906 350.226563 762.753906 497 "/>
<path style="fill:none;stroke-width:11.844874;stroke-linecap:butt;stroke-linejoin:miter;stroke:rgb(32.941176%,31.764706%,34.901961%);stroke-opacity:1;stroke-miterlimit:10;" d="M 797.699219 497 C 797.699219 663.070313 663.070313 797.699219 497 797.699219 C 330.929688 797.699219 196.300781 663.070313 196.300781 497 C 196.300781 330.929688 330.929688 196.300781 497 196.300781 C 663.070313 196.300781 797.699219 330.929688 797.699219 497 "/>
<path style="fill:none;stroke-width:10.669888;stroke-linecap:butt;stroke-linejoin:miter;stroke:rgb(32.941176%,31.764706%,34.901961%);stroke-opacity:1;stroke-miterlimit:10;" d="M 832.773438 497 C 832.773438 682.441406 682.441406 832.773438 497 832.773438 C 311.558594 832.773438 161.226563 682.441406 161.226563 497 C 161.226563 311.558594 311.558594 161.226563 497 161.226563 C 682.441406 161.226563 832.773438 311.558594 832.773438 497 "/>
<path style="fill:none;stroke-width:9.820504;stroke-linecap:butt;stroke-linejoin:miter;stroke:rgb(32.941176%,31.764706%,34.901961%);stroke-opacity:1;stroke-miterlimit:10;" d="M 867.785156 497 C 867.785156 629.46875 797.113281 751.875 682.390625 818.109375 C 567.671875 884.34375 426.328125 884.34375 311.609375 818.109375 C 196.886719 751.875 126.214844 629.46875 126.214844 497 C 126.214844 364.53125 196.886719 242.125 311.609375 175.890625 C 426.328125 109.65625 567.671875 109.65625 682.390625 175.890625 C 797.113281 242.125 867.785156 364.53125 867.785156 497 "/>
</g>
</svg>
