<?xml version="1.0" encoding="UTF-8"?>
<svg xmlns="http://www.w3.org/2000/svg" xmlns:xlink="http://www.w3.org/1999/xlink" width="995pt" height="995pt" viewBox="0 0 995 995" version="1.1">
<g id="surface1">
<rect x="0" y="0" width="995" height="995" style="fill:rgb(94.117647%,94.117647%,94.117647%);fill-opacity:1;stroke:none;"/>
<path style="fill:none;stroke-width:20;stroke-linecap:butt;stroke-linejoin:miter;stroke:rgb(30.196078%,31.372549%,28.235294%);stroke-opacity:1;stroke-miterlimit:10;" d="M 518.992188 497 C 518.992188 509.144531 509.144531 518.992188 497 518.992188 C 484.855469 518.992188 475.007813 509.144531 475.007813 497 C 475.007813 484.855469 484.855469 475.007813 497 475.007813 C 509.144531 475.007813 518.992188 484.855469 518.992188 497 "/>
<path style="fill:none;stroke-width:19.335506;stroke-linecap:butt;stroke-linejoin:miter;stroke:rgb(17.647059%,21.960784%,20.784314%);stroke-opacity:1;stroke-miterlimit:10;" d="M 553.992188 497 C 553.992188 528.476563 528.476563 553.992188 497 553.992188 C 465.523438 553.992188 440.007813 528.476563 440.007813 497 C 440.007813 465.523438 465.523438 440.007813 497 440.007813 C 528.476563 440.007813 553.992188 465.523438 553.992188 497 "/>
<path style="fill:none;stroke-width:18.108475;stroke-linecap:butt;stroke-linejoin:miter;stroke:rgb(30.196078%,31.372549%,28.235294%);stroke-opacity:1;stroke-miterlimit:10;" d="M 588.992188 497 C 588.992188 547.804688 547.804688 588.992188 497 588.992188 C 446.195313 588.992188 405.007813 547.804688 405.007813 497 C 405.007813 446.195313 446.195313 405.007813 497 405.007813 C 547.804688 405.007813 588.992188 446.195313 588.992188 497 "/>
<path style="fill:none;stroke-width:17.813437;stroke-linecap:butt;stroke-linejoin:miter;stroke:rgb(17.647059%,21.960784%,20.784314%);stroke-opacity:1;stroke-miterlimit:10;" d="M 623.992188 497 C 623.992188 567.136719 567.136719 623.992188 497 623.992188 C 426.863281 623.992188 370.007813 567.136719 370.007813 497 C 370.007813 426.863281 426.863281 370.007813 497 370.007813 C 567.136719 370.007813 623.992188 426.863281 623.992188 497 "/>
<path style="fill:none;stroke-width:16.876031;stroke-linecap:butt;stroke-linejoin:miter;stroke:rgb(30.196078%,31.372549%,28.235294%);stroke-opacity:1;stroke-miterlimit:10;" d="M 658.992188 497 C 658.992188 586.464844 586.464844 658.992188 497 658.992188 C 407.535156 658.992188 335.007813 586.464844 335.007813 497 C 335.007813 407.535156 407.535156 335.007813 497 335.007813 C 586.464844 335.007813 658.992188 407.535156 658.992188 497 "/>
<path style="fill:none;stroke-width:16.204698;stroke-linecap:butt;stroke-linejoin:miter;stroke:rgb(17.647059%,21.960784%,20.784314%);stroke-opacity:1;stroke-miterlimit:10;" d="M 693.992188 497 C 693.992188 605.796875 605.796875 693.992188 497 693.992188 C 388.203125 693.992188 300.007813 605.796875 300.007813 497 C 300.007813 388.203125 388.203125 300.007813 497 300.007813 C 605.796875 300.007813 693.992188 388.203125 693.992188 497 "/>
<path style="fill:none;stroke-width:14.871571;stroke-linecap:butt;stroke-linejoin:miter;stroke:rgb(40.392157%,40.784314%,37.647059%);stroke-opacity:1;stroke-miterlimit:10;" d="M 728.992188 497 C 728.992188 625.125 625.125 728.992188 497 728.992188 C 368.875 728.992188 265.007813 625.125 265.007813 497 C 265.007813 368.875 368.875 265.007813 497 265.007813 C 625.125 265.007813 728.992188 368.875 728.992188 497 "/>
<path style="fill:none;stroke-width:14.13362;stroke-linecap:butt;stroke-linejoin:miter;stroke:rgb(30.196078%,31.372549%,28.235294%);stroke-opacity:1;stroke-miterlimit:10;" d="M 763.992188 497 C 763.992188 644.457031 644.457031 763.992188 497 763.992188 C 349.542969 763.992188 230.007813 644.457031 230.007813 497 C 230.007813 349.542969 349.542969 230.007813 497 230.007813 C 644.457031 230.007813 763.992188 349.542969 763.992188 497 "/>
<path style="fill:none;stroke-width:13.506763;stroke-linecap:butt;stroke-linejoin:miter;stroke:rgb(40.392157%,40.784314%,37.647059%);stroke-opacity:1;stroke-miterlimit:10;" d="M 798.992188 497 C 798.992188 663.785156 663.785156 798.992188 497 798.992188 C 330.214844 798.992188 195.007813 663.785156 195.007813 497 C 195.007813 330.214844 330.214844 195.007813 497 195.007813 C 663.785156 195.007813 798.992188 330.214844 798.992188 497 "/>
<path style="fill:none;stroke-width:12.568628;stroke-linecap:butt;stroke-linejoin:miter;stroke:rgb(40.392157%,40.784314%,37.647059%);stroke-opacity:1;stroke-miterlimit:10;" d="M 833.992188 497 C 833.992188 683.113281 683.113281 833.992188 497 833.992188 C 310.886719 833.992188 160.007813 683.113281 160.007813 497 C 160.007813 310.886719 310.886719 160.007813 497 160.007813 C 683.113281 160.007813 833.992188 310.886719 833.992188 497 "/>
<path style="fill:none;stroke-width:11.507546;stroke-linecap:butt;stroke-linejoin:miter;stroke:rgb(30.196078%,31.372549%,28.235294%);stroke-opacity:1;stroke-miterlimit:10;" d="M 868.992188 497 C 868.992188 629.898438 798.089844 752.703125 682.996094 819.152344 C 567.902344 885.601563 426.097656 885.601563 311.003906 819.152344 C 195.910156 752.703125 125.007813 629.898438 125.007813 497 C 125.007813 364.101563 195.910156 241.296875 311.003906 174.847656 C 426.097656 108.398438 567.902344 108.398438 682.996094 174.847656 C 798.089844 241.296875 868.992188 364.101563 868.992188 497 "/>
</g>
</svg>
