<?xml version="1.0" encoding="UTF-8"?>
<svg xmlns="http://www.w3.org/2000/svg" xmlns:xlink="http://www.w3.org/1999/xlink" width="995pt" height="995pt" viewBox="0 0 995 995" version="1.1">
<g id="surface1">
<rect x="0" y="0" width="995" height="995" style="fill:rgb(94.117647%,94.117647%,94.117647%);fill-opacity:1;stroke:none;"/>
<path style="fill:none;stroke-width:20;stroke-linecap:butt;stroke-linejoin:miter;stroke:rgb(96.470588%,32.54902%,18.823529%);stroke-opacity:1;stroke-miterlimit:10;" d="M 519.632813 497 C 519.632813 509.5 509.5 519.632813 497 519.632813 C 484.5 519.632813 474.367188 509.5 474.367188 497 C 474.367188 484.5 484.5 474.367188 497 474.367188 C 509.5 474.367188 519.632813 484.5 519.632813 497 "/>
<path style="fill:none;stroke-width:27.713206;stroke-linecap:butt;stroke-linejoin:miter;stroke:rgb(98.431373%,39.607843%,26.27451%);stroke-opacity:1;stroke-miterlimit:10;" d="M 556.199219 497 C 556.199219 529.695313 529.695313 556.199219 497 556.199219 C 464.304688 556.199219 437.800781 529.695313 437.800781 497 C 437.800781 464.304688 464.304688 437.800781 497 437.800781 C 529.695313 437.800781 556.199219 464.304688 556.199219 497 "/>
<path style="fill:none;stroke-width:22.292144;stroke-linecap:butt;stroke-linejoin:miter;stroke:rgb(98.431373%,39.607843%,26.27451%);stroke-opacity:1;stroke-miterlimit:10;" d="M 590.914063 497 C 590.914063 548.867188 548.867188 590.914063 497 590.914063 C 445.132813 590.914063 403.085938 548.867188 403.085938 497 C 403.085938 445.132813 445.132813 403.085938 497 403.085938 C 548.867188 403.085938 590.914063 445.132813 590.914063 497 "/>
<path style="fill:none;stroke-width:16.409674;stroke-linecap:butt;stroke-linejoin:miter;stroke:rgb(96.470588%,32.54902%,18.823529%);stroke-opacity:1;stroke-miterlimit:10;" d="M 625.210938 497 C 625.210938 567.808594 567.808594 625.210938 497 625.210938 C 426.191406 625.210938 368.789063 567.808594 368.789063 497 C 368.789063 426.191406 426.191406 368.789063 497 368.789063 C 567.808594 368.789063 625.210938 426.191406 625.210938 497 "/>
<path style="fill:none;stroke-width:18.139601;stroke-linecap:butt;stroke-linejoin:miter;stroke:rgb(98.431373%,39.607843%,26.27451%);stroke-opacity:1;stroke-miterlimit:10;" d="M 660.28125 497 C 660.28125 587.179688 587.179688 660.28125 497 660.28125 C 406.820313 660.28125 333.71875 587.179688 333.71875 497 C 333.71875 406.820313 406.820313 333.71875 497 333.71875 C 587.179688 333.71875 660.28125 406.820313 660.28125 497 "/>
<path style="fill:none;stroke-width:14.460435;stroke-linecap:butt;stroke-linejoin:miter;stroke:rgb(39.215686%,30.588235%,28.627451%);stroke-opacity:1;stroke-miterlimit:10;" d="M 695.324219 497 C 695.324219 606.53125 606.53125 695.324219 497 695.324219 C 387.46875 695.324219 298.675781 606.53125 298.675781 497 C 298.675781 387.46875 387.46875 298.675781 497 298.675781 C 606.53125 298.675781 695.324219 387.46875 695.324219 497 "/>
</g>
</svg>
