<?xml version="1.0" encoding="UTF-8"?>
<svg xmlns="http://www.w3.org/2000/svg" xmlns:xlink="http://www.w3.org/1999/xlink" width="995pt" height="995pt" viewBox="0 0 995 995" version="1.1">
<g id="surface1">
<rect x="0" y="0" width="995" height="995" style="fill:rgb(94.117647%,94.117647%,94.117647%);fill-opacity:1;stroke:none;"/>
<path style="fill:none;stroke-width:10;stroke-linecap:butt;stroke-linejoin:miter;stroke:rgb(97.647059%,67.45098%,38.823529%);stroke-opacity:1;stroke-miterlimit:10;" d="M 516.339844 497 C 516.339844 507.679688 507.679688 516.339844 497 516.339844 C 486.320313 516.339844 477.660156 507.679688 477.660156 497 C 477.660156 486.320313 486.320313 477.660156 497 477.660156 C 507.679688 477.660156 516.339844 486.320313 516.339844 497 "/>
<path style="fill:none;stroke-width:10.367857;stroke-linecap:butt;stroke-linejoin:miter;stroke:rgb(48.235294%,45.098039%,71.764706%);stroke-opacity:1;stroke-miterlimit:10;" d="M 546.113281 497 C 546.113281 524.125 524.125 546.113281 497 546.113281 C 469.875 546.113281 447.886719 524.125 447.886719 497 C 447.886719 469.875 469.875 447.886719 497 447.886719 C 524.125 447.886719 546.113281 469.875 546.113281 497 "/>
<path style="fill:none;stroke-width:10.864436;stroke-linecap:butt;stroke-linejoin:miter;stroke:rgb(48.235294%,45.098039%,71.764706%);stroke-opacity:1;stroke-miterlimit:10;" d="M 573.683594 497 C 573.683594 539.351563 539.351563 573.683594 497 573.683594 C 454.648438 573.683594 420.316406 539.351563 420.316406 497 C 420.316406 454.648438 454.648438 420.316406 497 420.316406 C 539.351563 420.316406 573.683594 454.648438 573.683594 497 "/>
<path style="fill:none;stroke-width:11.516778;stroke-linecap:butt;stroke-linejoin:miter;stroke:rgb(56.470588%,50.980392%,75.294118%);stroke-opacity:1;stroke-miterlimit:10;" d="M 605.910156 497 C 605.910156 557.152344 557.152344 605.910156 497 605.910156 C 436.847656 605.910156 388.089844 557.152344 388.089844 497 C 388.089844 436.847656 436.847656 388.089844 497 388.089844 C 557.152344 388.089844 605.910156 436.847656 605.910156 497 "/>
<path style="fill:none;stroke-width:11.957666;stroke-linecap:butt;stroke-linejoin:miter;stroke:rgb(73.333333%,61.176471%,80.392157%);stroke-opacity:1;stroke-miterlimit:10;" d="M 635.316406 497 C 635.316406 573.390625 573.390625 635.316406 497 635.316406 C 420.609375 635.316406 358.683594 573.390625 358.683594 497 C 358.683594 420.609375 420.609375 358.683594 497 358.683594 C 573.390625 358.683594 635.316406 420.609375 635.316406 497 "/>
<path style="fill:none;stroke-width:12.402827;stroke-linecap:butt;stroke-linejoin:miter;stroke:rgb(94.901961%,67.45098%,54.901961%);stroke-opacity:1;stroke-miterlimit:10;" d="M 665.550781 497 C 665.550781 590.089844 590.089844 665.550781 497 665.550781 C 403.910156 665.550781 328.449219 590.089844 328.449219 497 C 328.449219 403.910156 403.910156 328.449219 497 328.449219 C 590.089844 328.449219 665.550781 403.910156 665.550781 497 "/>
<path style="fill:none;stroke-width:12.877442;stroke-linecap:butt;stroke-linejoin:miter;stroke:rgb(65.882353%,57.254902%,78.823529%);stroke-opacity:1;stroke-miterlimit:10;" d="M 701.054688 497 C 701.054688 609.695313 609.695313 701.054688 497 701.054688 C 384.304688 701.054688 292.945313 609.695313 292.945313 497 C 292.945313 384.304688 384.304688 292.945313 497 292.945313 C 609.695313 292.945313 701.054688 384.304688 701.054688 497 "/>
<path style="fill:none;stroke-width:13.319047;stroke-linecap:butt;stroke-linejoin:miter;stroke:rgb(65.882353%,57.254902%,78.823529%);stroke-opacity:1;stroke-miterlimit:10;" d="M 736.667969 497 C 736.667969 629.363281 629.363281 736.667969 497 736.667969 C 364.636719 736.667969 257.332031 629.363281 257.332031 497 C 257.332031 364.636719 364.636719 257.332031 497 257.332031 C 629.363281 257.332031 736.667969 364.636719 736.667969 497 "/>
<path style="fill:none;stroke-width:13.766111;stroke-linecap:butt;stroke-linejoin:miter;stroke:rgb(65.882353%,57.254902%,78.823529%);stroke-opacity:1;stroke-miterlimit:10;" d="M 779.691406 497 C 779.691406 653.128906 653.128906 779.691406 497 779.691406 C 340.871094 779.691406 214.308594 653.128906 214.308594 497 C 214.308594 340.871094 340.871094 214.308594 497 214.308594 C 653.128906 214.308594 779.691406 340.871094 779.691406 497 "/>
<path style="fill:none;stroke-width:13.937518;stroke-linecap:butt;stroke-linejoin:miter;stroke:rgb(56.470588%,50.980392%,75.294118%);stroke-opacity:1;stroke-miterlimit:10;" d="M 792.707031 497 C 792.707031 660.3125 660.3125 792.707031 497 792.707031 C 333.6875 792.707031 201.292969 660.3125 201.292969 497 C 201.292969 333.6875 333.6875 201.292969 497 201.292969 C 660.3125 201.292969 792.707031 333.6875 792.707031 497 "/>
<path style="fill:none;stroke-width:14.528859;stroke-linecap:butt;stroke-linejoin:miter;stroke:rgb(84.313725%,66.27451%,76.862745%);stroke-opacity:1;stroke-miterlimit:10;" d="M 821.710938 497 C 821.710938 676.332031 676.332031 821.710938 497 821.710938 C 317.667969 821.710938 172.289063 676.332031 172.289063 497 C 172.289063 317.667969 317.667969 172.289063 497 172.289063 C 676.332031 172.289063 821.710938 317.667969 821.710938 497 "/>
<path style="fill:none;stroke-width:14.962192;stroke-linecap:butt;stroke-linejoin:miter;stroke:rgb(73.333333%,61.176471%,80.392157%);stroke-opacity:1;stroke-miterlimit:10;" d="M 843.171875 497 C 843.171875 688.183594 688.183594 843.171875 497 843.171875 C 305.816406 843.171875 150.828125 688.183594 150.828125 497 C 150.828125 305.816406 305.816406 150.828125 497 150.828125 C 688.183594 150.828125 843.171875 305.816406 843.171875 497 "/>
<path style="fill:none;stroke-width:15.401854;stroke-linecap:butt;stroke-linejoin:miter;stroke:rgb(73.333333%,61.176471%,80.392157%);stroke-opacity:1;stroke-miterlimit:10;" d="M 873.664063 497 C 873.664063 631.570313 801.871094 755.917969 685.332031 823.199219 C 568.792969 890.484375 425.207031 890.484375 308.667969 823.199219 C 192.128906 755.917969 120.335938 631.570313 120.335938 497 C 120.335938 362.429688 192.128906 238.082031 308.667969 170.800781 C 425.207031 103.515625 568.792969 103.515625 685.332031 170.800781 C 801.871094 238.082031 873.664063 362.429688 873.664063 497 "/>
<path style="fill:none;stroke-width:15.993883;stroke-linecap:butt;stroke-linejoin:miter;stroke:rgb(73.333333%,61.176471%,80.392157%);stroke-opacity:1;stroke-miterlimit:10;" d="M 910.582031 497 C 910.582031 644.757813 831.753906 781.292969 703.792969 855.175781 C 575.828125 929.054688 418.171875 929.054688 290.207031 855.175781 C 162.246094 781.292969 83.417969 644.757813 83.417969 497 C 83.417969 349.242188 162.246094 212.707031 290.207031 138.824219 C 418.171875 64.945313 575.828125 64.945313 703.792969 138.824219 C 831.753906 212.707031 910.582031 349.242188 910.582031 497 "/>
<path style="fill:none;stroke-width:16.502093;stroke-linecap:butt;stroke-linejoin:miter;stroke:rgb(48.235294%,45.098039%,71.764706%);stroke-opacity:1;stroke-miterlimit:10;" d="M 943.777344 497 C 943.777344 656.617188 858.621094 804.113281 720.390625 883.921875 C 582.15625 963.730469 411.84375 963.730469 273.609375 883.921875 C 135.378906 804.113281 50.222656 656.617188 50.222656 497 C 50.222656 337.382813 135.378906 189.886719 273.609375 110.078125 C 411.84375 30.269531 582.15625 30.269531 720.390625 110.078125 C 858.621094 189.886719 943.777344 337.382813 943.777344 497 "/>
<path style="fill:none;stroke-width:17.102525;stroke-linecap:butt;stroke-linejoin:miter;stroke:rgb(56.470588%,50.980392%,75.294118%);stroke-opacity:1;stroke-miterlimit:10;" d="M 986.519531 497 C 986.519531 671.886719 893.21875 833.492188 741.761719 920.9375 C 590.300781 1008.382813 403.699219 1008.382813 252.238281 920.9375 C 100.78125 833.492188 7.480469 671.886719 7.480469 497 C 7.480469 322.113281 100.78125 160.507813 252.238281 73.0625 C 403.699219 -14.382813 590.300781 -14.382813 741.761719 73.0625 C 893.21875 160.507813 986.519531 322.113281 986.519531 497 "/>
</g>
</svg>
