<?xml version="1.0" encoding="UTF-8"?>
<svg xmlns="http://www.w3.org/2000/svg" xmlns:xlink="http://www.w3.org/1999/xlink" width="995pt" height="995pt" viewBox="0 0 995 995" version="1.1">
<g id="surface1">
<rect x="0" y="0" width="995" height="995" style="fill:rgb(96.470588%,93.333333%,91.764706%);fill-opacity:1;stroke:none;"/>
<path style="fill:none;stroke-width:10;stroke-linecap:butt;stroke-linejoin:miter;stroke:rgb(14.117647%,12.54902%,13.72549%);stroke-opacity:1;stroke-miterlimit:10;" d="M 497 497 L 497 497 "/>
<path style="fill:none;stroke-width:10;stroke-linecap:butt;stroke-linejoin:miter;stroke:rgb(57.254902%,65.882353%,70.980392%);stroke-opacity:1;stroke-miterlimit:10;" d="M 511 497 C 511 504.730469 504.730469 511 497 511 C 489.269531 511 483 504.730469 483 497 C 483 489.269531 489.269531 483 497 483 C 504.730469 483 511 489.269531 511 497 "/>
<path style="fill:none;stroke-width:10;stroke-linecap:butt;stroke-linejoin:miter;stroke:rgb(81.960784%,81.960784%,83.921569%);stroke-opacity:1;stroke-miterlimit:10;" d="M 525 497 C 525 512.464844 512.464844 525 497 525 C 481.535156 525 469 512.464844 469 497 C 469 481.535156 481.535156 469 497 469 C 512.464844 469 525 481.535156 525 497 "/>
<path style="fill:none;stroke-width:10;stroke-linecap:butt;stroke-linejoin:miter;stroke:rgb(57.254902%,65.882353%,70.980392%);stroke-opacity:1;stroke-miterlimit:10;" d="M 539 497 C 539 520.195313 520.195313 539 497 539 C 473.804688 539 455 520.195313 455 497 C 455 473.804688 473.804688 455 497 455 C 520.195313 455 539 473.804688 539 497 "/>
<path style="fill:none;stroke-width:10;stroke-linecap:butt;stroke-linejoin:miter;stroke:rgb(57.254902%,65.882353%,70.980392%);stroke-opacity:1;stroke-miterlimit:10;" d="M 553 497 C 553 527.929688 527.929688 553 497 553 C 466.070313 553 441 527.929688 441 497 C 441 466.070313 466.070313 441 497 441 C 527.929688 441 553 466.070313 553 497 "/>
<path style="fill:none;stroke-width:10;stroke-linecap:butt;stroke-linejoin:miter;stroke:rgb(24.705882%,47.058824%,53.72549%);stroke-opacity:1;stroke-miterlimit:10;" d="M 567 497 C 567 535.660156 535.660156 567 497 567 C 458.339844 567 427 535.660156 427 497 C 427 458.339844 458.339844 427 497 427 C 535.660156 427 567 458.339844 567 497 "/>
<path style="fill:none;stroke-width:10;stroke-linecap:butt;stroke-linejoin:miter;stroke:rgb(14.117647%,12.54902%,13.72549%);stroke-opacity:1;stroke-miterlimit:10;" d="M 581 497 C 581 543.390625 543.390625 581 497 581 C 450.609375 581 413 543.390625 413 497 C 413 450.609375 450.609375 413 497 413 C 543.390625 413 581 450.609375 581 497 "/>
<path style="fill:none;stroke-width:10;stroke-linecap:butt;stroke-linejoin:miter;stroke:rgb(57.254902%,65.882353%,70.980392%);stroke-opacity:1;stroke-miterlimit:10;" d="M 595 497 C 595 551.125 551.125 595 497 595 C 442.875 595 399 551.125 399 497 C 399 442.875 442.875 399 497 399 C 551.125 399 595 442.875 595 497 "/>
<path style="fill:none;stroke-width:10;stroke-linecap:butt;stroke-linejoin:miter;stroke:rgb(82.745098%,79.215686%,58.431373%);stroke-opacity:1;stroke-miterlimit:10;" d="M 609 497 C 609 558.855469 558.855469 609 497 609 C 435.144531 609 385 558.855469 385 497 C 385 435.144531 435.144531 385 497 385 C 558.855469 385 609 435.144531 609 497 "/>
<path style="fill:none;stroke-width:10;stroke-linecap:butt;stroke-linejoin:miter;stroke:rgb(61.568627%,51.764706%,50.196078%);stroke-opacity:1;stroke-miterlimit:10;" d="M 623 497 C 623 566.585938 566.585938 623 497 623 C 427.414063 623 371 566.585938 371 497 C 371 427.414063 427.414063 371 497 371 C 566.585938 371 623 427.414063 623 497 "/>
<path style="fill:none;stroke-width:10;stroke-linecap:butt;stroke-linejoin:miter;stroke:rgb(57.254902%,65.882353%,70.980392%);stroke-opacity:1;stroke-miterlimit:10;" d="M 637 497 C 637 574.320313 574.320313 637 497 637 C 419.679688 637 357 574.320313 357 497 C 357 419.679688 419.679688 357 497 357 C 574.320313 357 637 419.679688 637 497 "/>
<path style="fill:none;stroke-width:10;stroke-linecap:butt;stroke-linejoin:miter;stroke:rgb(57.254902%,65.882353%,70.980392%);stroke-opacity:1;stroke-miterlimit:10;" d="M 651 497 C 651 582.050781 582.050781 651 497 651 C 411.949219 651 343 582.050781 343 497 C 343 411.949219 411.949219 343 497 343 C 582.050781 343 651 411.949219 651 497 "/>
<path style="fill:none;stroke-width:10;stroke-linecap:butt;stroke-linejoin:miter;stroke:rgb(61.568627%,51.764706%,50.196078%);stroke-opacity:1;stroke-miterlimit:10;" d="M 665 497 C 665 589.785156 589.785156 665 497 665 C 404.214844 665 329 589.785156 329 497 C 329 404.214844 404.214844 329 497 329 C 589.785156 329 665 404.214844 665 497 "/>
<path style="fill:none;stroke-width:10;stroke-linecap:butt;stroke-linejoin:miter;stroke:rgb(57.254902%,65.882353%,70.980392%);stroke-opacity:1;stroke-miterlimit:10;" d="M 679 497 C 679 597.515625 597.515625 679 497 679 C 396.484375 679 315 597.515625 315 497 C 315 396.484375 396.484375 315 497 315 C 597.515625 315 679 396.484375 679 497 "/>
<path style="fill:none;stroke-width:10;stroke-linecap:butt;stroke-linejoin:miter;stroke:rgb(24.705882%,47.058824%,53.72549%);stroke-opacity:1;stroke-miterlimit:10;" d="M 693 497 C 693 605.246094 605.246094 693 497 693 C 388.753906 693 301 605.246094 301 497 C 301 388.753906 388.753906 301 497 301 C 605.246094 301 693 388.753906 693 497 "/>
<path style="fill:none;stroke-width:10;stroke-linecap:butt;stroke-linejoin:miter;stroke:rgb(61.568627%,51.764706%,50.196078%);stroke-opacity:1;stroke-miterlimit:10;" d="M 707 497 C 707 612.980469 612.980469 707 497 707 C 381.019531 707 287 612.980469 287 497 C 287 381.019531 381.019531 287 497 287 C 612.980469 287 707 381.019531 707 497 "/>
<path style="fill:none;stroke-width:10;stroke-linecap:butt;stroke-linejoin:miter;stroke:rgb(61.568627%,51.764706%,50.196078%);stroke-opacity:1;stroke-miterlimit:10;" d="M 721 497 C 721 620.710938 620.710938 721 497 721 C 373.289063 721 273 620.710938 273 497 C 273 373.289063 373.289063 273 497 273 C 620.710938 273 721 373.289063 721 497 "/>
<path style="fill:none;stroke-width:10;stroke-linecap:butt;stroke-linejoin:miter;stroke:rgb(82.745098%,79.215686%,58.431373%);stroke-opacity:1;stroke-miterlimit:10;" d="M 735 497 C 735 628.445313 628.445313 735 497 735 C 365.554688 735 259 628.445313 259 497 C 259 365.554688 365.554688 259 497 259 C 628.445313 259 735 365.554688 735 497 "/>
<path style="fill:none;stroke-width:10;stroke-linecap:butt;stroke-linejoin:miter;stroke:rgb(90.196078%,68.627451%,13.333333%);stroke-opacity:1;stroke-miterlimit:10;" d="M 749 497 C 749 636.175781 636.175781 749 497 749 C 357.824219 749 245 636.175781 245 497 C 245 357.824219 357.824219 245 497 245 C 636.175781 245 749 357.824219 749 497 "/>
<path style="fill:none;stroke-width:10;stroke-linecap:butt;stroke-linejoin:miter;stroke:rgb(24.705882%,47.058824%,53.72549%);stroke-opacity:1;stroke-miterlimit:10;" d="M 763 497 C 763 643.90625 643.90625 763 497 763 C 350.09375 763 231 643.90625 231 497 C 231 350.09375 350.09375 231 497 231 C 643.90625 231 763 350.09375 763 497 "/>
<path style="fill:none;stroke-width:10;stroke-linecap:butt;stroke-linejoin:miter;stroke:rgb(24.705882%,47.058824%,53.72549%);stroke-opacity:1;stroke-miterlimit:10;" d="M 777 497 C 777 651.640625 651.640625 777 497 777 C 342.359375 777 217 651.640625 217 497 C 217 342.359375 342.359375 217 497 217 C 651.640625 217 777 342.359375 777 497 "/>
<path style="fill:none;stroke-width:10;stroke-linecap:butt;stroke-linejoin:miter;stroke:rgb(90.196078%,68.627451%,13.333333%);stroke-opacity:1;stroke-miterlimit:10;" d="M 791 497 C 791 659.371094 659.371094 791 497 791 C 334.628906 791 203 659.371094 203 497 C 203 334.628906 334.628906 203 497 203 C 659.371094 203 791 334.628906 791 497 "/>
<path style="fill:none;stroke-width:10;stroke-linecap:butt;stroke-linejoin:miter;stroke:rgb(61.568627%,51.764706%,50.196078%);stroke-opacity:1;stroke-miterlimit:10;" d="M 805 497 C 805 667.105469 667.105469 805 497 805 C 326.894531 805 189 667.105469 189 497 C 189 326.894531 326.894531 189 497 189 C 667.105469 189 805 326.894531 805 497 "/>
<path style="fill:none;stroke-width:10;stroke-linecap:butt;stroke-linejoin:miter;stroke:rgb(81.960784%,81.960784%,83.921569%);stroke-opacity:1;stroke-miterlimit:10;" d="M 819 497 C 819 674.835938 674.835938 819 497 819 C 319.164063 819 175 674.835938 175 497 C 175 319.164063 319.164063 175 497 175 C 674.835938 175 819 319.164063 819 497 "/>
<path style="fill:none;stroke-width:10;stroke-linecap:butt;stroke-linejoin:miter;stroke:rgb(57.254902%,65.882353%,70.980392%);stroke-opacity:1;stroke-miterlimit:10;" d="M 833 497 C 833 682.566406 682.566406 833 497 833 C 311.433594 833 161 682.566406 161 497 C 161 311.433594 311.433594 161 497 161 C 682.566406 161 833 311.433594 833 497 "/>
<path style="fill:none;stroke-width:10;stroke-linecap:butt;stroke-linejoin:miter;stroke:rgb(57.254902%,65.882353%,70.980392%);stroke-opacity:1;stroke-miterlimit:10;" d="M 847 497 C 847 690.300781 690.300781 847 497 847 C 303.699219 847 147 690.300781 147 497 C 147 303.699219 303.699219 147 497 147 C 690.300781 147 847 303.699219 847 497 "/>
<path style="fill:none;stroke-width:10;stroke-linecap:butt;stroke-linejoin:miter;stroke:rgb(57.254902%,65.882353%,70.980392%);stroke-opacity:1;stroke-miterlimit:10;" d="M 861 497 C 861 698.03125 698.03125 861 497 861 C 295.96875 861 133 698.03125 133 497 C 133 295.96875 295.96875 133 497 133 C 698.03125 133 861 295.96875 861 497 "/>
<path style="fill:none;stroke-width:10;stroke-linecap:butt;stroke-linejoin:miter;stroke:rgb(61.568627%,51.764706%,50.196078%);stroke-opacity:1;stroke-miterlimit:10;" d="M 875 497 C 875 632.046875 802.953125 756.835938 686 824.359375 C 569.046875 891.878906 424.953125 891.878906 308 824.359375 C 191.046875 756.835938 119 632.046875 119 497 C 119 361.953125 191.046875 237.164063 308 169.640625 C 424.953125 102.121094 569.046875 102.121094 686 169.640625 C 802.953125 237.164063 875 361.953125 875 497 "/>
<path style="fill:none;stroke-width:10;stroke-linecap:butt;stroke-linejoin:miter;stroke:rgb(57.254902%,65.882353%,70.980392%);stroke-opacity:1;stroke-miterlimit:10;" d="M 889 497 C 889 637.046875 814.285156 766.457031 693 836.480469 C 571.714844 906.507813 422.285156 906.507813 301 836.480469 C 179.714844 766.457031 105 637.046875 105 497 C 105 356.953125 179.714844 227.542969 301 157.519531 C 422.285156 87.492188 571.714844 87.492188 693 157.519531 C 814.285156 227.542969 889 356.953125 889 497 "/>
<path style="fill:none;stroke-width:10;stroke-linecap:butt;stroke-linejoin:miter;stroke:rgb(61.568627%,51.764706%,50.196078%);stroke-opacity:1;stroke-miterlimit:10;" d="M 903 497 C 903 642.050781 825.617188 776.082031 700 848.605469 C 574.382813 921.132813 419.617188 921.132813 294 848.605469 C 168.382813 776.082031 91 642.050781 91 497 C 91 351.949219 168.382813 217.917969 294 145.394531 C 419.617188 72.867188 574.382813 72.867188 700 145.394531 C 825.617188 217.917969 903 351.949219 903 497 "/>
<path style="fill:none;stroke-width:10;stroke-linecap:butt;stroke-linejoin:miter;stroke:rgb(61.568627%,51.764706%,50.196078%);stroke-opacity:1;stroke-miterlimit:10;" d="M 917 497 C 917 647.050781 836.949219 785.703125 707 860.730469 C 577.050781 935.757813 416.949219 935.757813 287 860.730469 C 157.050781 785.703125 77 647.050781 77 497 C 77 346.949219 157.050781 208.296875 287 133.269531 C 416.949219 58.242188 577.050781 58.242188 707 133.269531 C 836.949219 208.296875 917 346.949219 917 497 "/>
<path style="fill:none;stroke-width:10;stroke-linecap:butt;stroke-linejoin:miter;stroke:rgb(57.254902%,65.882353%,70.980392%);stroke-opacity:1;stroke-miterlimit:10;" d="M 931 497 C 931 652.054688 848.28125 795.328125 714 872.855469 C 579.71875 950.382813 414.28125 950.382813 280 872.855469 C 145.71875 795.328125 63 652.054688 63 497 C 63 341.945313 145.71875 198.671875 280 121.144531 C 414.28125 43.617188 579.71875 43.617188 714 121.144531 C 848.28125 198.671875 931 341.945313 931 497 "/>
<path style="fill:none;stroke-width:10;stroke-linecap:butt;stroke-linejoin:miter;stroke:rgb(81.960784%,81.960784%,83.921569%);stroke-opacity:1;stroke-miterlimit:10;" d="M 945 497 C 945 657.054688 859.613281 804.953125 721 884.980469 C 582.386719 965.007813 411.613281 965.007813 273 884.980469 C 134.386719 804.953125 49 657.054688 49 497 C 49 336.945313 134.386719 189.046875 273 109.019531 C 411.613281 28.992188 582.386719 28.992188 721 109.019531 C 859.613281 189.046875 945 336.945313 945 497 "/>
<path style="fill:none;stroke-width:10;stroke-linecap:butt;stroke-linejoin:miter;stroke:rgb(81.960784%,81.960784%,83.921569%);stroke-opacity:1;stroke-miterlimit:10;" d="M 959 497 C 959 662.058594 870.941406 814.574219 728 897.105469 C 585.058594 979.632813 408.941406 979.632813 266 897.105469 C 123.058594 814.574219 35 662.058594 35 497 C 35 331.941406 123.058594 179.425781 266 96.894531 C 408.941406 14.367188 585.058594 14.367188 728 96.894531 C 870.941406 179.425781 959 331.941406 959 497 "/>
<path style="fill:none;stroke-width:10;stroke-linecap:butt;stroke-linejoin:miter;stroke:rgb(81.960784%,81.960784%,83.921569%);stroke-opacity:1;stroke-miterlimit:10;" d="M 973 497 C 973 667.058594 882.273438 824.199219 735 909.226563 C 587.726563 994.257813 406.273438 994.257813 259 909.226563 C 111.726563 824.199219 21 667.058594 21 497 C 21 326.941406 111.726563 169.800781 259 84.773438 C 406.273438 -0.257813 587.726563 -0.257813 735 84.773438 C 882.273438 169.800781 973 326.941406 973 497 "/>
<path style="fill:none;stroke-width:10;stroke-linecap:butt;stroke-linejoin:miter;stroke:rgb(61.568627%,51.764706%,50.196078%);stroke-opacity:1;stroke-miterlimit:10;" d="M 987 497 C 987 672.058594 893.605469 833.824219 742 921.351563 C 590.394531 1008.882813 403.605469 1008.882813 252 921.351563 C 100.394531 833.824219 7 672.058594 7 497 C 7 321.941406 100.394531 160.175781 252 72.648438 C 403.605469 -14.882813 590.394531 -14.882813 742 72.648438 C 893.605469 160.175781 987 321.941406 987 497 "/>
</g>
</svg>
