<?xml version="1.0" encoding="UTF-8"?>
<svg xmlns="http://www.w3.org/2000/svg" xmlns:xlink="http://www.w3.org/1999/xlink" width="995pt" height="995pt" viewBox="0 0 995 995" version="1.1">
<g id="surface1">
<rect x="0" y="0" width="995" height="995" style="fill:rgb(94.117647%,94.117647%,94.117647%);fill-opacity:1;stroke:none;"/>
<path style="fill:none;stroke-width:10;stroke-linecap:butt;stroke-linejoin:miter;stroke:rgb(67.058824%,61.176471%,50.196078%);stroke-opacity:1;stroke-miterlimit:10;" d="M 514.734375 497 C 514.734375 506.796875 506.796875 514.734375 497 514.734375 C 487.203125 514.734375 479.265625 506.796875 479.265625 497 C 479.265625 487.203125 487.203125 479.265625 497 479.265625 C 506.796875 479.265625 514.734375 487.203125 514.734375 497 "/>
<path style="fill:none;stroke-width:10.3;stroke-linecap:butt;stroke-linejoin:miter;stroke:rgb(28.627451%,21.568627%,18.431373%);stroke-opacity:1;stroke-miterlimit:10;" d="M 544.433594 497 C 544.433594 523.199219 523.199219 544.433594 497 544.433594 C 470.800781 544.433594 449.566406 523.199219 449.566406 497 C 449.566406 470.800781 470.800781 449.566406 497 449.566406 C 523.199219 449.566406 544.433594 470.800781 544.433594 497 "/>
<path style="fill:none;stroke-width:10.6;stroke-linecap:butt;stroke-linejoin:miter;stroke:rgb(78.431373%,81.960784%,83.921569%);stroke-opacity:1;stroke-miterlimit:10;" d="M 572.058594 497 C 572.058594 538.453125 538.453125 572.058594 497 572.058594 C 455.546875 572.058594 421.941406 538.453125 421.941406 497 C 421.941406 455.546875 455.546875 421.941406 497 421.941406 C 538.453125 421.941406 572.058594 455.546875 572.058594 497 "/>
<path style="fill:none;stroke-width:10.9;stroke-linecap:butt;stroke-linejoin:miter;stroke:rgb(67.058824%,61.176471%,50.196078%);stroke-opacity:1;stroke-miterlimit:10;" d="M 600.144531 497 C 600.144531 553.964844 553.964844 600.144531 497 600.144531 C 440.035156 600.144531 393.855469 553.964844 393.855469 497 C 393.855469 440.035156 440.035156 393.855469 497 393.855469 C 553.964844 393.855469 600.144531 440.035156 600.144531 497 "/>
<path style="fill:none;stroke-width:11.2;stroke-linecap:butt;stroke-linejoin:miter;stroke:rgb(52.156863%,47.45098%,42.745098%);stroke-opacity:1;stroke-miterlimit:10;" d="M 626.390625 497 C 626.390625 568.460938 568.460938 626.390625 497 626.390625 C 425.539063 626.390625 367.609375 568.460938 367.609375 497 C 367.609375 425.539063 425.539063 367.609375 497 367.609375 C 568.460938 367.609375 626.390625 425.539063 626.390625 497 "/>
<path style="fill:none;stroke-width:11.5;stroke-linecap:butt;stroke-linejoin:miter;stroke:rgb(67.058824%,61.176471%,50.196078%);stroke-opacity:1;stroke-miterlimit:10;" d="M 660.238281 497 C 660.238281 587.15625 587.15625 660.238281 497 660.238281 C 406.84375 660.238281 333.761719 587.15625 333.761719 497 C 333.761719 406.84375 406.84375 333.761719 497 333.761719 C 587.15625 333.761719 660.238281 406.84375 660.238281 497 "/>
<path style="fill:none;stroke-width:11.8;stroke-linecap:butt;stroke-linejoin:miter;stroke:rgb(28.627451%,21.568627%,18.431373%);stroke-opacity:1;stroke-miterlimit:10;" d="M 692.582031 497 C 692.582031 605.015625 605.015625 692.582031 497 692.582031 C 388.984375 692.582031 301.417969 605.015625 301.417969 497 C 301.417969 388.984375 388.984375 301.417969 497 301.417969 C 605.015625 301.417969 692.582031 388.984375 692.582031 497 "/>
<path style="fill:none;stroke-width:12.1;stroke-linecap:butt;stroke-linejoin:miter;stroke:rgb(28.627451%,21.568627%,18.431373%);stroke-opacity:1;stroke-miterlimit:10;" d="M 714.34375 497 C 714.34375 617.035156 617.035156 714.34375 497 714.34375 C 376.964844 714.34375 279.65625 617.035156 279.65625 497 C 279.65625 376.964844 376.964844 279.65625 497 279.65625 C 617.035156 279.65625 714.34375 376.964844 714.34375 497 "/>
<path style="fill:none;stroke-width:12.4;stroke-linecap:butt;stroke-linejoin:miter;stroke:rgb(67.058824%,61.176471%,50.196078%);stroke-opacity:1;stroke-miterlimit:10;" d="M 738.253906 497 C 738.253906 630.238281 630.238281 738.253906 497 738.253906 C 363.761719 738.253906 255.746094 630.238281 255.746094 497 C 255.746094 363.761719 363.761719 255.746094 497 255.746094 C 630.238281 255.746094 738.253906 363.761719 738.253906 497 "/>
<path style="fill:none;stroke-width:12.7;stroke-linecap:butt;stroke-linejoin:miter;stroke:rgb(67.058824%,61.176471%,50.196078%);stroke-opacity:1;stroke-miterlimit:10;" d="M 770.019531 497 C 770.019531 647.785156 647.785156 770.019531 497 770.019531 C 346.214844 770.019531 223.980469 647.785156 223.980469 497 C 223.980469 346.214844 346.214844 223.980469 497 223.980469 C 647.785156 223.980469 770.019531 346.214844 770.019531 497 "/>
<path style="fill:none;stroke-width:13;stroke-linecap:butt;stroke-linejoin:miter;stroke:rgb(67.058824%,61.176471%,50.196078%);stroke-opacity:1;stroke-miterlimit:10;" d="M 808.980469 497 C 808.980469 669.300781 669.300781 808.980469 497 808.980469 C 324.699219 808.980469 185.019531 669.300781 185.019531 497 C 185.019531 324.699219 324.699219 185.019531 497 185.019531 C 669.300781 185.019531 808.980469 324.699219 808.980469 497 "/>
<path style="fill:none;stroke-width:13.3;stroke-linecap:butt;stroke-linejoin:miter;stroke:rgb(28.627451%,21.568627%,18.431373%);stroke-opacity:1;stroke-miterlimit:10;" d="M 822.9375 497 C 822.9375 677.011719 677.011719 822.9375 497 822.9375 C 316.988281 822.9375 171.0625 677.011719 171.0625 497 C 171.0625 316.988281 316.988281 171.0625 497 171.0625 C 677.011719 171.0625 822.9375 316.988281 822.9375 497 "/>
<path style="fill:none;stroke-width:13.6;stroke-linecap:butt;stroke-linejoin:miter;stroke:rgb(67.058824%,61.176471%,50.196078%);stroke-opacity:1;stroke-miterlimit:10;" d="M 850.855469 497 C 850.855469 692.429688 692.429688 850.855469 497 850.855469 C 301.570313 850.855469 143.144531 692.429688 143.144531 497 C 143.144531 301.570313 301.570313 143.144531 497 143.144531 C 692.429688 143.144531 850.855469 301.570313 850.855469 497 "/>
<path style="fill:none;stroke-width:13.9;stroke-linecap:butt;stroke-linejoin:miter;stroke:rgb(28.627451%,21.568627%,18.431373%);stroke-opacity:1;stroke-miterlimit:10;" d="M 869.109375 497 C 869.109375 629.941406 798.1875 752.785156 683.054688 819.257813 C 567.921875 885.726563 426.078125 885.726563 310.945313 819.257813 C 195.8125 752.785156 124.890625 629.941406 124.890625 497 C 124.890625 364.058594 195.8125 241.214844 310.945313 174.742188 C 426.078125 108.273438 567.921875 108.273438 683.054688 174.742188 C 798.1875 241.214844 869.109375 364.058594 869.109375 497 "/>
<path style="fill:none;stroke-width:14.2;stroke-linecap:butt;stroke-linejoin:miter;stroke:rgb(52.156863%,47.45098%,42.745098%);stroke-opacity:1;stroke-miterlimit:10;" d="M 902.296875 497 C 902.296875 641.796875 825.046875 775.597656 699.648438 847.996094 C 574.25 920.394531 419.75 920.394531 294.351563 847.996094 C 168.953125 775.597656 91.703125 641.796875 91.703125 497 C 91.703125 352.203125 168.953125 218.402344 294.351563 146.003906 C 419.75 73.605469 574.25 73.605469 699.648438 146.003906 C 825.046875 218.402344 902.296875 352.203125 902.296875 497 "/>
<path style="fill:none;stroke-width:14.5;stroke-linecap:butt;stroke-linejoin:miter;stroke:rgb(28.627451%,21.568627%,18.431373%);stroke-opacity:1;stroke-miterlimit:10;" d="M 965.234375 497 C 965.234375 664.285156 875.988281 818.859375 731.117188 902.503906 C 586.246094 986.144531 407.753906 986.144531 262.882813 902.503906 C 118.011719 818.859375 28.765625 664.285156 28.765625 497 C 28.765625 329.714844 118.011719 175.140625 262.882813 91.496094 C 407.753906 7.855469 586.246094 7.855469 731.117188 91.496094 C 875.988281 175.140625 965.234375 329.714844 965.234375 497 "/>
</g>
</svg>
