<?xml version="1.0" encoding="UTF-8"?>
<svg xmlns="http://www.w3.org/2000/svg" xmlns:xlink="http://www.w3.org/1999/xlink" width="995pt" height="995pt" viewBox="0 0 995 995" version="1.1">
<g id="surface1">
<rect x="0" y="0" width="995" height="995" style="fill:rgb(94.117647%,94.117647%,94.117647%);fill-opacity:1;stroke:none;"/>
<path style="fill:none;stroke-width:20;stroke-linecap:butt;stroke-linejoin:miter;stroke:rgb(63.529412%,51.372549%,28.627451%);stroke-opacity:1;stroke-miterlimit:10;" d="M 517.082031 497 C 517.082031 508.089844 508.089844 517.082031 497 517.082031 C 485.910156 517.082031 476.917969 508.089844 476.917969 497 C 476.917969 485.910156 485.910156 476.917969 497 476.917969 C 508.089844 476.917969 517.082031 485.910156 517.082031 497 "/>
<path style="fill:none;stroke-width:18.870389;stroke-linecap:butt;stroke-linejoin:miter;stroke:rgb(69.019608%,56.862745%,34.509804%);stroke-opacity:1;stroke-miterlimit:10;" d="M 552.082031 497 C 552.082031 527.421875 527.421875 552.082031 497 552.082031 C 466.578125 552.082031 441.917969 527.421875 441.917969 497 C 441.917969 466.578125 466.578125 441.917969 497 441.917969 C 527.421875 441.917969 552.082031 466.578125 552.082031 497 "/>
<path style="fill:none;stroke-width:18.497753;stroke-linecap:butt;stroke-linejoin:miter;stroke:rgb(72.156863%,68.627451%,56.470588%);stroke-opacity:1;stroke-miterlimit:10;" d="M 587.082031 497 C 587.082031 546.75 546.75 587.082031 497 587.082031 C 447.25 587.082031 406.917969 546.75 406.917969 497 C 406.917969 447.25 447.25 406.917969 497 406.917969 C 546.75 406.917969 587.082031 447.25 587.082031 497 "/>
<path style="fill:none;stroke-width:17.366641;stroke-linecap:butt;stroke-linejoin:miter;stroke:rgb(52.941176%,47.45098%,40.392157%);stroke-opacity:1;stroke-miterlimit:10;" d="M 622.082031 497 C 622.082031 566.078125 566.078125 622.082031 497 622.082031 C 427.921875 622.082031 371.917969 566.078125 371.917969 497 C 371.917969 427.921875 427.921875 371.917969 497 371.917969 C 566.078125 371.917969 622.082031 427.921875 622.082031 497 "/>
<path style="fill:none;stroke-width:17.032663;stroke-linecap:butt;stroke-linejoin:miter;stroke:rgb(68.627451%,65.490196%,54.117647%);stroke-opacity:1;stroke-miterlimit:10;" d="M 657.082031 497 C 657.082031 585.410156 585.410156 657.082031 497 657.082031 C 408.589844 657.082031 336.917969 585.410156 336.917969 497 C 336.917969 408.589844 408.589844 336.917969 497 336.917969 C 585.410156 336.917969 657.082031 408.589844 657.082031 497 "/>
<path style="fill:none;stroke-width:15.894733;stroke-linecap:butt;stroke-linejoin:miter;stroke:rgb(43.921569%,39.607843%,36.862745%);stroke-opacity:1;stroke-miterlimit:10;" d="M 692.082031 497 C 692.082031 604.738281 604.738281 692.082031 497 692.082031 C 389.261719 692.082031 301.917969 604.738281 301.917969 497 C 301.917969 389.261719 389.261719 301.917969 497 301.917969 C 604.738281 301.917969 692.082031 389.261719 692.082031 497 "/>
<path style="fill:none;stroke-width:15.141526;stroke-linecap:butt;stroke-linejoin:miter;stroke:rgb(32.941176%,35.294118%,45.882353%);stroke-opacity:1;stroke-miterlimit:10;" d="M 727.082031 497 C 727.082031 624.070313 624.070313 727.082031 497 727.082031 C 369.929688 727.082031 266.917969 624.070313 266.917969 497 C 266.917969 369.929688 369.929688 266.917969 497 266.917969 C 624.070313 266.917969 727.082031 369.929688 727.082031 497 "/>
</g>
</svg>
