<?xml version="1.0" encoding="UTF-8"?>
<svg xmlns="http://www.w3.org/2000/svg" xmlns:xlink="http://www.w3.org/1999/xlink" width="995pt" height="995pt" viewBox="0 0 995 995" version="1.1">
<g id="surface1">
<rect x="0" y="0" width="995" height="995" style="fill:rgb(94.117647%,94.117647%,94.117647%);fill-opacity:1;stroke:none;"/>
<path style="fill:none;stroke-width:10;stroke-linecap:butt;stroke-linejoin:miter;stroke:rgb(27.843137%,21.176471%,16.470588%);stroke-opacity:1;stroke-miterlimit:10;" d="M 515.375 497 C 515.375 507.148438 507.148438 515.375 497 515.375 C 486.851563 515.375 478.625 507.148438 478.625 497 C 478.625 486.851563 486.851563 478.625 497 478.625 C 507.148438 478.625 515.375 486.851563 515.375 497 "/>
<path style="fill:none;stroke-width:10;stroke-linecap:butt;stroke-linejoin:miter;stroke:rgb(47.843137%,39.215686%,31.764706%);stroke-opacity:1;stroke-miterlimit:10;" d="M 534.324219 497 C 534.324219 517.613281 517.613281 534.324219 497 534.324219 C 476.386719 534.324219 459.675781 517.613281 459.675781 497 C 459.675781 476.386719 476.386719 459.675781 497 459.675781 C 517.613281 459.675781 534.324219 476.386719 534.324219 497 "/>
<path style="fill:none;stroke-width:10;stroke-linecap:butt;stroke-linejoin:miter;stroke:rgb(75.686275%,51.764706%,47.058824%);stroke-opacity:1;stroke-miterlimit:10;" d="M 554.394531 497 C 554.394531 528.699219 528.699219 554.394531 497 554.394531 C 465.300781 554.394531 439.605469 528.699219 439.605469 497 C 439.605469 465.300781 465.300781 439.605469 497 439.605469 C 528.699219 439.605469 554.394531 465.300781 554.394531 497 "/>
<path style="fill:none;stroke-width:10;stroke-linecap:butt;stroke-linejoin:miter;stroke:rgb(27.843137%,21.176471%,16.470588%);stroke-opacity:1;stroke-miterlimit:10;" d="M 576.472656 497 C 576.472656 540.890625 540.890625 576.472656 497 576.472656 C 453.109375 576.472656 417.527344 540.890625 417.527344 497 C 417.527344 453.109375 453.109375 417.527344 497 417.527344 C 540.890625 417.527344 576.472656 453.109375 576.472656 497 "/>
<path style="fill:none;stroke-width:10;stroke-linecap:butt;stroke-linejoin:miter;stroke:rgb(39.215686%,46.27451%,49.803922%);stroke-opacity:1;stroke-miterlimit:10;" d="M 599.25 497 C 599.25 553.472656 553.472656 599.25 497 599.25 C 440.527344 599.25 394.75 553.472656 394.75 497 C 394.75 440.527344 440.527344 394.75 497 394.75 C 553.472656 394.75 599.25 440.527344 599.25 497 "/>
<path style="fill:none;stroke-width:10;stroke-linecap:butt;stroke-linejoin:miter;stroke:rgb(47.843137%,39.215686%,31.764706%);stroke-opacity:1;stroke-miterlimit:10;" d="M 617.109375 497 C 617.109375 563.335938 563.335938 617.109375 497 617.109375 C 430.664063 617.109375 376.890625 563.335938 376.890625 497 C 376.890625 430.664063 430.664063 376.890625 497 376.890625 C 563.335938 376.890625 617.109375 430.664063 617.109375 497 "/>
<path style="fill:none;stroke-width:10;stroke-linecap:butt;stroke-linejoin:miter;stroke:rgb(23.529412%,27.843137%,31.372549%);stroke-opacity:1;stroke-miterlimit:10;" d="M 641.316406 497 C 641.316406 576.703125 576.703125 641.316406 497 641.316406 C 417.296875 641.316406 352.683594 576.703125 352.683594 497 C 352.683594 417.296875 417.296875 352.683594 497 352.683594 C 576.703125 352.683594 641.316406 417.296875 641.316406 497 "/>
<path style="fill:none;stroke-width:10;stroke-linecap:butt;stroke-linejoin:miter;stroke:rgb(47.843137%,39.215686%,31.764706%);stroke-opacity:1;stroke-miterlimit:10;" d="M 663.988281 497 C 663.988281 589.222656 589.222656 663.988281 497 663.988281 C 404.777344 663.988281 330.011719 589.222656 330.011719 497 C 330.011719 404.777344 404.777344 330.011719 497 330.011719 C 589.222656 330.011719 663.988281 404.777344 663.988281 497 "/>
<path style="fill:none;stroke-width:10;stroke-linecap:butt;stroke-linejoin:miter;stroke:rgb(23.529412%,27.843137%,31.372549%);stroke-opacity:1;stroke-miterlimit:10;" d="M 681.542969 497 C 681.542969 598.921875 598.921875 681.542969 497 681.542969 C 395.078125 681.542969 312.457031 598.921875 312.457031 497 C 312.457031 395.078125 395.078125 312.457031 497 312.457031 C 598.921875 312.457031 681.542969 395.078125 681.542969 497 "/>
<path style="fill:none;stroke-width:10;stroke-linecap:butt;stroke-linejoin:miter;stroke:rgb(75.686275%,51.764706%,47.058824%);stroke-opacity:1;stroke-miterlimit:10;" d="M 703.351563 497 C 703.351563 610.964844 610.964844 703.351563 497 703.351563 C 383.035156 703.351563 290.648438 610.964844 290.648438 497 C 290.648438 383.035156 383.035156 290.648438 497 290.648438 C 610.964844 290.648438 703.351563 383.035156 703.351563 497 "/>
<path style="fill:none;stroke-width:10;stroke-linecap:butt;stroke-linejoin:miter;stroke:rgb(27.843137%,21.176471%,16.470588%);stroke-opacity:1;stroke-miterlimit:10;" d="M 721.507813 497 C 721.507813 620.992188 620.992188 721.507813 497 721.507813 C 373.007813 721.507813 272.492188 620.992188 272.492188 497 C 272.492188 373.007813 373.007813 272.492188 497 272.492188 C 620.992188 272.492188 721.507813 373.007813 721.507813 497 "/>
<path style="fill:none;stroke-width:10;stroke-linecap:butt;stroke-linejoin:miter;stroke:rgb(23.529412%,27.843137%,31.372549%);stroke-opacity:1;stroke-miterlimit:10;" d="M 741.199219 497 C 741.199219 631.867188 631.867188 741.199219 497 741.199219 C 362.132813 741.199219 252.800781 631.867188 252.800781 497 C 252.800781 362.132813 362.132813 252.800781 497 252.800781 C 631.867188 252.800781 741.199219 362.132813 741.199219 497 "/>
<path style="fill:none;stroke-width:10;stroke-linecap:butt;stroke-linejoin:miter;stroke:rgb(23.529412%,27.843137%,31.372549%);stroke-opacity:1;stroke-miterlimit:10;" d="M 761.667969 497 C 761.667969 643.171875 643.171875 761.667969 497 761.667969 C 350.828125 761.667969 232.332031 643.171875 232.332031 497 C 232.332031 350.828125 350.828125 232.332031 497 232.332031 C 643.171875 232.332031 761.667969 350.828125 761.667969 497 "/>
<path style="fill:none;stroke-width:10;stroke-linecap:butt;stroke-linejoin:miter;stroke:rgb(47.843137%,39.215686%,31.764706%);stroke-opacity:1;stroke-miterlimit:10;" d="M 774.199219 497 C 774.199219 650.09375 650.09375 774.199219 497 774.199219 C 343.90625 774.199219 219.800781 650.09375 219.800781 497 C 219.800781 343.90625 343.90625 219.800781 497 219.800781 C 650.09375 219.800781 774.199219 343.90625 774.199219 497 "/>
<path style="fill:none;stroke-width:10;stroke-linecap:butt;stroke-linejoin:miter;stroke:rgb(47.843137%,39.215686%,31.764706%);stroke-opacity:1;stroke-miterlimit:10;" d="M 793.449219 497 C 793.449219 660.722656 660.722656 793.449219 497 793.449219 C 333.277344 793.449219 200.550781 660.722656 200.550781 497 C 200.550781 333.277344 333.277344 200.550781 497 200.550781 C 660.722656 200.550781 793.449219 333.277344 793.449219 497 "/>
<path style="fill:none;stroke-width:10;stroke-linecap:butt;stroke-linejoin:miter;stroke:rgb(27.843137%,21.176471%,16.470588%);stroke-opacity:1;stroke-miterlimit:10;" d="M 814.609375 497 C 814.609375 672.410156 672.410156 814.609375 497 814.609375 C 321.589844 814.609375 179.390625 672.410156 179.390625 497 C 179.390625 321.589844 321.589844 179.390625 497 179.390625 C 672.410156 179.390625 814.609375 321.589844 814.609375 497 "/>
<path style="fill:none;stroke-width:10;stroke-linecap:butt;stroke-linejoin:miter;stroke:rgb(47.843137%,39.215686%,31.764706%);stroke-opacity:1;stroke-miterlimit:10;" d="M 832.976563 497 C 832.976563 682.554688 682.554688 832.976563 497 832.976563 C 311.445313 832.976563 161.023438 682.554688 161.023438 497 C 161.023438 311.445313 311.445313 161.023438 497 161.023438 C 682.554688 161.023438 832.976563 311.445313 832.976563 497 "/>
<path style="fill:none;stroke-width:10;stroke-linecap:butt;stroke-linejoin:miter;stroke:rgb(39.215686%,46.27451%,49.803922%);stroke-opacity:1;stroke-miterlimit:10;" d="M 853.027344 497 C 853.027344 693.628906 693.628906 853.027344 497 853.027344 C 300.371094 853.027344 140.972656 693.628906 140.972656 497 C 140.972656 300.371094 300.371094 140.972656 497 140.972656 C 693.628906 140.972656 853.027344 300.371094 853.027344 497 "/>
<path style="fill:none;stroke-width:10;stroke-linecap:butt;stroke-linejoin:miter;stroke:rgb(47.843137%,39.215686%,31.764706%);stroke-opacity:1;stroke-miterlimit:10;" d="M 872.035156 497 C 872.035156 630.988281 800.554688 754.796875 684.515625 821.789063 C 568.480469 888.78125 425.519531 888.78125 309.484375 821.789063 C 193.445313 754.796875 121.964844 630.988281 121.964844 497 C 121.964844 363.011719 193.445313 239.203125 309.484375 172.210938 C 425.519531 105.21875 568.480469 105.21875 684.515625 172.210938 C 800.554688 239.203125 872.035156 363.011719 872.035156 497 "/>
<path style="fill:none;stroke-width:10;stroke-linecap:butt;stroke-linejoin:miter;stroke:rgb(39.215686%,46.27451%,49.803922%);stroke-opacity:1;stroke-miterlimit:10;" d="M 894.523438 497 C 894.523438 639.023438 818.757813 770.253906 695.761719 841.265625 C 572.769531 912.277344 421.230469 912.277344 298.238281 841.265625 C 175.242188 770.253906 99.476563 639.023438 99.476563 497 C 99.476563 354.976563 175.242188 223.746094 298.238281 152.734375 C 421.230469 81.722656 572.769531 81.722656 695.761719 152.734375 C 818.757813 223.746094 894.523438 354.976563 894.523438 497 "/>
<path style="fill:none;stroke-width:10;stroke-linecap:butt;stroke-linejoin:miter;stroke:rgb(47.843137%,39.215686%,31.764706%);stroke-opacity:1;stroke-miterlimit:10;" d="M 920.234375 497 C 920.234375 648.207031 839.566406 787.929688 708.617188 863.53125 C 577.667969 939.136719 416.332031 939.136719 285.382813 863.53125 C 154.433594 787.929688 73.765625 648.207031 73.765625 497 C 73.765625 345.792969 154.433594 206.070313 285.382813 130.46875 C 416.332031 54.863281 577.667969 54.863281 708.617188 130.46875 C 839.566406 206.070313 920.234375 345.792969 920.234375 497 "/>
<path style="fill:none;stroke-width:10;stroke-linecap:butt;stroke-linejoin:miter;stroke:rgb(27.843137%,21.176471%,16.470588%);stroke-opacity:1;stroke-miterlimit:10;" d="M 933.492188 497 C 933.492188 652.945313 850.296875 797.042969 715.246094 875.011719 C 580.195313 952.984375 413.804688 952.984375 278.753906 875.011719 C 143.703125 797.042969 60.507813 652.945313 60.507813 497 C 60.507813 341.054688 143.703125 196.957031 278.753906 118.988281 C 413.804688 41.015625 580.195313 41.015625 715.246094 118.988281 C 850.296875 196.957031 933.492188 341.054688 933.492188 497 "/>
<path style="fill:none;stroke-width:10;stroke-linecap:butt;stroke-linejoin:miter;stroke:rgb(27.843137%,21.176471%,16.470588%);stroke-opacity:1;stroke-miterlimit:10;" d="M 952.195313 497 C 952.195313 659.625 865.433594 809.898438 724.597656 891.210938 C 583.757813 972.523438 410.242188 972.523438 269.402344 891.210938 C 128.566406 809.898438 41.804688 659.625 41.804688 497 C 41.804688 334.375 128.566406 184.101563 269.402344 102.789063 C 410.242188 21.476563 583.757813 21.476563 724.597656 102.789063 C 865.433594 184.101563 952.195313 334.375 952.195313 497 "/>
<path style="fill:none;stroke-width:10;stroke-linecap:butt;stroke-linejoin:miter;stroke:rgb(75.686275%,51.764706%,47.058824%);stroke-opacity:1;stroke-miterlimit:10;" d="M 977.238281 497 C 977.238281 668.574219 885.707031 827.113281 737.121094 912.898438 C 588.53125 998.6875 405.46875 998.6875 256.878906 912.898438 C 108.292969 827.113281 16.761719 668.574219 16.761719 497 C 16.761719 325.425781 108.292969 166.886719 256.878906 81.101563 C 405.46875 -4.6875 588.53125 -4.6875 737.121094 81.101563 C 885.707031 166.886719 977.238281 325.425781 977.238281 497 "/>
</g>
</svg>
