<?xml version="1.0" encoding="UTF-8"?>
<svg xmlns="http://www.w3.org/2000/svg" xmlns:xlink="http://www.w3.org/1999/xlink" width="995pt" height="995pt" viewBox="0 0 995 995" version="1.1">
<g id="surface1">
<rect x="0" y="0" width="995" height="995" style="fill:rgb(94.117647%,94.117647%,94.117647%);fill-opacity:1;stroke:none;"/>
<path style="fill:none;stroke-width:20;stroke-linecap:butt;stroke-linejoin:miter;stroke:rgb(27.843137%,21.176471%,16.470588%);stroke-opacity:1;stroke-miterlimit:10;" d="M 519.644531 497 C 519.644531 509.507813 509.507813 519.644531 497 519.644531 C 484.492188 519.644531 474.355469 509.507813 474.355469 497 C 474.355469 484.492188 484.492188 474.355469 497 474.355469 C 509.507813 474.355469 519.644531 484.492188 519.644531 497 "/>
<path style="fill:none;stroke-width:18.485849;stroke-linecap:butt;stroke-linejoin:miter;stroke:rgb(27.843137%,21.176471%,16.470588%);stroke-opacity:1;stroke-miterlimit:10;" d="M 555.078125 497 C 555.078125 529.074219 529.074219 555.078125 497 555.078125 C 464.925781 555.078125 438.921875 529.074219 438.921875 497 C 438.921875 464.925781 464.925781 438.921875 497 438.921875 C 529.074219 438.921875 555.078125 464.925781 555.078125 497 "/>
<path style="fill:none;stroke-width:23.468001;stroke-linecap:butt;stroke-linejoin:miter;stroke:rgb(47.843137%,39.215686%,31.764706%);stroke-opacity:1;stroke-miterlimit:10;" d="M 591.863281 497 C 591.863281 549.390625 549.390625 591.863281 497 591.863281 C 444.609375 591.863281 402.136719 549.390625 402.136719 497 C 402.136719 444.609375 444.609375 402.136719 497 402.136719 C 549.390625 402.136719 591.863281 444.609375 591.863281 497 "/>
<path style="fill:none;stroke-width:16.948712;stroke-linecap:butt;stroke-linejoin:miter;stroke:rgb(39.215686%,46.27451%,49.803922%);stroke-opacity:1;stroke-miterlimit:10;" d="M 626.492188 497 C 626.492188 568.515625 568.515625 626.492188 497 626.492188 C 425.484375 626.492188 367.507813 568.515625 367.507813 497 C 367.507813 425.484375 425.484375 367.507813 497 367.507813 C 568.515625 367.507813 626.492188 425.484375 626.492188 497 "/>
</g>
</svg>
