<?xml version="1.0" encoding="UTF-8"?>
<svg xmlns="http://www.w3.org/2000/svg" xmlns:xlink="http://www.w3.org/1999/xlink" width="995pt" height="995pt" viewBox="0 0 995 995" version="1.1">
<g id="surface1">
<rect x="0" y="0" width="995" height="995" style="fill:rgb(94.117647%,94.117647%,94.117647%);fill-opacity:1;stroke:none;"/>
<path style="fill:none;stroke-width:13;stroke-linecap:butt;stroke-linejoin:miter;stroke:rgb(32.156863%,14.509804%,18.823529%);stroke-opacity:1;stroke-miterlimit:10;" d="M 516.578125 497 C 516.578125 507.8125 507.8125 516.578125 497 516.578125 C 486.1875 516.578125 477.421875 507.8125 477.421875 497 C 477.421875 486.1875 486.1875 477.421875 497 477.421875 C 507.8125 477.421875 516.578125 486.1875 516.578125 497 "/>
<path style="fill:none;stroke-width:12.7;stroke-linecap:butt;stroke-linejoin:miter;stroke:rgb(65.098039%,50.980392%,61.176471%);stroke-opacity:1;stroke-miterlimit:10;" d="M 541.054688 497 C 541.054688 521.332031 521.332031 541.054688 497 541.054688 C 472.667969 541.054688 452.945313 521.332031 452.945313 497 C 452.945313 472.667969 472.667969 452.945313 497 452.945313 C 521.332031 452.945313 541.054688 472.667969 541.054688 497 "/>
<path style="fill:none;stroke-width:12.4;stroke-linecap:butt;stroke-linejoin:miter;stroke:rgb(11.372549%,22.352941%,23.529412%);stroke-opacity:1;stroke-miterlimit:10;" d="M 565.628906 497 C 565.628906 534.902344 534.902344 565.628906 497 565.628906 C 459.097656 565.628906 428.371094 534.902344 428.371094 497 C 428.371094 459.097656 459.097656 428.371094 497 428.371094 C 534.902344 428.371094 565.628906 459.097656 565.628906 497 "/>
<path style="fill:none;stroke-width:12.1;stroke-linecap:butt;stroke-linejoin:miter;stroke:rgb(39.215686%,46.27451%,52.156863%);stroke-opacity:1;stroke-miterlimit:10;" d="M 594.265625 497 C 594.265625 550.71875 550.71875 594.265625 497 594.265625 C 443.28125 594.265625 399.734375 550.71875 399.734375 497 C 399.734375 443.28125 443.28125 399.734375 497 399.734375 C 550.71875 399.734375 594.265625 443.28125 594.265625 497 "/>
<path style="fill:none;stroke-width:11.8;stroke-linecap:butt;stroke-linejoin:miter;stroke:rgb(53.72549%,32.54902%,35.294118%);stroke-opacity:1;stroke-miterlimit:10;" d="M 615.066406 497 C 615.066406 562.207031 562.207031 615.066406 497 615.066406 C 431.792969 615.066406 378.933594 562.207031 378.933594 497 C 378.933594 431.792969 431.792969 378.933594 497 378.933594 C 562.207031 378.933594 615.066406 431.792969 615.066406 497 "/>
<path style="fill:none;stroke-width:11.5;stroke-linecap:butt;stroke-linejoin:miter;stroke:rgb(65.098039%,50.980392%,61.176471%);stroke-opacity:1;stroke-miterlimit:10;" d="M 644.996094 497 C 644.996094 578.738281 578.738281 644.996094 497 644.996094 C 415.261719 644.996094 349.003906 578.738281 349.003906 497 C 349.003906 415.261719 415.261719 349.003906 497 349.003906 C 578.738281 349.003906 644.996094 415.261719 644.996094 497 "/>
<path style="fill:none;stroke-width:11.2;stroke-linecap:butt;stroke-linejoin:miter;stroke:rgb(11.372549%,22.352941%,23.529412%);stroke-opacity:1;stroke-miterlimit:10;" d="M 677.496094 497 C 677.496094 596.6875 596.6875 677.496094 497 677.496094 C 397.3125 677.496094 316.503906 596.6875 316.503906 497 C 316.503906 397.3125 397.3125 316.503906 497 316.503906 C 596.6875 316.503906 677.496094 397.3125 677.496094 497 "/>
<path style="fill:none;stroke-width:10.9;stroke-linecap:butt;stroke-linejoin:miter;stroke:rgb(11.372549%,22.352941%,23.529412%);stroke-opacity:1;stroke-miterlimit:10;" d="M 705.894531 497 C 705.894531 612.371094 612.371094 705.894531 497 705.894531 C 381.628906 705.894531 288.105469 612.371094 288.105469 497 C 288.105469 381.628906 381.628906 288.105469 497 288.105469 C 612.371094 288.105469 705.894531 381.628906 705.894531 497 "/>
<path style="fill:none;stroke-width:10.6;stroke-linecap:butt;stroke-linejoin:miter;stroke:rgb(25.882353%,32.54902%,36.862745%);stroke-opacity:1;stroke-miterlimit:10;" d="M 725.488281 497 C 725.488281 623.191406 623.191406 725.488281 497 725.488281 C 370.808594 725.488281 268.511719 623.191406 268.511719 497 C 268.511719 370.808594 370.808594 268.511719 497 268.511719 C 623.191406 268.511719 725.488281 370.808594 725.488281 497 "/>
<path style="fill:none;stroke-width:10.3;stroke-linecap:butt;stroke-linejoin:miter;stroke:rgb(53.72549%,32.54902%,35.294118%);stroke-opacity:1;stroke-miterlimit:10;" d="M 751.984375 497 C 751.984375 637.824219 637.824219 751.984375 497 751.984375 C 356.175781 751.984375 242.015625 637.824219 242.015625 497 C 242.015625 356.175781 356.175781 242.015625 497 242.015625 C 637.824219 242.015625 751.984375 356.175781 751.984375 497 "/>
<path style="fill:none;stroke-width:10;stroke-linecap:butt;stroke-linejoin:miter;stroke:rgb(53.72549%,32.54902%,35.294118%);stroke-opacity:1;stroke-miterlimit:10;" d="M 769.195313 497 C 769.195313 647.328125 647.328125 769.195313 497 769.195313 C 346.671875 769.195313 224.804688 647.328125 224.804688 497 C 224.804688 346.671875 346.671875 224.804688 497 224.804688 C 647.328125 224.804688 769.195313 346.671875 769.195313 497 "/>
<path style="fill:none;stroke-width:9.7;stroke-linecap:butt;stroke-linejoin:miter;stroke:rgb(32.156863%,14.509804%,18.823529%);stroke-opacity:1;stroke-miterlimit:10;" d="M 796.589844 497 C 796.589844 662.457031 662.457031 796.589844 497 796.589844 C 331.542969 796.589844 197.410156 662.457031 197.410156 497 C 197.410156 331.542969 331.542969 197.410156 497 197.410156 C 662.457031 197.410156 796.589844 331.542969 796.589844 497 "/>
<path style="fill:none;stroke-width:9.4;stroke-linecap:butt;stroke-linejoin:miter;stroke:rgb(65.098039%,50.980392%,61.176471%);stroke-opacity:1;stroke-miterlimit:10;" d="M 828.917969 497 C 828.917969 680.3125 680.3125 828.917969 497 828.917969 C 313.6875 828.917969 165.082031 680.3125 165.082031 497 C 165.082031 313.6875 313.6875 165.082031 497 165.082031 C 680.3125 165.082031 828.917969 313.6875 828.917969 497 "/>
<path style="fill:none;stroke-width:9.1;stroke-linecap:butt;stroke-linejoin:miter;stroke:rgb(65.098039%,50.980392%,61.176471%);stroke-opacity:1;stroke-miterlimit:10;" d="M 862.730469 497 C 862.730469 698.988281 698.988281 862.730469 497 862.730469 C 295.011719 862.730469 131.269531 698.988281 131.269531 497 C 131.269531 295.011719 295.011719 131.269531 497 131.269531 C 698.988281 131.269531 862.730469 295.011719 862.730469 497 "/>
<path style="fill:none;stroke-width:8.8;stroke-linecap:butt;stroke-linejoin:miter;stroke:rgb(11.372549%,22.352941%,23.529412%);stroke-opacity:1;stroke-miterlimit:10;" d="M 889.351563 497 C 889.351563 637.171875 814.570313 766.699219 693.175781 836.785156 C 571.78125 906.871094 422.21875 906.871094 300.824219 836.785156 C 179.429688 766.699219 104.648438 637.171875 104.648438 497 C 104.648438 356.828125 179.429688 227.300781 300.824219 157.214844 C 422.21875 87.128906 571.78125 87.128906 693.175781 157.214844 C 814.570313 227.300781 889.351563 356.828125 889.351563 497 "/>
<path style="fill:none;stroke-width:8.5;stroke-linecap:butt;stroke-linejoin:miter;stroke:rgb(32.156863%,14.509804%,18.823529%);stroke-opacity:1;stroke-miterlimit:10;" d="M 918.039063 497 C 918.039063 647.421875 837.789063 786.421875 707.519531 861.632813 C 577.25 936.84375 416.75 936.84375 286.480469 861.632813 C 156.210938 786.421875 75.960938 647.421875 75.960938 497 C 75.960938 346.578125 156.210938 207.578125 286.480469 132.367188 C 416.75 57.15625 577.25 57.15625 707.519531 132.367188 C 837.789063 207.578125 918.039063 346.578125 918.039063 497 "/>
<path style="fill:none;stroke-width:8.2;stroke-linecap:butt;stroke-linejoin:miter;stroke:rgb(32.156863%,14.509804%,18.823529%);stroke-opacity:1;stroke-miterlimit:10;" d="M 940.785156 497 C 940.785156 655.550781 856.199219 802.054688 718.894531 881.328125 C 581.585938 960.605469 412.414063 960.605469 275.105469 881.328125 C 137.800781 802.054688 53.214844 655.550781 53.214844 497 C 53.214844 338.449219 137.800781 191.945313 275.105469 112.671875 C 412.414063 33.394531 581.585938 33.394531 718.894531 112.671875 C 856.199219 191.945313 940.785156 338.449219 940.785156 497 "/>
</g>
</svg>
