<?xml version="1.0" encoding="UTF-8"?>
<svg xmlns="http://www.w3.org/2000/svg" xmlns:xlink="http://www.w3.org/1999/xlink" width="995pt" height="995pt" viewBox="0 0 995 995" version="1.1">
<g id="surface1">
<rect x="0" y="0" width="995" height="995" style="fill:rgb(94.117647%,94.117647%,94.117647%);fill-opacity:1;stroke:none;"/>
<path style="fill:none;stroke-width:20;stroke-linecap:butt;stroke-linejoin:miter;stroke:rgb(57.647059%,52.156863%,76.078431%);stroke-opacity:1;stroke-miterlimit:10;" d="M 519.796875 497 C 519.796875 509.589844 509.589844 519.796875 497 519.796875 C 484.410156 519.796875 474.203125 509.589844 474.203125 497 C 474.203125 484.410156 484.410156 474.203125 497 474.203125 C 509.589844 474.203125 519.796875 484.410156 519.796875 497 "/>
<path style="fill:none;stroke-width:8.091818;stroke-linecap:butt;stroke-linejoin:miter;stroke:rgb(69.411765%,59.215686%,79.607843%);stroke-opacity:1;stroke-miterlimit:10;" d="M 555.738281 497 C 555.738281 529.441406 529.441406 555.738281 497 555.738281 C 464.558594 555.738281 438.261719 529.441406 438.261719 497 C 438.261719 464.558594 464.558594 438.261719 497 438.261719 C 529.441406 438.261719 555.738281 464.558594 555.738281 497 "/>
<path style="fill:none;stroke-width:6.143618;stroke-linecap:butt;stroke-linejoin:miter;stroke:rgb(57.647059%,52.156863%,76.078431%);stroke-opacity:1;stroke-miterlimit:10;" d="M 592.265625 497 C 592.265625 549.613281 549.613281 592.265625 497 592.265625 C 444.386719 592.265625 401.734375 549.613281 401.734375 497 C 401.734375 444.386719 444.386719 401.734375 497 401.734375 C 549.613281 401.734375 592.265625 444.386719 592.265625 497 "/>
</g>
</svg>
