<?xml version="1.0" encoding="UTF-8"?>
<svg xmlns="http://www.w3.org/2000/svg" xmlns:xlink="http://www.w3.org/1999/xlink" width="995pt" height="995pt" viewBox="0 0 995 995" version="1.1">
<g id="surface1">
<rect x="0" y="0" width="995" height="995" style="fill:rgb(94.117647%,94.117647%,94.117647%);fill-opacity:1;stroke:none;"/>
<path style="fill:none;stroke-width:20;stroke-linecap:butt;stroke-linejoin:miter;stroke:rgb(39.215686%,46.27451%,52.156863%);stroke-opacity:1;stroke-miterlimit:10;" d="M 518.527344 497 C 518.527344 508.890625 508.890625 518.527344 497 518.527344 C 485.109375 518.527344 475.472656 508.890625 475.472656 497 C 475.472656 485.109375 485.109375 475.472656 497 475.472656 C 508.890625 475.472656 518.527344 485.109375 518.527344 497 "/>
<path style="fill:none;stroke-width:18.969629;stroke-linecap:butt;stroke-linejoin:miter;stroke:rgb(11.372549%,22.352941%,23.529412%);stroke-opacity:1;stroke-miterlimit:10;" d="M 553.585938 497 C 553.585938 528.253906 528.253906 553.585938 497 553.585938 C 465.746094 553.585938 440.414063 528.253906 440.414063 497 C 440.414063 465.746094 465.746094 440.414063 497 440.414063 C 528.253906 440.414063 553.585938 465.746094 553.585938 497 "/>
<path style="fill:none;stroke-width:17.076805;stroke-linecap:butt;stroke-linejoin:miter;stroke:rgb(65.098039%,50.980392%,61.176471%);stroke-opacity:1;stroke-miterlimit:10;" d="M 588.558594 497 C 588.558594 547.566406 547.566406 588.558594 497 588.558594 C 446.433594 588.558594 405.441406 547.566406 405.441406 497 C 405.441406 446.433594 446.433594 405.441406 497 405.441406 C 547.566406 405.441406 588.558594 446.433594 588.558594 497 "/>
<path style="fill:none;stroke-width:16.412753;stroke-linecap:butt;stroke-linejoin:miter;stroke:rgb(53.72549%,32.54902%,35.294118%);stroke-opacity:1;stroke-miterlimit:10;" d="M 623.382813 497 C 623.382813 566.800781 566.800781 623.382813 497 623.382813 C 427.199219 623.382813 370.617188 566.800781 370.617188 497 C 370.617188 427.199219 427.199219 370.617188 497 370.617188 C 566.800781 370.617188 623.382813 427.199219 623.382813 497 "/>
<path style="fill:none;stroke-width:15.71865;stroke-linecap:butt;stroke-linejoin:miter;stroke:rgb(39.215686%,46.27451%,52.156863%);stroke-opacity:1;stroke-miterlimit:10;" d="M 658.246094 497 C 658.246094 586.054688 586.054688 658.246094 497 658.246094 C 407.945313 658.246094 335.753906 586.054688 335.753906 497 C 335.753906 407.945313 407.945313 335.753906 497 335.753906 C 586.054688 335.753906 658.246094 407.945313 658.246094 497 "/>
<path style="fill:none;stroke-width:14.978987;stroke-linecap:butt;stroke-linejoin:miter;stroke:rgb(65.098039%,50.980392%,61.176471%);stroke-opacity:1;stroke-miterlimit:10;" d="M 693.289063 497 C 693.289063 605.410156 605.410156 693.289063 497 693.289063 C 388.589844 693.289063 300.710938 605.410156 300.710938 497 C 300.710938 388.589844 388.589844 300.710938 497 300.710938 C 605.410156 300.710938 693.289063 388.589844 693.289063 497 "/>
<path style="fill:none;stroke-width:13.906953;stroke-linecap:butt;stroke-linejoin:miter;stroke:rgb(39.215686%,46.27451%,52.156863%);stroke-opacity:1;stroke-miterlimit:10;" d="M 728.019531 497 C 728.019531 624.589844 624.589844 728.019531 497 728.019531 C 369.410156 728.019531 265.980469 624.589844 265.980469 497 C 265.980469 369.410156 369.410156 265.980469 497 265.980469 C 624.589844 265.980469 728.019531 369.410156 728.019531 497 "/>
<path style="fill:none;stroke-width:12.597768;stroke-linecap:butt;stroke-linejoin:miter;stroke:rgb(65.098039%,50.980392%,61.176471%);stroke-opacity:1;stroke-miterlimit:10;" d="M 763.398438 497 C 763.398438 644.128906 644.128906 763.398438 497 763.398438 C 349.871094 763.398438 230.601563 644.128906 230.601563 497 C 230.601563 349.871094 349.871094 230.601563 497 230.601563 C 644.128906 230.601563 763.398438 349.871094 763.398438 497 "/>
<path style="fill:none;stroke-width:12.416249;stroke-linecap:butt;stroke-linejoin:miter;stroke:rgb(32.156863%,14.509804%,18.823529%);stroke-opacity:1;stroke-miterlimit:10;" d="M 798.515625 497 C 798.515625 663.523438 663.523438 798.515625 497 798.515625 C 330.476563 798.515625 195.484375 663.523438 195.484375 497 C 195.484375 330.476563 330.476563 195.484375 497 195.484375 C 663.523438 195.484375 798.515625 330.476563 798.515625 497 "/>
<path style="fill:none;stroke-width:11.285171;stroke-linecap:butt;stroke-linejoin:miter;stroke:rgb(65.098039%,50.980392%,61.176471%);stroke-opacity:1;stroke-miterlimit:10;" d="M 833.597656 497 C 833.597656 682.898438 682.898438 833.597656 497 833.597656 C 311.101563 833.597656 160.402344 682.898438 160.402344 497 C 160.402344 311.101563 311.101563 160.402344 497 160.402344 C 682.898438 160.402344 833.597656 311.101563 833.597656 497 "/>
<path style="fill:none;stroke-width:10.587027;stroke-linecap:butt;stroke-linejoin:miter;stroke:rgb(80.392157%,75.686275%,78.431373%);stroke-opacity:1;stroke-miterlimit:10;" d="M 868.675781 497 C 868.675781 629.789063 797.835938 752.488281 682.839844 818.882813 C 567.839844 885.277344 426.160156 885.277344 311.160156 818.882813 C 196.164063 752.488281 125.324219 629.789063 125.324219 497 C 125.324219 364.210938 196.164063 241.511719 311.160156 175.117188 C 426.160156 108.722656 567.839844 108.722656 682.839844 175.117188 C 797.835938 241.511719 868.675781 364.210938 868.675781 497 "/>
</g>
</svg>
