<?xml version="1.0" encoding="UTF-8"?>
<svg xmlns="http://www.w3.org/2000/svg" xmlns:xlink="http://www.w3.org/1999/xlink" width="995pt" height="995pt" viewBox="0 0 995 995" version="1.1">
<g id="surface1">
<rect x="0" y="0" width="995" height="995" style="fill:rgb(94.117647%,94.117647%,94.117647%);fill-opacity:1;stroke:none;"/>
<path style="fill:none;stroke-width:20;stroke-linecap:butt;stroke-linejoin:miter;stroke:rgb(75.294118%,42.352941%,47.843137%);stroke-opacity:1;stroke-miterlimit:10;" d="M 518.699219 497 C 518.699219 508.984375 508.984375 518.699219 497 518.699219 C 485.015625 518.699219 475.300781 508.984375 475.300781 497 C 475.300781 485.015625 485.015625 475.300781 497 475.300781 C 508.984375 475.300781 518.699219 485.015625 518.699219 497 "/>
<path style="fill:none;stroke-width:19.424435;stroke-linecap:butt;stroke-linejoin:miter;stroke:rgb(50.588235%,45.882353%,52.941176%);stroke-opacity:1;stroke-miterlimit:10;" d="M 553.773438 497 C 553.773438 528.355469 528.355469 553.773438 497 553.773438 C 465.644531 553.773438 440.226563 528.355469 440.226563 497 C 440.226563 465.644531 465.644531 440.226563 497 440.226563 C 528.355469 440.226563 553.773438 465.644531 553.773438 497 "/>
<path style="fill:none;stroke-width:18.450085;stroke-linecap:butt;stroke-linejoin:miter;stroke:rgb(50.588235%,45.882353%,52.941176%);stroke-opacity:1;stroke-miterlimit:10;" d="M 588.730469 497 C 588.730469 547.660156 547.660156 588.730469 497 588.730469 C 446.339844 588.730469 405.269531 547.660156 405.269531 497 C 405.269531 446.339844 446.339844 405.269531 497 405.269531 C 547.660156 405.269531 588.730469 446.339844 588.730469 497 "/>
<path style="fill:none;stroke-width:18.029362;stroke-linecap:butt;stroke-linejoin:miter;stroke:rgb(25.882353%,23.921569%,22.745098%);stroke-opacity:1;stroke-miterlimit:10;" d="M 623.8125 497 C 623.8125 567.035156 567.035156 623.8125 497 623.8125 C 426.964844 623.8125 370.1875 567.035156 370.1875 497 C 370.1875 426.964844 426.964844 370.1875 497 370.1875 C 567.035156 370.1875 623.8125 426.964844 623.8125 497 "/>
<path style="fill:none;stroke-width:17.296662;stroke-linecap:butt;stroke-linejoin:miter;stroke:rgb(50.588235%,45.882353%,52.941176%);stroke-opacity:1;stroke-miterlimit:10;" d="M 659.292969 497 C 659.292969 586.632813 586.632813 659.292969 497 659.292969 C 407.367188 659.292969 334.707031 586.632813 334.707031 497 C 334.707031 407.367188 407.367188 334.707031 497 334.707031 C 586.632813 334.707031 659.292969 407.367188 659.292969 497 "/>
<path style="fill:none;stroke-width:16.106158;stroke-linecap:butt;stroke-linejoin:miter;stroke:rgb(74.901961%,72.941176%,67.058824%);stroke-opacity:1;stroke-miterlimit:10;" d="M 693.929688 497 C 693.929688 605.761719 605.761719 693.929688 497 693.929688 C 388.238281 693.929688 300.070313 605.761719 300.070313 497 C 300.070313 388.238281 388.238281 300.070313 497 300.070313 C 605.761719 300.070313 693.929688 388.238281 693.929688 497 "/>
<path style="fill:none;stroke-width:15.303528;stroke-linecap:butt;stroke-linejoin:miter;stroke:rgb(74.901961%,72.941176%,67.058824%);stroke-opacity:1;stroke-miterlimit:10;" d="M 729.078125 497 C 729.078125 625.175781 625.175781 729.078125 497 729.078125 C 368.824219 729.078125 264.921875 625.175781 264.921875 497 C 264.921875 368.824219 368.824219 264.921875 497 264.921875 C 625.175781 264.921875 729.078125 368.824219 729.078125 497 "/>
<path style="fill:none;stroke-width:13.832121;stroke-linecap:butt;stroke-linejoin:miter;stroke:rgb(75.294118%,42.352941%,47.843137%);stroke-opacity:1;stroke-miterlimit:10;" d="M 763.917969 497 C 763.917969 644.414063 644.414063 763.917969 497 763.917969 C 349.585938 763.917969 230.082031 644.414063 230.082031 497 C 230.082031 349.585938 349.585938 230.082031 497 230.082031 C 644.414063 230.082031 763.917969 349.585938 763.917969 497 "/>
<path style="fill:none;stroke-width:12.765036;stroke-linecap:butt;stroke-linejoin:miter;stroke:rgb(75.294118%,42.352941%,47.843137%);stroke-opacity:1;stroke-miterlimit:10;" d="M 798.804688 497 C 798.804688 663.683594 663.683594 798.804688 497 798.804688 C 330.316406 798.804688 195.195313 663.683594 195.195313 497 C 195.195313 330.316406 330.316406 195.195313 497 195.195313 C 663.683594 195.195313 798.804688 330.316406 798.804688 497 "/>
<path style="fill:none;stroke-width:11.871726;stroke-linecap:butt;stroke-linejoin:miter;stroke:rgb(25.882353%,23.921569%,22.745098%);stroke-opacity:1;stroke-miterlimit:10;" d="M 834.074219 497 C 834.074219 683.160156 683.160156 834.074219 497 834.074219 C 310.839844 834.074219 159.925781 683.160156 159.925781 497 C 159.925781 310.839844 310.839844 159.925781 497 159.925781 C 683.160156 159.925781 834.074219 310.839844 834.074219 497 "/>
<path style="fill:none;stroke-width:10.989173;stroke-linecap:butt;stroke-linejoin:miter;stroke:rgb(18.823529%,43.529412%,57.647059%);stroke-opacity:1;stroke-miterlimit:10;" d="M 868.414063 497 C 868.414063 629.695313 797.625 752.308594 682.707031 818.65625 C 567.792969 885.003906 426.207031 885.003906 311.292969 818.65625 C 196.375 752.308594 125.585938 629.695313 125.585938 497 C 125.585938 364.304688 196.375 241.691406 311.292969 175.34375 C 426.207031 108.996094 567.792969 108.996094 682.707031 175.34375 C 797.625 241.691406 868.414063 364.304688 868.414063 497 "/>
</g>
</svg>
