<?xml version="1.0" encoding="UTF-8"?>
<svg xmlns="http://www.w3.org/2000/svg" xmlns:xlink="http://www.w3.org/1999/xlink" width="995pt" height="995pt" viewBox="0 0 995 995" version="1.1">
<g id="surface1">
<rect x="0" y="0" width="995" height="995" style="fill:rgb(94.117647%,94.117647%,94.117647%);fill-opacity:1;stroke:none;"/>
<path style="fill:none;stroke-width:20;stroke-linecap:butt;stroke-linejoin:miter;stroke:rgb(90.196078%,68.627451%,13.333333%);stroke-opacity:1;stroke-miterlimit:10;" d="M 518.273438 497 C 518.273438 508.75 508.75 518.273438 497 518.273438 C 485.25 518.273438 475.726563 508.75 475.726563 497 C 475.726563 485.25 485.25 475.726563 497 475.726563 C 508.75 475.726563 518.273438 485.25 518.273438 497 "/>
<path style="fill:none;stroke-width:22.12298;stroke-linecap:butt;stroke-linejoin:miter;stroke:rgb(81.960784%,81.960784%,83.921569%);stroke-opacity:1;stroke-miterlimit:10;" d="M 552.839844 497 C 552.839844 527.839844 527.839844 552.839844 497 552.839844 C 466.160156 552.839844 441.160156 527.839844 441.160156 497 C 441.160156 466.160156 466.160156 441.160156 497 441.160156 C 527.839844 441.160156 552.839844 466.160156 552.839844 497 "/>
<path style="fill:none;stroke-width:28.014953;stroke-linecap:butt;stroke-linejoin:miter;stroke:rgb(81.960784%,81.960784%,83.921569%);stroke-opacity:1;stroke-miterlimit:10;" d="M 588.3125 497 C 588.3125 547.429688 547.429688 588.3125 497 588.3125 C 446.570313 588.3125 405.6875 547.429688 405.6875 497 C 405.6875 446.570313 446.570313 405.6875 497 405.6875 C 547.429688 405.6875 588.3125 446.570313 588.3125 497 "/>
<path style="fill:none;stroke-width:18.625386;stroke-linecap:butt;stroke-linejoin:miter;stroke:rgb(24.705882%,47.058824%,53.72549%);stroke-opacity:1;stroke-miterlimit:10;" d="M 622.867188 497 C 622.867188 566.515625 566.515625 622.867188 497 622.867188 C 427.484375 622.867188 371.132813 566.515625 371.132813 497 C 371.132813 427.484375 427.484375 371.132813 497 371.132813 C 566.515625 371.132813 622.867188 427.484375 622.867188 497 "/>
<path style="fill:none;stroke-width:15.709198;stroke-linecap:butt;stroke-linejoin:miter;stroke:rgb(61.568627%,51.764706%,50.196078%);stroke-opacity:1;stroke-miterlimit:10;" d="M 657.832031 497 C 657.832031 585.824219 585.824219 657.832031 497 657.832031 C 408.175781 657.832031 336.167969 585.824219 336.167969 497 C 336.167969 408.175781 408.175781 336.167969 497 336.167969 C 585.824219 336.167969 657.832031 408.175781 657.832031 497 "/>
<path style="fill:none;stroke-width:15.749232;stroke-linecap:butt;stroke-linejoin:miter;stroke:rgb(81.960784%,81.960784%,83.921569%);stroke-opacity:1;stroke-miterlimit:10;" d="M 692.191406 497 C 692.191406 604.800781 604.800781 692.191406 497 692.191406 C 389.199219 692.191406 301.808594 604.800781 301.808594 497 C 301.808594 389.199219 389.199219 301.808594 497 301.808594 C 604.800781 301.808594 692.191406 389.199219 692.191406 497 "/>
<path style="fill:none;stroke-width:11.761307;stroke-linecap:butt;stroke-linejoin:miter;stroke:rgb(24.705882%,47.058824%,53.72549%);stroke-opacity:1;stroke-miterlimit:10;" d="M 727.109375 497 C 727.109375 624.085938 624.085938 727.109375 497 727.109375 C 369.914063 727.109375 266.890625 624.085938 266.890625 497 C 266.890625 369.914063 369.914063 266.890625 497 266.890625 C 624.085938 266.890625 727.109375 369.914063 727.109375 497 "/>
<path style="fill:none;stroke-width:15.579857;stroke-linecap:butt;stroke-linejoin:miter;stroke:rgb(57.254902%,65.882353%,70.980392%);stroke-opacity:1;stroke-miterlimit:10;" d="M 762.910156 497 C 762.910156 643.859375 643.859375 762.910156 497 762.910156 C 350.140625 762.910156 231.089844 643.859375 231.089844 497 C 231.089844 350.140625 350.140625 231.089844 497 231.089844 C 643.859375 231.089844 762.910156 350.140625 762.910156 497 "/>
<path style="fill:none;stroke-width:12.05563;stroke-linecap:butt;stroke-linejoin:miter;stroke:rgb(57.254902%,65.882353%,70.980392%);stroke-opacity:1;stroke-miterlimit:10;" d="M 798.859375 497 C 798.859375 663.714844 663.714844 798.859375 497 798.859375 C 330.285156 798.859375 195.140625 663.714844 195.140625 497 C 195.140625 330.285156 330.285156 195.140625 497 195.140625 C 663.714844 195.140625 798.859375 330.285156 798.859375 497 "/>
<path style="fill:none;stroke-width:9.213708;stroke-linecap:butt;stroke-linejoin:miter;stroke:rgb(81.960784%,81.960784%,83.921569%);stroke-opacity:1;stroke-miterlimit:10;" d="M 833.546875 497 C 833.546875 682.867188 682.867188 833.546875 497 833.546875 C 311.132813 833.546875 160.453125 682.867188 160.453125 497 C 160.453125 311.132813 311.132813 160.453125 497 160.453125 C 682.867188 160.453125 833.546875 311.132813 833.546875 497 "/>
<path style="fill:none;stroke-width:9.599076;stroke-linecap:butt;stroke-linejoin:miter;stroke:rgb(82.745098%,79.215686%,58.431373%);stroke-opacity:1;stroke-miterlimit:10;" d="M 872.25 497 C 872.25 631.0625 800.726563 754.941406 684.625 821.976563 C 568.523438 889.007813 425.476563 889.007813 309.375 821.976563 C 193.273438 754.941406 121.75 631.0625 121.75 497 C 121.75 362.9375 193.273438 239.058594 309.375 172.023438 C 425.476563 104.992188 568.523438 104.992188 684.625 172.023438 C 800.726563 239.058594 872.25 362.9375 872.25 497 "/>
</g>
</svg>
