<?xml version="1.0" encoding="UTF-8"?>
<svg xmlns="http://www.w3.org/2000/svg" xmlns:xlink="http://www.w3.org/1999/xlink" width="995pt" height="995pt" viewBox="0 0 995 995" version="1.1">
<g id="surface1">
<rect x="0" y="0" width="995" height="995" style="fill:rgb(94.117647%,94.117647%,94.117647%);fill-opacity:1;stroke:none;"/>
<path style="fill:none;stroke-width:20;stroke-linecap:butt;stroke-linejoin:miter;stroke:rgb(61.568627%,51.764706%,50.196078%);stroke-opacity:1;stroke-miterlimit:10;" d="M 518.097656 497 C 518.097656 508.652344 508.652344 518.097656 497 518.097656 C 485.347656 518.097656 475.902344 508.652344 475.902344 497 C 475.902344 485.347656 485.347656 475.902344 497 475.902344 C 508.652344 475.902344 518.097656 485.347656 518.097656 497 "/>
<path style="fill:none;stroke-width:12.73897;stroke-linecap:butt;stroke-linejoin:miter;stroke:rgb(57.254902%,65.882353%,70.980392%);stroke-opacity:1;stroke-miterlimit:10;" d="M 553.097656 497 C 553.097656 527.984375 527.984375 553.097656 497 553.097656 C 466.015625 553.097656 440.902344 527.984375 440.902344 497 C 440.902344 466.015625 466.015625 440.902344 497 440.902344 C 527.984375 440.902344 553.097656 466.015625 553.097656 497 "/>
<path style="fill:none;stroke-width:10.517201;stroke-linecap:butt;stroke-linejoin:miter;stroke:rgb(61.568627%,51.764706%,50.196078%);stroke-opacity:1;stroke-miterlimit:10;" d="M 588.097656 497 C 588.097656 547.3125 547.3125 588.097656 497 588.097656 C 446.6875 588.097656 405.902344 547.3125 405.902344 497 C 405.902344 446.6875 446.6875 405.902344 497 405.902344 C 547.3125 405.902344 588.097656 446.6875 588.097656 497 "/>
<path style="fill:none;stroke-width:4.811678;stroke-linecap:butt;stroke-linejoin:miter;stroke:rgb(24.705882%,47.058824%,53.72549%);stroke-opacity:1;stroke-miterlimit:10;" d="M 623.097656 497 C 623.097656 566.640625 566.640625 623.097656 497 623.097656 C 427.359375 623.097656 370.902344 566.640625 370.902344 497 C 370.902344 427.359375 427.359375 370.902344 497 370.902344 C 566.640625 370.902344 623.097656 427.359375 623.097656 497 "/>
</g>
</svg>
