<?xml version="1.0" encoding="UTF-8"?>
<svg xmlns="http://www.w3.org/2000/svg" xmlns:xlink="http://www.w3.org/1999/xlink" width="995pt" height="995pt" viewBox="0 0 995 995" version="1.1">
<g id="surface1">
<rect x="0" y="0" width="995" height="995" style="fill:rgb(94.117647%,94.117647%,94.117647%);fill-opacity:1;stroke:none;"/>
<path style="fill:none;stroke-width:20;stroke-linecap:butt;stroke-linejoin:miter;stroke:rgb(21.568627%,49.019608%,65.882353%);stroke-opacity:1;stroke-miterlimit:10;" d="M 519.453125 497 C 519.453125 509.402344 509.402344 519.453125 497 519.453125 C 484.597656 519.453125 474.546875 509.402344 474.546875 497 C 474.546875 484.597656 484.597656 474.546875 497 474.546875 C 509.402344 474.546875 519.453125 484.597656 519.453125 497 "/>
<path style="fill:none;stroke-width:20.471795;stroke-linecap:butt;stroke-linejoin:miter;stroke:rgb(94.117647%,63.921569%,74.509804%);stroke-opacity:1;stroke-miterlimit:10;" d="M 554.453125 497 C 554.453125 528.730469 528.730469 554.453125 497 554.453125 C 465.269531 554.453125 439.546875 528.730469 439.546875 497 C 439.546875 465.269531 465.269531 439.546875 497 439.546875 C 528.730469 439.546875 554.453125 465.269531 554.453125 497 "/>
<path style="fill:none;stroke-width:27.735788;stroke-linecap:butt;stroke-linejoin:miter;stroke:rgb(94.117647%,63.921569%,74.509804%);stroke-opacity:1;stroke-miterlimit:10;" d="M 589.453125 497 C 589.453125 548.058594 548.058594 589.453125 497 589.453125 C 445.941406 589.453125 404.546875 548.058594 404.546875 497 C 404.546875 445.941406 445.941406 404.546875 497 404.546875 C 548.058594 404.546875 589.453125 445.941406 589.453125 497 "/>
<path style="fill:none;stroke-width:26.813735;stroke-linecap:butt;stroke-linejoin:miter;stroke:rgb(94.117647%,63.921569%,74.509804%);stroke-opacity:1;stroke-miterlimit:10;" d="M 624.453125 497 C 624.453125 567.390625 567.390625 624.453125 497 624.453125 C 426.609375 624.453125 369.546875 567.390625 369.546875 497 C 369.546875 426.609375 426.609375 369.546875 497 369.546875 C 567.390625 369.546875 624.453125 426.609375 624.453125 497 "/>
<path style="fill:none;stroke-width:34.031469;stroke-linecap:butt;stroke-linejoin:miter;stroke:rgb(94.117647%,63.921569%,74.509804%);stroke-opacity:1;stroke-miterlimit:10;" d="M 659.453125 497 C 659.453125 586.71875 586.71875 659.453125 497 659.453125 C 407.28125 659.453125 334.546875 586.71875 334.546875 497 C 334.546875 407.28125 407.28125 334.546875 497 334.546875 C 586.71875 334.546875 659.453125 407.28125 659.453125 497 "/>
<path style="fill:none;stroke-width:29.959946;stroke-linecap:butt;stroke-linejoin:miter;stroke:rgb(94.117647%,63.921569%,74.509804%);stroke-opacity:1;stroke-miterlimit:10;" d="M 694.453125 497 C 694.453125 606.050781 606.050781 694.453125 497 694.453125 C 387.949219 694.453125 299.546875 606.050781 299.546875 497 C 299.546875 387.949219 387.949219 299.546875 497 299.546875 C 606.050781 299.546875 694.453125 387.949219 694.453125 497 "/>
<path style="fill:none;stroke-width:28.520104;stroke-linecap:butt;stroke-linejoin:miter;stroke:rgb(60%,38.823529%,38.431373%);stroke-opacity:1;stroke-miterlimit:10;" d="M 729.453125 497 C 729.453125 625.378906 625.378906 729.453125 497 729.453125 C 368.621094 729.453125 264.546875 625.378906 264.546875 497 C 264.546875 368.621094 368.621094 264.546875 497 264.546875 C 625.378906 264.546875 729.453125 368.621094 729.453125 497 "/>
<path style="fill:none;stroke-width:26.326959;stroke-linecap:butt;stroke-linejoin:miter;stroke:rgb(94.117647%,63.921569%,74.509804%);stroke-opacity:1;stroke-miterlimit:10;" d="M 764.453125 497 C 764.453125 644.710938 644.710938 764.453125 497 764.453125 C 349.289063 764.453125 229.546875 644.710938 229.546875 497 C 229.546875 349.289063 349.289063 229.546875 497 229.546875 C 644.710938 229.546875 764.453125 349.289063 764.453125 497 "/>
<path style="fill:none;stroke-width:21.99919;stroke-linecap:butt;stroke-linejoin:miter;stroke:rgb(60%,95.294118%,92.54902%);stroke-opacity:1;stroke-miterlimit:10;" d="M 799.453125 497 C 799.453125 664.039063 664.039063 799.453125 497 799.453125 C 329.960938 799.453125 194.546875 664.039063 194.546875 497 C 194.546875 329.960938 329.960938 194.546875 497 194.546875 C 664.039063 194.546875 799.453125 329.960938 799.453125 497 "/>
<path style="fill:none;stroke-width:26.314878;stroke-linecap:butt;stroke-linejoin:miter;stroke:rgb(94.117647%,63.921569%,74.509804%);stroke-opacity:1;stroke-miterlimit:10;" d="M 834.453125 497 C 834.453125 683.371094 683.371094 834.453125 497 834.453125 C 310.628906 834.453125 159.546875 683.371094 159.546875 497 C 159.546875 310.628906 310.628906 159.546875 497 159.546875 C 683.371094 159.546875 834.453125 310.628906 834.453125 497 "/>
<path style="fill:none;stroke-width:21.826037;stroke-linecap:butt;stroke-linejoin:miter;stroke:rgb(94.117647%,63.921569%,74.509804%);stroke-opacity:1;stroke-miterlimit:10;" d="M 869.453125 497 C 869.453125 630.066406 798.464844 753.023438 683.226563 819.554688 C 567.988281 886.085938 426.011719 886.085938 310.773438 819.554688 C 195.535156 753.023438 124.546875 630.066406 124.546875 497 C 124.546875 363.933594 195.535156 240.976563 310.773438 174.445313 C 426.011719 107.914063 567.988281 107.914063 683.226563 174.445313 C 798.464844 240.976563 869.453125 363.933594 869.453125 497 "/>
</g>
</svg>
