<?xml version="1.0" encoding="UTF-8"?>
<svg xmlns="http://www.w3.org/2000/svg" xmlns:xlink="http://www.w3.org/1999/xlink" width="500pt" height="500pt" viewBox="0 0 500 500" version="1.1">
<g id="surface1">
<rect x="0" y="0" width="500" height="500" style="fill:rgb(0%,0%,0%);fill-opacity:1;stroke:none;"/>
<path style="fill-rule:nonzero;fill:rgb(100%,100%,100%);fill-opacity:1;stroke-width:1;stroke-linecap:butt;stroke-linejoin:miter;stroke:rgb(36.862745%,32.54902%,20.392157%);stroke-opacity:1;stroke-miterlimit:10;" d="M 5 158 C 5 159.332031 3 159.332031 3 158 C 3 156.667969 5 156.667969 5 158 "/>
<path style="fill-rule:nonzero;fill:rgb(100%,100%,100%);fill-opacity:1;stroke-width:1;stroke-linecap:butt;stroke-linejoin:miter;stroke:rgb(27.058824%,20%,16.078431%);stroke-opacity:1;stroke-miterlimit:10;" d="M 16 487 C 16 488.332031 14 488.332031 14 487 C 14 485.667969 16 485.667969 16 487 "/>
<path style="fill-rule:nonzero;fill:rgb(100%,100%,100%);fill-opacity:1;stroke-width:1;stroke-linecap:butt;stroke-linejoin:miter;stroke:rgb(36.862745%,32.54902%,20.392157%);stroke-opacity:1;stroke-miterlimit:10;" d="M 17 276 C 17 277.332031 15 277.332031 15 276 C 15 274.667969 17 274.667969 17 276 "/>
<path style="fill-rule:nonzero;fill:rgb(100%,100%,100%);fill-opacity:1;stroke-width:1;stroke-linecap:butt;stroke-linejoin:miter;stroke:rgb(64.705882%,54.509804%,47.45098%);stroke-opacity:1;stroke-miterlimit:10;" d="M 26 287 C 26 288.332031 24 288.332031 24 287 C 24 285.667969 26 285.667969 26 287 "/>
<path style="fill:none;stroke-width:1;stroke-linecap:butt;stroke-linejoin:miter;stroke:rgb(45.098039%,34.901961%,27.843137%);stroke-opacity:1;stroke-miterlimit:10;" d="M 27 287 C 27 289.667969 23 289.667969 23 287 C 23 284.332031 27 284.332031 27 287 "/>
<path style="fill:none;stroke-width:1;stroke-linecap:butt;stroke-linejoin:miter;stroke:rgb(25.490196%,15.294118%,8.235294%);stroke-opacity:1;stroke-miterlimit:10;" d="M 28 287 C 28 291 22 291 22 287 C 22 283 28 283 28 287 "/>
<path style="fill-rule:nonzero;fill:rgb(100%,100%,100%);fill-opacity:1;stroke-width:1;stroke-linecap:butt;stroke-linejoin:miter;stroke:rgb(31.372549%,32.156863%,50.196078%);stroke-opacity:1;stroke-miterlimit:10;" d="M 28 277 C 28 278.332031 26 278.332031 26 277 C 26 275.667969 28 275.667969 28 277 "/>
<path style="fill:none;stroke-width:1;stroke-linecap:butt;stroke-linejoin:miter;stroke:rgb(11.764706%,12.54902%,30.588235%);stroke-opacity:1;stroke-miterlimit:10;" d="M 29 277 C 29 279.667969 25 279.667969 25 277 C 25 274.332031 29 274.332031 29 277 "/>
<path style="fill-rule:nonzero;fill:rgb(100%,100%,100%);fill-opacity:1;stroke-width:1;stroke-linecap:butt;stroke-linejoin:miter;stroke:rgb(44.313725%,36.078431%,34.509804%);stroke-opacity:1;stroke-miterlimit:10;" d="M 30 242 C 30 243.332031 28 243.332031 28 242 C 28 240.667969 30 240.667969 30 242 "/>
<path style="fill:none;stroke-width:1;stroke-linecap:butt;stroke-linejoin:miter;stroke:rgb(24.705882%,16.470588%,14.901961%);stroke-opacity:1;stroke-miterlimit:10;" d="M 31 242 C 31 244.667969 27 244.667969 27 242 C 27 239.332031 31 239.332031 31 242 "/>
<path style="fill-rule:nonzero;fill:rgb(100%,100%,100%);fill-opacity:1;stroke-width:1;stroke-linecap:butt;stroke-linejoin:miter;stroke:rgb(64.705882%,54.509804%,47.45098%);stroke-opacity:1;stroke-miterlimit:10;" d="M 37 492 C 37 493.332031 35 493.332031 35 492 C 35 490.667969 37 490.667969 37 492 "/>
<path style="fill:none;stroke-width:1;stroke-linecap:butt;stroke-linejoin:miter;stroke:rgb(45.098039%,34.901961%,27.843137%);stroke-opacity:1;stroke-miterlimit:10;" d="M 38 492 C 38 494.667969 34 494.667969 34 492 C 34 489.332031 38 489.332031 38 492 "/>
<path style="fill:none;stroke-width:1;stroke-linecap:butt;stroke-linejoin:miter;stroke:rgb(25.490196%,15.294118%,8.235294%);stroke-opacity:1;stroke-miterlimit:10;" d="M 39 492 C 39 496 33 496 33 492 C 33 488 39 488 39 492 "/>
<path style="fill-rule:nonzero;fill:rgb(100%,100%,100%);fill-opacity:1;stroke-width:1;stroke-linecap:butt;stroke-linejoin:miter;stroke:rgb(44.313725%,36.078431%,34.509804%);stroke-opacity:1;stroke-miterlimit:10;" d="M 39 274 C 39 275.332031 37 275.332031 37 274 C 37 272.667969 39 272.667969 39 274 "/>
<path style="fill:none;stroke-width:1;stroke-linecap:butt;stroke-linejoin:miter;stroke:rgb(24.705882%,16.470588%,14.901961%);stroke-opacity:1;stroke-miterlimit:10;" d="M 40 274 C 40 276.667969 36 276.667969 36 274 C 36 271.332031 40 271.332031 40 274 "/>
<path style="fill-rule:nonzero;fill:rgb(100%,100%,100%);fill-opacity:1;stroke-width:1;stroke-linecap:butt;stroke-linejoin:miter;stroke:rgb(73.333333%,68.235294%,62.745098%);stroke-opacity:1;stroke-miterlimit:10;" d="M 41 61 C 41 62.332031 39 62.332031 39 61 C 39 59.667969 41 59.667969 41 61 "/>
<path style="fill:none;stroke-width:1;stroke-linecap:butt;stroke-linejoin:miter;stroke:rgb(53.72549%,48.627451%,43.137255%);stroke-opacity:1;stroke-miterlimit:10;" d="M 42 61 C 42 63.667969 38 63.667969 38 61 C 38 58.332031 42 58.332031 42 61 "/>
<path style="fill:none;stroke-width:1;stroke-linecap:butt;stroke-linejoin:miter;stroke:rgb(34.117647%,29.019608%,23.529412%);stroke-opacity:1;stroke-miterlimit:10;" d="M 43 61 C 43 65 37 65 37 61 C 37 57 43 57 43 61 "/>
<path style="fill-rule:nonzero;fill:rgb(100%,100%,100%);fill-opacity:1;stroke-width:1;stroke-linecap:butt;stroke-linejoin:miter;stroke:rgb(27.058824%,20%,16.078431%);stroke-opacity:1;stroke-miterlimit:10;" d="M 44 249 C 44 250.332031 42 250.332031 42 249 C 42 247.667969 44 247.667969 44 249 "/>
<path style="fill-rule:nonzero;fill:rgb(100%,100%,100%);fill-opacity:1;stroke-width:1;stroke-linecap:butt;stroke-linejoin:miter;stroke:rgb(73.333333%,68.235294%,62.745098%);stroke-opacity:1;stroke-miterlimit:10;" d="M 46 191 C 46 192.332031 44 192.332031 44 191 C 44 189.667969 46 189.667969 46 191 "/>
<path style="fill:none;stroke-width:1;stroke-linecap:butt;stroke-linejoin:miter;stroke:rgb(53.72549%,48.627451%,43.137255%);stroke-opacity:1;stroke-miterlimit:10;" d="M 47 191 C 47 193.667969 43 193.667969 43 191 C 43 188.332031 47 188.332031 47 191 "/>
<path style="fill:none;stroke-width:1;stroke-linecap:butt;stroke-linejoin:miter;stroke:rgb(34.117647%,29.019608%,23.529412%);stroke-opacity:1;stroke-miterlimit:10;" d="M 48 191 C 48 195 42 195 42 191 C 42 187 48 187 48 191 "/>
<path style="fill-rule:nonzero;fill:rgb(100%,100%,100%);fill-opacity:1;stroke-width:1;stroke-linecap:butt;stroke-linejoin:miter;stroke:rgb(27.058824%,20%,16.078431%);stroke-opacity:1;stroke-miterlimit:10;" d="M 55 68 C 55 69.332031 53 69.332031 53 68 C 53 66.667969 55 66.667969 55 68 "/>
<path style="fill-rule:nonzero;fill:rgb(100%,100%,100%);fill-opacity:1;stroke-width:1;stroke-linecap:butt;stroke-linejoin:miter;stroke:rgb(64.705882%,54.509804%,47.45098%);stroke-opacity:1;stroke-miterlimit:10;" d="M 55 488 C 55 489.332031 53 489.332031 53 488 C 53 486.667969 55 486.667969 55 488 "/>
<path style="fill:none;stroke-width:1;stroke-linecap:butt;stroke-linejoin:miter;stroke:rgb(45.098039%,34.901961%,27.843137%);stroke-opacity:1;stroke-miterlimit:10;" d="M 56 488 C 56 490.667969 52 490.667969 52 488 C 52 485.332031 56 485.332031 56 488 "/>
<path style="fill:none;stroke-width:1;stroke-linecap:butt;stroke-linejoin:miter;stroke:rgb(25.490196%,15.294118%,8.235294%);stroke-opacity:1;stroke-miterlimit:10;" d="M 57 488 C 57 492 51 492 51 488 C 51 484 57 484 57 488 "/>
<path style="fill-rule:nonzero;fill:rgb(100%,100%,100%);fill-opacity:1;stroke-width:1;stroke-linecap:butt;stroke-linejoin:miter;stroke:rgb(44.313725%,36.078431%,34.509804%);stroke-opacity:1;stroke-miterlimit:10;" d="M 56 43 C 56 44.332031 54 44.332031 54 43 C 54 41.667969 56 41.667969 56 43 "/>
<path style="fill:none;stroke-width:1;stroke-linecap:butt;stroke-linejoin:miter;stroke:rgb(24.705882%,16.470588%,14.901961%);stroke-opacity:1;stroke-miterlimit:10;" d="M 57 43 C 57 45.667969 53 45.667969 53 43 C 53 40.332031 57 40.332031 57 43 "/>
<path style="fill-rule:nonzero;fill:rgb(100%,100%,100%);fill-opacity:1;stroke-width:1;stroke-linecap:butt;stroke-linejoin:miter;stroke:rgb(36.862745%,32.54902%,20.392157%);stroke-opacity:1;stroke-miterlimit:10;" d="M 61 62 C 61 63.332031 59 63.332031 59 62 C 59 60.667969 61 60.667969 61 62 "/>
<path style="fill-rule:nonzero;fill:rgb(100%,100%,100%);fill-opacity:1;stroke-width:1;stroke-linecap:butt;stroke-linejoin:miter;stroke:rgb(64.705882%,54.509804%,47.45098%);stroke-opacity:1;stroke-miterlimit:10;" d="M 79 490 C 79 491.332031 77 491.332031 77 490 C 77 488.667969 79 488.667969 79 490 "/>
<path style="fill:none;stroke-width:1;stroke-linecap:butt;stroke-linejoin:miter;stroke:rgb(45.098039%,34.901961%,27.843137%);stroke-opacity:1;stroke-miterlimit:10;" d="M 80 490 C 80 492.667969 76 492.667969 76 490 C 76 487.332031 80 487.332031 80 490 "/>
<path style="fill:none;stroke-width:1;stroke-linecap:butt;stroke-linejoin:miter;stroke:rgb(25.490196%,15.294118%,8.235294%);stroke-opacity:1;stroke-miterlimit:10;" d="M 81 490 C 81 494 75 494 75 490 C 75 486 81 486 81 490 "/>
<path style="fill-rule:nonzero;fill:rgb(100%,100%,100%);fill-opacity:1;stroke-width:1;stroke-linecap:butt;stroke-linejoin:miter;stroke:rgb(36.862745%,32.54902%,20.392157%);stroke-opacity:1;stroke-miterlimit:10;" d="M 93 376 C 93 377.332031 91 377.332031 91 376 C 91 374.667969 93 374.667969 93 376 "/>
<path style="fill-rule:nonzero;fill:rgb(100%,100%,100%);fill-opacity:1;stroke-width:1;stroke-linecap:butt;stroke-linejoin:miter;stroke:rgb(36.862745%,32.54902%,20.392157%);stroke-opacity:1;stroke-miterlimit:10;" d="M 101 319 C 101 320.332031 99 320.332031 99 319 C 99 317.667969 101 317.667969 101 319 "/>
<path style="fill-rule:nonzero;fill:rgb(100%,100%,100%);fill-opacity:1;stroke-width:1;stroke-linecap:butt;stroke-linejoin:miter;stroke:rgb(73.333333%,68.235294%,62.745098%);stroke-opacity:1;stroke-miterlimit:10;" d="M 104 262 C 104 263.332031 102 263.332031 102 262 C 102 260.667969 104 260.667969 104 262 "/>
<path style="fill:none;stroke-width:1;stroke-linecap:butt;stroke-linejoin:miter;stroke:rgb(53.72549%,48.627451%,43.137255%);stroke-opacity:1;stroke-miterlimit:10;" d="M 105 262 C 105 264.667969 101 264.667969 101 262 C 101 259.332031 105 259.332031 105 262 "/>
<path style="fill:none;stroke-width:1;stroke-linecap:butt;stroke-linejoin:miter;stroke:rgb(34.117647%,29.019608%,23.529412%);stroke-opacity:1;stroke-miterlimit:10;" d="M 106 262 C 106 266 100 266 100 262 C 100 258 106 258 106 262 "/>
<path style="fill-rule:nonzero;fill:rgb(100%,100%,100%);fill-opacity:1;stroke-width:1;stroke-linecap:butt;stroke-linejoin:miter;stroke:rgb(27.058824%,20%,16.078431%);stroke-opacity:1;stroke-miterlimit:10;" d="M 105 11 C 105 12.332031 103 12.332031 103 11 C 103 9.667969 105 9.667969 105 11 "/>
<path style="fill-rule:nonzero;fill:rgb(100%,100%,100%);fill-opacity:1;stroke-width:1;stroke-linecap:butt;stroke-linejoin:miter;stroke:rgb(27.058824%,20%,16.078431%);stroke-opacity:1;stroke-miterlimit:10;" d="M 111 29 C 111 30.332031 109 30.332031 109 29 C 109 27.667969 111 27.667969 111 29 "/>
<path style="fill-rule:nonzero;fill:rgb(100%,100%,100%);fill-opacity:1;stroke-width:1;stroke-linecap:butt;stroke-linejoin:miter;stroke:rgb(64.705882%,54.509804%,47.45098%);stroke-opacity:1;stroke-miterlimit:10;" d="M 115 473 C 115 474.332031 113 474.332031 113 473 C 113 471.667969 115 471.667969 115 473 "/>
<path style="fill:none;stroke-width:1;stroke-linecap:butt;stroke-linejoin:miter;stroke:rgb(45.098039%,34.901961%,27.843137%);stroke-opacity:1;stroke-miterlimit:10;" d="M 116 473 C 116 475.667969 112 475.667969 112 473 C 112 470.332031 116 470.332031 116 473 "/>
<path style="fill:none;stroke-width:1;stroke-linecap:butt;stroke-linejoin:miter;stroke:rgb(25.490196%,15.294118%,8.235294%);stroke-opacity:1;stroke-miterlimit:10;" d="M 117 473 C 117 477 111 477 111 473 C 111 469 117 469 117 473 "/>
<path style="fill-rule:nonzero;fill:rgb(100%,100%,100%);fill-opacity:1;stroke-width:1;stroke-linecap:butt;stroke-linejoin:miter;stroke:rgb(44.313725%,36.078431%,34.509804%);stroke-opacity:1;stroke-miterlimit:10;" d="M 117 6 C 117 7.332031 115 7.332031 115 6 C 115 4.667969 117 4.667969 117 6 "/>
<path style="fill:none;stroke-width:1;stroke-linecap:butt;stroke-linejoin:miter;stroke:rgb(24.705882%,16.470588%,14.901961%);stroke-opacity:1;stroke-miterlimit:10;" d="M 118 6 C 118 8.667969 114 8.667969 114 6 C 114 3.332031 118 3.332031 118 6 "/>
<path style="fill-rule:nonzero;fill:rgb(100%,100%,100%);fill-opacity:1;stroke-width:1;stroke-linecap:butt;stroke-linejoin:miter;stroke:rgb(73.333333%,68.235294%,62.745098%);stroke-opacity:1;stroke-miterlimit:10;" d="M 123 152 C 123 153.332031 121 153.332031 121 152 C 121 150.667969 123 150.667969 123 152 "/>
<path style="fill:none;stroke-width:1;stroke-linecap:butt;stroke-linejoin:miter;stroke:rgb(53.72549%,48.627451%,43.137255%);stroke-opacity:1;stroke-miterlimit:10;" d="M 124 152 C 124 154.667969 120 154.667969 120 152 C 120 149.332031 124 149.332031 124 152 "/>
<path style="fill:none;stroke-width:1;stroke-linecap:butt;stroke-linejoin:miter;stroke:rgb(34.117647%,29.019608%,23.529412%);stroke-opacity:1;stroke-miterlimit:10;" d="M 125 152 C 125 156 119 156 119 152 C 119 148 125 148 125 152 "/>
<path style="fill-rule:nonzero;fill:rgb(100%,100%,100%);fill-opacity:1;stroke-width:1;stroke-linecap:butt;stroke-linejoin:miter;stroke:rgb(27.058824%,20%,16.078431%);stroke-opacity:1;stroke-miterlimit:10;" d="M 136 310 C 136 311.332031 134 311.332031 134 310 C 134 308.667969 136 308.667969 136 310 "/>
<path style="fill-rule:nonzero;fill:rgb(100%,100%,100%);fill-opacity:1;stroke-width:1;stroke-linecap:butt;stroke-linejoin:miter;stroke:rgb(36.862745%,32.54902%,20.392157%);stroke-opacity:1;stroke-miterlimit:10;" d="M 146 235 C 146 236.332031 144 236.332031 144 235 C 144 233.667969 146 233.667969 146 235 "/>
<path style="fill-rule:nonzero;fill:rgb(100%,100%,100%);fill-opacity:1;stroke-width:1;stroke-linecap:butt;stroke-linejoin:miter;stroke:rgb(44.313725%,36.078431%,34.509804%);stroke-opacity:1;stroke-miterlimit:10;" d="M 149 99 C 149 100.332031 147 100.332031 147 99 C 147 97.667969 149 97.667969 149 99 "/>
<path style="fill:none;stroke-width:1;stroke-linecap:butt;stroke-linejoin:miter;stroke:rgb(24.705882%,16.470588%,14.901961%);stroke-opacity:1;stroke-miterlimit:10;" d="M 150 99 C 150 101.667969 146 101.667969 146 99 C 146 96.332031 150 96.332031 150 99 "/>
<path style="fill-rule:nonzero;fill:rgb(100%,100%,100%);fill-opacity:1;stroke-width:1;stroke-linecap:butt;stroke-linejoin:miter;stroke:rgb(36.862745%,32.54902%,20.392157%);stroke-opacity:1;stroke-miterlimit:10;" d="M 159 394 C 159 395.332031 157 395.332031 157 394 C 157 392.667969 159 392.667969 159 394 "/>
<path style="fill-rule:nonzero;fill:rgb(100%,100%,100%);fill-opacity:1;stroke-width:1;stroke-linecap:butt;stroke-linejoin:miter;stroke:rgb(64.705882%,54.509804%,47.45098%);stroke-opacity:1;stroke-miterlimit:10;" d="M 171 86 C 171 87.332031 169 87.332031 169 86 C 169 84.667969 171 84.667969 171 86 "/>
<path style="fill:none;stroke-width:1;stroke-linecap:butt;stroke-linejoin:miter;stroke:rgb(45.098039%,34.901961%,27.843137%);stroke-opacity:1;stroke-miterlimit:10;" d="M 172 86 C 172 88.667969 168 88.667969 168 86 C 168 83.332031 172 83.332031 172 86 "/>
<path style="fill:none;stroke-width:1;stroke-linecap:butt;stroke-linejoin:miter;stroke:rgb(25.490196%,15.294118%,8.235294%);stroke-opacity:1;stroke-miterlimit:10;" d="M 173 86 C 173 90 167 90 167 86 C 167 82 173 82 173 86 "/>
<path style="fill-rule:nonzero;fill:rgb(100%,100%,100%);fill-opacity:1;stroke-width:1;stroke-linecap:butt;stroke-linejoin:miter;stroke:rgb(36.862745%,32.54902%,20.392157%);stroke-opacity:1;stroke-miterlimit:10;" d="M 182 111 C 182 112.332031 180 112.332031 180 111 C 180 109.667969 182 109.667969 182 111 "/>
<path style="fill-rule:nonzero;fill:rgb(100%,100%,100%);fill-opacity:1;stroke-width:1;stroke-linecap:butt;stroke-linejoin:miter;stroke:rgb(31.372549%,32.156863%,50.196078%);stroke-opacity:1;stroke-miterlimit:10;" d="M 198 325 C 198 326.332031 196 326.332031 196 325 C 196 323.667969 198 323.667969 198 325 "/>
<path style="fill:none;stroke-width:1;stroke-linecap:butt;stroke-linejoin:miter;stroke:rgb(11.764706%,12.54902%,30.588235%);stroke-opacity:1;stroke-miterlimit:10;" d="M 199 325 C 199 327.667969 195 327.667969 195 325 C 195 322.332031 199 322.332031 199 325 "/>
<path style="fill-rule:nonzero;fill:rgb(100%,100%,100%);fill-opacity:1;stroke-width:1;stroke-linecap:butt;stroke-linejoin:miter;stroke:rgb(27.058824%,20%,16.078431%);stroke-opacity:1;stroke-miterlimit:10;" d="M 203 186 C 203 187.332031 201 187.332031 201 186 C 201 184.667969 203 184.667969 203 186 "/>
<path style="fill-rule:nonzero;fill:rgb(100%,100%,100%);fill-opacity:1;stroke-width:1;stroke-linecap:butt;stroke-linejoin:miter;stroke:rgb(44.313725%,36.078431%,34.509804%);stroke-opacity:1;stroke-miterlimit:10;" d="M 205 140 C 205 141.332031 203 141.332031 203 140 C 203 138.667969 205 138.667969 205 140 "/>
<path style="fill:none;stroke-width:1;stroke-linecap:butt;stroke-linejoin:miter;stroke:rgb(24.705882%,16.470588%,14.901961%);stroke-opacity:1;stroke-miterlimit:10;" d="M 206 140 C 206 142.667969 202 142.667969 202 140 C 202 137.332031 206 137.332031 206 140 "/>
<path style="fill-rule:nonzero;fill:rgb(100%,100%,100%);fill-opacity:1;stroke-width:1;stroke-linecap:butt;stroke-linejoin:miter;stroke:rgb(44.313725%,36.078431%,34.509804%);stroke-opacity:1;stroke-miterlimit:10;" d="M 205 333 C 205 334.332031 203 334.332031 203 333 C 203 331.667969 205 331.667969 205 333 "/>
<path style="fill:none;stroke-width:1;stroke-linecap:butt;stroke-linejoin:miter;stroke:rgb(24.705882%,16.470588%,14.901961%);stroke-opacity:1;stroke-miterlimit:10;" d="M 206 333 C 206 335.667969 202 335.667969 202 333 C 202 330.332031 206 330.332031 206 333 "/>
<path style="fill-rule:nonzero;fill:rgb(100%,100%,100%);fill-opacity:1;stroke-width:1;stroke-linecap:butt;stroke-linejoin:miter;stroke:rgb(27.058824%,20%,16.078431%);stroke-opacity:1;stroke-miterlimit:10;" d="M 213 127 C 213 128.332031 211 128.332031 211 127 C 211 125.667969 213 125.667969 213 127 "/>
<path style="fill-rule:nonzero;fill:rgb(100%,100%,100%);fill-opacity:1;stroke-width:1;stroke-linecap:butt;stroke-linejoin:miter;stroke:rgb(31.372549%,32.156863%,50.196078%);stroke-opacity:1;stroke-miterlimit:10;" d="M 224 236 C 224 237.332031 222 237.332031 222 236 C 222 234.667969 224 234.667969 224 236 "/>
<path style="fill:none;stroke-width:1;stroke-linecap:butt;stroke-linejoin:miter;stroke:rgb(11.764706%,12.54902%,30.588235%);stroke-opacity:1;stroke-miterlimit:10;" d="M 225 236 C 225 238.667969 221 238.667969 221 236 C 221 233.332031 225 233.332031 225 236 "/>
<path style="fill-rule:nonzero;fill:rgb(100%,100%,100%);fill-opacity:1;stroke-width:1;stroke-linecap:butt;stroke-linejoin:miter;stroke:rgb(44.313725%,36.078431%,34.509804%);stroke-opacity:1;stroke-miterlimit:10;" d="M 233 30 C 233 31.332031 231 31.332031 231 30 C 231 28.667969 233 28.667969 233 30 "/>
<path style="fill:none;stroke-width:1;stroke-linecap:butt;stroke-linejoin:miter;stroke:rgb(24.705882%,16.470588%,14.901961%);stroke-opacity:1;stroke-miterlimit:10;" d="M 234 30 C 234 32.667969 230 32.667969 230 30 C 230 27.332031 234 27.332031 234 30 "/>
<path style="fill-rule:nonzero;fill:rgb(100%,100%,100%);fill-opacity:1;stroke-width:1;stroke-linecap:butt;stroke-linejoin:miter;stroke:rgb(27.058824%,20%,16.078431%);stroke-opacity:1;stroke-miterlimit:10;" d="M 237 290 C 237 291.332031 235 291.332031 235 290 C 235 288.667969 237 288.667969 237 290 "/>
<path style="fill-rule:nonzero;fill:rgb(100%,100%,100%);fill-opacity:1;stroke-width:1;stroke-linecap:butt;stroke-linejoin:miter;stroke:rgb(36.862745%,32.54902%,20.392157%);stroke-opacity:1;stroke-miterlimit:10;" d="M 245 243 C 245 244.332031 243 244.332031 243 243 C 243 241.667969 245 241.667969 245 243 "/>
<path style="fill-rule:nonzero;fill:rgb(100%,100%,100%);fill-opacity:1;stroke-width:1;stroke-linecap:butt;stroke-linejoin:miter;stroke:rgb(27.058824%,20%,16.078431%);stroke-opacity:1;stroke-miterlimit:10;" d="M 246 436 C 246 437.332031 244 437.332031 244 436 C 244 434.667969 246 434.667969 246 436 "/>
<path style="fill-rule:nonzero;fill:rgb(100%,100%,100%);fill-opacity:1;stroke-width:1;stroke-linecap:butt;stroke-linejoin:miter;stroke:rgb(73.333333%,68.235294%,62.745098%);stroke-opacity:1;stroke-miterlimit:10;" d="M 249 373 C 249 374.332031 247 374.332031 247 373 C 247 371.667969 249 371.667969 249 373 "/>
<path style="fill:none;stroke-width:1;stroke-linecap:butt;stroke-linejoin:miter;stroke:rgb(53.72549%,48.627451%,43.137255%);stroke-opacity:1;stroke-miterlimit:10;" d="M 250 373 C 250 375.667969 246 375.667969 246 373 C 246 370.332031 250 370.332031 250 373 "/>
<path style="fill:none;stroke-width:1;stroke-linecap:butt;stroke-linejoin:miter;stroke:rgb(34.117647%,29.019608%,23.529412%);stroke-opacity:1;stroke-miterlimit:10;" d="M 251 373 C 251 377 245 377 245 373 C 245 369 251 369 251 373 "/>
<path style="fill-rule:nonzero;fill:rgb(100%,100%,100%);fill-opacity:1;stroke-width:1;stroke-linecap:butt;stroke-linejoin:miter;stroke:rgb(64.705882%,54.509804%,47.45098%);stroke-opacity:1;stroke-miterlimit:10;" d="M 251 291 C 251 292.332031 249 292.332031 249 291 C 249 289.667969 251 289.667969 251 291 "/>
<path style="fill:none;stroke-width:1;stroke-linecap:butt;stroke-linejoin:miter;stroke:rgb(45.098039%,34.901961%,27.843137%);stroke-opacity:1;stroke-miterlimit:10;" d="M 252 291 C 252 293.667969 248 293.667969 248 291 C 248 288.332031 252 288.332031 252 291 "/>
<path style="fill:none;stroke-width:1;stroke-linecap:butt;stroke-linejoin:miter;stroke:rgb(25.490196%,15.294118%,8.235294%);stroke-opacity:1;stroke-miterlimit:10;" d="M 253 291 C 253 295 247 295 247 291 C 247 287 253 287 253 291 "/>
<path style="fill-rule:nonzero;fill:rgb(100%,100%,100%);fill-opacity:1;stroke-width:1;stroke-linecap:butt;stroke-linejoin:miter;stroke:rgb(64.705882%,54.509804%,47.45098%);stroke-opacity:1;stroke-miterlimit:10;" d="M 255 123 C 255 124.332031 253 124.332031 253 123 C 253 121.667969 255 121.667969 255 123 "/>
<path style="fill:none;stroke-width:1;stroke-linecap:butt;stroke-linejoin:miter;stroke:rgb(45.098039%,34.901961%,27.843137%);stroke-opacity:1;stroke-miterlimit:10;" d="M 256 123 C 256 125.667969 252 125.667969 252 123 C 252 120.332031 256 120.332031 256 123 "/>
<path style="fill:none;stroke-width:1;stroke-linecap:butt;stroke-linejoin:miter;stroke:rgb(25.490196%,15.294118%,8.235294%);stroke-opacity:1;stroke-miterlimit:10;" d="M 257 123 C 257 127 251 127 251 123 C 251 119 257 119 257 123 "/>
<path style="fill-rule:nonzero;fill:rgb(100%,100%,100%);fill-opacity:1;stroke-width:1;stroke-linecap:butt;stroke-linejoin:miter;stroke:rgb(36.862745%,32.54902%,20.392157%);stroke-opacity:1;stroke-miterlimit:10;" d="M 256 409 C 256 410.332031 254 410.332031 254 409 C 254 407.667969 256 407.667969 256 409 "/>
<path style="fill-rule:nonzero;fill:rgb(100%,100%,100%);fill-opacity:1;stroke-width:1;stroke-linecap:butt;stroke-linejoin:miter;stroke:rgb(36.862745%,32.54902%,20.392157%);stroke-opacity:1;stroke-miterlimit:10;" d="M 258 489 C 258 490.332031 256 490.332031 256 489 C 256 487.667969 258 487.667969 258 489 "/>
<path style="fill-rule:nonzero;fill:rgb(100%,100%,100%);fill-opacity:1;stroke-width:1;stroke-linecap:butt;stroke-linejoin:miter;stroke:rgb(36.862745%,32.54902%,20.392157%);stroke-opacity:1;stroke-miterlimit:10;" d="M 260 482 C 260 483.332031 258 483.332031 258 482 C 258 480.667969 260 480.667969 260 482 "/>
<path style="fill-rule:nonzero;fill:rgb(100%,100%,100%);fill-opacity:1;stroke-width:1;stroke-linecap:butt;stroke-linejoin:miter;stroke:rgb(36.862745%,32.54902%,20.392157%);stroke-opacity:1;stroke-miterlimit:10;" d="M 269 229 C 269 230.332031 267 230.332031 267 229 C 267 227.667969 269 227.667969 269 229 "/>
<path style="fill-rule:nonzero;fill:rgb(100%,100%,100%);fill-opacity:1;stroke-width:1;stroke-linecap:butt;stroke-linejoin:miter;stroke:rgb(44.313725%,36.078431%,34.509804%);stroke-opacity:1;stroke-miterlimit:10;" d="M 270 163 C 270 164.332031 268 164.332031 268 163 C 268 161.667969 270 161.667969 270 163 "/>
<path style="fill:none;stroke-width:1;stroke-linecap:butt;stroke-linejoin:miter;stroke:rgb(24.705882%,16.470588%,14.901961%);stroke-opacity:1;stroke-miterlimit:10;" d="M 271 163 C 271 165.667969 267 165.667969 267 163 C 267 160.332031 271 160.332031 271 163 "/>
<path style="fill-rule:nonzero;fill:rgb(100%,100%,100%);fill-opacity:1;stroke-width:1;stroke-linecap:butt;stroke-linejoin:miter;stroke:rgb(73.333333%,68.235294%,62.745098%);stroke-opacity:1;stroke-miterlimit:10;" d="M 272 75 C 272 76.332031 270 76.332031 270 75 C 270 73.667969 272 73.667969 272 75 "/>
<path style="fill:none;stroke-width:1;stroke-linecap:butt;stroke-linejoin:miter;stroke:rgb(53.72549%,48.627451%,43.137255%);stroke-opacity:1;stroke-miterlimit:10;" d="M 273 75 C 273 77.667969 269 77.667969 269 75 C 269 72.332031 273 72.332031 273 75 "/>
<path style="fill:none;stroke-width:1;stroke-linecap:butt;stroke-linejoin:miter;stroke:rgb(34.117647%,29.019608%,23.529412%);stroke-opacity:1;stroke-miterlimit:10;" d="M 274 75 C 274 79 268 79 268 75 C 268 71 274 71 274 75 "/>
<path style="fill-rule:nonzero;fill:rgb(100%,100%,100%);fill-opacity:1;stroke-width:1;stroke-linecap:butt;stroke-linejoin:miter;stroke:rgb(31.372549%,32.156863%,50.196078%);stroke-opacity:1;stroke-miterlimit:10;" d="M 280 258 C 280 259.332031 278 259.332031 278 258 C 278 256.667969 280 256.667969 280 258 "/>
<path style="fill:none;stroke-width:1;stroke-linecap:butt;stroke-linejoin:miter;stroke:rgb(11.764706%,12.54902%,30.588235%);stroke-opacity:1;stroke-miterlimit:10;" d="M 281 258 C 281 260.667969 277 260.667969 277 258 C 277 255.332031 281 255.332031 281 258 "/>
<path style="fill-rule:nonzero;fill:rgb(100%,100%,100%);fill-opacity:1;stroke-width:1;stroke-linecap:butt;stroke-linejoin:miter;stroke:rgb(64.705882%,54.509804%,47.45098%);stroke-opacity:1;stroke-miterlimit:10;" d="M 286 476 C 286 477.332031 284 477.332031 284 476 C 284 474.667969 286 474.667969 286 476 "/>
<path style="fill:none;stroke-width:1;stroke-linecap:butt;stroke-linejoin:miter;stroke:rgb(45.098039%,34.901961%,27.843137%);stroke-opacity:1;stroke-miterlimit:10;" d="M 287 476 C 287 478.667969 283 478.667969 283 476 C 283 473.332031 287 473.332031 287 476 "/>
<path style="fill:none;stroke-width:1;stroke-linecap:butt;stroke-linejoin:miter;stroke:rgb(25.490196%,15.294118%,8.235294%);stroke-opacity:1;stroke-miterlimit:10;" d="M 288 476 C 288 480 282 480 282 476 C 282 472 288 472 288 476 "/>
<path style="fill-rule:nonzero;fill:rgb(100%,100%,100%);fill-opacity:1;stroke-width:1;stroke-linecap:butt;stroke-linejoin:miter;stroke:rgb(36.862745%,32.54902%,20.392157%);stroke-opacity:1;stroke-miterlimit:10;" d="M 293 58 C 293 59.332031 291 59.332031 291 58 C 291 56.667969 293 56.667969 293 58 "/>
<path style="fill-rule:nonzero;fill:rgb(100%,100%,100%);fill-opacity:1;stroke-width:1;stroke-linecap:butt;stroke-linejoin:miter;stroke:rgb(31.372549%,32.156863%,50.196078%);stroke-opacity:1;stroke-miterlimit:10;" d="M 308 174 C 308 175.332031 306 175.332031 306 174 C 306 172.667969 308 172.667969 308 174 "/>
<path style="fill:none;stroke-width:1;stroke-linecap:butt;stroke-linejoin:miter;stroke:rgb(11.764706%,12.54902%,30.588235%);stroke-opacity:1;stroke-miterlimit:10;" d="M 309 174 C 309 176.667969 305 176.667969 305 174 C 305 171.332031 309 171.332031 309 174 "/>
<path style="fill-rule:nonzero;fill:rgb(100%,100%,100%);fill-opacity:1;stroke-width:1;stroke-linecap:butt;stroke-linejoin:miter;stroke:rgb(44.313725%,36.078431%,34.509804%);stroke-opacity:1;stroke-miterlimit:10;" d="M 314 472 C 314 473.332031 312 473.332031 312 472 C 312 470.667969 314 470.667969 314 472 "/>
<path style="fill:none;stroke-width:1;stroke-linecap:butt;stroke-linejoin:miter;stroke:rgb(24.705882%,16.470588%,14.901961%);stroke-opacity:1;stroke-miterlimit:10;" d="M 315 472 C 315 474.667969 311 474.667969 311 472 C 311 469.332031 315 469.332031 315 472 "/>
<path style="fill-rule:nonzero;fill:rgb(100%,100%,100%);fill-opacity:1;stroke-width:1;stroke-linecap:butt;stroke-linejoin:miter;stroke:rgb(36.862745%,32.54902%,20.392157%);stroke-opacity:1;stroke-miterlimit:10;" d="M 324 215 C 324 216.332031 322 216.332031 322 215 C 322 213.667969 324 213.667969 324 215 "/>
<path style="fill-rule:nonzero;fill:rgb(100%,100%,100%);fill-opacity:1;stroke-width:1;stroke-linecap:butt;stroke-linejoin:miter;stroke:rgb(27.058824%,20%,16.078431%);stroke-opacity:1;stroke-miterlimit:10;" d="M 326 73 C 326 74.332031 324 74.332031 324 73 C 324 71.667969 326 71.667969 326 73 "/>
<path style="fill-rule:nonzero;fill:rgb(100%,100%,100%);fill-opacity:1;stroke-width:1;stroke-linecap:butt;stroke-linejoin:miter;stroke:rgb(73.333333%,68.235294%,62.745098%);stroke-opacity:1;stroke-miterlimit:10;" d="M 328 288 C 328 289.332031 326 289.332031 326 288 C 326 286.667969 328 286.667969 328 288 "/>
<path style="fill:none;stroke-width:1;stroke-linecap:butt;stroke-linejoin:miter;stroke:rgb(53.72549%,48.627451%,43.137255%);stroke-opacity:1;stroke-miterlimit:10;" d="M 329 288 C 329 290.667969 325 290.667969 325 288 C 325 285.332031 329 285.332031 329 288 "/>
<path style="fill:none;stroke-width:1;stroke-linecap:butt;stroke-linejoin:miter;stroke:rgb(34.117647%,29.019608%,23.529412%);stroke-opacity:1;stroke-miterlimit:10;" d="M 330 288 C 330 292 324 292 324 288 C 324 284 330 284 330 288 "/>
<path style="fill-rule:nonzero;fill:rgb(100%,100%,100%);fill-opacity:1;stroke-width:1;stroke-linecap:butt;stroke-linejoin:miter;stroke:rgb(44.313725%,36.078431%,34.509804%);stroke-opacity:1;stroke-miterlimit:10;" d="M 330 423 C 330 424.332031 328 424.332031 328 423 C 328 421.667969 330 421.667969 330 423 "/>
<path style="fill:none;stroke-width:1;stroke-linecap:butt;stroke-linejoin:miter;stroke:rgb(24.705882%,16.470588%,14.901961%);stroke-opacity:1;stroke-miterlimit:10;" d="M 331 423 C 331 425.667969 327 425.667969 327 423 C 327 420.332031 331 420.332031 331 423 "/>
<path style="fill-rule:nonzero;fill:rgb(100%,100%,100%);fill-opacity:1;stroke-width:1;stroke-linecap:butt;stroke-linejoin:miter;stroke:rgb(44.313725%,36.078431%,34.509804%);stroke-opacity:1;stroke-miterlimit:10;" d="M 335 63 C 335 64.332031 333 64.332031 333 63 C 333 61.667969 335 61.667969 335 63 "/>
<path style="fill:none;stroke-width:1;stroke-linecap:butt;stroke-linejoin:miter;stroke:rgb(24.705882%,16.470588%,14.901961%);stroke-opacity:1;stroke-miterlimit:10;" d="M 336 63 C 336 65.667969 332 65.667969 332 63 C 332 60.332031 336 60.332031 336 63 "/>
<path style="fill-rule:nonzero;fill:rgb(100%,100%,100%);fill-opacity:1;stroke-width:1;stroke-linecap:butt;stroke-linejoin:miter;stroke:rgb(36.862745%,32.54902%,20.392157%);stroke-opacity:1;stroke-miterlimit:10;" d="M 341 155 C 341 156.332031 339 156.332031 339 155 C 339 153.667969 341 153.667969 341 155 "/>
<path style="fill-rule:nonzero;fill:rgb(100%,100%,100%);fill-opacity:1;stroke-width:1;stroke-linecap:butt;stroke-linejoin:miter;stroke:rgb(44.313725%,36.078431%,34.509804%);stroke-opacity:1;stroke-miterlimit:10;" d="M 342 249 C 342 250.332031 340 250.332031 340 249 C 340 247.667969 342 247.667969 342 249 "/>
<path style="fill:none;stroke-width:1;stroke-linecap:butt;stroke-linejoin:miter;stroke:rgb(24.705882%,16.470588%,14.901961%);stroke-opacity:1;stroke-miterlimit:10;" d="M 343 249 C 343 251.667969 339 251.667969 339 249 C 339 246.332031 343 246.332031 343 249 "/>
<path style="fill-rule:nonzero;fill:rgb(100%,100%,100%);fill-opacity:1;stroke-width:1;stroke-linecap:butt;stroke-linejoin:miter;stroke:rgb(27.058824%,20%,16.078431%);stroke-opacity:1;stroke-miterlimit:10;" d="M 345 39 C 345 40.332031 343 40.332031 343 39 C 343 37.667969 345 37.667969 345 39 "/>
<path style="fill-rule:nonzero;fill:rgb(100%,100%,100%);fill-opacity:1;stroke-width:1;stroke-linecap:butt;stroke-linejoin:miter;stroke:rgb(27.058824%,20%,16.078431%);stroke-opacity:1;stroke-miterlimit:10;" d="M 347 450 C 347 451.332031 345 451.332031 345 450 C 345 448.667969 347 448.667969 347 450 "/>
<path style="fill-rule:nonzero;fill:rgb(100%,100%,100%);fill-opacity:1;stroke-width:1;stroke-linecap:butt;stroke-linejoin:miter;stroke:rgb(31.372549%,32.156863%,50.196078%);stroke-opacity:1;stroke-miterlimit:10;" d="M 350 16 C 350 17.332031 348 17.332031 348 16 C 348 14.667969 350 14.667969 350 16 "/>
<path style="fill:none;stroke-width:1;stroke-linecap:butt;stroke-linejoin:miter;stroke:rgb(11.764706%,12.54902%,30.588235%);stroke-opacity:1;stroke-miterlimit:10;" d="M 351 16 C 351 18.667969 347 18.667969 347 16 C 347 13.332031 351 13.332031 351 16 "/>
<path style="fill-rule:nonzero;fill:rgb(100%,100%,100%);fill-opacity:1;stroke-width:1;stroke-linecap:butt;stroke-linejoin:miter;stroke:rgb(44.313725%,36.078431%,34.509804%);stroke-opacity:1;stroke-miterlimit:10;" d="M 351 371 C 351 372.332031 349 372.332031 349 371 C 349 369.667969 351 369.667969 351 371 "/>
<path style="fill:none;stroke-width:1;stroke-linecap:butt;stroke-linejoin:miter;stroke:rgb(24.705882%,16.470588%,14.901961%);stroke-opacity:1;stroke-miterlimit:10;" d="M 352 371 C 352 373.667969 348 373.667969 348 371 C 348 368.332031 352 368.332031 352 371 "/>
<path style="fill-rule:nonzero;fill:rgb(100%,100%,100%);fill-opacity:1;stroke-width:1;stroke-linecap:butt;stroke-linejoin:miter;stroke:rgb(36.862745%,32.54902%,20.392157%);stroke-opacity:1;stroke-miterlimit:10;" d="M 361 287 C 361 288.332031 359 288.332031 359 287 C 359 285.667969 361 285.667969 361 287 "/>
<path style="fill-rule:nonzero;fill:rgb(100%,100%,100%);fill-opacity:1;stroke-width:1;stroke-linecap:butt;stroke-linejoin:miter;stroke:rgb(44.313725%,36.078431%,34.509804%);stroke-opacity:1;stroke-miterlimit:10;" d="M 367 381 C 367 382.332031 365 382.332031 365 381 C 365 379.667969 367 379.667969 367 381 "/>
<path style="fill:none;stroke-width:1;stroke-linecap:butt;stroke-linejoin:miter;stroke:rgb(24.705882%,16.470588%,14.901961%);stroke-opacity:1;stroke-miterlimit:10;" d="M 368 381 C 368 383.667969 364 383.667969 364 381 C 364 378.332031 368 378.332031 368 381 "/>
<path style="fill-rule:nonzero;fill:rgb(100%,100%,100%);fill-opacity:1;stroke-width:1;stroke-linecap:butt;stroke-linejoin:miter;stroke:rgb(27.058824%,20%,16.078431%);stroke-opacity:1;stroke-miterlimit:10;" d="M 368 433 C 368 434.332031 366 434.332031 366 433 C 366 431.667969 368 431.667969 368 433 "/>
<path style="fill-rule:nonzero;fill:rgb(100%,100%,100%);fill-opacity:1;stroke-width:1;stroke-linecap:butt;stroke-linejoin:miter;stroke:rgb(73.333333%,68.235294%,62.745098%);stroke-opacity:1;stroke-miterlimit:10;" d="M 369 1 C 369 2.332031 367 2.332031 367 1 C 367 -0.332031 369 -0.332031 369 1 "/>
<path style="fill:none;stroke-width:1;stroke-linecap:butt;stroke-linejoin:miter;stroke:rgb(53.72549%,48.627451%,43.137255%);stroke-opacity:1;stroke-miterlimit:10;" d="M 370 1 C 370 3.667969 366 3.667969 366 1 C 366 -1.667969 370 -1.667969 370 1 "/>
<path style="fill:none;stroke-width:1;stroke-linecap:butt;stroke-linejoin:miter;stroke:rgb(34.117647%,29.019608%,23.529412%);stroke-opacity:1;stroke-miterlimit:10;" d="M 371 1 C 371 5 365 5 365 1 C 365 -3 371 -3 371 1 "/>
<path style="fill-rule:nonzero;fill:rgb(100%,100%,100%);fill-opacity:1;stroke-width:1;stroke-linecap:butt;stroke-linejoin:miter;stroke:rgb(36.862745%,32.54902%,20.392157%);stroke-opacity:1;stroke-miterlimit:10;" d="M 374 128 C 374 129.332031 372 129.332031 372 128 C 372 126.667969 374 126.667969 374 128 "/>
<path style="fill-rule:nonzero;fill:rgb(100%,100%,100%);fill-opacity:1;stroke-width:1;stroke-linecap:butt;stroke-linejoin:miter;stroke:rgb(64.705882%,54.509804%,47.45098%);stroke-opacity:1;stroke-miterlimit:10;" d="M 380 459 C 380 460.332031 378 460.332031 378 459 C 378 457.667969 380 457.667969 380 459 "/>
<path style="fill:none;stroke-width:1;stroke-linecap:butt;stroke-linejoin:miter;stroke:rgb(45.098039%,34.901961%,27.843137%);stroke-opacity:1;stroke-miterlimit:10;" d="M 381 459 C 381 461.667969 377 461.667969 377 459 C 377 456.332031 381 456.332031 381 459 "/>
<path style="fill:none;stroke-width:1;stroke-linecap:butt;stroke-linejoin:miter;stroke:rgb(25.490196%,15.294118%,8.235294%);stroke-opacity:1;stroke-miterlimit:10;" d="M 382 459 C 382 463 376 463 376 459 C 376 455 382 455 382 459 "/>
<path style="fill-rule:nonzero;fill:rgb(100%,100%,100%);fill-opacity:1;stroke-width:1;stroke-linecap:butt;stroke-linejoin:miter;stroke:rgb(36.862745%,32.54902%,20.392157%);stroke-opacity:1;stroke-miterlimit:10;" d="M 384 449 C 384 450.332031 382 450.332031 382 449 C 382 447.667969 384 447.667969 384 449 "/>
<path style="fill-rule:nonzero;fill:rgb(100%,100%,100%);fill-opacity:1;stroke-width:1;stroke-linecap:butt;stroke-linejoin:miter;stroke:rgb(64.705882%,54.509804%,47.45098%);stroke-opacity:1;stroke-miterlimit:10;" d="M 395 149 C 395 150.332031 393 150.332031 393 149 C 393 147.667969 395 147.667969 395 149 "/>
<path style="fill:none;stroke-width:1;stroke-linecap:butt;stroke-linejoin:miter;stroke:rgb(45.098039%,34.901961%,27.843137%);stroke-opacity:1;stroke-miterlimit:10;" d="M 396 149 C 396 151.667969 392 151.667969 392 149 C 392 146.332031 396 146.332031 396 149 "/>
<path style="fill:none;stroke-width:1;stroke-linecap:butt;stroke-linejoin:miter;stroke:rgb(25.490196%,15.294118%,8.235294%);stroke-opacity:1;stroke-miterlimit:10;" d="M 397 149 C 397 153 391 153 391 149 C 391 145 397 145 397 149 "/>
<path style="fill-rule:nonzero;fill:rgb(100%,100%,100%);fill-opacity:1;stroke-width:1;stroke-linecap:butt;stroke-linejoin:miter;stroke:rgb(44.313725%,36.078431%,34.509804%);stroke-opacity:1;stroke-miterlimit:10;" d="M 401 126 C 401 127.332031 399 127.332031 399 126 C 399 124.667969 401 124.667969 401 126 "/>
<path style="fill:none;stroke-width:1;stroke-linecap:butt;stroke-linejoin:miter;stroke:rgb(24.705882%,16.470588%,14.901961%);stroke-opacity:1;stroke-miterlimit:10;" d="M 402 126 C 402 128.667969 398 128.667969 398 126 C 398 123.332031 402 123.332031 402 126 "/>
<path style="fill-rule:nonzero;fill:rgb(100%,100%,100%);fill-opacity:1;stroke-width:1;stroke-linecap:butt;stroke-linejoin:miter;stroke:rgb(44.313725%,36.078431%,34.509804%);stroke-opacity:1;stroke-miterlimit:10;" d="M 422 434 C 422 435.332031 420 435.332031 420 434 C 420 432.667969 422 432.667969 422 434 "/>
<path style="fill:none;stroke-width:1;stroke-linecap:butt;stroke-linejoin:miter;stroke:rgb(24.705882%,16.470588%,14.901961%);stroke-opacity:1;stroke-miterlimit:10;" d="M 423 434 C 423 436.667969 419 436.667969 419 434 C 419 431.332031 423 431.332031 423 434 "/>
<path style="fill-rule:nonzero;fill:rgb(100%,100%,100%);fill-opacity:1;stroke-width:1;stroke-linecap:butt;stroke-linejoin:miter;stroke:rgb(73.333333%,68.235294%,62.745098%);stroke-opacity:1;stroke-miterlimit:10;" d="M 429 410 C 429 411.332031 427 411.332031 427 410 C 427 408.667969 429 408.667969 429 410 "/>
<path style="fill:none;stroke-width:1;stroke-linecap:butt;stroke-linejoin:miter;stroke:rgb(53.72549%,48.627451%,43.137255%);stroke-opacity:1;stroke-miterlimit:10;" d="M 430 410 C 430 412.667969 426 412.667969 426 410 C 426 407.332031 430 407.332031 430 410 "/>
<path style="fill:none;stroke-width:1;stroke-linecap:butt;stroke-linejoin:miter;stroke:rgb(34.117647%,29.019608%,23.529412%);stroke-opacity:1;stroke-miterlimit:10;" d="M 431 410 C 431 414 425 414 425 410 C 425 406 431 406 431 410 "/>
<path style="fill-rule:nonzero;fill:rgb(100%,100%,100%);fill-opacity:1;stroke-width:1;stroke-linecap:butt;stroke-linejoin:miter;stroke:rgb(44.313725%,36.078431%,34.509804%);stroke-opacity:1;stroke-miterlimit:10;" d="M 432 344 C 432 345.332031 430 345.332031 430 344 C 430 342.667969 432 342.667969 432 344 "/>
<path style="fill:none;stroke-width:1;stroke-linecap:butt;stroke-linejoin:miter;stroke:rgb(24.705882%,16.470588%,14.901961%);stroke-opacity:1;stroke-miterlimit:10;" d="M 433 344 C 433 346.667969 429 346.667969 429 344 C 429 341.332031 433 341.332031 433 344 "/>
<path style="fill-rule:nonzero;fill:rgb(100%,100%,100%);fill-opacity:1;stroke-width:1;stroke-linecap:butt;stroke-linejoin:miter;stroke:rgb(73.333333%,68.235294%,62.745098%);stroke-opacity:1;stroke-miterlimit:10;" d="M 433 450 C 433 451.332031 431 451.332031 431 450 C 431 448.667969 433 448.667969 433 450 "/>
<path style="fill:none;stroke-width:1;stroke-linecap:butt;stroke-linejoin:miter;stroke:rgb(53.72549%,48.627451%,43.137255%);stroke-opacity:1;stroke-miterlimit:10;" d="M 434 450 C 434 452.667969 430 452.667969 430 450 C 430 447.332031 434 447.332031 434 450 "/>
<path style="fill:none;stroke-width:1;stroke-linecap:butt;stroke-linejoin:miter;stroke:rgb(34.117647%,29.019608%,23.529412%);stroke-opacity:1;stroke-miterlimit:10;" d="M 435 450 C 435 454 429 454 429 450 C 429 446 435 446 435 450 "/>
<path style="fill-rule:nonzero;fill:rgb(100%,100%,100%);fill-opacity:1;stroke-width:1;stroke-linecap:butt;stroke-linejoin:miter;stroke:rgb(64.705882%,54.509804%,47.45098%);stroke-opacity:1;stroke-miterlimit:10;" d="M 435 188 C 435 189.332031 433 189.332031 433 188 C 433 186.667969 435 186.667969 435 188 "/>
<path style="fill:none;stroke-width:1;stroke-linecap:butt;stroke-linejoin:miter;stroke:rgb(45.098039%,34.901961%,27.843137%);stroke-opacity:1;stroke-miterlimit:10;" d="M 436 188 C 436 190.667969 432 190.667969 432 188 C 432 185.332031 436 185.332031 436 188 "/>
<path style="fill:none;stroke-width:1;stroke-linecap:butt;stroke-linejoin:miter;stroke:rgb(25.490196%,15.294118%,8.235294%);stroke-opacity:1;stroke-miterlimit:10;" d="M 437 188 C 437 192 431 192 431 188 C 431 184 437 184 437 188 "/>
<path style="fill-rule:nonzero;fill:rgb(100%,100%,100%);fill-opacity:1;stroke-width:1;stroke-linecap:butt;stroke-linejoin:miter;stroke:rgb(73.333333%,68.235294%,62.745098%);stroke-opacity:1;stroke-miterlimit:10;" d="M 441 63 C 441 64.332031 439 64.332031 439 63 C 439 61.667969 441 61.667969 441 63 "/>
<path style="fill:none;stroke-width:1;stroke-linecap:butt;stroke-linejoin:miter;stroke:rgb(53.72549%,48.627451%,43.137255%);stroke-opacity:1;stroke-miterlimit:10;" d="M 442 63 C 442 65.667969 438 65.667969 438 63 C 438 60.332031 442 60.332031 442 63 "/>
<path style="fill:none;stroke-width:1;stroke-linecap:butt;stroke-linejoin:miter;stroke:rgb(34.117647%,29.019608%,23.529412%);stroke-opacity:1;stroke-miterlimit:10;" d="M 443 63 C 443 67 437 67 437 63 C 437 59 443 59 443 63 "/>
<path style="fill-rule:nonzero;fill:rgb(100%,100%,100%);fill-opacity:1;stroke-width:1;stroke-linecap:butt;stroke-linejoin:miter;stroke:rgb(36.862745%,32.54902%,20.392157%);stroke-opacity:1;stroke-miterlimit:10;" d="M 451 115 C 451 116.332031 449 116.332031 449 115 C 449 113.667969 451 113.667969 451 115 "/>
<path style="fill-rule:nonzero;fill:rgb(100%,100%,100%);fill-opacity:1;stroke-width:1;stroke-linecap:butt;stroke-linejoin:miter;stroke:rgb(44.313725%,36.078431%,34.509804%);stroke-opacity:1;stroke-miterlimit:10;" d="M 452 107 C 452 108.332031 450 108.332031 450 107 C 450 105.667969 452 105.667969 452 107 "/>
<path style="fill:none;stroke-width:1;stroke-linecap:butt;stroke-linejoin:miter;stroke:rgb(24.705882%,16.470588%,14.901961%);stroke-opacity:1;stroke-miterlimit:10;" d="M 453 107 C 453 109.667969 449 109.667969 449 107 C 449 104.332031 453 104.332031 453 107 "/>
<path style="fill-rule:nonzero;fill:rgb(100%,100%,100%);fill-opacity:1;stroke-width:1;stroke-linecap:butt;stroke-linejoin:miter;stroke:rgb(44.313725%,36.078431%,34.509804%);stroke-opacity:1;stroke-miterlimit:10;" d="M 453 6 C 453 7.332031 451 7.332031 451 6 C 451 4.667969 453 4.667969 453 6 "/>
<path style="fill:none;stroke-width:1;stroke-linecap:butt;stroke-linejoin:miter;stroke:rgb(24.705882%,16.470588%,14.901961%);stroke-opacity:1;stroke-miterlimit:10;" d="M 454 6 C 454 8.667969 450 8.667969 450 6 C 450 3.332031 454 3.332031 454 6 "/>
<path style="fill-rule:nonzero;fill:rgb(100%,100%,100%);fill-opacity:1;stroke-width:1;stroke-linecap:butt;stroke-linejoin:miter;stroke:rgb(27.058824%,20%,16.078431%);stroke-opacity:1;stroke-miterlimit:10;" d="M 459 118 C 459 119.332031 457 119.332031 457 118 C 457 116.667969 459 116.667969 459 118 "/>
<path style="fill-rule:nonzero;fill:rgb(100%,100%,100%);fill-opacity:1;stroke-width:1;stroke-linecap:butt;stroke-linejoin:miter;stroke:rgb(44.313725%,36.078431%,34.509804%);stroke-opacity:1;stroke-miterlimit:10;" d="M 463 380 C 463 381.332031 461 381.332031 461 380 C 461 378.667969 463 378.667969 463 380 "/>
<path style="fill:none;stroke-width:1;stroke-linecap:butt;stroke-linejoin:miter;stroke:rgb(24.705882%,16.470588%,14.901961%);stroke-opacity:1;stroke-miterlimit:10;" d="M 464 380 C 464 382.667969 460 382.667969 460 380 C 460 377.332031 464 377.332031 464 380 "/>
<path style="fill-rule:nonzero;fill:rgb(100%,100%,100%);fill-opacity:1;stroke-width:1;stroke-linecap:butt;stroke-linejoin:miter;stroke:rgb(44.313725%,36.078431%,34.509804%);stroke-opacity:1;stroke-miterlimit:10;" d="M 473 82 C 473 83.332031 471 83.332031 471 82 C 471 80.667969 473 80.667969 473 82 "/>
<path style="fill:none;stroke-width:1;stroke-linecap:butt;stroke-linejoin:miter;stroke:rgb(24.705882%,16.470588%,14.901961%);stroke-opacity:1;stroke-miterlimit:10;" d="M 474 82 C 474 84.667969 470 84.667969 470 82 C 470 79.332031 474 79.332031 474 82 "/>
<path style="fill-rule:nonzero;fill:rgb(100%,100%,100%);fill-opacity:1;stroke-width:1;stroke-linecap:butt;stroke-linejoin:miter;stroke:rgb(36.862745%,32.54902%,20.392157%);stroke-opacity:1;stroke-miterlimit:10;" d="M 488 478 C 488 479.332031 486 479.332031 486 478 C 486 476.667969 488 476.667969 488 478 "/>
<path style="fill-rule:nonzero;fill:rgb(100%,100%,100%);fill-opacity:1;stroke-width:1;stroke-linecap:butt;stroke-linejoin:miter;stroke:rgb(27.058824%,20%,16.078431%);stroke-opacity:1;stroke-miterlimit:10;" d="M 490 134 C 490 135.332031 488 135.332031 488 134 C 488 132.667969 490 132.667969 490 134 "/>
<path style="fill-rule:nonzero;fill:rgb(100%,100%,100%);fill-opacity:1;stroke-width:1;stroke-linecap:butt;stroke-linejoin:miter;stroke:rgb(31.372549%,32.156863%,50.196078%);stroke-opacity:1;stroke-miterlimit:10;" d="M 498 299 C 498 300.332031 496 300.332031 496 299 C 496 297.667969 498 297.667969 498 299 "/>
<path style="fill:none;stroke-width:1;stroke-linecap:butt;stroke-linejoin:miter;stroke:rgb(11.764706%,12.54902%,30.588235%);stroke-opacity:1;stroke-miterlimit:10;" d="M 499 299 C 499 301.667969 495 301.667969 495 299 C 495 296.332031 499 296.332031 499 299 "/>
</g>
</svg>
