<?xml version="1.0" encoding="UTF-8"?>
<svg xmlns="http://www.w3.org/2000/svg" xmlns:xlink="http://www.w3.org/1999/xlink" width="2560pt" height="1920pt" viewBox="0 0 2560 1920" version="1.1">
<g id="surface1">
<path style=" stroke:none;fill-rule:nonzero;fill:rgb(98.039216%,98.039216%,98.039216%);fill-opacity:1;" d="M 0 0 L 2560 0 L 2560 192 L 0 192 Z M 0 0 "/>
<path style=" stroke:none;fill-rule:nonzero;fill:rgb(25.490196%,23.137255%,21.960784%);fill-opacity:1;" d="M 207.570313 96 C 207.570313 122.273438 186.273438 143.570313 160 143.570313 C 133.726563 143.570313 112.429688 122.273438 112.429688 96 C 112.429688 69.726563 133.726563 48.429688 160 48.429688 C 186.273438 48.429688 207.570313 69.726563 207.570313 96 "/>
<path style=" stroke:none;fill-rule:nonzero;fill:rgb(50.980392%,36.862745%,24.313725%);fill-opacity:1;" d="M 375.890625 96 C 375.890625 126.867188 350.867188 151.890625 320 151.890625 C 289.132813 151.890625 264.109375 126.867188 264.109375 96 C 264.109375 65.132813 289.132813 40.109375 320 40.109375 C 350.867188 40.109375 375.890625 65.132813 375.890625 96 "/>
<path style=" stroke:none;fill-rule:nonzero;fill:rgb(77.647059%,84.313725%,89.019608%);fill-opacity:1;" d="M 530.796875 96 C 530.796875 124.054688 508.054688 146.796875 480 146.796875 C 451.945313 146.796875 429.203125 124.054688 429.203125 96 C 429.203125 67.945313 451.945313 45.203125 480 45.203125 C 508.054688 45.203125 530.796875 67.945313 530.796875 96 "/>
<path style=" stroke:none;fill-rule:nonzero;fill:rgb(63.137255%,72.941176%,78.431373%);fill-opacity:1;" d="M 695.648438 96 C 695.648438 126.734375 670.734375 151.648438 640 151.648438 C 609.265625 151.648438 584.351563 126.734375 584.351563 96 C 584.351563 65.265625 609.265625 40.351563 640 40.351563 C 670.734375 40.351563 695.648438 65.265625 695.648438 96 "/>
<path style=" stroke:none;fill-rule:nonzero;fill:rgb(43.529412%,29.019608%,15.294118%);fill-opacity:1;" d="M 859.210938 96 C 859.210938 128.699219 832.699219 155.210938 800 155.210938 C 767.300781 155.210938 740.789063 128.699219 740.789063 96 C 740.789063 63.300781 767.300781 36.789063 800 36.789063 C 832.699219 36.789063 859.210938 63.300781 859.210938 96 "/>
<path style=" stroke:none;fill-rule:nonzero;fill:rgb(50.980392%,36.862745%,24.313725%);fill-opacity:1;" d="M 1015.902344 96 C 1015.902344 126.875 990.875 151.902344 960 151.902344 C 929.125 151.902344 904.097656 126.875 904.097656 96 C 904.097656 65.125 929.125 40.097656 960 40.097656 C 990.875 40.097656 1015.902344 65.125 1015.902344 96 "/>
<path style=" stroke:none;fill-rule:nonzero;fill:rgb(50.980392%,36.862745%,24.313725%);fill-opacity:1;" d="M 1174.269531 96 C 1174.269531 125.972656 1149.972656 150.269531 1120 150.269531 C 1090.027344 150.269531 1065.730469 125.972656 1065.730469 96 C 1065.730469 66.027344 1090.027344 41.730469 1120 41.730469 C 1149.972656 41.730469 1174.269531 66.027344 1174.269531 96 "/>
<path style=" stroke:none;fill-rule:nonzero;fill:rgb(77.647059%,84.313725%,89.019608%);fill-opacity:1;" d="M 1333.378906 96 C 1333.378906 125.480469 1309.480469 149.378906 1280 149.378906 C 1250.519531 149.378906 1226.621094 125.480469 1226.621094 96 C 1226.621094 66.519531 1250.519531 42.621094 1280 42.621094 C 1309.480469 42.621094 1333.378906 66.519531 1333.378906 96 "/>
<path style=" stroke:none;fill-rule:nonzero;fill:rgb(63.137255%,72.941176%,78.431373%);fill-opacity:1;" d="M 1496.664063 96 C 1496.664063 127.296875 1471.296875 152.664063 1440 152.664063 C 1408.703125 152.664063 1383.335938 127.296875 1383.335938 96 C 1383.335938 64.703125 1408.703125 39.335938 1440 39.335938 C 1471.296875 39.335938 1496.664063 64.703125 1496.664063 96 "/>
<path style=" stroke:none;fill-rule:nonzero;fill:rgb(43.529412%,29.019608%,15.294118%);fill-opacity:1;" d="M 1653.441406 96 C 1653.441406 125.515625 1629.515625 149.441406 1600 149.441406 C 1570.484375 149.441406 1546.558594 125.515625 1546.558594 96 C 1546.558594 66.484375 1570.484375 42.558594 1600 42.558594 C 1629.515625 42.558594 1653.441406 66.484375 1653.441406 96 "/>
<path style=" stroke:none;fill-rule:nonzero;fill:rgb(43.529412%,29.019608%,15.294118%);fill-opacity:1;" d="M 1813.027344 96 C 1813.027344 125.285156 1789.285156 149.027344 1760 149.027344 C 1730.714844 149.027344 1706.972656 125.285156 1706.972656 96 C 1706.972656 66.714844 1730.714844 42.972656 1760 42.972656 C 1789.285156 42.972656 1813.027344 66.714844 1813.027344 96 "/>
<path style=" stroke:none;fill-rule:nonzero;fill:rgb(50.980392%,36.862745%,24.313725%);fill-opacity:1;" d="M 1977.03125 96 C 1977.03125 127.5 1951.5 153.03125 1920 153.03125 C 1888.5 153.03125 1862.96875 127.5 1862.96875 96 C 1862.96875 64.5 1888.5 38.96875 1920 38.96875 C 1951.5 38.96875 1977.03125 64.5 1977.03125 96 "/>
<path style=" stroke:none;fill-rule:nonzero;fill:rgb(43.529412%,29.019608%,15.294118%);fill-opacity:1;" d="M 2126.53125 96 C 2126.53125 121.699219 2105.699219 142.53125 2080 142.53125 C 2054.300781 142.53125 2033.46875 121.699219 2033.46875 96 C 2033.46875 70.300781 2054.300781 49.46875 2080 49.46875 C 2105.699219 49.46875 2126.53125 70.300781 2126.53125 96 "/>
<path style=" stroke:none;fill-rule:nonzero;fill:rgb(43.529412%,29.019608%,15.294118%);fill-opacity:1;" d="M 2292.484375 96 C 2292.484375 124.988281 2268.988281 148.484375 2240 148.484375 C 2211.011719 148.484375 2187.515625 124.988281 2187.515625 96 C 2187.515625 67.011719 2211.011719 43.515625 2240 43.515625 C 2268.988281 43.515625 2292.484375 67.011719 2292.484375 96 "/>
<path style=" stroke:none;fill-rule:nonzero;fill:rgb(43.529412%,29.019608%,15.294118%);fill-opacity:1;" d="M 2452.199219 96 C 2452.199219 124.828125 2428.828125 148.199219 2400 148.199219 C 2371.171875 148.199219 2347.800781 124.828125 2347.800781 96 C 2347.800781 67.171875 2371.171875 43.800781 2400 43.800781 C 2428.828125 43.800781 2452.199219 67.171875 2452.199219 96 "/>
</g>
</svg>
