<?xml version="1.0" encoding="UTF-8"?>
<svg xmlns="http://www.w3.org/2000/svg" xmlns:xlink="http://www.w3.org/1999/xlink" width="1920pt" height="192pt" viewBox="0 0 1920 192" version="1.1">
<g id="surface1">
<rect x="0" y="0" width="1920" height="192" style="fill:rgb(98.039216%,98.039216%,98.039216%);fill-opacity:1;stroke:none;"/>
<path style=" stroke:none;fill-rule:nonzero;fill:rgb(13.72549%,27.45098%,36.862745%);fill-opacity:1;" d="M 216.605469 96 C 216.605469 127.261719 191.261719 152.605469 160 152.605469 C 128.738281 152.605469 103.394531 127.261719 103.394531 96 C 103.394531 64.738281 128.738281 39.394531 160 39.394531 C 191.261719 39.394531 216.605469 64.738281 216.605469 96 "/>
<path style=" stroke:none;fill-rule:nonzero;fill:rgb(13.72549%,27.45098%,36.862745%);fill-opacity:1;" d="M 374.980469 96 C 374.980469 126.363281 350.363281 150.980469 320 150.980469 C 289.636719 150.980469 265.019531 126.363281 265.019531 96 C 265.019531 65.636719 289.636719 41.019531 320 41.019531 C 350.363281 41.019531 374.980469 65.636719 374.980469 96 "/>
<path style=" stroke:none;fill-rule:nonzero;fill:rgb(35.294118%,46.27451%,48.627451%);fill-opacity:1;" d="M 535.917969 96 C 535.917969 126.882813 510.882813 151.917969 480 151.917969 C 449.117188 151.917969 424.082031 126.882813 424.082031 96 C 424.082031 65.117188 449.117188 40.082031 480 40.082031 C 510.882813 40.082031 535.917969 65.117188 535.917969 96 "/>
<path style=" stroke:none;fill-rule:nonzero;fill:rgb(35.294118%,46.27451%,48.627451%);fill-opacity:1;" d="M 692.441406 96 C 692.441406 124.960938 668.960938 148.441406 640 148.441406 C 611.039063 148.441406 587.558594 124.960938 587.558594 96 C 587.558594 67.039063 611.039063 43.558594 640 43.558594 C 668.960938 43.558594 692.441406 67.039063 692.441406 96 "/>
<path style=" stroke:none;fill-rule:nonzero;fill:rgb(78.039216%,89.411765%,92.941176%);fill-opacity:1;" d="M 852.949219 96 C 852.949219 125.242188 829.242188 148.949219 800 148.949219 C 770.757813 148.949219 747.050781 125.242188 747.050781 96 C 747.050781 66.757813 770.757813 43.050781 800 43.050781 C 829.242188 43.050781 852.949219 66.757813 852.949219 96 "/>
<path style=" stroke:none;fill-rule:nonzero;fill:rgb(35.294118%,46.27451%,48.627451%);fill-opacity:1;" d="M 1020.386719 96 C 1020.386719 129.351563 993.351563 156.386719 960 156.386719 C 926.648438 156.386719 899.613281 129.351563 899.613281 96 C 899.613281 62.648438 926.648438 35.613281 960 35.613281 C 993.351563 35.613281 1020.386719 62.648438 1020.386719 96 "/>
<path style=" stroke:none;fill-rule:nonzero;fill:rgb(30.980392%,83.137255%,90.588235%);fill-opacity:1;" d="M 1174.484375 96 C 1174.484375 126.089844 1150.089844 150.484375 1120 150.484375 C 1089.910156 150.484375 1065.515625 126.089844 1065.515625 96 C 1065.515625 65.910156 1089.910156 41.515625 1120 41.515625 C 1150.089844 41.515625 1174.484375 65.910156 1174.484375 96 "/>
<path style=" stroke:none;fill-rule:nonzero;fill:rgb(11.372549%,61.568627%,70.588235%);fill-opacity:1;" d="M 1332.953125 96 C 1332.953125 125.246094 1309.246094 148.953125 1280 148.953125 C 1250.753906 148.953125 1227.046875 125.246094 1227.046875 96 C 1227.046875 66.753906 1250.753906 43.046875 1280 43.046875 C 1309.246094 43.046875 1332.953125 66.753906 1332.953125 96 "/>
<path style=" stroke:none;fill-rule:nonzero;fill:rgb(13.72549%,27.45098%,36.862745%);fill-opacity:1;" d="M 1491.726563 96 C 1491.726563 124.566406 1468.566406 147.726563 1440 147.726563 C 1411.433594 147.726563 1388.273438 124.566406 1388.273438 96 C 1388.273438 67.433594 1411.433594 44.273438 1440 44.273438 C 1468.566406 44.273438 1491.726563 67.433594 1491.726563 96 "/>
<path style=" stroke:none;fill-rule:nonzero;fill:rgb(30.980392%,83.137255%,90.588235%);fill-opacity:1;" d="M 1651.992188 96 C 1651.992188 124.714844 1628.714844 147.992188 1600 147.992188 C 1571.285156 147.992188 1548.007813 124.714844 1548.007813 96 C 1548.007813 67.285156 1571.285156 44.007813 1600 44.007813 C 1628.714844 44.007813 1651.992188 67.285156 1651.992188 96 "/>
<path style=" stroke:none;fill-rule:nonzero;fill:rgb(30.980392%,83.137255%,90.588235%);fill-opacity:1;" d="M 1814.160156 96 C 1814.160156 125.910156 1789.910156 150.160156 1760 150.160156 C 1730.089844 150.160156 1705.839844 125.910156 1705.839844 96 C 1705.839844 66.089844 1730.089844 41.839844 1760 41.839844 C 1789.910156 41.839844 1814.160156 66.089844 1814.160156 96 "/>
</g>
</svg>
