<?xml version="1.0" encoding="UTF-8"?>
<svg xmlns="http://www.w3.org/2000/svg" xmlns:xlink="http://www.w3.org/1999/xlink" width="1920pt" height="192pt" viewBox="0 0 1920 192" version="1.1">
<g id="surface1">
<rect x="0" y="0" width="1920" height="192" style="fill:rgb(98.039216%,98.039216%,98.039216%);fill-opacity:1;stroke:none;"/>
<path style=" stroke:none;fill-rule:nonzero;fill:rgb(69.411765%,59.215686%,79.607843%);fill-opacity:1;" d="M 130 96 C 130 120.851563 109.851563 141 85 141 C 60.148438 141 40 120.851563 40 96 C 40 71.148438 60.148438 51 85 51 C 109.851563 51 130 71.148438 130 96 "/>
<path style=" stroke:none;fill-rule:nonzero;fill:rgb(69.411765%,59.215686%,79.607843%);fill-opacity:1;" d="M 255 96 C 255 120.851563 234.851563 141 210 141 C 185.148438 141 165 120.851563 165 96 C 165 71.148438 185.148438 51 210 51 C 234.851563 51 255 71.148438 255 96 "/>
<path style=" stroke:none;fill-rule:nonzero;fill:rgb(48.627451%,45.490196%,71.764706%);fill-opacity:1;" d="M 380 96 C 380 120.851563 359.851563 141 335 141 C 310.148438 141 290 120.851563 290 96 C 290 71.148438 310.148438 51 335 51 C 359.851563 51 380 71.148438 380 96 "/>
<path style=" stroke:none;fill-rule:nonzero;fill:rgb(48.627451%,45.490196%,71.764706%);fill-opacity:1;" d="M 505 96 C 505 120.851563 484.851563 141 460 141 C 435.148438 141 415 120.851563 415 96 C 415 71.148438 435.148438 51 460 51 C 484.851563 51 505 71.148438 505 96 "/>
<path style=" stroke:none;fill-rule:nonzero;fill:rgb(69.411765%,59.215686%,79.607843%);fill-opacity:1;" d="M 630 96 C 630 120.851563 609.851563 141 585 141 C 560.148438 141 540 120.851563 540 96 C 540 71.148438 560.148438 51 585 51 C 609.851563 51 630 71.148438 630 96 "/>
<path style=" stroke:none;fill-rule:nonzero;fill:rgb(48.627451%,45.490196%,71.764706%);fill-opacity:1;" d="M 755 96 C 755 120.851563 734.851563 141 710 141 C 685.148438 141 665 120.851563 665 96 C 665 71.148438 685.148438 51 710 51 C 734.851563 51 755 71.148438 755 96 "/>
<path style=" stroke:none;fill-rule:nonzero;fill:rgb(57.647059%,52.156863%,76.078431%);fill-opacity:1;" d="M 880 96 C 880 120.851563 859.851563 141 835 141 C 810.148438 141 790 120.851563 790 96 C 790 71.148438 810.148438 51 835 51 C 859.851563 51 880 71.148438 880 96 "/>
<path style=" stroke:none;fill-rule:nonzero;fill:rgb(93.72549%,68.235294%,61.960784%);fill-opacity:1;" d="M 1005 96 C 1005 120.851563 984.851563 141 960 141 C 935.148438 141 915 120.851563 915 96 C 915 71.148438 935.148438 51 960 51 C 984.851563 51 1005 71.148438 1005 96 "/>
<path style=" stroke:none;fill-rule:nonzero;fill:rgb(69.411765%,59.215686%,79.607843%);fill-opacity:1;" d="M 1130 96 C 1130 120.851563 1109.851563 141 1085 141 C 1060.148438 141 1040 120.851563 1040 96 C 1040 71.148438 1060.148438 51 1085 51 C 1109.851563 51 1130 71.148438 1130 96 "/>
<path style=" stroke:none;fill-rule:nonzero;fill:rgb(48.627451%,45.490196%,71.764706%);fill-opacity:1;" d="M 1255 96 C 1255 120.851563 1234.851563 141 1210 141 C 1185.148438 141 1165 120.851563 1165 96 C 1165 71.148438 1185.148438 51 1210 51 C 1234.851563 51 1255 71.148438 1255 96 "/>
<path style=" stroke:none;fill-rule:nonzero;fill:rgb(69.411765%,59.215686%,79.607843%);fill-opacity:1;" d="M 1380 96 C 1380 120.851563 1359.851563 141 1335 141 C 1310.148438 141 1290 120.851563 1290 96 C 1290 71.148438 1310.148438 51 1335 51 C 1359.851563 51 1380 71.148438 1380 96 "/>
<path style=" stroke:none;fill-rule:nonzero;fill:rgb(96.470588%,67.058824%,43.921569%);fill-opacity:1;" d="M 1505 96 C 1505 120.851563 1484.851563 141 1460 141 C 1435.148438 141 1415 120.851563 1415 96 C 1415 71.148438 1435.148438 51 1460 51 C 1484.851563 51 1505 71.148438 1505 96 "/>
<path style=" stroke:none;fill-rule:nonzero;fill:rgb(48.627451%,45.490196%,71.764706%);fill-opacity:1;" d="M 1630 96 C 1630 120.851563 1609.851563 141 1585 141 C 1560.148438 141 1540 120.851563 1540 96 C 1540 71.148438 1560.148438 51 1585 51 C 1609.851563 51 1630 71.148438 1630 96 "/>
<path style=" stroke:none;fill-rule:nonzero;fill:rgb(48.627451%,45.490196%,71.764706%);fill-opacity:1;" d="M 1755 96 C 1755 120.851563 1734.851563 141 1710 141 C 1685.148438 141 1665 120.851563 1665 96 C 1665 71.148438 1685.148438 51 1710 51 C 1734.851563 51 1755 71.148438 1755 96 "/>
<path style=" stroke:none;fill-rule:nonzero;fill:rgb(85.098039%,66.666667%,75.686275%);fill-opacity:1;" d="M 1880 96 C 1880 120.851563 1859.851563 141 1835 141 C 1810.148438 141 1790 120.851563 1790 96 C 1790 71.148438 1810.148438 51 1835 51 C 1859.851563 51 1880 71.148438 1880 96 "/>
</g>
</svg>
