<?xml version="1.0" encoding="UTF-8"?>
<svg xmlns="http://www.w3.org/2000/svg" xmlns:xlink="http://www.w3.org/1999/xlink" width="2560pt" height="192pt" viewBox="0 0 2560 192" version="1.1">
<g id="surface1">
<rect x="0" y="0" width="2560" height="192" style="fill:rgb(98.039216%,98.039216%,98.039216%);fill-opacity:1;stroke:none;"/>
<path style=" stroke:none;fill-rule:nonzero;fill:rgb(69.411765%,59.215686%,79.607843%);fill-opacity:1;" d="M 212.800781 96 C 212.800781 125.160156 189.160156 148.800781 160 148.800781 C 130.839844 148.800781 107.199219 125.160156 107.199219 96 C 107.199219 66.839844 130.839844 43.199219 160 43.199219 C 189.160156 43.199219 212.800781 66.839844 212.800781 96 "/>
<path style=" stroke:none;fill-rule:nonzero;fill:rgb(93.72549%,68.235294%,61.960784%);fill-opacity:1;" d="M 373.171875 96 C 373.171875 125.363281 349.363281 149.171875 320 149.171875 C 290.636719 149.171875 266.828125 125.363281 266.828125 96 C 266.828125 66.636719 290.636719 42.828125 320 42.828125 C 349.363281 42.828125 373.171875 66.636719 373.171875 96 "/>
<path style=" stroke:none;fill-rule:nonzero;fill:rgb(93.72549%,68.235294%,61.960784%);fill-opacity:1;" d="M 533.953125 96 C 533.953125 125.796875 509.796875 149.953125 480 149.953125 C 450.203125 149.953125 426.046875 125.796875 426.046875 96 C 426.046875 66.203125 450.203125 42.046875 480 42.046875 C 509.796875 42.046875 533.953125 66.203125 533.953125 96 L 703.324219 96 C 703.324219 130.972656 674.972656 159.324219 640 159.324219 C 605.027344 159.324219 576.675781 130.972656 576.675781 96 C 576.675781 61.027344 605.027344 32.675781 640 32.675781 C 674.972656 32.675781 703.324219 61.027344 703.324219 96 "/>
<path style=" stroke:none;fill-rule:nonzero;fill:rgb(48.627451%,45.490196%,71.764706%);fill-opacity:1;" d="M 851.832031 96 C 851.832031 124.625 828.625 147.832031 800 147.832031 C 771.375 147.832031 748.167969 124.625 748.167969 96 C 748.167969 67.375 771.375 44.167969 800 44.167969 C 828.625 44.167969 851.832031 67.375 851.832031 96 L 1018.476563 96 C 1018.476563 128.296875 992.296875 154.476563 960 154.476563 C 927.703125 154.476563 901.523438 128.296875 901.523438 96 C 901.523438 63.703125 927.703125 37.523438 960 37.523438 C 992.296875 37.523438 1018.476563 63.703125 1018.476563 96 "/>
<path style=" stroke:none;fill-rule:nonzero;fill:rgb(93.72549%,68.235294%,61.960784%);fill-opacity:1;" d="M 1171.765625 96 C 1171.765625 124.589844 1148.589844 147.765625 1120 147.765625 C 1091.410156 147.765625 1068.234375 124.589844 1068.234375 96 C 1068.234375 67.410156 1091.410156 44.234375 1120 44.234375 C 1148.589844 44.234375 1171.765625 67.410156 1171.765625 96 "/>
<path style=" stroke:none;fill-rule:nonzero;fill:rgb(48.627451%,45.490196%,71.764706%);fill-opacity:1;" d="M 1336.667969 96 C 1336.667969 127.296875 1311.296875 152.667969 1280 152.667969 C 1248.703125 152.667969 1223.332031 127.296875 1223.332031 96 C 1223.332031 64.703125 1248.703125 39.332031 1280 39.332031 C 1311.296875 39.332031 1336.667969 64.703125 1336.667969 96 "/>
<path style=" stroke:none;fill-rule:nonzero;fill:rgb(85.098039%,66.666667%,75.686275%);fill-opacity:1;" d="M 1497.269531 96 C 1497.269531 127.628906 1471.628906 153.269531 1440 153.269531 C 1408.371094 153.269531 1382.730469 127.628906 1382.730469 96 C 1382.730469 64.371094 1408.371094 38.730469 1440 38.730469 C 1471.628906 38.730469 1497.269531 64.371094 1497.269531 96 L 1656.859375 96 C 1656.859375 127.402344 1631.402344 152.859375 1600 152.859375 C 1568.597656 152.859375 1543.140625 127.402344 1543.140625 96 C 1543.140625 64.597656 1568.597656 39.140625 1600 39.140625 C 1631.402344 39.140625 1656.859375 64.597656 1656.859375 96 "/>
<path style=" stroke:none;fill-rule:nonzero;fill:rgb(41.176471%,31.372549%,31.764706%);fill-opacity:1;" d="M 1817.996094 96 C 1817.996094 128.03125 1792.03125 153.996094 1760 153.996094 C 1727.96875 153.996094 1702.003906 128.03125 1702.003906 96 C 1702.003906 63.96875 1727.96875 38.003906 1760 38.003906 C 1792.03125 38.003906 1817.996094 63.96875 1817.996094 96 "/>
<path style=" stroke:none;fill-rule:nonzero;fill:rgb(85.098039%,66.666667%,75.686275%);fill-opacity:1;" d="M 1974.914063 96 C 1974.914063 126.328125 1950.328125 150.914063 1920 150.914063 C 1889.671875 150.914063 1865.085938 126.328125 1865.085938 96 C 1865.085938 65.671875 1889.671875 41.085938 1920 41.085938 C 1950.328125 41.085938 1974.914063 65.671875 1974.914063 96 L 2134.683594 96 C 2134.683594 126.203125 2110.203125 150.683594 2080 150.683594 C 2049.796875 150.683594 2025.316406 126.203125 2025.316406 96 C 2025.316406 65.796875 2049.796875 41.316406 2080 41.316406 C 2110.203125 41.316406 2134.683594 65.796875 2134.683594 96 "/>
<path style=" stroke:none;fill-rule:nonzero;fill:rgb(93.72549%,68.235294%,61.960784%);fill-opacity:1;" d="M 2292.378906 96 C 2292.378906 124.929688 2268.929688 148.378906 2240 148.378906 C 2211.070313 148.378906 2187.621094 124.929688 2187.621094 96 C 2187.621094 67.070313 2211.070313 43.621094 2240 43.621094 C 2268.929688 43.621094 2292.378906 67.070313 2292.378906 96 L 2452.816406 96 C 2452.816406 125.167969 2429.167969 148.816406 2400 148.816406 C 2370.832031 148.816406 2347.183594 125.167969 2347.183594 96 C 2347.183594 66.832031 2370.832031 43.183594 2400 43.183594 C 2429.167969 43.183594 2452.816406 66.832031 2452.816406 96 "/>
</g>
</svg>
