<?xml version="1.0" encoding="UTF-8"?>
<svg xmlns="http://www.w3.org/2000/svg" xmlns:xlink="http://www.w3.org/1999/xlink" width="2560pt" height="2304pt" viewBox="0 0 2560 2304" version="1.1">
<g id="surface1">
<path style=" stroke:none;fill-rule:nonzero;fill:rgb(98.039216%,98.039216%,98.039216%);fill-opacity:1;" d="M 0 0 L 2560 0 L 2560 1250 L 0 1250 Z M 0 0 "/>
<path style=" stroke:none;fill-rule:nonzero;fill:rgb(65.882353%,57.254902%,78.823529%);fill-opacity:1;" d="M 199.417969 125 C 199.417969 146.769531 181.769531 164.417969 160 164.417969 C 138.230469 164.417969 120.582031 146.769531 120.582031 125 C 120.582031 103.230469 138.230469 85.582031 160 85.582031 C 181.769531 85.582031 199.417969 103.230469 199.417969 125 "/>
<path style=" stroke:none;fill-rule:nonzero;fill:rgb(91.372549%,68.235294%,67.843137%);fill-opacity:1;" d="M 356.363281 125 C 356.363281 145.082031 340.082031 161.363281 320 161.363281 C 299.917969 161.363281 283.636719 145.082031 283.636719 125 C 283.636719 104.917969 299.917969 88.636719 320 88.636719 C 340.082031 88.636719 356.363281 104.917969 356.363281 125 "/>
<path style=" stroke:none;fill-rule:nonzero;fill:rgb(65.882353%,57.254902%,78.823529%);fill-opacity:1;" d="M 515.128906 125 C 515.128906 144.402344 499.402344 160.128906 480 160.128906 C 460.597656 160.128906 444.871094 144.402344 444.871094 125 C 444.871094 105.597656 460.597656 89.871094 480 89.871094 C 499.402344 89.871094 515.128906 105.597656 515.128906 125 "/>
<path style=" stroke:none;fill-rule:nonzero;fill:rgb(48.235294%,45.098039%,71.764706%);fill-opacity:1;" d="M 682.527344 125 C 682.527344 148.484375 663.484375 167.527344 640 167.527344 C 616.515625 167.527344 597.472656 148.484375 597.472656 125 C 597.472656 101.515625 616.515625 82.472656 640 82.472656 C 663.484375 82.472656 682.527344 101.515625 682.527344 125 "/>
<path style=" stroke:none;fill-rule:nonzero;fill:rgb(48.235294%,45.098039%,71.764706%);fill-opacity:1;" d="M 840.65625 125 C 840.65625 147.453125 822.453125 165.65625 800 165.65625 C 777.546875 165.65625 759.34375 147.453125 759.34375 125 C 759.34375 102.546875 777.546875 84.34375 800 84.34375 C 822.453125 84.34375 840.65625 102.546875 840.65625 125 "/>
<path style=" stroke:none;fill-rule:nonzero;fill:rgb(65.882353%,57.254902%,78.823529%);fill-opacity:1;" d="M 1000.257813 125 C 1000.257813 147.234375 982.234375 165.257813 960 165.257813 C 937.765625 165.257813 919.742188 147.234375 919.742188 125 C 919.742188 102.765625 937.765625 84.742188 960 84.742188 C 982.234375 84.742188 1000.257813 102.765625 1000.257813 125 "/>
<path style=" stroke:none;fill-rule:nonzero;fill:rgb(48.235294%,45.098039%,71.764706%);fill-opacity:1;" d="M 1478.664063 125 C 1478.664063 146.351563 1461.351563 163.664063 1440 163.664063 C 1418.648438 163.664063 1401.335938 146.351563 1401.335938 125 C 1401.335938 103.648438 1418.648438 86.335938 1440 86.335938 C 1461.351563 86.335938 1478.664063 103.648438 1478.664063 125 "/>
<path style=" stroke:none;fill-rule:nonzero;fill:rgb(48.235294%,45.098039%,71.764706%);fill-opacity:1;" d="M 1794.660156 125 C 1794.660156 144.140625 1779.140625 159.660156 1760 159.660156 C 1740.859375 159.660156 1725.339844 144.140625 1725.339844 125 C 1725.339844 105.859375 1740.859375 90.339844 1760 90.339844 C 1779.140625 90.339844 1794.660156 105.859375 1794.660156 125 "/>
<path style=" stroke:none;fill-rule:nonzero;fill:rgb(65.882353%,57.254902%,78.823529%);fill-opacity:1;" d="M 1956.53125 125 C 1956.53125 145.175781 1940.175781 161.53125 1920 161.53125 C 1899.824219 161.53125 1883.46875 145.175781 1883.46875 125 C 1883.46875 104.824219 1899.824219 88.46875 1920 88.46875 C 1940.175781 88.46875 1956.53125 104.824219 1956.53125 125 "/>
<path style=" stroke:none;fill-rule:nonzero;fill:rgb(27.843137%,20.392157%,21.176471%);fill-opacity:1;" d="M 2280.449219 125 C 2280.449219 147.339844 2262.339844 165.449219 2240 165.449219 C 2217.660156 165.449219 2199.550781 147.339844 2199.550781 125 C 2199.550781 102.660156 2217.660156 84.550781 2240 84.550781 C 2262.339844 84.550781 2280.449219 102.660156 2280.449219 125 "/>
<path style=" stroke:none;fill-rule:nonzero;fill:rgb(91.372549%,68.235294%,67.843137%);fill-opacity:1;" d="M 2437.027344 125 C 2437.027344 145.449219 2420.449219 162.027344 2400 162.027344 C 2379.550781 162.027344 2362.972656 145.449219 2362.972656 125 C 2362.972656 104.550781 2379.550781 87.972656 2400 87.972656 C 2420.449219 87.972656 2437.027344 104.550781 2437.027344 125 "/>
<path style=" stroke:none;fill-rule:nonzero;fill:rgb(65.882353%,57.254902%,78.823529%);fill-opacity:1;" d="M 199.636719 250 C 199.636719 271.890625 181.890625 289.636719 160 289.636719 C 138.109375 289.636719 120.363281 271.890625 120.363281 250 C 120.363281 228.109375 138.109375 210.363281 160 210.363281 C 181.890625 210.363281 199.636719 228.109375 199.636719 250 "/>
<path style=" stroke:none;fill-rule:nonzero;fill:rgb(48.235294%,45.098039%,71.764706%);fill-opacity:1;" d="M 360.296875 250 C 360.296875 272.253906 342.253906 290.296875 320 290.296875 C 297.746094 290.296875 279.703125 272.253906 279.703125 250 C 279.703125 227.746094 297.746094 209.703125 320 209.703125 C 342.253906 209.703125 360.296875 227.746094 360.296875 250 "/>
<path style=" stroke:none;fill-rule:nonzero;fill:rgb(65.882353%,57.254902%,78.823529%);fill-opacity:1;" d="M 520.976563 250 C 520.976563 272.628906 502.628906 290.976563 480 290.976563 C 457.371094 290.976563 439.023438 272.628906 439.023438 250 C 439.023438 227.371094 457.371094 209.023438 480 209.023438 C 502.628906 209.023438 520.976563 227.371094 520.976563 250 "/>
<path style=" stroke:none;fill-rule:nonzero;fill:rgb(56.470588%,50.980392%,75.294118%);fill-opacity:1;" d="M 681.910156 250 C 681.910156 273.144531 663.144531 291.910156 640 291.910156 C 616.855469 291.910156 598.089844 273.144531 598.089844 250 C 598.089844 226.855469 616.855469 208.089844 640 208.089844 C 663.144531 208.089844 681.910156 226.855469 681.910156 250 "/>
<path style=" stroke:none;fill-rule:nonzero;fill:rgb(48.235294%,45.098039%,71.764706%);fill-opacity:1;" d="M 835.371094 250 C 835.371094 269.535156 819.535156 285.371094 800 285.371094 C 780.464844 285.371094 764.628906 269.535156 764.628906 250 C 764.628906 230.464844 780.464844 214.628906 800 214.628906 C 819.535156 214.628906 835.371094 230.464844 835.371094 250 "/>
<path style=" stroke:none;fill-rule:nonzero;fill:rgb(48.235294%,45.098039%,71.764706%);fill-opacity:1;" d="M 1004.640625 250 C 1004.640625 274.65625 984.65625 294.640625 960 294.640625 C 935.34375 294.640625 915.359375 274.65625 915.359375 250 C 915.359375 225.34375 935.34375 205.359375 960 205.359375 C 984.65625 205.359375 1004.640625 225.34375 1004.640625 250 "/>
<path style=" stroke:none;fill-rule:nonzero;fill:rgb(65.882353%,57.254902%,78.823529%);fill-opacity:1;" d="M 1320.015625 250 C 1320.015625 272.101563 1302.101563 290.015625 1280 290.015625 C 1257.898438 290.015625 1239.984375 272.101563 1239.984375 250 C 1239.984375 227.898438 1257.898438 209.984375 1280 209.984375 C 1302.101563 209.984375 1320.015625 227.898438 1320.015625 250 "/>
<path style=" stroke:none;fill-rule:nonzero;fill:rgb(94.901961%,67.45098%,54.901961%);fill-opacity:1;" d="M 1641.125 250 C 1641.125 272.714844 1622.714844 291.125 1600 291.125 C 1577.285156 291.125 1558.875 272.714844 1558.875 250 C 1558.875 227.285156 1577.285156 208.875 1600 208.875 C 1622.714844 208.875 1641.125 227.285156 1641.125 250 "/>
<path style=" stroke:none;fill-rule:nonzero;fill:rgb(65.882353%,57.254902%,78.823529%);fill-opacity:1;" d="M 1802.804688 250 C 1802.804688 273.640625 1783.640625 292.804688 1760 292.804688 C 1736.359375 292.804688 1717.195313 273.640625 1717.195313 250 C 1717.195313 226.359375 1736.359375 207.195313 1760 207.195313 C 1783.640625 207.195313 1802.804688 226.359375 1802.804688 250 "/>
<path style=" stroke:none;fill-rule:nonzero;fill:rgb(73.333333%,61.176471%,80.392157%);fill-opacity:1;" d="M 1959.421875 250 C 1959.421875 271.773438 1941.773438 289.421875 1920 289.421875 C 1898.226563 289.421875 1880.578125 271.773438 1880.578125 250 C 1880.578125 228.226563 1898.226563 210.578125 1920 210.578125 C 1941.773438 210.578125 1959.421875 228.226563 1959.421875 250 "/>
<path style=" stroke:none;fill-rule:nonzero;fill:rgb(97.647059%,67.45098%,38.823529%);fill-opacity:1;" d="M 2116.960938 250 C 2116.960938 270.414063 2100.414063 286.960938 2080 286.960938 C 2059.585938 286.960938 2043.039063 270.414063 2043.039063 250 C 2043.039063 229.585938 2059.585938 213.039063 2080 213.039063 C 2100.414063 213.039063 2116.960938 229.585938 2116.960938 250 "/>
<path style=" stroke:none;fill-rule:nonzero;fill:rgb(84.313725%,66.27451%,76.862745%);fill-opacity:1;" d="M 2280.664063 250 C 2280.664063 272.457031 2262.457031 290.664063 2240 290.664063 C 2217.542969 290.664063 2199.335938 272.457031 2199.335938 250 C 2199.335938 227.542969 2217.542969 209.335938 2240 209.335938 C 2262.457031 209.335938 2280.664063 227.542969 2280.664063 250 "/>
<path style=" stroke:none;fill-rule:nonzero;fill:rgb(65.882353%,57.254902%,78.823529%);fill-opacity:1;" d="M 2442.042969 250 C 2442.042969 273.21875 2423.21875 292.042969 2400 292.042969 C 2376.78125 292.042969 2357.957031 273.21875 2357.957031 250 C 2357.957031 226.78125 2376.78125 207.957031 2400 207.957031 C 2423.21875 207.957031 2442.042969 226.78125 2442.042969 250 "/>
<path style=" stroke:none;fill-rule:nonzero;fill:rgb(48.235294%,45.098039%,71.764706%);fill-opacity:1;" d="M 195.472656 375 C 195.472656 394.59375 179.59375 410.472656 160 410.472656 C 140.40625 410.472656 124.527344 394.59375 124.527344 375 C 124.527344 355.40625 140.40625 339.527344 160 339.527344 C 179.59375 339.527344 195.472656 355.40625 195.472656 375 "/>
<path style=" stroke:none;fill-rule:nonzero;fill:rgb(65.882353%,57.254902%,78.823529%);fill-opacity:1;" d="M 354.726563 375 C 354.726563 394.179688 339.179688 409.726563 320 409.726563 C 300.820313 409.726563 285.273438 394.179688 285.273438 375 C 285.273438 355.820313 300.820313 340.273438 320 340.273438 C 339.179688 340.273438 354.726563 355.820313 354.726563 375 "/>
<path style=" stroke:none;fill-rule:nonzero;fill:rgb(56.470588%,50.980392%,75.294118%);fill-opacity:1;" d="M 521.023438 375 C 521.023438 397.65625 502.65625 416.023438 480 416.023438 C 457.34375 416.023438 438.976563 397.65625 438.976563 375 C 438.976563 352.34375 457.34375 333.976563 480 333.976563 C 502.65625 333.976563 521.023438 352.34375 521.023438 375 "/>
<path style=" stroke:none;fill-rule:nonzero;fill:rgb(48.235294%,45.098039%,71.764706%);fill-opacity:1;" d="M 685.675781 375 C 685.675781 400.226563 665.226563 420.675781 640 420.675781 C 614.773438 420.675781 594.324219 400.226563 594.324219 375 C 594.324219 349.773438 614.773438 329.324219 640 329.324219 C 665.226563 329.324219 685.675781 349.773438 685.675781 375 "/>
<path style=" stroke:none;fill-rule:nonzero;fill:rgb(56.470588%,50.980392%,75.294118%);fill-opacity:1;" d="M 840.035156 375 C 840.035156 397.109375 822.109375 415.035156 800 415.035156 C 777.890625 415.035156 759.964844 397.109375 759.964844 375 C 759.964844 352.890625 777.890625 334.964844 800 334.964844 C 822.109375 334.964844 840.035156 352.890625 840.035156 375 "/>
<path style=" stroke:none;fill-rule:nonzero;fill:rgb(91.372549%,68.235294%,67.843137%);fill-opacity:1;" d="M 1159.894531 375 C 1159.894531 397.035156 1142.035156 414.894531 1120 414.894531 C 1097.964844 414.894531 1080.105469 397.035156 1080.105469 375 C 1080.105469 352.964844 1097.964844 335.105469 1120 335.105469 C 1142.035156 335.105469 1159.894531 352.964844 1159.894531 375 "/>
<path style=" stroke:none;fill-rule:nonzero;fill:rgb(48.235294%,45.098039%,71.764706%);fill-opacity:1;" d="M 1478.984375 375 C 1478.984375 396.53125 1461.53125 413.984375 1440 413.984375 C 1418.46875 413.984375 1401.015625 396.53125 1401.015625 375 C 1401.015625 353.46875 1418.46875 336.015625 1440 336.015625 C 1461.53125 336.015625 1478.984375 353.46875 1478.984375 375 "/>
<path style=" stroke:none;fill-rule:nonzero;fill:rgb(48.235294%,45.098039%,71.764706%);fill-opacity:1;" d="M 1640.800781 375 C 1640.800781 397.535156 1622.535156 415.800781 1600 415.800781 C 1577.464844 415.800781 1559.199219 397.535156 1559.199219 375 C 1559.199219 352.464844 1577.464844 334.199219 1600 334.199219 C 1622.535156 334.199219 1640.800781 352.464844 1640.800781 375 "/>
<path style=" stroke:none;fill-rule:nonzero;fill:rgb(48.235294%,45.098039%,71.764706%);fill-opacity:1;" d="M 1794.015625 375 C 1794.015625 393.789063 1778.789063 409.015625 1760 409.015625 C 1741.210938 409.015625 1725.984375 393.789063 1725.984375 375 C 1725.984375 356.210938 1741.210938 340.984375 1760 340.984375 C 1778.789063 340.984375 1794.015625 356.210938 1794.015625 375 "/>
<path style=" stroke:none;fill-rule:nonzero;fill:rgb(73.333333%,61.176471%,80.392157%);fill-opacity:1;" d="M 2118.726563 375 C 2118.726563 396.390625 2101.390625 413.726563 2080 413.726563 C 2058.609375 413.726563 2041.273438 396.390625 2041.273438 375 C 2041.273438 353.609375 2058.609375 336.273438 2080 336.273438 C 2101.390625 336.273438 2118.726563 353.609375 2118.726563 375 "/>
<path style=" stroke:none;fill-rule:nonzero;fill:rgb(84.313725%,66.27451%,76.862745%);fill-opacity:1;" d="M 2278.839844 375 C 2278.839844 396.453125 2261.453125 413.839844 2240 413.839844 C 2218.546875 413.839844 2201.160156 396.453125 2201.160156 375 C 2201.160156 353.546875 2218.546875 336.160156 2240 336.160156 C 2261.453125 336.160156 2278.839844 353.546875 2278.839844 375 "/>
<path style=" stroke:none;fill-rule:nonzero;fill:rgb(65.882353%,57.254902%,78.823529%);fill-opacity:1;" d="M 2437.261719 375 C 2437.261719 395.578125 2420.578125 412.261719 2400 412.261719 C 2379.421875 412.261719 2362.738281 395.578125 2362.738281 375 C 2362.738281 354.421875 2379.421875 337.738281 2400 337.738281 C 2420.578125 337.738281 2437.261719 354.421875 2437.261719 375 "/>
<path style=" stroke:none;fill-rule:nonzero;fill:rgb(48.235294%,45.098039%,71.764706%);fill-opacity:1;" d="M 202.347656 500 C 202.347656 523.386719 183.386719 542.347656 160 542.347656 C 136.613281 542.347656 117.652344 523.386719 117.652344 500 C 117.652344 476.613281 136.613281 457.652344 160 457.652344 C 183.386719 457.652344 202.347656 476.613281 202.347656 500 "/>
<path style=" stroke:none;fill-rule:nonzero;fill:rgb(91.372549%,68.235294%,67.843137%);fill-opacity:1;" d="M 358.410156 500 C 358.410156 521.214844 341.214844 538.410156 320 538.410156 C 298.785156 538.410156 281.589844 521.214844 281.589844 500 C 281.589844 478.785156 298.785156 461.589844 320 461.589844 C 341.214844 461.589844 358.410156 478.785156 358.410156 500 "/>
<path style=" stroke:none;fill-rule:nonzero;fill:rgb(94.901961%,67.45098%,54.901961%);fill-opacity:1;" d="M 518.648438 500 C 518.648438 521.34375 501.34375 538.648438 480 538.648438 C 458.65625 538.648438 441.351563 521.34375 441.351563 500 C 441.351563 478.65625 458.65625 461.351563 480 461.351563 C 501.34375 461.351563 518.648438 478.65625 518.648438 500 "/>
<path style=" stroke:none;fill-rule:nonzero;fill:rgb(73.333333%,61.176471%,80.392157%);fill-opacity:1;" d="M 685.257813 500 C 685.257813 524.996094 664.996094 545.257813 640 545.257813 C 615.003906 545.257813 594.742188 524.996094 594.742188 500 C 594.742188 475.003906 615.003906 454.742188 640 454.742188 C 664.996094 454.742188 685.257813 475.003906 685.257813 500 "/>
<path style=" stroke:none;fill-rule:nonzero;fill:rgb(48.235294%,45.098039%,71.764706%);fill-opacity:1;" d="M 837.839844 500 C 837.839844 520.898438 820.898438 537.839844 800 537.839844 C 779.101563 537.839844 762.160156 520.898438 762.160156 500 C 762.160156 479.101563 779.101563 462.160156 800 462.160156 C 820.898438 462.160156 837.839844 479.101563 837.839844 500 "/>
<path style=" stroke:none;fill-rule:nonzero;fill:rgb(91.372549%,68.235294%,67.843137%);fill-opacity:1;" d="M 993.980469 500 C 993.980469 518.765625 978.765625 533.980469 960 533.980469 C 941.234375 533.980469 926.019531 518.765625 926.019531 500 C 926.019531 481.234375 941.234375 466.019531 960 466.019531 C 978.765625 466.019531 993.980469 481.234375 993.980469 500 "/>
<path style=" stroke:none;fill-rule:nonzero;fill:rgb(65.882353%,57.254902%,78.823529%);fill-opacity:1;" d="M 1319.027344 500 C 1319.027344 521.554688 1301.554688 539.027344 1280 539.027344 C 1258.445313 539.027344 1240.972656 521.554688 1240.972656 500 C 1240.972656 478.445313 1258.445313 460.972656 1280 460.972656 C 1301.554688 460.972656 1319.027344 478.445313 1319.027344 500 "/>
<path style=" stroke:none;fill-rule:nonzero;fill:rgb(73.333333%,61.176471%,80.392157%);fill-opacity:1;" d="M 1482.136719 500 C 1482.136719 523.273438 1463.273438 542.136719 1440 542.136719 C 1416.726563 542.136719 1397.863281 523.273438 1397.863281 500 C 1397.863281 476.726563 1416.726563 457.863281 1440 457.863281 C 1463.273438 457.863281 1482.136719 476.726563 1482.136719 500 "/>
<path style=" stroke:none;fill-rule:nonzero;fill:rgb(73.333333%,61.176471%,80.392157%);fill-opacity:1;" d="M 1634.984375 500 C 1634.984375 519.320313 1619.320313 534.984375 1600 534.984375 C 1580.679688 534.984375 1565.015625 519.320313 1565.015625 500 C 1565.015625 480.679688 1580.679688 465.015625 1600 465.015625 C 1619.320313 465.015625 1634.984375 480.679688 1634.984375 500 "/>
<path style=" stroke:none;fill-rule:nonzero;fill:rgb(65.882353%,57.254902%,78.823529%);fill-opacity:1;" d="M 1804.535156 500 C 1804.535156 524.597656 1784.597656 544.535156 1760 544.535156 C 1735.402344 544.535156 1715.464844 524.597656 1715.464844 500 C 1715.464844 475.402344 1735.402344 455.464844 1760 455.464844 C 1784.597656 455.464844 1804.535156 475.402344 1804.535156 500 "/>
<path style=" stroke:none;fill-rule:nonzero;fill:rgb(84.313725%,66.27451%,76.862745%);fill-opacity:1;" d="M 1965.449219 500 C 1965.449219 525.101563 1945.101563 545.449219 1920 545.449219 C 1894.898438 545.449219 1874.550781 525.101563 1874.550781 500 C 1874.550781 474.898438 1894.898438 454.550781 1920 454.550781 C 1945.101563 454.550781 1965.449219 474.898438 1965.449219 500 "/>
<path style=" stroke:none;fill-rule:nonzero;fill:rgb(73.333333%,61.176471%,80.392157%);fill-opacity:1;" d="M 2117.015625 500 C 2117.015625 520.445313 2100.445313 537.015625 2080 537.015625 C 2059.554688 537.015625 2042.984375 520.445313 2042.984375 500 C 2042.984375 479.554688 2059.554688 462.984375 2080 462.984375 C 2100.445313 462.984375 2117.015625 479.554688 2117.015625 500 "/>
<path style=" stroke:none;fill-rule:nonzero;fill:rgb(56.470588%,50.980392%,75.294118%);fill-opacity:1;" d="M 2279.492188 500 C 2279.492188 521.808594 2261.808594 539.492188 2240 539.492188 C 2218.191406 539.492188 2200.507813 521.808594 2200.507813 500 C 2200.507813 478.191406 2218.191406 460.507813 2240 460.507813 C 2261.808594 460.507813 2279.492188 478.191406 2279.492188 500 "/>
<path style=" stroke:none;fill-rule:nonzero;fill:rgb(84.313725%,66.27451%,76.862745%);fill-opacity:1;" d="M 2441.1875 500 C 2441.1875 522.746094 2422.746094 541.1875 2400 541.1875 C 2377.253906 541.1875 2358.8125 522.746094 2358.8125 500 C 2358.8125 477.253906 2377.253906 458.8125 2400 458.8125 C 2422.746094 458.8125 2441.1875 477.253906 2441.1875 500 "/>
<path style=" stroke:none;fill-rule:nonzero;fill:rgb(56.470588%,50.980392%,75.294118%);fill-opacity:1;" d="M 195.464844 625 C 195.464844 644.585938 179.585938 660.464844 160 660.464844 C 140.414063 660.464844 124.535156 644.585938 124.535156 625 C 124.535156 605.414063 140.414063 589.535156 160 589.535156 C 179.585938 589.535156 195.464844 605.414063 195.464844 625 "/>
<path style=" stroke:none;fill-rule:nonzero;fill:rgb(48.235294%,45.098039%,71.764706%);fill-opacity:1;" d="M 682.363281 625 C 682.363281 648.394531 663.394531 667.363281 640 667.363281 C 616.605469 667.363281 597.636719 648.394531 597.636719 625 C 597.636719 601.605469 616.605469 582.636719 640 582.636719 C 663.394531 582.636719 682.363281 601.605469 682.363281 625 "/>
<path style=" stroke:none;fill-rule:nonzero;fill:rgb(65.882353%,57.254902%,78.823529%);fill-opacity:1;" d="M 839.707031 625 C 839.707031 646.929688 821.929688 664.707031 800 664.707031 C 778.070313 664.707031 760.292969 646.929688 760.292969 625 C 760.292969 603.070313 778.070313 585.292969 800 585.292969 C 821.929688 585.292969 839.707031 603.070313 839.707031 625 "/>
<path style=" stroke:none;fill-rule:nonzero;fill:rgb(48.235294%,45.098039%,71.764706%);fill-opacity:1;" d="M 995.722656 625 C 995.722656 644.730469 979.730469 660.722656 960 660.722656 C 940.269531 660.722656 924.277344 644.730469 924.277344 625 C 924.277344 605.269531 940.269531 589.277344 960 589.277344 C 979.730469 589.277344 995.722656 605.269531 995.722656 625 "/>
<path style=" stroke:none;fill-rule:nonzero;fill:rgb(48.235294%,45.098039%,71.764706%);fill-opacity:1;" d="M 1159.765625 625 C 1159.765625 646.960938 1141.960938 664.765625 1120 664.765625 C 1098.039063 664.765625 1080.234375 646.960938 1080.234375 625 C 1080.234375 603.039063 1098.039063 585.234375 1120 585.234375 C 1141.960938 585.234375 1159.765625 603.039063 1159.765625 625 "/>
<path style=" stroke:none;fill-rule:nonzero;fill:rgb(56.470588%,50.980392%,75.294118%);fill-opacity:1;" d="M 1312.285156 625 C 1312.285156 642.832031 1297.832031 657.285156 1280 657.285156 C 1262.167969 657.285156 1247.714844 642.832031 1247.714844 625 C 1247.714844 607.167969 1262.167969 592.714844 1280 592.714844 C 1297.832031 592.714844 1312.285156 607.167969 1312.285156 625 "/>
<path style=" stroke:none;fill-rule:nonzero;fill:rgb(97.647059%,67.45098%,38.823529%);fill-opacity:1;" d="M 1643.246094 625 C 1643.246094 648.882813 1623.882813 668.246094 1600 668.246094 C 1576.117188 668.246094 1556.753906 648.882813 1556.753906 625 C 1556.753906 601.117188 1576.117188 581.753906 1600 581.753906 C 1623.882813 581.753906 1643.246094 601.117188 1643.246094 625 "/>
<path style=" stroke:none;fill-rule:nonzero;fill:rgb(84.313725%,66.27451%,76.862745%);fill-opacity:1;" d="M 1798.523438 625 C 1798.523438 646.277344 1781.277344 663.523438 1760 663.523438 C 1738.722656 663.523438 1721.476563 646.277344 1721.476563 625 C 1721.476563 603.722656 1738.722656 586.476563 1760 586.476563 C 1781.277344 586.476563 1798.523438 603.722656 1798.523438 625 "/>
<path style=" stroke:none;fill-rule:nonzero;fill:rgb(65.882353%,57.254902%,78.823529%);fill-opacity:1;" d="M 1962.335938 625 C 1962.335938 648.382813 1943.382813 667.335938 1920 667.335938 C 1896.617188 667.335938 1877.664063 648.382813 1877.664063 625 C 1877.664063 601.617188 1896.617188 582.664063 1920 582.664063 C 1943.382813 582.664063 1962.335938 601.617188 1962.335938 625 "/>
<path style=" stroke:none;fill-rule:nonzero;fill:rgb(65.882353%,57.254902%,78.823529%);fill-opacity:1;" d="M 2121.585938 625 C 2121.585938 647.96875 2102.96875 666.585938 2080 666.585938 C 2057.03125 666.585938 2038.414063 647.96875 2038.414063 625 C 2038.414063 602.03125 2057.03125 583.414063 2080 583.414063 C 2102.96875 583.414063 2121.585938 602.03125 2121.585938 625 "/>
<path style=" stroke:none;fill-rule:nonzero;fill:rgb(73.333333%,61.176471%,80.392157%);fill-opacity:1;" d="M 2278.792969 625 C 2278.792969 646.425781 2261.425781 663.792969 2240 663.792969 C 2218.574219 663.792969 2201.207031 646.425781 2201.207031 625 C 2201.207031 603.574219 2218.574219 586.207031 2240 586.207031 C 2261.425781 586.207031 2278.792969 603.574219 2278.792969 625 "/>
<path style=" stroke:none;fill-rule:nonzero;fill:rgb(48.235294%,45.098039%,71.764706%);fill-opacity:1;" d="M 2440.257813 625 C 2440.257813 647.234375 2422.234375 665.257813 2400 665.257813 C 2377.765625 665.257813 2359.742188 647.234375 2359.742188 625 C 2359.742188 602.765625 2377.765625 584.742188 2400 584.742188 C 2422.234375 584.742188 2440.257813 602.765625 2440.257813 625 "/>
<path style=" stroke:none;fill-rule:nonzero;fill:rgb(97.647059%,67.45098%,38.823529%);fill-opacity:1;" d="M 200.117188 750 C 200.117188 772.15625 182.15625 790.117188 160 790.117188 C 137.84375 790.117188 119.882813 772.15625 119.882813 750 C 119.882813 727.84375 137.84375 709.882813 160 709.882813 C 182.15625 709.882813 200.117188 727.84375 200.117188 750 "/>
<path style=" stroke:none;fill-rule:nonzero;fill:rgb(73.333333%,61.176471%,80.392157%);fill-opacity:1;" d="M 363.648438 750 C 363.648438 774.105469 344.105469 793.648438 320 793.648438 C 295.894531 793.648438 276.351563 774.105469 276.351563 750 C 276.351563 725.894531 295.894531 706.351563 320 706.351563 C 344.105469 706.351563 363.648438 725.894531 363.648438 750 "/>
<path style=" stroke:none;fill-rule:nonzero;fill:rgb(56.470588%,50.980392%,75.294118%);fill-opacity:1;" d="M 517.671875 750 C 517.671875 770.804688 500.804688 787.671875 480 787.671875 C 459.195313 787.671875 442.328125 770.804688 442.328125 750 C 442.328125 729.195313 459.195313 712.328125 480 712.328125 C 500.804688 712.328125 517.671875 729.195313 517.671875 750 "/>
<path style=" stroke:none;fill-rule:nonzero;fill:rgb(56.470588%,50.980392%,75.294118%);fill-opacity:1;" d="M 684.207031 750 C 684.207031 774.414063 664.414063 794.207031 640 794.207031 C 615.585938 794.207031 595.792969 774.414063 595.792969 750 C 595.792969 725.585938 615.585938 705.792969 640 705.792969 C 664.414063 705.792969 684.207031 725.585938 684.207031 750 "/>
<path style=" stroke:none;fill-rule:nonzero;fill:rgb(73.333333%,61.176471%,80.392157%);fill-opacity:1;" d="M 839.976563 750 C 839.976563 772.078125 822.078125 789.976563 800 789.976563 C 777.921875 789.976563 760.023438 772.078125 760.023438 750 C 760.023438 727.921875 777.921875 710.023438 800 710.023438 C 822.078125 710.023438 839.976563 727.921875 839.976563 750 "/>
<path style=" stroke:none;fill-rule:nonzero;fill:rgb(56.470588%,50.980392%,75.294118%);fill-opacity:1;" d="M 997.269531 750 C 997.269531 770.582031 980.582031 787.269531 960 787.269531 C 939.417969 787.269531 922.730469 770.582031 922.730469 750 C 922.730469 729.417969 939.417969 712.730469 960 712.730469 C 980.582031 712.730469 997.269531 729.417969 997.269531 750 "/>
<path style=" stroke:none;fill-rule:nonzero;fill:rgb(48.235294%,45.098039%,71.764706%);fill-opacity:1;" d="M 1159.605469 750 C 1159.605469 771.875 1141.875 789.605469 1120 789.605469 C 1098.125 789.605469 1080.394531 771.875 1080.394531 750 C 1080.394531 728.125 1098.125 710.394531 1120 710.394531 C 1141.875 710.394531 1159.605469 728.125 1159.605469 750 "/>
<path style=" stroke:none;fill-rule:nonzero;fill:rgb(56.470588%,50.980392%,75.294118%);fill-opacity:1;" d="M 1314.183594 750 C 1314.183594 768.878906 1298.878906 784.183594 1280 784.183594 C 1261.121094 784.183594 1245.816406 768.878906 1245.816406 750 C 1245.816406 731.121094 1261.121094 715.816406 1280 715.816406 C 1298.878906 715.816406 1314.183594 731.121094 1314.183594 750 "/>
<path style=" stroke:none;fill-rule:nonzero;fill:rgb(48.235294%,45.098039%,71.764706%);fill-opacity:1;" d="M 1480.902344 750 C 1480.902344 772.589844 1462.589844 790.902344 1440 790.902344 C 1417.410156 790.902344 1399.097656 772.589844 1399.097656 750 C 1399.097656 727.410156 1417.410156 709.097656 1440 709.097656 C 1462.589844 709.097656 1480.902344 727.410156 1480.902344 750 "/>
<path style=" stroke:none;fill-rule:nonzero;fill:rgb(73.333333%,61.176471%,80.392157%);fill-opacity:1;" d="M 1642.019531 750 C 1642.019531 773.207031 1623.207031 792.019531 1600 792.019531 C 1576.792969 792.019531 1557.980469 773.207031 1557.980469 750 C 1557.980469 726.792969 1576.792969 707.980469 1600 707.980469 C 1623.207031 707.980469 1642.019531 726.792969 1642.019531 750 "/>
<path style=" stroke:none;fill-rule:nonzero;fill:rgb(84.313725%,66.27451%,76.862745%);fill-opacity:1;" d="M 1800.441406 750 C 1800.441406 772.335938 1782.335938 790.441406 1760 790.441406 C 1737.664063 790.441406 1719.558594 772.335938 1719.558594 750 C 1719.558594 727.664063 1737.664063 709.558594 1760 709.558594 C 1782.335938 709.558594 1800.441406 727.664063 1800.441406 750 "/>
<path style=" stroke:none;fill-rule:nonzero;fill:rgb(48.235294%,45.098039%,71.764706%);fill-opacity:1;" d="M 1961.636719 750 C 1961.636719 772.996094 1942.996094 791.636719 1920 791.636719 C 1897.003906 791.636719 1878.363281 772.996094 1878.363281 750 C 1878.363281 727.003906 1897.003906 708.363281 1920 708.363281 C 1942.996094 708.363281 1961.636719 727.003906 1961.636719 750 "/>
<path style=" stroke:none;fill-rule:nonzero;fill:rgb(73.333333%,61.176471%,80.392157%);fill-opacity:1;" d="M 2121.636719 750 C 2121.636719 772.996094 2102.996094 791.636719 2080 791.636719 C 2057.003906 791.636719 2038.363281 772.996094 2038.363281 750 C 2038.363281 727.003906 2057.003906 708.363281 2080 708.363281 C 2102.996094 708.363281 2121.636719 727.003906 2121.636719 750 "/>
<path style=" stroke:none;fill-rule:nonzero;fill:rgb(48.235294%,45.098039%,71.764706%);fill-opacity:1;" d="M 2276.289063 750 C 2276.289063 770.042969 2260.042969 786.289063 2240 786.289063 C 2219.957031 786.289063 2203.710938 770.042969 2203.710938 750 C 2203.710938 729.957031 2219.957031 713.710938 2240 713.710938 C 2260.042969 713.710938 2276.289063 729.957031 2276.289063 750 "/>
<path style=" stroke:none;fill-rule:nonzero;fill:rgb(65.882353%,57.254902%,78.823529%);fill-opacity:1;" d="M 2447.375 750 C 2447.375 776.164063 2426.164063 797.375 2400 797.375 C 2373.835938 797.375 2352.625 776.164063 2352.625 750 C 2352.625 723.835938 2373.835938 702.625 2400 702.625 C 2426.164063 702.625 2447.375 723.835938 2447.375 750 "/>
<path style=" stroke:none;fill-rule:nonzero;fill:rgb(48.235294%,45.098039%,71.764706%);fill-opacity:1;" d="M 200.042969 875 C 200.042969 897.113281 182.113281 915.042969 160 915.042969 C 137.886719 915.042969 119.957031 897.113281 119.957031 875 C 119.957031 852.886719 137.886719 834.957031 160 834.957031 C 182.113281 834.957031 200.042969 852.886719 200.042969 875 "/>
<path style=" stroke:none;fill-rule:nonzero;fill:rgb(94.901961%,67.45098%,54.901961%);fill-opacity:1;" d="M 358.917969 875 C 358.917969 896.492188 341.492188 913.917969 320 913.917969 C 298.507813 913.917969 281.082031 896.492188 281.082031 875 C 281.082031 853.507813 298.507813 836.082031 320 836.082031 C 341.492188 836.082031 358.917969 853.507813 358.917969 875 "/>
<path style=" stroke:none;fill-rule:nonzero;fill:rgb(56.470588%,50.980392%,75.294118%);fill-opacity:1;" d="M 517.671875 875 C 517.671875 895.804688 500.804688 912.671875 480 912.671875 C 459.195313 912.671875 442.328125 895.804688 442.328125 875 C 442.328125 854.195313 459.195313 837.328125 480 837.328125 C 500.804688 837.328125 517.671875 854.195313 517.671875 875 "/>
<path style=" stroke:none;fill-rule:nonzero;fill:rgb(65.882353%,57.254902%,78.823529%);fill-opacity:1;" d="M 680.949219 875 C 680.949219 897.617188 662.617188 915.949219 640 915.949219 C 617.382813 915.949219 599.050781 897.617188 599.050781 875 C 599.050781 852.382813 617.382813 834.050781 640 834.050781 C 662.617188 834.050781 680.949219 852.382813 680.949219 875 "/>
<path style=" stroke:none;fill-rule:nonzero;fill:rgb(48.235294%,45.098039%,71.764706%);fill-opacity:1;" d="M 835.207031 875 C 835.207031 894.441406 819.441406 910.207031 800 910.207031 C 780.558594 910.207031 764.792969 894.441406 764.792969 875 C 764.792969 855.558594 780.558594 839.792969 800 839.792969 C 819.441406 839.792969 835.207031 855.558594 835.207031 875 "/>
<path style=" stroke:none;fill-rule:nonzero;fill:rgb(84.313725%,66.27451%,76.862745%);fill-opacity:1;" d="M 1002.554688 875 C 1002.554688 898.5 983.5 917.554688 960 917.554688 C 936.5 917.554688 917.445313 898.5 917.445313 875 C 917.445313 851.5 936.5 832.445313 960 832.445313 C 983.5 832.445313 1002.554688 851.5 1002.554688 875 "/>
<path style=" stroke:none;fill-rule:nonzero;fill:rgb(65.882353%,57.254902%,78.823529%);fill-opacity:1;" d="M 1161.738281 875 C 1161.738281 898.050781 1143.050781 916.738281 1120 916.738281 C 1096.949219 916.738281 1078.261719 898.050781 1078.261719 875 C 1078.261719 851.949219 1096.949219 833.261719 1120 833.261719 C 1143.050781 833.261719 1161.738281 851.949219 1161.738281 875 "/>
<path style=" stroke:none;fill-rule:nonzero;fill:rgb(65.882353%,57.254902%,78.823529%);fill-opacity:1;" d="M 1314.589844 875 C 1314.589844 894.101563 1299.101563 909.589844 1280 909.589844 C 1260.898438 909.589844 1245.410156 894.101563 1245.410156 875 C 1245.410156 855.898438 1260.898438 840.410156 1280 840.410156 C 1299.101563 840.410156 1314.589844 855.898438 1314.589844 875 "/>
<path style=" stroke:none;fill-rule:nonzero;fill:rgb(48.235294%,45.098039%,71.764706%);fill-opacity:1;" d="M 1480.101563 875 C 1480.101563 897.148438 1462.148438 915.101563 1440 915.101563 C 1417.851563 915.101563 1399.898438 897.148438 1399.898438 875 C 1399.898438 852.851563 1417.851563 834.898438 1440 834.898438 C 1462.148438 834.898438 1480.101563 852.851563 1480.101563 875 "/>
<path style=" stroke:none;fill-rule:nonzero;fill:rgb(48.235294%,45.098039%,71.764706%);fill-opacity:1;" d="M 1640.28125 875 C 1640.28125 897.246094 1622.246094 915.28125 1600 915.28125 C 1577.753906 915.28125 1559.71875 897.246094 1559.71875 875 C 1559.71875 852.753906 1577.753906 834.71875 1600 834.71875 C 1622.246094 834.71875 1640.28125 852.753906 1640.28125 875 "/>
<path style=" stroke:none;fill-rule:nonzero;fill:rgb(65.882353%,57.254902%,78.823529%);fill-opacity:1;" d="M 1801.863281 875 C 1801.863281 898.121094 1783.121094 916.863281 1760 916.863281 C 1736.878906 916.863281 1718.136719 898.121094 1718.136719 875 C 1718.136719 851.878906 1736.878906 833.136719 1760 833.136719 C 1783.121094 833.136719 1801.863281 851.878906 1801.863281 875 "/>
<path style=" stroke:none;fill-rule:nonzero;fill:rgb(52.54902%,41.176471%,41.176471%);fill-opacity:1;" d="M 1958.632813 875 C 1958.632813 896.335938 1941.335938 913.632813 1920 913.632813 C 1898.664063 913.632813 1881.367188 896.335938 1881.367188 875 C 1881.367188 853.664063 1898.664063 836.367188 1920 836.367188 C 1941.335938 836.367188 1958.632813 853.664063 1958.632813 875 "/>
<path style=" stroke:none;fill-rule:nonzero;fill:rgb(73.333333%,61.176471%,80.392157%);fill-opacity:1;" d="M 2117.621094 875 C 2117.621094 895.777344 2100.777344 912.621094 2080 912.621094 C 2059.222656 912.621094 2042.378906 895.777344 2042.378906 875 C 2042.378906 854.222656 2059.222656 837.378906 2080 837.378906 C 2100.777344 837.378906 2117.621094 854.222656 2117.621094 875 "/>
<path style=" stroke:none;fill-rule:nonzero;fill:rgb(27.843137%,20.392157%,21.176471%);fill-opacity:1;" d="M 2276.011719 875 C 2276.011719 894.890625 2259.890625 911.011719 2240 911.011719 C 2220.109375 911.011719 2203.988281 894.890625 2203.988281 875 C 2203.988281 855.109375 2220.109375 838.988281 2240 838.988281 C 2259.890625 838.988281 2276.011719 855.109375 2276.011719 875 "/>
<path style=" stroke:none;fill-rule:nonzero;fill:rgb(65.882353%,57.254902%,78.823529%);fill-opacity:1;" d="M 2438.292969 875 C 2438.292969 896.148438 2421.148438 913.292969 2400 913.292969 C 2378.851563 913.292969 2361.707031 896.148438 2361.707031 875 C 2361.707031 853.851563 2378.851563 836.707031 2400 836.707031 C 2421.148438 836.707031 2438.292969 853.851563 2438.292969 875 "/>
<path style=" stroke:none;fill-rule:nonzero;fill:rgb(48.235294%,45.098039%,71.764706%);fill-opacity:1;" d="M 521.125 1000 C 521.125 1022.710938 502.710938 1041.125 480 1041.125 C 457.289063 1041.125 438.875 1022.710938 438.875 1000 C 438.875 977.289063 457.289063 958.875 480 958.875 C 502.710938 958.875 521.125 977.289063 521.125 1000 "/>
<path style=" stroke:none;fill-rule:nonzero;fill:rgb(73.333333%,61.176471%,80.392157%);fill-opacity:1;" d="M 684.035156 1000 C 684.035156 1024.320313 664.320313 1044.035156 640 1044.035156 C 615.679688 1044.035156 595.964844 1024.320313 595.964844 1000 C 595.964844 975.679688 615.679688 955.964844 640 955.964844 C 664.320313 955.964844 684.035156 975.679688 684.035156 1000 "/>
<path style=" stroke:none;fill-rule:nonzero;fill:rgb(84.313725%,66.27451%,76.862745%);fill-opacity:1;" d="M 843.589844 1000 C 843.589844 1024.074219 824.074219 1043.589844 800 1043.589844 C 775.925781 1043.589844 756.410156 1024.074219 756.410156 1000 C 756.410156 975.925781 775.925781 956.410156 800 956.410156 C 824.074219 956.410156 843.589844 975.925781 843.589844 1000 "/>
<path style=" stroke:none;fill-rule:nonzero;fill:rgb(91.372549%,68.235294%,67.843137%);fill-opacity:1;" d="M 999.378906 1000 C 999.378906 1021.75 981.75 1039.378906 960 1039.378906 C 938.25 1039.378906 920.621094 1021.75 920.621094 1000 C 920.621094 978.25 938.25 960.621094 960 960.621094 C 981.75 960.621094 999.378906 978.25 999.378906 1000 "/>
<path style=" stroke:none;fill-rule:nonzero;fill:rgb(48.235294%,45.098039%,71.764706%);fill-opacity:1;" d="M 1164.398438 1000 C 1164.398438 1024.519531 1144.519531 1044.398438 1120 1044.398438 C 1095.480469 1044.398438 1075.601563 1024.519531 1075.601563 1000 C 1075.601563 975.480469 1095.480469 955.601563 1120 955.601563 C 1144.519531 955.601563 1164.398438 975.480469 1164.398438 1000 "/>
<path style=" stroke:none;fill-rule:nonzero;fill:rgb(48.235294%,45.098039%,71.764706%);fill-opacity:1;" d="M 1324.070313 1000 C 1324.070313 1024.339844 1304.339844 1044.070313 1280 1044.070313 C 1255.660156 1044.070313 1235.929688 1024.339844 1235.929688 1000 C 1235.929688 975.660156 1255.660156 955.929688 1280 955.929688 C 1304.339844 955.929688 1324.070313 975.660156 1324.070313 1000 "/>
<path style=" stroke:none;fill-rule:nonzero;fill:rgb(48.235294%,45.098039%,71.764706%);fill-opacity:1;" d="M 1479.105469 1000 C 1479.105469 1021.597656 1461.597656 1039.105469 1440 1039.105469 C 1418.402344 1039.105469 1400.894531 1021.597656 1400.894531 1000 C 1400.894531 978.402344 1418.402344 960.894531 1440 960.894531 C 1461.597656 960.894531 1479.105469 978.402344 1479.105469 1000 "/>
<path style=" stroke:none;fill-rule:nonzero;fill:rgb(65.882353%,57.254902%,78.823529%);fill-opacity:1;" d="M 1644.828125 1000 C 1644.828125 1024.757813 1624.757813 1044.828125 1600 1044.828125 C 1575.242188 1044.828125 1555.171875 1024.757813 1555.171875 1000 C 1555.171875 975.242188 1575.242188 955.171875 1600 955.171875 C 1624.757813 955.171875 1644.828125 975.242188 1644.828125 1000 "/>
<path style=" stroke:none;fill-rule:nonzero;fill:rgb(27.843137%,20.392157%,21.176471%);fill-opacity:1;" d="M 1799.855469 1000 C 1799.855469 1022.011719 1782.011719 1039.855469 1760 1039.855469 C 1737.988281 1039.855469 1720.144531 1022.011719 1720.144531 1000 C 1720.144531 977.988281 1737.988281 960.144531 1760 960.144531 C 1782.011719 960.144531 1799.855469 977.988281 1799.855469 1000 "/>
<path style=" stroke:none;fill-rule:nonzero;fill:rgb(65.882353%,57.254902%,78.823529%);fill-opacity:1;" d="M 1959.808594 1000 C 1959.808594 1021.984375 1941.984375 1039.808594 1920 1039.808594 C 1898.015625 1039.808594 1880.191406 1021.984375 1880.191406 1000 C 1880.191406 978.015625 1898.015625 960.191406 1920 960.191406 C 1941.984375 960.191406 1959.808594 978.015625 1959.808594 1000 "/>
<path style=" stroke:none;fill-rule:nonzero;fill:rgb(48.235294%,45.098039%,71.764706%);fill-opacity:1;" d="M 2119.765625 1000 C 2119.765625 1021.960938 2101.960938 1039.765625 2080 1039.765625 C 2058.039063 1039.765625 2040.234375 1021.960938 2040.234375 1000 C 2040.234375 978.039063 2058.039063 960.234375 2080 960.234375 C 2101.960938 960.234375 2119.765625 978.039063 2119.765625 1000 "/>
<path style=" stroke:none;fill-rule:nonzero;fill:rgb(48.235294%,45.098039%,71.764706%);fill-opacity:1;" d="M 2277.269531 1000 C 2277.269531 1020.582031 2260.582031 1037.269531 2240 1037.269531 C 2219.417969 1037.269531 2202.730469 1020.582031 2202.730469 1000 C 2202.730469 979.417969 2219.417969 962.730469 2240 962.730469 C 2260.582031 962.730469 2277.269531 979.417969 2277.269531 1000 "/>
<path style=" stroke:none;fill-rule:nonzero;fill:rgb(84.313725%,66.27451%,76.862745%);fill-opacity:1;" d="M 2439.15625 1000 C 2439.15625 1021.625 2421.625 1039.15625 2400 1039.15625 C 2378.375 1039.15625 2360.84375 1021.625 2360.84375 1000 C 2360.84375 978.375 2378.375 960.84375 2400 960.84375 C 2421.625 960.84375 2439.15625 978.375 2439.15625 1000 "/>
<path style=" stroke:none;fill-rule:nonzero;fill:rgb(94.901961%,67.45098%,54.901961%);fill-opacity:1;" d="M 200.328125 1125 C 200.328125 1147.273438 182.273438 1165.328125 160 1165.328125 C 137.726563 1165.328125 119.671875 1147.273438 119.671875 1125 C 119.671875 1102.726563 137.726563 1084.671875 160 1084.671875 C 182.273438 1084.671875 200.328125 1102.726563 200.328125 1125 "/>
<path style=" stroke:none;fill-rule:nonzero;fill:rgb(56.470588%,50.980392%,75.294118%);fill-opacity:1;" d="M 359.960938 1125 C 359.960938 1147.070313 342.070313 1164.960938 320 1164.960938 C 297.929688 1164.960938 280.039063 1147.070313 280.039063 1125 C 280.039063 1102.929688 297.929688 1085.039063 320 1085.039063 C 342.070313 1085.039063 359.960938 1102.929688 359.960938 1125 "/>
<path style=" stroke:none;fill-rule:nonzero;fill:rgb(95.294118%,78.823529%,82.352941%);fill-opacity:1;" d="M 518.859375 1125 C 518.859375 1146.460938 501.460938 1163.859375 480 1163.859375 C 458.539063 1163.859375 441.140625 1146.460938 441.140625 1125 C 441.140625 1103.539063 458.539063 1086.140625 480 1086.140625 C 501.460938 1086.140625 518.859375 1103.539063 518.859375 1125 "/>
<path style=" stroke:none;fill-rule:nonzero;fill:rgb(94.901961%,67.45098%,54.901961%);fill-opacity:1;" d="M 677.261719 1125 C 677.261719 1145.578125 660.578125 1162.261719 640 1162.261719 C 619.421875 1162.261719 602.738281 1145.578125 602.738281 1125 C 602.738281 1104.421875 619.421875 1087.738281 640 1087.738281 C 660.578125 1087.738281 677.261719 1104.421875 677.261719 1125 "/>
<path style=" stroke:none;fill-rule:nonzero;fill:rgb(48.235294%,45.098039%,71.764706%);fill-opacity:1;" d="M 840.96875 1125 C 840.96875 1147.625 822.625 1165.96875 800 1165.96875 C 777.375 1165.96875 759.03125 1147.625 759.03125 1125 C 759.03125 1102.375 777.375 1084.03125 800 1084.03125 C 822.625 1084.03125 840.96875 1102.375 840.96875 1125 "/>
<path style=" stroke:none;fill-rule:nonzero;fill:rgb(73.333333%,61.176471%,80.392157%);fill-opacity:1;" d="M 996.613281 1125 C 996.613281 1145.222656 980.222656 1161.613281 960 1161.613281 C 939.777344 1161.613281 923.386719 1145.222656 923.386719 1125 C 923.386719 1104.777344 939.777344 1088.386719 960 1088.386719 C 980.222656 1088.386719 996.613281 1104.777344 996.613281 1125 "/>
<path style=" stroke:none;fill-rule:nonzero;fill:rgb(94.901961%,67.45098%,54.901961%);fill-opacity:1;" d="M 1162.761719 1125 C 1162.761719 1148.617188 1143.617188 1167.761719 1120 1167.761719 C 1096.382813 1167.761719 1077.238281 1148.617188 1077.238281 1125 C 1077.238281 1101.382813 1096.382813 1082.238281 1120 1082.238281 C 1143.617188 1082.238281 1162.761719 1101.382813 1162.761719 1125 "/>
<path style=" stroke:none;fill-rule:nonzero;fill:rgb(48.235294%,45.098039%,71.764706%);fill-opacity:1;" d="M 1316.175781 1125 C 1316.175781 1144.980469 1299.980469 1161.175781 1280 1161.175781 C 1260.019531 1161.175781 1243.824219 1144.980469 1243.824219 1125 C 1243.824219 1105.019531 1260.019531 1088.824219 1280 1088.824219 C 1299.980469 1088.824219 1316.175781 1105.019531 1316.175781 1125 "/>
<path style=" stroke:none;fill-rule:nonzero;fill:rgb(56.470588%,50.980392%,75.294118%);fill-opacity:1;" d="M 1800.816406 1125 C 1800.816406 1147.542969 1782.542969 1165.816406 1760 1165.816406 C 1737.457031 1165.816406 1719.183594 1147.542969 1719.183594 1125 C 1719.183594 1102.457031 1737.457031 1084.183594 1760 1084.183594 C 1782.542969 1084.183594 1800.816406 1102.457031 1800.816406 1125 "/>
<path style=" stroke:none;fill-rule:nonzero;fill:rgb(65.882353%,57.254902%,78.823529%);fill-opacity:1;" d="M 1962.175781 1125 C 1962.175781 1148.292969 1943.292969 1167.175781 1920 1167.175781 C 1896.707031 1167.175781 1877.824219 1148.292969 1877.824219 1125 C 1877.824219 1101.707031 1896.707031 1082.824219 1920 1082.824219 C 1943.292969 1082.824219 1962.175781 1101.707031 1962.175781 1125 "/>
<path style=" stroke:none;fill-rule:nonzero;fill:rgb(94.901961%,67.45098%,54.901961%);fill-opacity:1;" d="M 2120.082031 1125 C 2120.082031 1147.136719 2102.136719 1165.082031 2080 1165.082031 C 2057.863281 1165.082031 2039.917969 1147.136719 2039.917969 1125 C 2039.917969 1102.863281 2057.863281 1084.917969 2080 1084.917969 C 2102.136719 1084.917969 2120.082031 1102.863281 2120.082031 1125 "/>
<path style=" stroke:none;fill-rule:nonzero;fill:rgb(73.333333%,61.176471%,80.392157%);fill-opacity:1;" d="M 2279.074219 1125 C 2279.074219 1146.582031 2261.582031 1164.074219 2240 1164.074219 C 2218.417969 1164.074219 2200.925781 1146.582031 2200.925781 1125 C 2200.925781 1103.417969 2218.417969 1085.925781 2240 1085.925781 C 2261.582031 1085.925781 2279.074219 1103.417969 2279.074219 1125 "/>
<path style=" stroke:none;fill-rule:nonzero;fill:rgb(73.333333%,61.176471%,80.392157%);fill-opacity:1;" d="M 2447.707031 1125 C 2447.707031 1151.347656 2426.347656 1172.707031 2400 1172.707031 C 2373.652344 1172.707031 2352.292969 1151.347656 2352.292969 1125 C 2352.292969 1098.652344 2373.652344 1077.292969 2400 1077.292969 C 2426.347656 1077.292969 2447.707031 1098.652344 2447.707031 1125 "/>
</g>
</svg>
