<?xml version="1.0" encoding="UTF-8"?>
<svg xmlns="http://www.w3.org/2000/svg" xmlns:xlink="http://www.w3.org/1999/xlink" width="2560pt" height="192pt" viewBox="0 0 2560 192" version="1.1">
<g id="surface1">
<rect x="0" y="0" width="2560" height="192" style="fill:rgb(98.039216%,98.039216%,98.039216%);fill-opacity:1;stroke:none;"/>
<path style=" stroke:none;fill-rule:nonzero;fill:rgb(51.764706%,44.313725%,35.294118%);fill-opacity:1;" d="M 218.402344 96 C 218.402344 128.253906 192.253906 154.402344 160 154.402344 C 127.746094 154.402344 101.597656 128.253906 101.597656 96 C 101.597656 63.746094 127.746094 37.597656 160 37.597656 C 192.253906 37.597656 218.402344 63.746094 218.402344 96 "/>
<path style=" stroke:none;fill-rule:nonzero;fill:rgb(23.529412%,27.45098%,25.098039%);fill-opacity:1;" d="M 374.523438 96 C 374.523438 126.113281 350.113281 150.523438 320 150.523438 C 289.886719 150.523438 265.476563 126.113281 265.476563 96 C 265.476563 65.886719 289.886719 41.476563 320 41.476563 C 350.113281 41.476563 374.523438 65.886719 374.523438 96 "/>
<path style=" stroke:none;fill-rule:nonzero;fill:rgb(51.764706%,44.313725%,35.294118%);fill-opacity:1;" d="M 536.140625 96 C 536.140625 127.007813 511.007813 152.140625 480 152.140625 C 448.992188 152.140625 423.859375 127.007813 423.859375 96 C 423.859375 64.992188 448.992188 39.859375 480 39.859375 C 511.007813 39.859375 536.140625 64.992188 536.140625 96 "/>
<path style=" stroke:none;fill-rule:nonzero;fill:rgb(51.764706%,44.313725%,35.294118%);fill-opacity:1;" d="M 695.6875 96 C 695.6875 126.753906 670.753906 151.6875 640 151.6875 C 609.246094 151.6875 584.3125 126.753906 584.3125 96 C 584.3125 65.246094 609.246094 40.3125 640 40.3125 C 670.753906 40.3125 695.6875 65.246094 695.6875 96 "/>
<path style=" stroke:none;fill-rule:nonzero;fill:rgb(23.529412%,27.45098%,25.098039%);fill-opacity:1;" d="M 859.214844 96 C 859.214844 128.703125 832.703125 155.214844 800 155.214844 C 767.296875 155.214844 740.785156 128.703125 740.785156 96 C 740.785156 63.296875 767.296875 36.785156 800 36.785156 C 832.703125 36.785156 859.214844 63.296875 859.214844 96 "/>
<path style=" stroke:none;fill-rule:nonzero;fill:rgb(23.529412%,27.45098%,25.098039%);fill-opacity:1;" d="M 1019.859375 96 C 1019.859375 129.058594 993.058594 155.859375 960 155.859375 C 926.941406 155.859375 900.140625 129.058594 900.140625 96 C 900.140625 62.941406 926.941406 36.140625 960 36.140625 C 993.058594 36.140625 1019.859375 62.941406 1019.859375 96 "/>
<path style=" stroke:none;fill-rule:nonzero;fill:rgb(60%,62.745098%,66.666667%);fill-opacity:1;" d="M 1178.492188 96 C 1178.492188 128.304688 1152.304688 154.492188 1120 154.492188 C 1087.695313 154.492188 1061.507813 128.304688 1061.507813 96 C 1061.507813 63.695313 1087.695313 37.507813 1120 37.507813 C 1152.304688 37.507813 1178.492188 63.695313 1178.492188 96 "/>
<path style=" stroke:none;fill-rule:nonzero;fill:rgb(32.156863%,41.176471%,50.588235%);fill-opacity:1;" d="M 1329.433594 96 C 1329.433594 123.300781 1307.300781 145.433594 1280 145.433594 C 1252.699219 145.433594 1230.566406 123.300781 1230.566406 96 C 1230.566406 68.699219 1252.699219 46.566406 1280 46.566406 C 1307.300781 46.566406 1329.433594 68.699219 1329.433594 96 "/>
<path style=" stroke:none;fill-rule:nonzero;fill:rgb(63.529412%,56.862745%,49.411765%);fill-opacity:1;" d="M 1489.816406 96 C 1489.816406 123.511719 1467.511719 145.816406 1440 145.816406 C 1412.488281 145.816406 1390.183594 123.511719 1390.183594 96 C 1390.183594 68.488281 1412.488281 46.183594 1440 46.183594 C 1467.511719 46.183594 1489.816406 68.488281 1489.816406 96 "/>
<path style=" stroke:none;fill-rule:nonzero;fill:rgb(32.156863%,41.176471%,50.588235%);fill-opacity:1;" d="M 1651.742188 96 C 1651.742188 124.574219 1628.574219 147.742188 1600 147.742188 C 1571.425781 147.742188 1548.257813 124.574219 1548.257813 96 C 1548.257813 67.425781 1571.425781 44.257813 1600 44.257813 C 1628.574219 44.257813 1651.742188 67.425781 1651.742188 96 "/>
<path style=" stroke:none;fill-rule:nonzero;fill:rgb(60%,62.745098%,66.666667%);fill-opacity:1;" d="M 1814.039063 96 C 1814.039063 125.84375 1789.84375 150.039063 1760 150.039063 C 1730.15625 150.039063 1705.960938 125.84375 1705.960938 96 C 1705.960938 66.15625 1730.15625 41.960938 1760 41.960938 C 1789.84375 41.960938 1814.039063 66.15625 1814.039063 96 "/>
<path style=" stroke:none;fill-rule:nonzero;fill:rgb(32.156863%,41.176471%,50.588235%);fill-opacity:1;" d="M 1973.578125 96 C 1973.578125 125.589844 1949.589844 149.578125 1920 149.578125 C 1890.410156 149.578125 1866.421875 125.589844 1866.421875 96 C 1866.421875 66.410156 1890.410156 42.421875 1920 42.421875 C 1949.589844 42.421875 1973.578125 66.410156 1973.578125 96 "/>
<path style=" stroke:none;fill-rule:nonzero;fill:rgb(23.529412%,27.45098%,25.098039%);fill-opacity:1;" d="M 2132.835938 96 C 2132.835938 125.179688 2109.179688 148.835938 2080 148.835938 C 2050.820313 148.835938 2027.164063 125.179688 2027.164063 96 C 2027.164063 66.820313 2050.820313 43.164063 2080 43.164063 C 2109.179688 43.164063 2132.835938 66.820313 2132.835938 96 "/>
<path style=" stroke:none;fill-rule:nonzero;fill:rgb(41.568627%,35.294118%,27.843137%);fill-opacity:1;" d="M 2295.9375 96 C 2295.9375 126.894531 2270.894531 151.9375 2240 151.9375 C 2209.105469 151.9375 2184.0625 126.894531 2184.0625 96 C 2184.0625 65.105469 2209.105469 40.0625 2240 40.0625 C 2270.894531 40.0625 2295.9375 65.105469 2295.9375 96 "/>
<path style=" stroke:none;fill-rule:nonzero;fill:rgb(41.568627%,35.294118%,27.843137%);fill-opacity:1;" d="M 2452.480469 96 C 2452.480469 124.984375 2428.984375 148.480469 2400 148.480469 C 2371.015625 148.480469 2347.519531 124.984375 2347.519531 96 C 2347.519531 67.015625 2371.015625 43.519531 2400 43.519531 C 2428.984375 43.519531 2452.480469 67.015625 2452.480469 96 "/>
</g>
</svg>
