<?xml version="1.0" encoding="UTF-8"?>
<svg xmlns="http://www.w3.org/2000/svg" xmlns:xlink="http://www.w3.org/1999/xlink" width="2560pt" height="1280pt" viewBox="0 0 2560 1280" version="1.1">
<g id="surface1">
<path style=" stroke:none;fill-rule:nonzero;fill:rgb(98.823529%,98.823529%,98.823529%);fill-opacity:1;" d="M 0 0 L 2560 0 L 2560 750 L 0 750 Z M 0 0 "/>
<path style=" stroke:none;fill-rule:nonzero;fill:rgb(27.058824%,23.529412%,33.333333%);fill-opacity:1;" d="M 190.683594 125 C 190.683594 141.945313 176.945313 155.683594 160 155.683594 C 143.054688 155.683594 129.316406 141.945313 129.316406 125 C 129.316406 108.054688 143.054688 94.316406 160 94.316406 C 176.945313 94.316406 190.683594 108.054688 190.683594 125 "/>
<path style=" stroke:none;fill-rule:nonzero;fill:rgb(67.058824%,65.098039%,80%);fill-opacity:1;" d="M 366.367188 125 C 366.367188 150.609375 345.609375 171.367188 320 171.367188 C 294.390625 171.367188 273.632813 150.609375 273.632813 125 C 273.632813 99.390625 294.390625 78.632813 320 78.632813 C 345.609375 78.632813 366.367188 99.390625 366.367188 125 "/>
<path style=" stroke:none;fill-rule:nonzero;fill:rgb(67.058824%,65.098039%,80%);fill-opacity:1;" d="M 506.066406 125 C 506.066406 139.394531 494.394531 151.066406 480 151.066406 C 465.605469 151.066406 453.933594 139.394531 453.933594 125 C 453.933594 110.605469 465.605469 98.933594 480 98.933594 C 494.394531 98.933594 506.066406 110.605469 506.066406 125 "/>
<path style=" stroke:none;fill-rule:nonzero;fill:rgb(27.058824%,23.529412%,33.333333%);fill-opacity:1;" d="M 676.449219 125 C 676.449219 145.132813 660.132813 161.449219 640 161.449219 C 619.867188 161.449219 603.550781 145.132813 603.550781 125 C 603.550781 104.867188 619.867188 88.550781 640 88.550781 C 660.132813 88.550781 676.449219 104.867188 676.449219 125 "/>
<path style=" stroke:none;fill-rule:nonzero;fill:rgb(67.058824%,65.098039%,80%);fill-opacity:1;" d="M 834.253906 125 C 834.253906 143.917969 818.917969 159.253906 800 159.253906 C 781.082031 159.253906 765.746094 143.917969 765.746094 125 C 765.746094 106.082031 781.082031 90.746094 800 90.746094 C 818.917969 90.746094 834.253906 106.082031 834.253906 125 "/>
<path style=" stroke:none;fill-rule:nonzero;fill:rgb(76.078431%,73.72549%,89.411765%);fill-opacity:1;" d="M 1008.9375 125 C 1008.9375 152.027344 987.027344 173.9375 960 173.9375 C 932.972656 173.9375 911.0625 152.027344 911.0625 125 C 911.0625 97.972656 932.972656 76.0625 960 76.0625 C 987.027344 76.0625 1008.9375 97.972656 1008.9375 125 "/>
<path style=" stroke:none;fill-rule:nonzero;fill:rgb(67.058824%,65.098039%,80%);fill-opacity:1;" d="M 1164.613281 125 C 1164.613281 149.640625 1144.640625 169.613281 1120 169.613281 C 1095.359375 169.613281 1075.386719 149.640625 1075.386719 125 C 1075.386719 100.359375 1095.359375 80.386719 1120 80.386719 C 1144.640625 80.386719 1164.613281 100.359375 1164.613281 125 "/>
<path style=" stroke:none;fill-rule:nonzero;fill:rgb(68.235294%,69.803922%,94.509804%);fill-opacity:1;" d="M 1314.503906 125 C 1314.503906 144.054688 1299.054688 159.503906 1280 159.503906 C 1260.945313 159.503906 1245.496094 144.054688 1245.496094 125 C 1245.496094 105.945313 1260.945313 90.496094 1280 90.496094 C 1299.054688 90.496094 1314.503906 105.945313 1314.503906 125 "/>
<path style=" stroke:none;fill-rule:nonzero;fill:rgb(68.235294%,69.803922%,94.509804%);fill-opacity:1;" d="M 1483.378906 125 C 1483.378906 148.957031 1463.957031 168.378906 1440 168.378906 C 1416.042969 168.378906 1396.621094 148.957031 1396.621094 125 C 1396.621094 101.042969 1416.042969 81.621094 1440 81.621094 C 1463.957031 81.621094 1483.378906 101.042969 1483.378906 125 "/>
<path style=" stroke:none;fill-rule:nonzero;fill:rgb(59.215686%,59.607843%,70.980392%);fill-opacity:1;" d="M 1639.609375 125 C 1639.609375 146.875 1621.875 164.609375 1600 164.609375 C 1578.125 164.609375 1560.390625 146.875 1560.390625 125 C 1560.390625 103.125 1578.125 85.390625 1600 85.390625 C 1621.875 85.390625 1639.609375 103.125 1639.609375 125 "/>
<path style=" stroke:none;fill-rule:nonzero;fill:rgb(59.215686%,59.607843%,70.980392%);fill-opacity:1;" d="M 1799.558594 125 C 1799.558594 146.847656 1781.847656 164.558594 1760 164.558594 C 1738.152344 164.558594 1720.441406 146.847656 1720.441406 125 C 1720.441406 103.152344 1738.152344 85.441406 1760 85.441406 C 1781.847656 85.441406 1799.558594 103.152344 1799.558594 125 "/>
<path style=" stroke:none;fill-rule:nonzero;fill:rgb(67.058824%,65.098039%,80%);fill-opacity:1;" d="M 1966.425781 125 C 1966.425781 150.640625 1945.640625 171.425781 1920 171.425781 C 1894.359375 171.425781 1873.574219 150.640625 1873.574219 125 C 1873.574219 99.359375 1894.359375 78.574219 1920 78.574219 C 1945.640625 78.574219 1966.425781 99.359375 1966.425781 125 "/>
<path style=" stroke:none;fill-rule:nonzero;fill:rgb(68.235294%,69.803922%,94.509804%);fill-opacity:1;" d="M 2119.378906 125 C 2119.378906 146.75 2101.75 164.378906 2080 164.378906 C 2058.25 164.378906 2040.621094 146.75 2040.621094 125 C 2040.621094 103.25 2058.25 85.621094 2080 85.621094 C 2101.75 85.621094 2119.378906 103.25 2119.378906 125 "/>
<path style=" stroke:none;fill-rule:nonzero;fill:rgb(67.058824%,65.098039%,80%);fill-opacity:1;" d="M 2281.589844 125 C 2281.589844 147.96875 2262.96875 166.589844 2240 166.589844 C 2217.03125 166.589844 2198.410156 147.96875 2198.410156 125 C 2198.410156 102.03125 2217.03125 83.410156 2240 83.410156 C 2262.96875 83.410156 2281.589844 102.03125 2281.589844 125 "/>
<path style=" stroke:none;fill-rule:nonzero;fill:rgb(59.215686%,59.607843%,70.980392%);fill-opacity:1;" d="M 2445.84375 125 C 2445.84375 150.316406 2425.316406 170.84375 2400 170.84375 C 2374.683594 170.84375 2354.15625 150.316406 2354.15625 125 C 2354.15625 99.683594 2374.683594 79.15625 2400 79.15625 C 2425.316406 79.15625 2445.84375 99.683594 2445.84375 125 "/>
<path style=" stroke:none;fill-rule:nonzero;fill:rgb(59.215686%,59.607843%,70.980392%);fill-opacity:1;" d="M 204.625 250 C 204.625 274.644531 184.644531 294.625 160 294.625 C 135.355469 294.625 115.375 274.644531 115.375 250 C 115.375 225.355469 135.355469 205.375 160 205.375 C 184.644531 205.375 204.625 225.355469 204.625 250 "/>
<path style=" stroke:none;fill-rule:nonzero;fill:rgb(68.235294%,69.803922%,94.509804%);fill-opacity:1;" d="M 358.941406 250 C 358.941406 271.507813 341.507813 288.941406 320 288.941406 C 298.492188 288.941406 281.058594 271.507813 281.058594 250 C 281.058594 228.492188 298.492188 211.058594 320 211.058594 C 341.507813 211.058594 358.941406 228.492188 358.941406 250 "/>
<path style=" stroke:none;fill-rule:nonzero;fill:rgb(68.235294%,69.803922%,94.509804%);fill-opacity:1;" d="M 516.648438 250 C 516.648438 270.242188 500.242188 286.648438 480 286.648438 C 459.757813 286.648438 443.351563 270.242188 443.351563 250 C 443.351563 229.757813 459.757813 213.351563 480 213.351563 C 500.242188 213.351563 516.648438 229.757813 516.648438 250 "/>
<path style=" stroke:none;fill-rule:nonzero;fill:rgb(67.058824%,65.098039%,80%);fill-opacity:1;" d="M 667.859375 250 C 667.859375 265.386719 655.386719 277.859375 640 277.859375 C 624.613281 277.859375 612.140625 265.386719 612.140625 250 C 612.140625 234.613281 624.613281 222.140625 640 222.140625 C 655.386719 222.140625 667.859375 234.613281 667.859375 250 "/>
<path style=" stroke:none;fill-rule:nonzero;fill:rgb(67.058824%,65.098039%,80%);fill-opacity:1;" d="M 834.691406 250 C 834.691406 269.160156 819.160156 284.691406 800 284.691406 C 780.839844 284.691406 765.308594 269.160156 765.308594 250 C 765.308594 230.839844 780.839844 215.308594 800 215.308594 C 819.160156 215.308594 834.691406 230.839844 834.691406 250 "/>
<path style=" stroke:none;fill-rule:nonzero;fill:rgb(59.215686%,59.607843%,70.980392%);fill-opacity:1;" d="M 998.320313 250 C 998.320313 271.164063 981.164063 288.320313 960 288.320313 C 938.835938 288.320313 921.679688 271.164063 921.679688 250 C 921.679688 228.835938 938.835938 211.679688 960 211.679688 C 981.164063 211.679688 998.320313 228.835938 998.320313 250 "/>
<path style=" stroke:none;fill-rule:nonzero;fill:rgb(59.215686%,59.607843%,70.980392%);fill-opacity:1;" d="M 1164.347656 250 C 1164.347656 274.492188 1144.492188 294.347656 1120 294.347656 C 1095.507813 294.347656 1075.652344 274.492188 1075.652344 250 C 1075.652344 225.507813 1095.507813 205.652344 1120 205.652344 C 1144.492188 205.652344 1164.347656 225.507813 1164.347656 250 "/>
<path style=" stroke:none;fill-rule:nonzero;fill:rgb(45.882353%,42.745098%,54.901961%);fill-opacity:1;" d="M 1320.867188 250 C 1320.867188 272.570313 1302.570313 290.867188 1280 290.867188 C 1257.429688 290.867188 1239.132813 272.570313 1239.132813 250 C 1239.132813 227.429688 1257.429688 209.132813 1280 209.132813 C 1302.570313 209.132813 1320.867188 227.429688 1320.867188 250 "/>
<path style=" stroke:none;fill-rule:nonzero;fill:rgb(67.058824%,65.098039%,80%);fill-opacity:1;" d="M 1483.289063 250 C 1483.289063 273.90625 1463.90625 293.289063 1440 293.289063 C 1416.09375 293.289063 1396.710938 273.90625 1396.710938 250 C 1396.710938 226.09375 1416.09375 206.710938 1440 206.710938 C 1463.90625 206.710938 1483.289063 226.09375 1483.289063 250 "/>
<path style=" stroke:none;fill-rule:nonzero;fill:rgb(76.078431%,73.72549%,89.411765%);fill-opacity:1;" d="M 1638.238281 250 C 1638.238281 271.117188 1621.117188 288.238281 1600 288.238281 C 1578.882813 288.238281 1561.761719 271.117188 1561.761719 250 C 1561.761719 228.882813 1578.882813 211.761719 1600 211.761719 C 1621.117188 211.761719 1638.238281 228.882813 1638.238281 250 "/>
<path style=" stroke:none;fill-rule:nonzero;fill:rgb(68.235294%,69.803922%,94.509804%);fill-opacity:1;" d="M 1802.894531 250 C 1802.894531 273.6875 1783.6875 292.894531 1760 292.894531 C 1736.3125 292.894531 1717.105469 273.6875 1717.105469 250 C 1717.105469 226.3125 1736.3125 207.105469 1760 207.105469 C 1783.6875 207.105469 1802.894531 226.3125 1802.894531 250 "/>
<path style=" stroke:none;fill-rule:nonzero;fill:rgb(76.078431%,73.72549%,89.411765%);fill-opacity:1;" d="M 1965.96875 250 C 1965.96875 275.386719 1945.386719 295.96875 1920 295.96875 C 1894.613281 295.96875 1874.03125 275.386719 1874.03125 250 C 1874.03125 224.613281 1894.613281 204.03125 1920 204.03125 C 1945.386719 204.03125 1965.96875 224.613281 1965.96875 250 "/>
<path style=" stroke:none;fill-rule:nonzero;fill:rgb(67.058824%,65.098039%,80%);fill-opacity:1;" d="M 2123.785156 250 C 2123.785156 274.179688 2104.179688 293.785156 2080 293.785156 C 2055.820313 293.785156 2036.214844 274.179688 2036.214844 250 C 2036.214844 225.820313 2055.820313 206.214844 2080 206.214844 C 2104.179688 206.214844 2123.785156 225.820313 2123.785156 250 "/>
<path style=" stroke:none;fill-rule:nonzero;fill:rgb(76.078431%,73.72549%,89.411765%);fill-opacity:1;" d="M 2286.074219 250 C 2286.074219 275.445313 2265.445313 296.074219 2240 296.074219 C 2214.554688 296.074219 2193.925781 275.445313 2193.925781 250 C 2193.925781 224.554688 2214.554688 203.925781 2240 203.925781 C 2265.445313 203.925781 2286.074219 224.554688 2286.074219 250 "/>
<path style=" stroke:none;fill-rule:nonzero;fill:rgb(45.882353%,42.745098%,54.901961%);fill-opacity:1;" d="M 2434.808594 250 C 2434.808594 269.226563 2419.226563 284.808594 2400 284.808594 C 2380.773438 284.808594 2365.191406 269.226563 2365.191406 250 C 2365.191406 230.773438 2380.773438 215.191406 2400 215.191406 C 2419.226563 215.191406 2434.808594 230.773438 2434.808594 250 "/>
<path style=" stroke:none;fill-rule:nonzero;fill:rgb(59.215686%,59.607843%,70.980392%);fill-opacity:1;" d="M 203.34375 375 C 203.34375 398.9375 183.9375 418.34375 160 418.34375 C 136.0625 418.34375 116.65625 398.9375 116.65625 375 C 116.65625 351.0625 136.0625 331.65625 160 331.65625 C 183.9375 331.65625 203.34375 351.0625 203.34375 375 "/>
<path style=" stroke:none;fill-rule:nonzero;fill:rgb(59.215686%,59.607843%,70.980392%);fill-opacity:1;" d="M 354.558594 375 C 354.558594 394.085938 339.085938 409.558594 320 409.558594 C 300.914063 409.558594 285.441406 394.085938 285.441406 375 C 285.441406 355.914063 300.914063 340.441406 320 340.441406 C 339.085938 340.441406 354.558594 355.914063 354.558594 375 "/>
<path style=" stroke:none;fill-rule:nonzero;fill:rgb(27.058824%,23.529412%,33.333333%);fill-opacity:1;" d="M 509.589844 375 C 509.589844 391.34375 496.34375 404.589844 480 404.589844 C 463.65625 404.589844 450.410156 391.34375 450.410156 375 C 450.410156 358.65625 463.65625 345.410156 480 345.410156 C 496.34375 345.410156 509.589844 358.65625 509.589844 375 "/>
<path style=" stroke:none;fill-rule:nonzero;fill:rgb(27.058824%,23.529412%,33.333333%);fill-opacity:1;" d="M 680.855469 375 C 680.855469 397.5625 662.5625 415.855469 640 415.855469 C 617.4375 415.855469 599.144531 397.5625 599.144531 375 C 599.144531 352.4375 617.4375 334.144531 640 334.144531 C 662.5625 334.144531 680.855469 352.4375 680.855469 375 "/>
<path style=" stroke:none;fill-rule:nonzero;fill:rgb(68.235294%,69.803922%,94.509804%);fill-opacity:1;" d="M 839.503906 375 C 839.503906 396.816406 821.816406 414.503906 800 414.503906 C 778.183594 414.503906 760.496094 396.816406 760.496094 375 C 760.496094 353.183594 778.183594 335.496094 800 335.496094 C 821.816406 335.496094 839.503906 353.183594 839.503906 375 "/>
<path style=" stroke:none;fill-rule:nonzero;fill:rgb(68.235294%,69.803922%,94.509804%);fill-opacity:1;" d="M 1000.351563 375 C 1000.351563 397.285156 982.285156 415.351563 960 415.351563 C 937.714844 415.351563 919.648438 397.285156 919.648438 375 C 919.648438 352.714844 937.714844 334.648438 960 334.648438 C 982.285156 334.648438 1000.351563 352.714844 1000.351563 375 "/>
<path style=" stroke:none;fill-rule:nonzero;fill:rgb(59.215686%,59.607843%,70.980392%);fill-opacity:1;" d="M 1159.90625 375 C 1159.90625 397.039063 1142.039063 414.90625 1120 414.90625 C 1097.960938 414.90625 1080.09375 397.039063 1080.09375 375 C 1080.09375 352.960938 1097.960938 335.09375 1120 335.09375 C 1142.039063 335.09375 1159.90625 352.960938 1159.90625 375 "/>
<path style=" stroke:none;fill-rule:nonzero;fill:rgb(68.235294%,69.803922%,94.509804%);fill-opacity:1;" d="M 1311.683594 375 C 1311.683594 392.5 1297.5 406.683594 1280 406.683594 C 1262.5 406.683594 1248.316406 392.5 1248.316406 375 C 1248.316406 357.5 1262.5 343.316406 1280 343.316406 C 1297.5 343.316406 1311.683594 357.5 1311.683594 375 "/>
<path style=" stroke:none;fill-rule:nonzero;fill:rgb(68.235294%,69.803922%,94.509804%);fill-opacity:1;" d="M 1481.496094 375 C 1481.496094 397.917969 1462.917969 416.496094 1440 416.496094 C 1417.082031 416.496094 1398.503906 397.917969 1398.503906 375 C 1398.503906 352.082031 1417.082031 333.503906 1440 333.503906 C 1462.917969 333.503906 1481.496094 352.082031 1481.496094 375 "/>
<path style=" stroke:none;fill-rule:nonzero;fill:rgb(45.882353%,42.745098%,54.901961%);fill-opacity:1;" d="M 1631.289063 375 C 1631.289063 392.28125 1617.28125 406.289063 1600 406.289063 C 1582.71875 406.289063 1568.710938 392.28125 1568.710938 375 C 1568.710938 357.71875 1582.71875 343.710938 1600 343.710938 C 1617.28125 343.710938 1631.289063 357.71875 1631.289063 375 "/>
<path style=" stroke:none;fill-rule:nonzero;fill:rgb(67.058824%,65.098039%,80%);fill-opacity:1;" d="M 1803.320313 375 C 1803.320313 398.925781 1783.925781 418.320313 1760 418.320313 C 1736.074219 418.320313 1716.679688 398.925781 1716.679688 375 C 1716.679688 351.074219 1736.074219 331.679688 1760 331.679688 C 1783.925781 331.679688 1803.320313 351.074219 1803.320313 375 "/>
<path style=" stroke:none;fill-rule:nonzero;fill:rgb(45.882353%,42.745098%,54.901961%);fill-opacity:1;" d="M 1958.421875 375 C 1958.421875 396.21875 1941.21875 413.421875 1920 413.421875 C 1898.78125 413.421875 1881.578125 396.21875 1881.578125 375 C 1881.578125 353.78125 1898.78125 336.578125 1920 336.578125 C 1941.21875 336.578125 1958.421875 353.78125 1958.421875 375 "/>
<path style=" stroke:none;fill-rule:nonzero;fill:rgb(45.882353%,42.745098%,54.901961%);fill-opacity:1;" d="M 2121.484375 375 C 2121.484375 397.910156 2102.910156 416.484375 2080 416.484375 C 2057.089844 416.484375 2038.515625 397.910156 2038.515625 375 C 2038.515625 352.089844 2057.089844 333.515625 2080 333.515625 C 2102.910156 333.515625 2121.484375 352.089844 2121.484375 375 "/>
<path style=" stroke:none;fill-rule:nonzero;fill:rgb(67.058824%,65.098039%,80%);fill-opacity:1;" d="M 2275.46875 375 C 2275.46875 394.589844 2259.589844 410.46875 2240 410.46875 C 2220.410156 410.46875 2204.53125 394.589844 2204.53125 375 C 2204.53125 355.410156 2220.410156 339.53125 2240 339.53125 C 2259.589844 339.53125 2275.46875 355.410156 2275.46875 375 "/>
<path style=" stroke:none;fill-rule:nonzero;fill:rgb(76.078431%,73.72549%,89.411765%);fill-opacity:1;" d="M 2440.050781 375 C 2440.050781 397.117188 2422.117188 415.050781 2400 415.050781 C 2377.882813 415.050781 2359.949219 397.117188 2359.949219 375 C 2359.949219 352.882813 2377.882813 334.949219 2400 334.949219 C 2422.117188 334.949219 2440.050781 352.882813 2440.050781 375 "/>
<path style=" stroke:none;fill-rule:nonzero;fill:rgb(59.215686%,59.607843%,70.980392%);fill-opacity:1;" d="M 196.449219 500 C 196.449219 520.132813 180.132813 536.449219 160 536.449219 C 139.867188 536.449219 123.550781 520.132813 123.550781 500 C 123.550781 479.867188 139.867188 463.550781 160 463.550781 C 180.132813 463.550781 196.449219 479.867188 196.449219 500 "/>
<path style=" stroke:none;fill-rule:nonzero;fill:rgb(59.215686%,59.607843%,70.980392%);fill-opacity:1;" d="M 359.839844 500 C 359.839844 522.003906 342.003906 539.839844 320 539.839844 C 297.996094 539.839844 280.160156 522.003906 280.160156 500 C 280.160156 477.996094 297.996094 460.160156 320 460.160156 C 342.003906 460.160156 359.839844 477.996094 359.839844 500 "/>
<path style=" stroke:none;fill-rule:nonzero;fill:rgb(68.235294%,69.803922%,94.509804%);fill-opacity:1;" d="M 516.195313 500 C 516.195313 519.988281 499.988281 536.195313 480 536.195313 C 460.011719 536.195313 443.804688 519.988281 443.804688 500 C 443.804688 480.011719 460.011719 463.804688 480 463.804688 C 499.988281 463.804688 516.195313 480.011719 516.195313 500 "/>
<path style=" stroke:none;fill-rule:nonzero;fill:rgb(59.215686%,59.607843%,70.980392%);fill-opacity:1;" d="M 682.8125 500 C 682.8125 523.644531 663.644531 542.8125 640 542.8125 C 616.355469 542.8125 597.1875 523.644531 597.1875 500 C 597.1875 476.355469 616.355469 457.1875 640 457.1875 C 663.644531 457.1875 682.8125 476.355469 682.8125 500 "/>
<path style=" stroke:none;fill-rule:nonzero;fill:rgb(27.058824%,23.529412%,33.333333%);fill-opacity:1;" d="M 840.402344 500 C 840.402344 522.3125 822.3125 540.402344 800 540.402344 C 777.6875 540.402344 759.597656 522.3125 759.597656 500 C 759.597656 477.6875 777.6875 459.597656 800 459.597656 C 822.3125 459.597656 840.402344 477.6875 840.402344 500 "/>
<path style=" stroke:none;fill-rule:nonzero;fill:rgb(76.078431%,73.72549%,89.411765%);fill-opacity:1;" d="M 989.839844 500 C 989.839844 516.480469 976.480469 529.839844 960 529.839844 C 943.519531 529.839844 930.160156 516.480469 930.160156 500 C 930.160156 483.519531 943.519531 470.160156 960 470.160156 C 976.480469 470.160156 989.839844 483.519531 989.839844 500 "/>
<path style=" stroke:none;fill-rule:nonzero;fill:rgb(76.078431%,73.72549%,89.411765%);fill-opacity:1;" d="M 1160.355469 500 C 1160.355469 522.289063 1142.289063 540.355469 1120 540.355469 C 1097.710938 540.355469 1079.644531 522.289063 1079.644531 500 C 1079.644531 477.710938 1097.710938 459.644531 1120 459.644531 C 1142.289063 459.644531 1160.355469 477.710938 1160.355469 500 "/>
<path style=" stroke:none;fill-rule:nonzero;fill:rgb(67.058824%,65.098039%,80%);fill-opacity:1;" d="M 1322.394531 500 C 1322.394531 523.414063 1303.414063 542.394531 1280 542.394531 C 1256.585938 542.394531 1237.605469 523.414063 1237.605469 500 C 1237.605469 476.585938 1256.585938 457.605469 1280 457.605469 C 1303.414063 457.605469 1322.394531 476.585938 1322.394531 500 "/>
<path style=" stroke:none;fill-rule:nonzero;fill:rgb(59.215686%,59.607843%,70.980392%);fill-opacity:1;" d="M 1482.8125 500 C 1482.8125 523.644531 1463.644531 542.8125 1440 542.8125 C 1416.355469 542.8125 1397.1875 523.644531 1397.1875 500 C 1397.1875 476.355469 1416.355469 457.1875 1440 457.1875 C 1463.644531 457.1875 1482.8125 476.355469 1482.8125 500 "/>
<path style=" stroke:none;fill-rule:nonzero;fill:rgb(68.235294%,69.803922%,94.509804%);fill-opacity:1;" d="M 1644.226563 500 C 1644.226563 524.425781 1624.425781 544.226563 1600 544.226563 C 1575.574219 544.226563 1555.773438 524.425781 1555.773438 500 C 1555.773438 475.574219 1575.574219 455.773438 1600 455.773438 C 1624.425781 455.773438 1644.226563 475.574219 1644.226563 500 "/>
<path style=" stroke:none;fill-rule:nonzero;fill:rgb(67.058824%,65.098039%,80%);fill-opacity:1;" d="M 1807.597656 500 C 1807.597656 526.289063 1786.289063 547.597656 1760 547.597656 C 1733.710938 547.597656 1712.402344 526.289063 1712.402344 500 C 1712.402344 473.710938 1733.710938 452.402344 1760 452.402344 C 1786.289063 452.402344 1807.597656 473.710938 1807.597656 500 "/>
<path style=" stroke:none;fill-rule:nonzero;fill:rgb(68.235294%,69.803922%,94.509804%);fill-opacity:1;" d="M 1964.65625 500 C 1964.65625 524.660156 1944.660156 544.65625 1920 544.65625 C 1895.339844 544.65625 1875.34375 524.660156 1875.34375 500 C 1875.34375 475.339844 1895.339844 455.34375 1920 455.34375 C 1944.660156 455.34375 1964.65625 475.339844 1964.65625 500 "/>
<path style=" stroke:none;fill-rule:nonzero;fill:rgb(67.058824%,65.098039%,80%);fill-opacity:1;" d="M 2120.046875 500 C 2120.046875 522.117188 2102.117188 540.046875 2080 540.046875 C 2057.882813 540.046875 2039.953125 522.117188 2039.953125 500 C 2039.953125 477.882813 2057.882813 459.953125 2080 459.953125 C 2102.117188 459.953125 2120.046875 477.882813 2120.046875 500 "/>
<path style=" stroke:none;fill-rule:nonzero;fill:rgb(68.235294%,69.803922%,94.509804%);fill-opacity:1;" d="M 2275.15625 500 C 2275.15625 519.417969 2259.417969 535.15625 2240 535.15625 C 2220.582031 535.15625 2204.84375 519.417969 2204.84375 500 C 2204.84375 480.582031 2220.582031 464.84375 2240 464.84375 C 2259.417969 464.84375 2275.15625 480.582031 2275.15625 500 "/>
<path style=" stroke:none;fill-rule:nonzero;fill:rgb(68.235294%,69.803922%,94.509804%);fill-opacity:1;" d="M 2437.664063 500 C 2437.664063 520.800781 2420.800781 537.664063 2400 537.664063 C 2379.199219 537.664063 2362.335938 520.800781 2362.335938 500 C 2362.335938 479.199219 2379.199219 462.335938 2400 462.335938 C 2420.800781 462.335938 2437.664063 479.199219 2437.664063 500 "/>
<path style=" stroke:none;fill-rule:nonzero;fill:rgb(76.078431%,73.72549%,89.411765%);fill-opacity:1;" d="M 200.441406 625 C 200.441406 647.335938 182.335938 665.441406 160 665.441406 C 137.664063 665.441406 119.558594 647.335938 119.558594 625 C 119.558594 602.664063 137.664063 584.558594 160 584.558594 C 182.335938 584.558594 200.441406 602.664063 200.441406 625 "/>
<path style=" stroke:none;fill-rule:nonzero;fill:rgb(59.215686%,59.607843%,70.980392%);fill-opacity:1;" d="M 356.785156 625 C 356.785156 645.316406 340.316406 661.785156 320 661.785156 C 299.683594 661.785156 283.214844 645.316406 283.214844 625 C 283.214844 604.683594 299.683594 588.214844 320 588.214844 C 340.316406 588.214844 356.785156 604.683594 356.785156 625 "/>
<path style=" stroke:none;fill-rule:nonzero;fill:rgb(68.235294%,69.803922%,94.509804%);fill-opacity:1;" d="M 515.695313 625 C 515.695313 644.714844 499.714844 660.695313 480 660.695313 C 460.285156 660.695313 444.304688 644.714844 444.304688 625 C 444.304688 605.285156 460.285156 589.304688 480 589.304688 C 499.714844 589.304688 515.695313 605.285156 515.695313 625 "/>
<path style=" stroke:none;fill-rule:nonzero;fill:rgb(67.058824%,65.098039%,80%);fill-opacity:1;" d="M 679.160156 625 C 679.160156 646.628906 661.628906 664.160156 640 664.160156 C 618.371094 664.160156 600.839844 646.628906 600.839844 625 C 600.839844 603.371094 618.371094 585.839844 640 585.839844 C 661.628906 585.839844 679.160156 603.371094 679.160156 625 "/>
<path style=" stroke:none;fill-rule:nonzero;fill:rgb(76.078431%,73.72549%,89.411765%);fill-opacity:1;" d="M 828.355469 625 C 828.355469 640.660156 815.660156 653.355469 800 653.355469 C 784.339844 653.355469 771.644531 640.660156 771.644531 625 C 771.644531 609.339844 784.339844 596.644531 800 596.644531 C 815.660156 596.644531 828.355469 609.339844 828.355469 625 "/>
<path style=" stroke:none;fill-rule:nonzero;fill:rgb(59.215686%,59.607843%,70.980392%);fill-opacity:1;" d="M 996.066406 625 C 996.066406 644.917969 979.917969 661.066406 960 661.066406 C 940.082031 661.066406 923.933594 644.917969 923.933594 625 C 923.933594 605.082031 940.082031 588.933594 960 588.933594 C 979.917969 588.933594 996.066406 605.082031 996.066406 625 "/>
<path style=" stroke:none;fill-rule:nonzero;fill:rgb(59.215686%,59.607843%,70.980392%);fill-opacity:1;" d="M 1162.042969 625 C 1162.042969 648.21875 1143.21875 667.042969 1120 667.042969 C 1096.78125 667.042969 1077.957031 648.21875 1077.957031 625 C 1077.957031 601.78125 1096.78125 582.957031 1120 582.957031 C 1143.21875 582.957031 1162.042969 601.78125 1162.042969 625 "/>
<path style=" stroke:none;fill-rule:nonzero;fill:rgb(68.235294%,69.803922%,94.509804%);fill-opacity:1;" d="M 1324.175781 625 C 1324.175781 649.398438 1304.398438 669.175781 1280 669.175781 C 1255.601563 669.175781 1235.824219 649.398438 1235.824219 625 C 1235.824219 600.601563 1255.601563 580.824219 1280 580.824219 C 1304.398438 580.824219 1324.175781 600.601563 1324.175781 625 "/>
<path style=" stroke:none;fill-rule:nonzero;fill:rgb(59.215686%,59.607843%,70.980392%);fill-opacity:1;" d="M 1469.476563 625 C 1469.476563 641.28125 1456.28125 654.476563 1440 654.476563 C 1423.71875 654.476563 1410.523438 641.28125 1410.523438 625 C 1410.523438 608.71875 1423.71875 595.523438 1440 595.523438 C 1456.28125 595.523438 1469.476563 608.71875 1469.476563 625 "/>
<path style=" stroke:none;fill-rule:nonzero;fill:rgb(27.058824%,23.529412%,33.333333%);fill-opacity:1;" d="M 1640.660156 625 C 1640.660156 647.457031 1622.457031 665.660156 1600 665.660156 C 1577.542969 665.660156 1559.339844 647.457031 1559.339844 625 C 1559.339844 602.542969 1577.542969 584.339844 1600 584.339844 C 1622.457031 584.339844 1640.660156 602.542969 1640.660156 625 "/>
<path style=" stroke:none;fill-rule:nonzero;fill:rgb(67.058824%,65.098039%,80%);fill-opacity:1;" d="M 1799.359375 625 C 1799.359375 646.738281 1781.738281 664.359375 1760 664.359375 C 1738.261719 664.359375 1720.640625 646.738281 1720.640625 625 C 1720.640625 603.261719 1738.261719 585.640625 1760 585.640625 C 1781.738281 585.640625 1799.359375 603.261719 1799.359375 625 "/>
<path style=" stroke:none;fill-rule:nonzero;fill:rgb(67.058824%,65.098039%,80%);fill-opacity:1;" d="M 1961.484375 625 C 1961.484375 647.910156 1942.910156 666.484375 1920 666.484375 C 1897.089844 666.484375 1878.515625 647.910156 1878.515625 625 C 1878.515625 602.089844 1897.089844 583.515625 1920 583.515625 C 1942.910156 583.515625 1961.484375 602.089844 1961.484375 625 "/>
<path style=" stroke:none;fill-rule:nonzero;fill:rgb(68.235294%,69.803922%,94.509804%);fill-opacity:1;" d="M 2124.660156 625 C 2124.660156 649.664063 2104.664063 669.660156 2080 669.660156 C 2055.335938 669.660156 2035.339844 649.664063 2035.339844 625 C 2035.339844 600.335938 2055.335938 580.339844 2080 580.339844 C 2104.664063 580.339844 2124.660156 600.335938 2124.660156 625 "/>
<path style=" stroke:none;fill-rule:nonzero;fill:rgb(59.215686%,59.607843%,70.980392%);fill-opacity:1;" d="M 2286.53125 625 C 2286.53125 650.699219 2265.699219 671.53125 2240 671.53125 C 2214.300781 671.53125 2193.46875 650.699219 2193.46875 625 C 2193.46875 599.300781 2214.300781 578.46875 2240 578.46875 C 2265.699219 578.46875 2286.53125 599.300781 2286.53125 625 "/>
<path style=" stroke:none;fill-rule:nonzero;fill:rgb(76.078431%,73.72549%,89.411765%);fill-opacity:1;" d="M 2438.5625 625 C 2438.5625 646.296875 2421.296875 663.5625 2400 663.5625 C 2378.703125 663.5625 2361.4375 646.296875 2361.4375 625 C 2361.4375 603.703125 2378.703125 586.4375 2400 586.4375 C 2421.296875 586.4375 2438.5625 603.703125 2438.5625 625 "/>
</g>
</svg>
