<?xml version="1.0" encoding="UTF-8"?>
<svg xmlns="http://www.w3.org/2000/svg" xmlns:xlink="http://www.w3.org/1999/xlink" width="1920pt" height="192pt" viewBox="0 0 1920 192" version="1.1">
<g id="surface1">
<rect x="0" y="0" width="1920" height="192" style="fill:rgb(98.039216%,98.039216%,98.039216%);fill-opacity:1;stroke:none;"/>
<path style=" stroke:none;fill-rule:nonzero;fill:rgb(59.215686%,59.607843%,70.980392%);fill-opacity:1;" d="M 216.703125 96 C 216.703125 127.316406 191.316406 152.703125 160 152.703125 C 128.683594 152.703125 103.296875 127.316406 103.296875 96 C 103.296875 64.683594 128.683594 39.296875 160 39.296875 C 191.316406 39.296875 216.703125 64.683594 216.703125 96 "/>
<path style=" stroke:none;fill-rule:nonzero;fill:rgb(68.235294%,69.803922%,94.509804%);fill-opacity:1;" d="M 375.40625 96 C 375.40625 126.601563 350.601563 151.40625 320 151.40625 C 289.398438 151.40625 264.59375 126.601563 264.59375 96 C 264.59375 65.398438 289.398438 40.59375 320 40.59375 C 350.601563 40.59375 375.40625 65.398438 375.40625 96 "/>
<path style=" stroke:none;fill-rule:nonzero;fill:rgb(27.058824%,23.529412%,33.333333%);fill-opacity:1;" d="M 530.496094 96 C 530.496094 123.886719 507.886719 146.496094 480 146.496094 C 452.113281 146.496094 429.503906 123.886719 429.503906 96 C 429.503906 68.113281 452.113281 45.503906 480 45.503906 C 507.886719 45.503906 530.496094 68.113281 530.496094 96 "/>
<path style=" stroke:none;fill-rule:nonzero;fill:rgb(27.058824%,23.529412%,33.333333%);fill-opacity:1;" d="M 692.757813 96 C 692.757813 125.136719 669.136719 148.757813 640 148.757813 C 610.863281 148.757813 587.242188 125.136719 587.242188 96 C 587.242188 66.863281 610.863281 43.242188 640 43.242188 C 669.136719 43.242188 692.757813 66.863281 692.757813 96 "/>
<path style=" stroke:none;fill-rule:nonzero;fill:rgb(68.235294%,69.803922%,94.509804%);fill-opacity:1;" d="M 854.621094 96 C 854.621094 126.164063 830.164063 150.621094 800 150.621094 C 769.835938 150.621094 745.378906 126.164063 745.378906 96 C 745.378906 65.835938 769.835938 41.378906 800 41.378906 C 830.164063 41.378906 854.621094 65.835938 854.621094 96 "/>
<path style=" stroke:none;fill-rule:nonzero;fill:rgb(45.882353%,42.745098%,54.901961%);fill-opacity:1;" d="M 1018.066406 96 C 1018.066406 128.070313 992.070313 154.066406 960 154.066406 C 927.929688 154.066406 901.933594 128.070313 901.933594 96 C 901.933594 63.929688 927.929688 37.933594 960 37.933594 C 992.070313 37.933594 1018.066406 63.929688 1018.066406 96 "/>
<path style=" stroke:none;fill-rule:nonzero;fill:rgb(67.058824%,65.098039%,80%);fill-opacity:1;" d="M 1177.933594 96 C 1177.933594 127.996094 1151.996094 153.933594 1120 153.933594 C 1088.003906 153.933594 1062.066406 127.996094 1062.066406 96 C 1062.066406 64.003906 1088.003906 38.066406 1120 38.066406 C 1151.996094 38.066406 1177.933594 64.003906 1177.933594 96 "/>
<path style=" stroke:none;fill-rule:nonzero;fill:rgb(67.058824%,65.098039%,80%);fill-opacity:1;" d="M 1329.515625 96 C 1329.515625 123.347656 1307.347656 145.515625 1280 145.515625 C 1252.652344 145.515625 1230.484375 123.347656 1230.484375 96 C 1230.484375 68.652344 1252.652344 46.484375 1280 46.484375 C 1307.347656 46.484375 1329.515625 68.652344 1329.515625 96 "/>
<path style=" stroke:none;fill-rule:nonzero;fill:rgb(68.235294%,69.803922%,94.509804%);fill-opacity:1;" d="M 1495.464844 96 C 1495.464844 126.632813 1470.632813 151.464844 1440 151.464844 C 1409.367188 151.464844 1384.535156 126.632813 1384.535156 96 C 1384.535156 65.367188 1409.367188 40.535156 1440 40.535156 C 1470.632813 40.535156 1495.464844 65.367188 1495.464844 96 "/>
<path style=" stroke:none;fill-rule:nonzero;fill:rgb(76.078431%,73.72549%,89.411765%);fill-opacity:1;" d="M 1654.113281 96 C 1654.113281 125.886719 1629.886719 150.113281 1600 150.113281 C 1570.113281 150.113281 1545.886719 125.886719 1545.886719 96 C 1545.886719 66.113281 1570.113281 41.886719 1600 41.886719 C 1629.886719 41.886719 1654.113281 66.113281 1654.113281 96 "/>
<path style=" stroke:none;fill-rule:nonzero;fill:rgb(76.078431%,73.72549%,89.411765%);fill-opacity:1;" d="M 1815.933594 96 C 1815.933594 126.890625 1790.890625 151.933594 1760 151.933594 C 1729.109375 151.933594 1704.066406 126.890625 1704.066406 96 C 1704.066406 65.109375 1729.109375 40.066406 1760 40.066406 C 1790.890625 40.066406 1815.933594 65.109375 1815.933594 96 "/>
</g>
</svg>
