<?xml version="1.0" encoding="UTF-8"?>
<svg xmlns="http://www.w3.org/2000/svg" xmlns:xlink="http://www.w3.org/1999/xlink" width="1920pt" height="192pt" viewBox="0 0 1920 192" version="1.1">
<g id="surface1">
<rect x="0" y="0" width="1920" height="192" style="fill:rgb(98.039216%,98.039216%,98.039216%);fill-opacity:1;stroke:none;"/>
<path style=" stroke:none;fill-rule:nonzero;fill:rgb(83.921569%,82.745098%,72.941176%);fill-opacity:1;" d="M 211.835938 96 C 211.835938 124.628906 188.628906 147.835938 160 147.835938 C 131.371094 147.835938 108.164063 124.628906 108.164063 96 C 108.164063 67.371094 131.371094 44.164063 160 44.164063 C 188.628906 44.164063 211.835938 67.371094 211.835938 96 "/>
<path style=" stroke:none;fill-rule:nonzero;fill:rgb(57.254902%,79.607843%,93.333333%);fill-opacity:1;" d="M 369.839844 96 C 369.839844 123.527344 347.527344 145.839844 320 145.839844 C 292.472656 145.839844 270.160156 123.527344 270.160156 96 C 270.160156 68.472656 292.472656 46.160156 320 46.160156 C 347.527344 46.160156 369.839844 68.472656 369.839844 96 "/>
<path style=" stroke:none;fill-rule:nonzero;fill:rgb(83.921569%,65.490196%,49.411765%);fill-opacity:1;" d="M 533.457031 96 C 533.457031 125.523438 509.523438 149.457031 480 149.457031 C 450.476563 149.457031 426.542969 125.523438 426.542969 96 C 426.542969 66.476563 450.476563 42.542969 480 42.542969 C 509.523438 42.542969 533.457031 66.476563 533.457031 96 "/>
<path style=" stroke:none;fill-rule:nonzero;fill:rgb(43.921569%,70.588235%,92.156863%);fill-opacity:1;" d="M 691.359375 96 C 691.359375 124.363281 668.363281 147.359375 640 147.359375 C 611.636719 147.359375 588.640625 124.363281 588.640625 96 C 588.640625 67.636719 611.636719 44.640625 640 44.640625 C 668.363281 44.640625 691.359375 67.636719 691.359375 96 "/>
<path style=" stroke:none;fill-rule:nonzero;fill:rgb(43.921569%,70.588235%,92.156863%);fill-opacity:1;" d="M 856.484375 96 C 856.484375 127.195313 831.195313 152.484375 800 152.484375 C 768.804688 152.484375 743.515625 127.195313 743.515625 96 C 743.515625 64.804688 768.804688 39.515625 800 39.515625 C 831.195313 39.515625 856.484375 64.804688 856.484375 96 "/>
<path style=" stroke:none;fill-rule:nonzero;fill:rgb(83.921569%,82.745098%,72.941176%);fill-opacity:1;" d="M 1014.492188 96 C 1014.492188 126.09375 990.09375 150.492188 960 150.492188 C 929.90625 150.492188 905.507813 126.09375 905.507813 96 C 905.507813 65.90625 929.90625 41.507813 960 41.507813 C 990.09375 41.507813 1014.492188 65.90625 1014.492188 96 "/>
<path style=" stroke:none;fill-rule:nonzero;fill:rgb(34.117647%,60.392157%,86.666667%);fill-opacity:1;" d="M 1171.453125 96 C 1171.453125 124.417969 1148.417969 147.453125 1120 147.453125 C 1091.582031 147.453125 1068.546875 124.417969 1068.546875 96 C 1068.546875 67.582031 1091.582031 44.546875 1120 44.546875 C 1148.417969 44.546875 1171.453125 67.582031 1171.453125 96 "/>
<path style=" stroke:none;fill-rule:nonzero;fill:rgb(71.764706%,87.058824%,89.019608%);fill-opacity:1;" d="M 1333.640625 96 C 1333.640625 125.625 1309.625 149.640625 1280 149.640625 C 1250.375 149.640625 1226.359375 125.625 1226.359375 96 C 1226.359375 66.375 1250.375 42.359375 1280 42.359375 C 1309.625 42.359375 1333.640625 66.375 1333.640625 96 "/>
<path style=" stroke:none;fill-rule:nonzero;fill:rgb(34.117647%,60.392157%,86.666667%);fill-opacity:1;" d="M 1492.734375 96 C 1492.734375 125.125 1469.125 148.734375 1440 148.734375 C 1410.875 148.734375 1387.265625 125.125 1387.265625 96 C 1387.265625 66.875 1410.875 43.265625 1440 43.265625 C 1469.125 43.265625 1492.734375 66.875 1492.734375 96 "/>
<path style=" stroke:none;fill-rule:nonzero;fill:rgb(57.254902%,79.607843%,93.333333%);fill-opacity:1;" d="M 1650.851563 96 C 1650.851563 124.085938 1628.085938 146.851563 1600 146.851563 C 1571.914063 146.851563 1549.148438 124.085938 1549.148438 96 C 1549.148438 67.914063 1571.914063 45.148438 1600 45.148438 C 1628.085938 45.148438 1650.851563 67.914063 1650.851563 96 "/>
<path style=" stroke:none;fill-rule:nonzero;fill:rgb(71.764706%,87.058824%,89.019608%);fill-opacity:1;" d="M 1812.941406 96 C 1812.941406 125.238281 1789.238281 148.941406 1760 148.941406 C 1730.761719 148.941406 1707.058594 125.238281 1707.058594 96 C 1707.058594 66.761719 1730.761719 43.058594 1760 43.058594 C 1789.238281 43.058594 1812.941406 66.761719 1812.941406 96 "/>
</g>
</svg>
