<?xml version="1.0" encoding="UTF-8"?>
<svg xmlns="http://www.w3.org/2000/svg" xmlns:xlink="http://www.w3.org/1999/xlink" width="2560pt" height="2304pt" viewBox="0 0 2560 2304" version="1.1">
<g id="surface1">
<path style=" stroke:none;fill-rule:nonzero;fill:rgb(98.039216%,98.039216%,98.039216%);fill-opacity:1;" d="M 0 0 L 2560 0 L 2560 1250 L 0 1250 Z M 0 0 "/>
<path style=" stroke:none;fill-rule:nonzero;fill:rgb(18.823529%,43.529412%,57.647059%);fill-opacity:1;" d="M 199.542969 125 C 199.542969 146.839844 181.839844 164.542969 160 164.542969 C 138.160156 164.542969 120.457031 146.839844 120.457031 125 C 120.457031 103.160156 138.160156 85.457031 160 85.457031 C 181.839844 85.457031 199.542969 103.160156 199.542969 125 "/>
<path style=" stroke:none;fill-rule:nonzero;fill:rgb(74.901961%,72.941176%,67.058824%);fill-opacity:1;" d="M 358.929688 125 C 358.929688 146.5 341.5 163.929688 320 163.929688 C 298.5 163.929688 281.070313 146.5 281.070313 125 C 281.070313 103.5 298.5 86.070313 320 86.070313 C 341.5 86.070313 358.929688 103.5 358.929688 125 "/>
<path style=" stroke:none;fill-rule:nonzero;fill:rgb(25.882353%,23.921569%,22.745098%);fill-opacity:1;" d="M 678.988281 125 C 678.988281 146.53125 661.53125 163.988281 640 163.988281 C 618.46875 163.988281 601.011719 146.53125 601.011719 125 C 601.011719 103.46875 618.46875 86.011719 640 86.011719 C 661.53125 86.011719 678.988281 103.46875 678.988281 125 "/>
<path style=" stroke:none;fill-rule:nonzero;fill:rgb(90.196078%,77.647059%,25.098039%);fill-opacity:1;" d="M 836.355469 125 C 836.355469 145.078125 820.078125 161.355469 800 161.355469 C 779.921875 161.355469 763.644531 145.078125 763.644531 125 C 763.644531 104.921875 779.921875 88.644531 800 88.644531 C 820.078125 88.644531 836.355469 104.921875 836.355469 125 "/>
<path style=" stroke:none;fill-rule:nonzero;fill:rgb(50.588235%,45.882353%,52.941176%);fill-opacity:1;" d="M 996.429688 125 C 996.429688 145.121094 980.121094 161.429688 960 161.429688 C 939.878906 161.429688 923.570313 145.121094 923.570313 125 C 923.570313 104.878906 939.878906 88.570313 960 88.570313 C 980.121094 88.570313 996.429688 104.878906 996.429688 125 "/>
<path style=" stroke:none;fill-rule:nonzero;fill:rgb(74.901961%,72.941176%,67.058824%);fill-opacity:1;" d="M 1161.308594 125 C 1161.308594 147.816406 1142.816406 166.308594 1120 166.308594 C 1097.183594 166.308594 1078.691406 147.816406 1078.691406 125 C 1078.691406 102.183594 1097.183594 83.691406 1120 83.691406 C 1142.816406 83.691406 1161.308594 102.183594 1161.308594 125 "/>
<path style=" stroke:none;fill-rule:nonzero;fill:rgb(25.882353%,23.921569%,22.745098%);fill-opacity:1;" d="M 1317.496094 125 C 1317.496094 145.710938 1300.710938 162.496094 1280 162.496094 C 1259.289063 162.496094 1242.503906 145.710938 1242.503906 125 C 1242.503906 104.289063 1259.289063 87.503906 1280 87.503906 C 1300.710938 87.503906 1317.496094 104.289063 1317.496094 125 "/>
<path style=" stroke:none;fill-rule:nonzero;fill:rgb(74.901961%,72.941176%,67.058824%);fill-opacity:1;" d="M 1474.648438 125 C 1474.648438 144.136719 1459.136719 159.648438 1440 159.648438 C 1420.863281 159.648438 1405.351563 144.136719 1405.351563 125 C 1405.351563 105.863281 1420.863281 90.351563 1440 90.351563 C 1459.136719 90.351563 1474.648438 105.863281 1474.648438 125 "/>
<path style=" stroke:none;fill-rule:nonzero;fill:rgb(90.196078%,77.647059%,25.098039%);fill-opacity:1;" d="M 1639.550781 125 C 1639.550781 146.84375 1621.84375 164.550781 1600 164.550781 C 1578.15625 164.550781 1560.449219 146.84375 1560.449219 125 C 1560.449219 103.15625 1578.15625 85.449219 1600 85.449219 C 1621.84375 85.449219 1639.550781 103.15625 1639.550781 125 "/>
<path style=" stroke:none;fill-rule:nonzero;fill:rgb(90.196078%,77.647059%,25.098039%);fill-opacity:1;" d="M 1799.171875 125 C 1799.171875 146.636719 1781.636719 164.171875 1760 164.171875 C 1738.363281 164.171875 1720.828125 146.636719 1720.828125 125 C 1720.828125 103.363281 1738.363281 85.828125 1760 85.828125 C 1781.636719 85.828125 1799.171875 103.363281 1799.171875 125 "/>
<path style=" stroke:none;fill-rule:nonzero;fill:rgb(25.882353%,23.921569%,22.745098%);fill-opacity:1;" d="M 1958.050781 125 C 1958.050781 146.015625 1941.015625 163.050781 1920 163.050781 C 1898.984375 163.050781 1881.949219 146.015625 1881.949219 125 C 1881.949219 103.984375 1898.984375 86.949219 1920 86.949219 C 1941.015625 86.949219 1958.050781 103.984375 1958.050781 125 "/>
<path style=" stroke:none;fill-rule:nonzero;fill:rgb(50.588235%,45.882353%,52.941176%);fill-opacity:1;" d="M 2121.464844 125 C 2121.464844 147.898438 2102.898438 166.464844 2080 166.464844 C 2057.101563 166.464844 2038.535156 147.898438 2038.535156 125 C 2038.535156 102.101563 2057.101563 83.535156 2080 83.535156 C 2102.898438 83.535156 2121.464844 102.101563 2121.464844 125 "/>
<path style=" stroke:none;fill-rule:nonzero;fill:rgb(74.901961%,72.941176%,67.058824%);fill-opacity:1;" d="M 2281.40625 125 C 2281.40625 147.867188 2262.867188 166.40625 2240 166.40625 C 2217.132813 166.40625 2198.59375 147.867188 2198.59375 125 C 2198.59375 102.132813 2217.132813 83.59375 2240 83.59375 C 2262.867188 83.59375 2281.40625 102.132813 2281.40625 125 "/>
<path style=" stroke:none;fill-rule:nonzero;fill:rgb(25.882353%,23.921569%,22.745098%);fill-opacity:1;" d="M 195.761719 250 C 195.761719 269.75 179.75 285.761719 160 285.761719 C 140.25 285.761719 124.238281 269.75 124.238281 250 C 124.238281 230.25 140.25 214.238281 160 214.238281 C 179.75 214.238281 195.761719 230.25 195.761719 250 "/>
<path style=" stroke:none;fill-rule:nonzero;fill:rgb(74.901961%,72.941176%,67.058824%);fill-opacity:1;" d="M 361.636719 250 C 361.636719 272.996094 342.996094 291.636719 320 291.636719 C 297.003906 291.636719 278.363281 272.996094 278.363281 250 C 278.363281 227.003906 297.003906 208.363281 320 208.363281 C 342.996094 208.363281 361.636719 227.003906 361.636719 250 "/>
<path style=" stroke:none;fill-rule:nonzero;fill:rgb(50.588235%,45.882353%,52.941176%);fill-opacity:1;" d="M 517.625 250 C 517.625 270.777344 500.777344 287.625 480 287.625 C 459.222656 287.625 442.375 270.777344 442.375 250 C 442.375 229.222656 459.222656 212.375 480 212.375 C 500.777344 212.375 517.625 229.222656 517.625 250 "/>
<path style=" stroke:none;fill-rule:nonzero;fill:rgb(25.882353%,23.921569%,22.745098%);fill-opacity:1;" d="M 675.625 250 C 675.625 269.675781 659.675781 285.625 640 285.625 C 620.324219 285.625 604.375 269.675781 604.375 250 C 604.375 230.324219 620.324219 214.375 640 214.375 C 659.675781 214.375 675.625 230.324219 675.625 250 "/>
<path style=" stroke:none;fill-rule:nonzero;fill:rgb(50.588235%,45.882353%,52.941176%);fill-opacity:1;" d="M 1000.425781 250 C 1000.425781 272.324219 982.324219 290.425781 960 290.425781 C 937.675781 290.425781 919.574219 272.324219 919.574219 250 C 919.574219 227.675781 937.675781 209.574219 960 209.574219 C 982.324219 209.574219 1000.425781 227.675781 1000.425781 250 "/>
<path style=" stroke:none;fill-rule:nonzero;fill:rgb(74.901961%,72.941176%,67.058824%);fill-opacity:1;" d="M 1160.417969 250 C 1160.417969 272.324219 1142.324219 290.417969 1120 290.417969 C 1097.675781 290.417969 1079.582031 272.324219 1079.582031 250 C 1079.582031 227.675781 1097.675781 209.582031 1120 209.582031 C 1142.324219 209.582031 1160.417969 227.675781 1160.417969 250 "/>
<path style=" stroke:none;fill-rule:nonzero;fill:rgb(25.882353%,23.921569%,22.745098%);fill-opacity:1;" d="M 1477.136719 250 C 1477.136719 270.511719 1460.511719 287.136719 1440 287.136719 C 1419.488281 287.136719 1402.863281 270.511719 1402.863281 250 C 1402.863281 229.488281 1419.488281 212.863281 1440 212.863281 C 1460.511719 212.863281 1477.136719 229.488281 1477.136719 250 "/>
<path style=" stroke:none;fill-rule:nonzero;fill:rgb(63.137255%,58.431373%,24.313725%);fill-opacity:1;" d="M 1639.109375 250 C 1639.109375 271.601563 1621.601563 289.109375 1600 289.109375 C 1578.398438 289.109375 1560.890625 271.601563 1560.890625 250 C 1560.890625 228.398438 1578.398438 210.890625 1600 210.890625 C 1621.601563 210.890625 1639.109375 228.398438 1639.109375 250 "/>
<path style=" stroke:none;fill-rule:nonzero;fill:rgb(50.588235%,45.882353%,52.941176%);fill-opacity:1;" d="M 1796.101563 250 C 1796.101563 269.9375 1779.9375 286.101563 1760 286.101563 C 1740.0625 286.101563 1723.898438 269.9375 1723.898438 250 C 1723.898438 230.0625 1740.0625 213.898438 1760 213.898438 C 1779.9375 213.898438 1796.101563 230.0625 1796.101563 250 "/>
<path style=" stroke:none;fill-rule:nonzero;fill:rgb(90.196078%,77.647059%,25.098039%);fill-opacity:1;" d="M 1956.070313 250 C 1956.070313 269.921875 1939.921875 286.070313 1920 286.070313 C 1900.078125 286.070313 1883.929688 269.921875 1883.929688 250 C 1883.929688 230.078125 1900.078125 213.929688 1920 213.929688 C 1939.921875 213.929688 1956.070313 230.078125 1956.070313 250 "/>
<path style=" stroke:none;fill-rule:nonzero;fill:rgb(63.137255%,58.431373%,24.313725%);fill-opacity:1;" d="M 2121.105469 250 C 2121.105469 272.703125 2102.703125 291.105469 2080 291.105469 C 2057.296875 291.105469 2038.894531 272.703125 2038.894531 250 C 2038.894531 227.296875 2057.296875 208.894531 2080 208.894531 C 2102.703125 208.894531 2121.105469 227.296875 2121.105469 250 "/>
<path style=" stroke:none;fill-rule:nonzero;fill:rgb(90.196078%,77.647059%,25.098039%);fill-opacity:1;" d="M 2283.726563 250 C 2283.726563 274.148438 2264.148438 293.726563 2240 293.726563 C 2215.851563 293.726563 2196.273438 274.148438 2196.273438 250 C 2196.273438 225.851563 2215.851563 206.273438 2240 206.273438 C 2264.148438 206.273438 2283.726563 225.851563 2283.726563 250 "/>
<path style=" stroke:none;fill-rule:nonzero;fill:rgb(75.294118%,42.352941%,47.843137%);fill-opacity:1;" d="M 2440.433594 250 C 2440.433594 272.332031 2422.332031 290.433594 2400 290.433594 C 2377.667969 290.433594 2359.566406 272.332031 2359.566406 250 C 2359.566406 227.667969 2377.667969 209.566406 2400 209.566406 C 2422.332031 209.566406 2440.433594 227.667969 2440.433594 250 "/>
<path style=" stroke:none;fill-rule:nonzero;fill:rgb(18.823529%,43.529412%,57.647059%);fill-opacity:1;" d="M 201.238281 375 C 201.238281 397.773438 182.773438 416.238281 160 416.238281 C 137.226563 416.238281 118.761719 397.773438 118.761719 375 C 118.761719 352.226563 137.226563 333.761719 160 333.761719 C 182.773438 333.761719 201.238281 352.226563 201.238281 375 "/>
<path style=" stroke:none;fill-rule:nonzero;fill:rgb(18.823529%,43.529412%,57.647059%);fill-opacity:1;" d="M 361.359375 375 C 361.359375 397.84375 342.84375 416.359375 320 416.359375 C 297.15625 416.359375 278.640625 397.84375 278.640625 375 C 278.640625 352.15625 297.15625 333.640625 320 333.640625 C 342.84375 333.640625 361.359375 352.15625 361.359375 375 "/>
<path style=" stroke:none;fill-rule:nonzero;fill:rgb(75.294118%,42.352941%,47.843137%);fill-opacity:1;" d="M 517.769531 375 C 517.769531 395.859375 500.859375 412.769531 480 412.769531 C 459.140625 412.769531 442.230469 395.859375 442.230469 375 C 442.230469 354.140625 459.140625 337.230469 480 337.230469 C 500.859375 337.230469 517.769531 354.140625 517.769531 375 "/>
<path style=" stroke:none;fill-rule:nonzero;fill:rgb(74.901961%,72.941176%,67.058824%);fill-opacity:1;" d="M 686.914063 375 C 686.914063 400.910156 665.910156 421.914063 640 421.914063 C 614.089844 421.914063 593.085938 400.910156 593.085938 375 C 593.085938 349.089844 614.089844 328.085938 640 328.085938 C 665.910156 328.085938 686.914063 349.089844 686.914063 375 "/>
<path style=" stroke:none;fill-rule:nonzero;fill:rgb(50.588235%,45.882353%,52.941176%);fill-opacity:1;" d="M 839.542969 375 C 839.542969 396.839844 821.839844 414.542969 800 414.542969 C 778.160156 414.542969 760.457031 396.839844 760.457031 375 C 760.457031 353.160156 778.160156 335.457031 800 335.457031 C 821.839844 335.457031 839.542969 353.160156 839.542969 375 "/>
<path style=" stroke:none;fill-rule:nonzero;fill:rgb(25.882353%,23.921569%,22.745098%);fill-opacity:1;" d="M 1003.292969 375 C 1003.292969 398.910156 983.910156 418.292969 960 418.292969 C 936.089844 418.292969 916.707031 398.910156 916.707031 375 C 916.707031 351.089844 936.089844 331.707031 960 331.707031 C 983.910156 331.707031 1003.292969 351.089844 1003.292969 375 "/>
<path style=" stroke:none;fill-rule:nonzero;fill:rgb(75.294118%,42.352941%,47.843137%);fill-opacity:1;" d="M 1314.796875 375 C 1314.796875 394.21875 1299.21875 409.796875 1280 409.796875 C 1260.78125 409.796875 1245.203125 394.21875 1245.203125 375 C 1245.203125 355.78125 1260.78125 340.203125 1280 340.203125 C 1299.21875 340.203125 1314.796875 355.78125 1314.796875 375 "/>
<path style=" stroke:none;fill-rule:nonzero;fill:rgb(63.137255%,58.431373%,24.313725%);fill-opacity:1;" d="M 1483.691406 375 C 1483.691406 399.128906 1464.128906 418.691406 1440 418.691406 C 1415.871094 418.691406 1396.308594 399.128906 1396.308594 375 C 1396.308594 350.871094 1415.871094 331.308594 1440 331.308594 C 1464.128906 331.308594 1483.691406 350.871094 1483.691406 375 "/>
<path style=" stroke:none;fill-rule:nonzero;fill:rgb(25.882353%,23.921569%,22.745098%);fill-opacity:1;" d="M 1639.683594 375 C 1639.683594 396.917969 1621.917969 414.683594 1600 414.683594 C 1578.082031 414.683594 1560.316406 396.917969 1560.316406 375 C 1560.316406 353.082031 1578.082031 335.316406 1600 335.316406 C 1621.917969 335.316406 1639.683594 353.082031 1639.683594 375 "/>
<path style=" stroke:none;fill-rule:nonzero;fill:rgb(50.588235%,45.882353%,52.941176%);fill-opacity:1;" d="M 1799.546875 375 C 1799.546875 396.839844 1781.839844 414.546875 1760 414.546875 C 1738.160156 414.546875 1720.453125 396.839844 1720.453125 375 C 1720.453125 353.160156 1738.160156 335.453125 1760 335.453125 C 1781.839844 335.453125 1799.546875 353.160156 1799.546875 375 "/>
<path style=" stroke:none;fill-rule:nonzero;fill:rgb(25.882353%,23.921569%,22.745098%);fill-opacity:1;" d="M 1964.476563 375 C 1964.476563 399.5625 1944.5625 419.476563 1920 419.476563 C 1895.4375 419.476563 1875.523438 399.5625 1875.523438 375 C 1875.523438 350.4375 1895.4375 330.523438 1920 330.523438 C 1944.5625 330.523438 1964.476563 350.4375 1964.476563 375 "/>
<path style=" stroke:none;fill-rule:nonzero;fill:rgb(90.196078%,77.647059%,25.098039%);fill-opacity:1;" d="M 2125.125 375 C 2125.125 399.921875 2104.921875 420.125 2080 420.125 C 2055.078125 420.125 2034.875 399.921875 2034.875 375 C 2034.875 350.078125 2055.078125 329.875 2080 329.875 C 2104.921875 329.875 2125.125 350.078125 2125.125 375 "/>
<path style=" stroke:none;fill-rule:nonzero;fill:rgb(50.588235%,45.882353%,52.941176%);fill-opacity:1;" d="M 2276.140625 375 C 2276.140625 394.960938 2259.960938 411.140625 2240 411.140625 C 2220.039063 411.140625 2203.859375 394.960938 2203.859375 375 C 2203.859375 355.039063 2220.039063 338.859375 2240 338.859375 C 2259.960938 338.859375 2276.140625 355.039063 2276.140625 375 "/>
<path style=" stroke:none;fill-rule:nonzero;fill:rgb(50.588235%,45.882353%,52.941176%);fill-opacity:1;" d="M 2438.222656 375 C 2438.222656 396.109375 2421.109375 413.222656 2400 413.222656 C 2378.890625 413.222656 2361.777344 396.109375 2361.777344 375 C 2361.777344 353.890625 2378.890625 336.777344 2400 336.777344 C 2421.109375 336.777344 2438.222656 353.890625 2438.222656 375 "/>
<path style=" stroke:none;fill-rule:nonzero;fill:rgb(50.588235%,45.882353%,52.941176%);fill-opacity:1;" d="M 203.714844 500 C 203.714844 524.144531 184.144531 543.714844 160 543.714844 C 135.855469 543.714844 116.285156 524.144531 116.285156 500 C 116.285156 475.855469 135.855469 456.285156 160 456.285156 C 184.144531 456.285156 203.714844 475.855469 203.714844 500 "/>
<path style=" stroke:none;fill-rule:nonzero;fill:rgb(50.588235%,45.882353%,52.941176%);fill-opacity:1;" d="M 354.660156 500 C 354.660156 519.140625 339.140625 534.660156 320 534.660156 C 300.859375 534.660156 285.339844 519.140625 285.339844 500 C 285.339844 480.859375 300.859375 465.339844 320 465.339844 C 339.140625 465.339844 354.660156 480.859375 354.660156 500 "/>
<path style=" stroke:none;fill-rule:nonzero;fill:rgb(75.294118%,42.352941%,47.843137%);fill-opacity:1;" d="M 678.3125 500 C 678.3125 521.160156 661.160156 538.3125 640 538.3125 C 618.839844 538.3125 601.6875 521.160156 601.6875 500 C 601.6875 478.839844 618.839844 461.6875 640 461.6875 C 661.160156 461.6875 678.3125 478.839844 678.3125 500 "/>
<path style=" stroke:none;fill-rule:nonzero;fill:rgb(75.294118%,42.352941%,47.843137%);fill-opacity:1;" d="M 834.035156 500 C 834.035156 518.796875 818.796875 534.035156 800 534.035156 C 781.203125 534.035156 765.964844 518.796875 765.964844 500 C 765.964844 481.203125 781.203125 465.964844 800 465.964844 C 818.796875 465.964844 834.035156 481.203125 834.035156 500 "/>
<path style=" stroke:none;fill-rule:nonzero;fill:rgb(74.901961%,72.941176%,67.058824%);fill-opacity:1;" d="M 999.121094 500 C 999.121094 521.605469 981.605469 539.121094 960 539.121094 C 938.394531 539.121094 920.878906 521.605469 920.878906 500 C 920.878906 478.394531 938.394531 460.878906 960 460.878906 C 981.605469 460.878906 999.121094 478.394531 999.121094 500 "/>
<path style=" stroke:none;fill-rule:nonzero;fill:rgb(63.137255%,58.431373%,24.313725%);fill-opacity:1;" d="M 1161.730469 500 C 1161.730469 523.046875 1143.046875 541.730469 1120 541.730469 C 1096.953125 541.730469 1078.269531 523.046875 1078.269531 500 C 1078.269531 476.953125 1096.953125 458.269531 1120 458.269531 C 1143.046875 458.269531 1161.730469 476.953125 1161.730469 500 "/>
<path style=" stroke:none;fill-rule:nonzero;fill:rgb(75.294118%,42.352941%,47.843137%);fill-opacity:1;" d="M 1323.199219 500 C 1323.199219 523.859375 1303.859375 543.199219 1280 543.199219 C 1256.140625 543.199219 1236.800781 523.859375 1236.800781 500 C 1236.800781 476.140625 1256.140625 456.800781 1280 456.800781 C 1303.859375 456.800781 1323.199219 476.140625 1323.199219 500 "/>
<path style=" stroke:none;fill-rule:nonzero;fill:rgb(75.294118%,42.352941%,47.843137%);fill-opacity:1;" d="M 1479.269531 500 C 1479.269531 521.6875 1461.6875 539.269531 1440 539.269531 C 1418.3125 539.269531 1400.730469 521.6875 1400.730469 500 C 1400.730469 478.3125 1418.3125 460.730469 1440 460.730469 C 1461.6875 460.730469 1479.269531 478.3125 1479.269531 500 "/>
<path style=" stroke:none;fill-rule:nonzero;fill:rgb(50.588235%,45.882353%,52.941176%);fill-opacity:1;" d="M 1795.222656 500 C 1795.222656 519.453125 1779.453125 535.222656 1760 535.222656 C 1740.546875 535.222656 1724.777344 519.453125 1724.777344 500 C 1724.777344 480.546875 1740.546875 464.777344 1760 464.777344 C 1779.453125 464.777344 1795.222656 480.546875 1795.222656 500 "/>
<path style=" stroke:none;fill-rule:nonzero;fill:rgb(90.196078%,77.647059%,25.098039%);fill-opacity:1;" d="M 1957.570313 500 C 1957.570313 520.75 1940.75 537.570313 1920 537.570313 C 1899.25 537.570313 1882.429688 520.75 1882.429688 500 C 1882.429688 479.25 1899.25 462.429688 1920 462.429688 C 1940.75 462.429688 1957.570313 479.25 1957.570313 500 "/>
<path style=" stroke:none;fill-rule:nonzero;fill:rgb(90.196078%,77.647059%,25.098039%);fill-opacity:1;" d="M 2121.808594 500 C 2121.808594 523.089844 2103.089844 541.808594 2080 541.808594 C 2056.910156 541.808594 2038.191406 523.089844 2038.191406 500 C 2038.191406 476.910156 2056.910156 458.191406 2080 458.191406 C 2103.089844 458.191406 2121.808594 476.910156 2121.808594 500 "/>
<path style=" stroke:none;fill-rule:nonzero;fill:rgb(74.901961%,72.941176%,67.058824%);fill-opacity:1;" d="M 2282.164063 500 C 2282.164063 523.285156 2263.285156 542.164063 2240 542.164063 C 2216.714844 542.164063 2197.835938 523.285156 2197.835938 500 C 2197.835938 476.714844 2216.714844 457.835938 2240 457.835938 C 2263.285156 457.835938 2282.164063 476.714844 2282.164063 500 "/>
<path style=" stroke:none;fill-rule:nonzero;fill:rgb(63.137255%,58.431373%,24.313725%);fill-opacity:1;" d="M 2441.839844 500 C 2441.839844 523.109375 2423.109375 541.839844 2400 541.839844 C 2376.890625 541.839844 2358.160156 523.109375 2358.160156 500 C 2358.160156 476.890625 2376.890625 458.160156 2400 458.160156 C 2423.109375 458.160156 2441.839844 476.890625 2441.839844 500 "/>
<path style=" stroke:none;fill-rule:nonzero;fill:rgb(25.882353%,23.921569%,22.745098%);fill-opacity:1;" d="M 196.988281 625 C 196.988281 645.425781 180.425781 661.988281 160 661.988281 C 139.574219 661.988281 123.011719 645.425781 123.011719 625 C 123.011719 604.574219 139.574219 588.011719 160 588.011719 C 180.425781 588.011719 196.988281 604.574219 196.988281 625 "/>
<path style=" stroke:none;fill-rule:nonzero;fill:rgb(50.588235%,45.882353%,52.941176%);fill-opacity:1;" d="M 361.28125 625 C 361.28125 647.796875 342.796875 666.28125 320 666.28125 C 297.203125 666.28125 278.71875 647.796875 278.71875 625 C 278.71875 602.203125 297.203125 583.71875 320 583.71875 C 342.796875 583.71875 361.28125 602.203125 361.28125 625 "/>
<path style=" stroke:none;fill-rule:nonzero;fill:rgb(90.196078%,77.647059%,25.098039%);fill-opacity:1;" d="M 678.789063 625 C 678.789063 646.421875 661.421875 663.789063 640 663.789063 C 618.578125 663.789063 601.210938 646.421875 601.210938 625 C 601.210938 603.578125 618.578125 586.210938 640 586.210938 C 661.421875 586.210938 678.789063 603.578125 678.789063 625 "/>
<path style=" stroke:none;fill-rule:nonzero;fill:rgb(74.901961%,72.941176%,67.058824%);fill-opacity:1;" d="M 841.851563 625 C 841.851563 648.113281 823.113281 666.851563 800 666.851563 C 776.886719 666.851563 758.148438 648.113281 758.148438 625 C 758.148438 601.886719 776.886719 583.148438 800 583.148438 C 823.113281 583.148438 841.851563 601.886719 841.851563 625 "/>
<path style=" stroke:none;fill-rule:nonzero;fill:rgb(50.588235%,45.882353%,52.941176%);fill-opacity:1;" d="M 997.871094 625 C 997.871094 645.917969 980.917969 662.871094 960 662.871094 C 939.082031 662.871094 922.128906 645.917969 922.128906 625 C 922.128906 604.082031 939.082031 587.128906 960 587.128906 C 980.917969 587.128906 997.871094 604.082031 997.871094 625 "/>
<path style=" stroke:none;fill-rule:nonzero;fill:rgb(18.823529%,43.529412%,57.647059%);fill-opacity:1;" d="M 1157.1875 625 C 1157.1875 645.539063 1140.539063 662.1875 1120 662.1875 C 1099.460938 662.1875 1082.8125 645.539063 1082.8125 625 C 1082.8125 604.460938 1099.460938 587.8125 1120 587.8125 C 1140.539063 587.8125 1157.1875 604.460938 1157.1875 625 "/>
<path style=" stroke:none;fill-rule:nonzero;fill:rgb(90.196078%,77.647059%,25.098039%);fill-opacity:1;" d="M 1319.09375 625 C 1319.09375 646.589844 1301.589844 664.09375 1280 664.09375 C 1258.410156 664.09375 1240.90625 646.589844 1240.90625 625 C 1240.90625 603.410156 1258.410156 585.90625 1280 585.90625 C 1301.589844 585.90625 1319.09375 603.410156 1319.09375 625 "/>
<path style=" stroke:none;fill-rule:nonzero;fill:rgb(63.137255%,58.431373%,24.313725%);fill-opacity:1;" d="M 1482.328125 625 C 1482.328125 648.378906 1463.378906 667.328125 1440 667.328125 C 1416.621094 667.328125 1397.671875 648.378906 1397.671875 625 C 1397.671875 601.621094 1416.621094 582.671875 1440 582.671875 C 1463.378906 582.671875 1482.328125 601.621094 1482.328125 625 "/>
<path style=" stroke:none;fill-rule:nonzero;fill:rgb(25.882353%,23.921569%,22.745098%);fill-opacity:1;" d="M 1799.675781 625 C 1799.675781 646.910156 1781.910156 664.675781 1760 664.675781 C 1738.089844 664.675781 1720.324219 646.910156 1720.324219 625 C 1720.324219 603.089844 1738.089844 585.324219 1760 585.324219 C 1781.910156 585.324219 1799.675781 603.089844 1799.675781 625 "/>
<path style=" stroke:none;fill-rule:nonzero;fill:rgb(50.588235%,45.882353%,52.941176%);fill-opacity:1;" d="M 2117.296875 625 C 2117.296875 645.597656 2100.597656 662.296875 2080 662.296875 C 2059.402344 662.296875 2042.703125 645.597656 2042.703125 625 C 2042.703125 604.402344 2059.402344 587.703125 2080 587.703125 C 2100.597656 587.703125 2117.296875 604.402344 2117.296875 625 "/>
<path style=" stroke:none;fill-rule:nonzero;fill:rgb(74.901961%,72.941176%,67.058824%);fill-opacity:1;" d="M 2285.574219 625 C 2285.574219 650.167969 2265.167969 670.574219 2240 670.574219 C 2214.832031 670.574219 2194.425781 650.167969 2194.425781 625 C 2194.425781 599.832031 2214.832031 579.425781 2240 579.425781 C 2265.167969 579.425781 2285.574219 599.832031 2285.574219 625 "/>
<path style=" stroke:none;fill-rule:nonzero;fill:rgb(18.823529%,43.529412%,57.647059%);fill-opacity:1;" d="M 2439.195313 625 C 2439.195313 646.648438 2421.648438 664.195313 2400 664.195313 C 2378.351563 664.195313 2360.804688 646.648438 2360.804688 625 C 2360.804688 603.351563 2378.351563 585.804688 2400 585.804688 C 2421.648438 585.804688 2439.195313 603.351563 2439.195313 625 "/>
<path style=" stroke:none;fill-rule:nonzero;fill:rgb(75.294118%,42.352941%,47.843137%);fill-opacity:1;" d="M 197.261719 750 C 197.261719 770.578125 180.578125 787.261719 160 787.261719 C 139.421875 787.261719 122.738281 770.578125 122.738281 750 C 122.738281 729.421875 139.421875 712.738281 160 712.738281 C 180.578125 712.738281 197.261719 729.421875 197.261719 750 "/>
<path style=" stroke:none;fill-rule:nonzero;fill:rgb(25.882353%,23.921569%,22.745098%);fill-opacity:1;" d="M 362.058594 750 C 362.058594 773.226563 343.226563 792.058594 320 792.058594 C 296.773438 792.058594 277.941406 773.226563 277.941406 750 C 277.941406 726.773438 296.773438 707.941406 320 707.941406 C 343.226563 707.941406 362.058594 726.773438 362.058594 750 "/>
<path style=" stroke:none;fill-rule:nonzero;fill:rgb(75.294118%,42.352941%,47.843137%);fill-opacity:1;" d="M 519.722656 750 C 519.722656 771.9375 501.9375 789.722656 480 789.722656 C 458.0625 789.722656 440.277344 771.9375 440.277344 750 C 440.277344 728.0625 458.0625 710.277344 480 710.277344 C 501.9375 710.277344 519.722656 728.0625 519.722656 750 "/>
<path style=" stroke:none;fill-rule:nonzero;fill:rgb(63.137255%,58.431373%,24.313725%);fill-opacity:1;" d="M 678.65625 750 C 678.65625 771.347656 661.347656 788.65625 640 788.65625 C 618.652344 788.65625 601.34375 771.347656 601.34375 750 C 601.34375 728.652344 618.652344 711.34375 640 711.34375 C 661.347656 711.34375 678.65625 728.652344 678.65625 750 "/>
<path style=" stroke:none;fill-rule:nonzero;fill:rgb(25.882353%,23.921569%,22.745098%);fill-opacity:1;" d="M 842.007813 750 C 842.007813 773.199219 823.199219 792.007813 800 792.007813 C 776.800781 792.007813 757.992188 773.199219 757.992188 750 C 757.992188 726.800781 776.800781 707.992188 800 707.992188 C 823.199219 707.992188 842.007813 726.800781 842.007813 750 "/>
<path style=" stroke:none;fill-rule:nonzero;fill:rgb(74.901961%,72.941176%,67.058824%);fill-opacity:1;" d="M 1000.859375 750 C 1000.859375 772.566406 982.566406 790.859375 960 790.859375 C 937.433594 790.859375 919.140625 772.566406 919.140625 750 C 919.140625 727.433594 937.433594 709.140625 960 709.140625 C 982.566406 709.140625 1000.859375 727.433594 1000.859375 750 "/>
<path style=" stroke:none;fill-rule:nonzero;fill:rgb(74.901961%,72.941176%,67.058824%);fill-opacity:1;" d="M 1163.679688 750 C 1163.679688 774.125 1144.125 793.679688 1120 793.679688 C 1095.875 793.679688 1076.320313 774.125 1076.320313 750 C 1076.320313 725.875 1095.875 706.320313 1120 706.320313 C 1144.125 706.320313 1163.679688 725.875 1163.679688 750 "/>
<path style=" stroke:none;fill-rule:nonzero;fill:rgb(75.294118%,42.352941%,47.843137%);fill-opacity:1;" d="M 1322.285156 750 C 1322.285156 773.355469 1303.355469 792.285156 1280 792.285156 C 1256.644531 792.285156 1237.714844 773.355469 1237.714844 750 C 1237.714844 726.644531 1256.644531 707.714844 1280 707.714844 C 1303.355469 707.714844 1322.285156 726.644531 1322.285156 750 "/>
<path style=" stroke:none;fill-rule:nonzero;fill:rgb(63.137255%,58.431373%,24.313725%);fill-opacity:1;" d="M 1477.230469 750 C 1477.230469 770.5625 1460.5625 787.230469 1440 787.230469 C 1419.4375 787.230469 1402.769531 770.5625 1402.769531 750 C 1402.769531 729.4375 1419.4375 712.769531 1440 712.769531 C 1460.5625 712.769531 1477.230469 729.4375 1477.230469 750 "/>
<path style=" stroke:none;fill-rule:nonzero;fill:rgb(25.882353%,23.921569%,22.745098%);fill-opacity:1;" d="M 1639.464844 750 C 1639.464844 771.796875 1621.796875 789.464844 1600 789.464844 C 1578.203125 789.464844 1560.535156 771.796875 1560.535156 750 C 1560.535156 728.203125 1578.203125 710.535156 1600 710.535156 C 1621.796875 710.535156 1639.464844 728.203125 1639.464844 750 "/>
<path style=" stroke:none;fill-rule:nonzero;fill:rgb(75.294118%,42.352941%,47.843137%);fill-opacity:1;" d="M 1802.273438 750 C 1802.273438 773.347656 1783.347656 792.273438 1760 792.273438 C 1736.652344 792.273438 1717.726563 773.347656 1717.726563 750 C 1717.726563 726.652344 1736.652344 707.726563 1760 707.726563 C 1783.347656 707.726563 1802.273438 726.652344 1802.273438 750 "/>
<path style=" stroke:none;fill-rule:nonzero;fill:rgb(25.882353%,23.921569%,22.745098%);fill-opacity:1;" d="M 1961.300781 750 C 1961.300781 772.808594 1942.808594 791.300781 1920 791.300781 C 1897.191406 791.300781 1878.699219 772.808594 1878.699219 750 C 1878.699219 727.191406 1897.191406 708.699219 1920 708.699219 C 1942.808594 708.699219 1961.300781 727.191406 1961.300781 750 "/>
<path style=" stroke:none;fill-rule:nonzero;fill:rgb(90.196078%,77.647059%,25.098039%);fill-opacity:1;" d="M 2115.199219 750 C 2115.199219 769.441406 2099.441406 785.199219 2080 785.199219 C 2060.558594 785.199219 2044.800781 769.441406 2044.800781 750 C 2044.800781 730.558594 2060.558594 714.800781 2080 714.800781 C 2099.441406 714.800781 2115.199219 730.558594 2115.199219 750 "/>
<path style=" stroke:none;fill-rule:nonzero;fill:rgb(74.901961%,72.941176%,67.058824%);fill-opacity:1;" d="M 2282.769531 750 C 2282.769531 773.621094 2263.621094 792.769531 2240 792.769531 C 2216.378906 792.769531 2197.230469 773.621094 2197.230469 750 C 2197.230469 726.378906 2216.378906 707.230469 2240 707.230469 C 2263.621094 707.230469 2282.769531 726.378906 2282.769531 750 "/>
<path style=" stroke:none;fill-rule:nonzero;fill:rgb(25.882353%,23.921569%,22.745098%);fill-opacity:1;" d="M 2437.097656 750 C 2437.097656 770.488281 2420.488281 787.097656 2400 787.097656 C 2379.511719 787.097656 2362.902344 770.488281 2362.902344 750 C 2362.902344 729.511719 2379.511719 712.902344 2400 712.902344 C 2420.488281 712.902344 2437.097656 729.511719 2437.097656 750 "/>
<path style=" stroke:none;fill-rule:nonzero;fill:rgb(18.823529%,43.529412%,57.647059%);fill-opacity:1;" d="M 197.964844 875 C 197.964844 895.964844 180.964844 912.964844 160 912.964844 C 139.035156 912.964844 122.035156 895.964844 122.035156 875 C 122.035156 854.035156 139.035156 837.035156 160 837.035156 C 180.964844 837.035156 197.964844 854.035156 197.964844 875 "/>
<path style=" stroke:none;fill-rule:nonzero;fill:rgb(90.196078%,77.647059%,25.098039%);fill-opacity:1;" d="M 521.339844 875 C 521.339844 897.832031 502.832031 916.339844 480 916.339844 C 457.167969 916.339844 438.660156 897.832031 438.660156 875 C 438.660156 852.167969 457.167969 833.660156 480 833.660156 C 502.832031 833.660156 521.339844 852.167969 521.339844 875 "/>
<path style=" stroke:none;fill-rule:nonzero;fill:rgb(25.882353%,23.921569%,22.745098%);fill-opacity:1;" d="M 676.441406 875 C 676.441406 895.125 660.125 911.441406 640 911.441406 C 619.875 911.441406 603.558594 895.125 603.558594 875 C 603.558594 854.875 619.875 838.558594 640 838.558594 C 660.125 838.558594 676.441406 854.875 676.441406 875 "/>
<path style=" stroke:none;fill-rule:nonzero;fill:rgb(63.137255%,58.431373%,24.313725%);fill-opacity:1;" d="M 845.734375 875 C 845.734375 900.257813 825.257813 920.734375 800 920.734375 C 774.742188 920.734375 754.265625 900.257813 754.265625 875 C 754.265625 849.742188 774.742188 829.265625 800 829.265625 C 825.257813 829.265625 845.734375 849.742188 845.734375 875 "/>
<path style=" stroke:none;fill-rule:nonzero;fill:rgb(50.588235%,45.882353%,52.941176%);fill-opacity:1;" d="M 1000.875 875 C 1000.875 897.574219 982.574219 915.875 960 915.875 C 937.425781 915.875 919.125 897.574219 919.125 875 C 919.125 852.425781 937.425781 834.125 960 834.125 C 982.574219 834.125 1000.875 852.425781 1000.875 875 "/>
<path style=" stroke:none;fill-rule:nonzero;fill:rgb(75.294118%,42.352941%,47.843137%);fill-opacity:1;" d="M 1159.117188 875 C 1159.117188 896.605469 1141.605469 914.117188 1120 914.117188 C 1098.394531 914.117188 1080.882813 896.605469 1080.882813 875 C 1080.882813 853.394531 1098.394531 835.882813 1120 835.882813 C 1141.605469 835.882813 1159.117188 853.394531 1159.117188 875 "/>
<path style=" stroke:none;fill-rule:nonzero;fill:rgb(74.901961%,72.941176%,67.058824%);fill-opacity:1;" d="M 1323.769531 875 C 1323.769531 899.171875 1304.171875 918.769531 1280 918.769531 C 1255.828125 918.769531 1236.230469 899.171875 1236.230469 875 C 1236.230469 850.828125 1255.828125 831.230469 1280 831.230469 C 1304.171875 831.230469 1323.769531 850.828125 1323.769531 875 "/>
<path style=" stroke:none;fill-rule:nonzero;fill:rgb(75.294118%,42.352941%,47.843137%);fill-opacity:1;" d="M 1485.792969 875 C 1485.792969 900.289063 1465.289063 920.792969 1440 920.792969 C 1414.710938 920.792969 1394.207031 900.289063 1394.207031 875 C 1394.207031 849.710938 1414.710938 829.207031 1440 829.207031 C 1465.289063 829.207031 1485.792969 849.710938 1485.792969 875 "/>
<path style=" stroke:none;fill-rule:nonzero;fill:rgb(25.882353%,23.921569%,22.745098%);fill-opacity:1;" d="M 1639.566406 875 C 1639.566406 896.851563 1621.851563 914.566406 1600 914.566406 C 1578.148438 914.566406 1560.433594 896.851563 1560.433594 875 C 1560.433594 853.148438 1578.148438 835.433594 1600 835.433594 C 1621.851563 835.433594 1639.566406 853.148438 1639.566406 875 "/>
<path style=" stroke:none;fill-rule:nonzero;fill:rgb(74.901961%,72.941176%,67.058824%);fill-opacity:1;" d="M 1801.691406 875 C 1801.691406 898.027344 1783.027344 916.691406 1760 916.691406 C 1736.972656 916.691406 1718.308594 898.027344 1718.308594 875 C 1718.308594 851.972656 1736.972656 833.308594 1760 833.308594 C 1783.027344 833.308594 1801.691406 851.972656 1801.691406 875 "/>
<path style=" stroke:none;fill-rule:nonzero;fill:rgb(90.196078%,77.647059%,25.098039%);fill-opacity:1;" d="M 1962.074219 875 C 1962.074219 898.238281 1943.238281 917.074219 1920 917.074219 C 1896.761719 917.074219 1877.925781 898.238281 1877.925781 875 C 1877.925781 851.761719 1896.761719 832.925781 1920 832.925781 C 1943.238281 832.925781 1962.074219 851.761719 1962.074219 875 "/>
<path style=" stroke:none;fill-rule:nonzero;fill:rgb(63.137255%,58.431373%,24.313725%);fill-opacity:1;" d="M 2275.832031 875 C 2275.832031 894.789063 2259.789063 910.832031 2240 910.832031 C 2220.210938 910.832031 2204.167969 894.789063 2204.167969 875 C 2204.167969 855.210938 2220.210938 839.167969 2240 839.167969 C 2259.789063 839.167969 2275.832031 855.210938 2275.832031 875 "/>
<path style=" stroke:none;fill-rule:nonzero;fill:rgb(18.823529%,43.529412%,57.647059%);fill-opacity:1;" d="M 195.445313 1000 C 195.445313 1019.574219 179.574219 1035.445313 160 1035.445313 C 140.425781 1035.445313 124.554688 1019.574219 124.554688 1000 C 124.554688 980.425781 140.425781 964.554688 160 964.554688 C 179.574219 964.554688 195.445313 980.425781 195.445313 1000 "/>
<path style=" stroke:none;fill-rule:nonzero;fill:rgb(25.882353%,23.921569%,22.745098%);fill-opacity:1;" d="M 360.746094 1000 C 360.746094 1022.503906 342.503906 1040.746094 320 1040.746094 C 297.496094 1040.746094 279.253906 1022.503906 279.253906 1000 C 279.253906 977.496094 297.496094 959.253906 320 959.253906 C 342.503906 959.253906 360.746094 977.496094 360.746094 1000 "/>
<path style=" stroke:none;fill-rule:nonzero;fill:rgb(50.588235%,45.882353%,52.941176%);fill-opacity:1;" d="M 686.058594 1000 C 686.058594 1025.4375 665.4375 1046.058594 640 1046.058594 C 614.5625 1046.058594 593.941406 1025.4375 593.941406 1000 C 593.941406 974.5625 614.5625 953.941406 640 953.941406 C 665.4375 953.941406 686.058594 974.5625 686.058594 1000 "/>
<path style=" stroke:none;fill-rule:nonzero;fill:rgb(50.588235%,45.882353%,52.941176%);fill-opacity:1;" d="M 842.335938 1000 C 842.335938 1023.382813 823.382813 1042.335938 800 1042.335938 C 776.617188 1042.335938 757.664063 1023.382813 757.664063 1000 C 757.664063 976.617188 776.617188 957.664063 800 957.664063 C 823.382813 957.664063 842.335938 976.617188 842.335938 1000 "/>
<path style=" stroke:none;fill-rule:nonzero;fill:rgb(25.882353%,23.921569%,22.745098%);fill-opacity:1;" d="M 1003.171875 1000 C 1003.171875 1023.84375 983.84375 1043.171875 960 1043.171875 C 936.15625 1043.171875 916.828125 1023.84375 916.828125 1000 C 916.828125 976.15625 936.15625 956.828125 960 956.828125 C 983.84375 956.828125 1003.171875 976.15625 1003.171875 1000 "/>
<path style=" stroke:none;fill-rule:nonzero;fill:rgb(50.588235%,45.882353%,52.941176%);fill-opacity:1;" d="M 1164.480469 1000 C 1164.480469 1024.566406 1144.566406 1044.480469 1120 1044.480469 C 1095.433594 1044.480469 1075.519531 1024.566406 1075.519531 1000 C 1075.519531 975.433594 1095.433594 955.519531 1120 955.519531 C 1144.566406 955.519531 1164.480469 975.433594 1164.480469 1000 "/>
<path style=" stroke:none;fill-rule:nonzero;fill:rgb(74.901961%,72.941176%,67.058824%);fill-opacity:1;" d="M 1318.984375 1000 C 1318.984375 1021.53125 1301.53125 1038.984375 1280 1038.984375 C 1258.46875 1038.984375 1241.015625 1021.53125 1241.015625 1000 C 1241.015625 978.46875 1258.46875 961.015625 1280 961.015625 C 1301.53125 961.015625 1318.984375 978.46875 1318.984375 1000 "/>
<path style=" stroke:none;fill-rule:nonzero;fill:rgb(50.588235%,45.882353%,52.941176%);fill-opacity:1;" d="M 1474.808594 1000 C 1474.808594 1019.222656 1459.222656 1034.808594 1440 1034.808594 C 1420.777344 1034.808594 1405.191406 1019.222656 1405.191406 1000 C 1405.191406 980.777344 1420.777344 965.191406 1440 965.191406 C 1459.222656 965.191406 1474.808594 980.777344 1474.808594 1000 "/>
<path style=" stroke:none;fill-rule:nonzero;fill:rgb(50.588235%,45.882353%,52.941176%);fill-opacity:1;" d="M 1643.101563 1000 C 1643.101563 1023.804688 1623.804688 1043.101563 1600 1043.101563 C 1576.195313 1043.101563 1556.898438 1023.804688 1556.898438 1000 C 1556.898438 976.195313 1576.195313 956.898438 1600 956.898438 C 1623.804688 956.898438 1643.101563 976.195313 1643.101563 1000 "/>
<path style=" stroke:none;fill-rule:nonzero;fill:rgb(90.196078%,77.647059%,25.098039%);fill-opacity:1;" d="M 1800.871094 1000 C 1800.871094 1022.570313 1782.570313 1040.871094 1760 1040.871094 C 1737.429688 1040.871094 1719.128906 1022.570313 1719.128906 1000 C 1719.128906 977.429688 1737.429688 959.128906 1760 959.128906 C 1782.570313 959.128906 1800.871094 977.429688 1800.871094 1000 "/>
<path style=" stroke:none;fill-rule:nonzero;fill:rgb(18.823529%,43.529412%,57.647059%);fill-opacity:1;" d="M 1959.019531 1000 C 1959.019531 1021.550781 1941.550781 1039.019531 1920 1039.019531 C 1898.449219 1039.019531 1880.980469 1021.550781 1880.980469 1000 C 1880.980469 978.449219 1898.449219 960.980469 1920 960.980469 C 1941.550781 960.980469 1959.019531 978.449219 1959.019531 1000 "/>
<path style=" stroke:none;fill-rule:nonzero;fill:rgb(74.901961%,72.941176%,67.058824%);fill-opacity:1;" d="M 2123.796875 1000 C 2123.796875 1024.1875 2104.1875 1043.796875 2080 1043.796875 C 2055.8125 1043.796875 2036.203125 1024.1875 2036.203125 1000 C 2036.203125 975.8125 2055.8125 956.203125 2080 956.203125 C 2104.1875 956.203125 2123.796875 975.8125 2123.796875 1000 "/>
<path style=" stroke:none;fill-rule:nonzero;fill:rgb(74.901961%,72.941176%,67.058824%);fill-opacity:1;" d="M 2278.109375 1000 C 2278.109375 1021.046875 2261.046875 1038.109375 2240 1038.109375 C 2218.953125 1038.109375 2201.890625 1021.046875 2201.890625 1000 C 2201.890625 978.953125 2218.953125 961.890625 2240 961.890625 C 2261.046875 961.890625 2278.109375 978.953125 2278.109375 1000 "/>
<path style=" stroke:none;fill-rule:nonzero;fill:rgb(74.901961%,72.941176%,67.058824%);fill-opacity:1;" d="M 2443.28125 1000 C 2443.28125 1023.90625 2423.90625 1043.28125 2400 1043.28125 C 2376.09375 1043.28125 2356.71875 1023.90625 2356.71875 1000 C 2356.71875 976.09375 2376.09375 956.71875 2400 956.71875 C 2423.90625 956.71875 2443.28125 976.09375 2443.28125 1000 "/>
<path style=" stroke:none;fill-rule:nonzero;fill:rgb(75.294118%,42.352941%,47.843137%);fill-opacity:1;" d="M 198.964844 1125 C 198.964844 1146.519531 181.519531 1163.964844 160 1163.964844 C 138.480469 1163.964844 121.035156 1146.519531 121.035156 1125 C 121.035156 1103.480469 138.480469 1086.035156 160 1086.035156 C 181.519531 1086.035156 198.964844 1103.480469 198.964844 1125 "/>
<path style=" stroke:none;fill-rule:nonzero;fill:rgb(25.882353%,23.921569%,22.745098%);fill-opacity:1;" d="M 361.160156 1125 C 361.160156 1147.730469 342.730469 1166.160156 320 1166.160156 C 297.269531 1166.160156 278.839844 1147.730469 278.839844 1125 C 278.839844 1102.269531 297.269531 1083.839844 320 1083.839844 C 342.730469 1083.839844 361.160156 1102.269531 361.160156 1125 "/>
<path style=" stroke:none;fill-rule:nonzero;fill:rgb(25.882353%,23.921569%,22.745098%);fill-opacity:1;" d="M 678.207031 1125 C 678.207031 1146.101563 661.101563 1163.207031 640 1163.207031 C 618.898438 1163.207031 601.792969 1146.101563 601.792969 1125 C 601.792969 1103.898438 618.898438 1086.792969 640 1086.792969 C 661.101563 1086.792969 678.207031 1103.898438 678.207031 1125 "/>
<path style=" stroke:none;fill-rule:nonzero;fill:rgb(25.882353%,23.921569%,22.745098%);fill-opacity:1;" d="M 840.835938 1125 C 840.835938 1147.550781 822.550781 1165.835938 800 1165.835938 C 777.449219 1165.835938 759.164063 1147.550781 759.164063 1125 C 759.164063 1102.449219 777.449219 1084.164063 800 1084.164063 C 822.550781 1084.164063 840.835938 1102.449219 840.835938 1125 "/>
<path style=" stroke:none;fill-rule:nonzero;fill:rgb(63.137255%,58.431373%,24.313725%);fill-opacity:1;" d="M 1006.898438 1125 C 1006.898438 1150.902344 985.902344 1171.898438 960 1171.898438 C 934.097656 1171.898438 913.101563 1150.902344 913.101563 1125 C 913.101563 1099.097656 934.097656 1078.101563 960 1078.101563 C 985.902344 1078.101563 1006.898438 1099.097656 1006.898438 1125 "/>
<path style=" stroke:none;fill-rule:nonzero;fill:rgb(25.882353%,23.921569%,22.745098%);fill-opacity:1;" d="M 1158.59375 1125 C 1158.59375 1146.3125 1141.3125 1163.59375 1120 1163.59375 C 1098.6875 1163.59375 1081.40625 1146.3125 1081.40625 1125 C 1081.40625 1103.6875 1098.6875 1086.40625 1120 1086.40625 C 1141.3125 1086.40625 1158.59375 1103.6875 1158.59375 1125 "/>
<path style=" stroke:none;fill-rule:nonzero;fill:rgb(90.196078%,77.647059%,25.098039%);fill-opacity:1;" d="M 1323.902344 1125 C 1323.902344 1149.246094 1304.246094 1168.902344 1280 1168.902344 C 1255.753906 1168.902344 1236.097656 1149.246094 1236.097656 1125 C 1236.097656 1100.753906 1255.753906 1081.097656 1280 1081.097656 C 1304.246094 1081.097656 1323.902344 1100.753906 1323.902344 1125 "/>
<path style=" stroke:none;fill-rule:nonzero;fill:rgb(63.137255%,58.431373%,24.313725%);fill-opacity:1;" d="M 1482.214844 1125 C 1482.214844 1148.316406 1463.316406 1167.214844 1440 1167.214844 C 1416.683594 1167.214844 1397.785156 1148.316406 1397.785156 1125 C 1397.785156 1101.683594 1416.683594 1082.785156 1440 1082.785156 C 1463.316406 1082.785156 1482.214844 1101.683594 1482.214844 1125 "/>
<path style=" stroke:none;fill-rule:nonzero;fill:rgb(50.588235%,45.882353%,52.941176%);fill-opacity:1;" d="M 1641.5625 1125 C 1641.5625 1147.953125 1622.953125 1166.5625 1600 1166.5625 C 1577.046875 1166.5625 1558.4375 1147.953125 1558.4375 1125 C 1558.4375 1102.046875 1577.046875 1083.4375 1600 1083.4375 C 1622.953125 1083.4375 1641.5625 1102.046875 1641.5625 1125 "/>
<path style=" stroke:none;fill-rule:nonzero;fill:rgb(74.901961%,72.941176%,67.058824%);fill-opacity:1;" d="M 1797.09375 1125 C 1797.09375 1145.488281 1780.488281 1162.09375 1760 1162.09375 C 1739.511719 1162.09375 1722.90625 1145.488281 1722.90625 1125 C 1722.90625 1104.511719 1739.511719 1087.90625 1760 1087.90625 C 1780.488281 1087.90625 1797.09375 1104.511719 1797.09375 1125 "/>
<path style=" stroke:none;fill-rule:nonzero;fill:rgb(18.823529%,43.529412%,57.647059%);fill-opacity:1;" d="M 1962.261719 1125 C 1962.261719 1148.339844 1943.339844 1167.261719 1920 1167.261719 C 1896.660156 1167.261719 1877.738281 1148.339844 1877.738281 1125 C 1877.738281 1101.660156 1896.660156 1082.738281 1920 1082.738281 C 1943.339844 1082.738281 1962.261719 1101.660156 1962.261719 1125 "/>
<path style=" stroke:none;fill-rule:nonzero;fill:rgb(18.823529%,43.529412%,57.647059%);fill-opacity:1;" d="M 2278.585938 1125 C 2278.585938 1146.3125 2261.3125 1163.585938 2240 1163.585938 C 2218.6875 1163.585938 2201.414063 1146.3125 2201.414063 1125 C 2201.414063 1103.6875 2218.6875 1086.414063 2240 1086.414063 C 2261.3125 1086.414063 2278.585938 1103.6875 2278.585938 1125 "/>
<path style=" stroke:none;fill-rule:nonzero;fill:rgb(74.901961%,72.941176%,67.058824%);fill-opacity:1;" d="M 2442.546875 1125 C 2442.546875 1148.496094 2423.496094 1167.546875 2400 1167.546875 C 2376.503906 1167.546875 2357.453125 1148.496094 2357.453125 1125 C 2357.453125 1101.503906 2376.503906 1082.453125 2400 1082.453125 C 2423.496094 1082.453125 2442.546875 1101.503906 2442.546875 1125 "/>
</g>
</svg>
