<?xml version="1.0" encoding="UTF-8"?>
<svg xmlns="http://www.w3.org/2000/svg" xmlns:xlink="http://www.w3.org/1999/xlink" width="2560pt" height="2304pt" viewBox="0 0 2560 2304" version="1.1">
<g id="surface1">
<path style=" stroke:none;fill-rule:nonzero;fill:rgb(98.039216%,98.039216%,98.039216%);fill-opacity:1;" d="M 0 0 L 2560 0 L 2560 1250 L 0 1250 Z M 0 0 "/>
<path style=" stroke:none;fill-rule:nonzero;fill:rgb(69.019608%,8.235294%,9.411765%);fill-opacity:1;" d="M 197.652344 125 C 197.652344 145.796875 180.796875 162.652344 160 162.652344 C 139.203125 162.652344 122.347656 145.796875 122.347656 125 C 122.347656 104.203125 139.203125 87.347656 160 87.347656 C 180.796875 87.347656 197.652344 104.203125 197.652344 125 "/>
<path style=" stroke:none;fill-rule:nonzero;fill:rgb(61.176471%,34.509804%,29.803922%);fill-opacity:1;" d="M 361.683594 125 C 361.683594 148.019531 343.019531 166.683594 320 166.683594 C 296.980469 166.683594 278.316406 148.019531 278.316406 125 C 278.316406 101.980469 296.980469 83.316406 320 83.316406 C 343.019531 83.316406 361.683594 101.980469 361.683594 125 "/>
<path style=" stroke:none;fill-rule:nonzero;fill:rgb(69.019608%,8.235294%,9.411765%);fill-opacity:1;" d="M 521.535156 125 C 521.535156 147.9375 502.9375 166.535156 480 166.535156 C 457.0625 166.535156 438.464844 147.9375 438.464844 125 C 438.464844 102.0625 457.0625 83.464844 480 83.464844 C 502.9375 83.464844 521.535156 102.0625 521.535156 125 "/>
<path style=" stroke:none;fill-rule:nonzero;fill:rgb(42.745098%,3.137255%,3.529412%);fill-opacity:1;" d="M 681.71875 125 C 681.71875 148.042969 663.042969 166.71875 640 166.71875 C 616.957031 166.71875 598.28125 148.042969 598.28125 125 C 598.28125 101.957031 616.957031 83.28125 640 83.28125 C 663.042969 83.28125 681.71875 101.957031 681.71875 125 "/>
<path style=" stroke:none;fill-rule:nonzero;fill:rgb(92.54902%,30.980392%,29.411765%);fill-opacity:1;" d="M 840.171875 125 C 840.171875 147.1875 822.1875 165.171875 800 165.171875 C 777.8125 165.171875 759.828125 147.1875 759.828125 125 C 759.828125 102.8125 777.8125 84.828125 800 84.828125 C 822.1875 84.828125 840.171875 102.8125 840.171875 125 "/>
<path style=" stroke:none;fill-rule:nonzero;fill:rgb(92.54902%,30.980392%,29.411765%);fill-opacity:1;" d="M 994.886719 125 C 994.886719 144.269531 979.269531 159.886719 960 159.886719 C 940.730469 159.886719 925.113281 144.269531 925.113281 125 C 925.113281 105.730469 940.730469 90.113281 960 90.113281 C 979.269531 90.113281 994.886719 105.730469 994.886719 125 "/>
<path style=" stroke:none;fill-rule:nonzero;fill:rgb(69.019608%,8.235294%,9.411765%);fill-opacity:1;" d="M 1159.367188 125 C 1159.367188 146.742188 1141.742188 164.367188 1120 164.367188 C 1098.257813 164.367188 1080.632813 146.742188 1080.632813 125 C 1080.632813 103.257813 1098.257813 85.632813 1120 85.632813 C 1141.742188 85.632813 1159.367188 103.257813 1159.367188 125 "/>
<path style=" stroke:none;fill-rule:nonzero;fill:rgb(42.745098%,3.137255%,3.529412%);fill-opacity:1;" d="M 1317.722656 125 C 1317.722656 145.832031 1300.832031 162.722656 1280 162.722656 C 1259.167969 162.722656 1242.277344 145.832031 1242.277344 125 C 1242.277344 104.167969 1259.167969 87.277344 1280 87.277344 C 1300.832031 87.277344 1317.722656 104.167969 1317.722656 125 "/>
<path style=" stroke:none;fill-rule:nonzero;fill:rgb(92.54902%,30.980392%,29.411765%);fill-opacity:1;" d="M 1478.828125 125 C 1478.828125 146.445313 1461.445313 163.828125 1440 163.828125 C 1418.554688 163.828125 1401.171875 146.445313 1401.171875 125 C 1401.171875 103.554688 1418.554688 86.171875 1440 86.171875 C 1461.445313 86.171875 1478.828125 103.554688 1478.828125 125 "/>
<path style=" stroke:none;fill-rule:nonzero;fill:rgb(95.686275%,81.568627%,84.705882%);fill-opacity:1;" d="M 1642.96875 125 C 1642.96875 148.730469 1623.730469 167.96875 1600 167.96875 C 1576.269531 167.96875 1557.03125 148.730469 1557.03125 125 C 1557.03125 101.269531 1576.269531 82.03125 1600 82.03125 C 1623.730469 82.03125 1642.96875 101.269531 1642.96875 125 "/>
<path style=" stroke:none;fill-rule:nonzero;fill:rgb(42.745098%,3.137255%,3.529412%);fill-opacity:1;" d="M 1799.890625 125 C 1799.890625 147.03125 1782.03125 164.890625 1760 164.890625 C 1737.96875 164.890625 1720.109375 147.03125 1720.109375 125 C 1720.109375 102.96875 1737.96875 85.109375 1760 85.109375 C 1782.03125 85.109375 1799.890625 102.96875 1799.890625 125 "/>
<path style=" stroke:none;fill-rule:nonzero;fill:rgb(42.745098%,3.137255%,3.529412%);fill-opacity:1;" d="M 1962.015625 125 C 1962.015625 148.203125 1943.203125 167.015625 1920 167.015625 C 1896.796875 167.015625 1877.984375 148.203125 1877.984375 125 C 1877.984375 101.796875 1896.796875 82.984375 1920 82.984375 C 1943.203125 82.984375 1962.015625 101.796875 1962.015625 125 "/>
<path style=" stroke:none;fill-rule:nonzero;fill:rgb(69.019608%,8.235294%,9.411765%);fill-opacity:1;" d="M 2122.253906 125 C 2122.253906 148.335938 2103.335938 167.253906 2080 167.253906 C 2056.664063 167.253906 2037.746094 148.335938 2037.746094 125 C 2037.746094 101.664063 2056.664063 82.746094 2080 82.746094 C 2103.335938 82.746094 2122.253906 101.664063 2122.253906 125 "/>
<path style=" stroke:none;fill-rule:nonzero;fill:rgb(61.176471%,34.509804%,29.803922%);fill-opacity:1;" d="M 2280.765625 125 C 2280.765625 147.515625 2262.515625 165.765625 2240 165.765625 C 2217.484375 165.765625 2199.234375 147.515625 2199.234375 125 C 2199.234375 102.484375 2217.484375 84.234375 2240 84.234375 C 2262.515625 84.234375 2280.765625 102.484375 2280.765625 125 "/>
<path style=" stroke:none;fill-rule:nonzero;fill:rgb(92.54902%,30.980392%,29.411765%);fill-opacity:1;" d="M 2437.0625 125 C 2437.0625 145.46875 2420.46875 162.0625 2400 162.0625 C 2379.53125 162.0625 2362.9375 145.46875 2362.9375 125 C 2362.9375 104.53125 2379.53125 87.9375 2400 87.9375 C 2420.46875 87.9375 2437.0625 104.53125 2437.0625 125 "/>
<path style=" stroke:none;fill-rule:nonzero;fill:rgb(35.294118%,18.823529%,13.72549%);fill-opacity:1;" d="M 201.285156 250 C 201.285156 272.800781 182.800781 291.285156 160 291.285156 C 137.199219 291.285156 118.714844 272.800781 118.714844 250 C 118.714844 227.199219 137.199219 208.714844 160 208.714844 C 182.800781 208.714844 201.285156 227.199219 201.285156 250 "/>
<path style=" stroke:none;fill-rule:nonzero;fill:rgb(61.176471%,34.509804%,29.803922%);fill-opacity:1;" d="M 357.546875 250 C 357.546875 270.738281 340.738281 287.546875 320 287.546875 C 299.261719 287.546875 282.453125 270.738281 282.453125 250 C 282.453125 229.261719 299.261719 212.453125 320 212.453125 C 340.738281 212.453125 357.546875 229.261719 357.546875 250 "/>
<path style=" stroke:none;fill-rule:nonzero;fill:rgb(42.745098%,3.137255%,3.529412%);fill-opacity:1;" d="M 681.425781 250 C 681.425781 272.878906 662.878906 291.425781 640 291.425781 C 617.121094 291.425781 598.574219 272.878906 598.574219 250 C 598.574219 227.121094 617.121094 208.574219 640 208.574219 C 662.878906 208.574219 681.425781 227.121094 681.425781 250 "/>
<path style=" stroke:none;fill-rule:nonzero;fill:rgb(95.686275%,81.568627%,84.705882%);fill-opacity:1;" d="M 835.316406 250 C 835.316406 269.503906 819.503906 285.316406 800 285.316406 C 780.496094 285.316406 764.683594 269.503906 764.683594 250 C 764.683594 230.496094 780.496094 214.683594 800 214.683594 C 819.503906 214.683594 835.316406 230.496094 835.316406 250 "/>
<path style=" stroke:none;fill-rule:nonzero;fill:rgb(95.686275%,81.568627%,84.705882%);fill-opacity:1;" d="M 1000.171875 250 C 1000.171875 272.1875 982.1875 290.171875 960 290.171875 C 937.8125 290.171875 919.828125 272.1875 919.828125 250 C 919.828125 227.8125 937.8125 209.828125 960 209.828125 C 982.1875 209.828125 1000.171875 227.8125 1000.171875 250 "/>
<path style=" stroke:none;fill-rule:nonzero;fill:rgb(95.686275%,81.568627%,84.705882%);fill-opacity:1;" d="M 1157.089844 250 C 1157.089844 270.484375 1140.484375 287.089844 1120 287.089844 C 1099.515625 287.089844 1082.910156 270.484375 1082.910156 250 C 1082.910156 229.515625 1099.515625 212.910156 1120 212.910156 C 1140.484375 212.910156 1157.089844 229.515625 1157.089844 250 "/>
<path style=" stroke:none;fill-rule:nonzero;fill:rgb(35.294118%,18.823529%,13.72549%);fill-opacity:1;" d="M 1314.375 250 C 1314.375 268.984375 1298.984375 284.375 1280 284.375 C 1261.015625 284.375 1245.625 268.984375 1245.625 250 C 1245.625 231.015625 1261.015625 215.625 1280 215.625 C 1298.984375 215.625 1314.375 231.015625 1314.375 250 "/>
<path style=" stroke:none;fill-rule:nonzero;fill:rgb(42.745098%,3.137255%,3.529412%);fill-opacity:1;" d="M 1475.621094 250 C 1475.621094 269.671875 1459.671875 285.621094 1440 285.621094 C 1420.328125 285.621094 1404.378906 269.671875 1404.378906 250 C 1404.378906 230.328125 1420.328125 214.378906 1440 214.378906 C 1459.671875 214.378906 1475.621094 230.328125 1475.621094 250 "/>
<path style=" stroke:none;fill-rule:nonzero;fill:rgb(42.745098%,3.137255%,3.529412%);fill-opacity:1;" d="M 1640.769531 250 C 1640.769531 272.515625 1622.515625 290.769531 1600 290.769531 C 1577.484375 290.769531 1559.230469 272.515625 1559.230469 250 C 1559.230469 227.484375 1577.484375 209.230469 1600 209.230469 C 1622.515625 209.230469 1640.769531 227.484375 1640.769531 250 "/>
<path style=" stroke:none;fill-rule:nonzero;fill:rgb(35.294118%,18.823529%,13.72549%);fill-opacity:1;" d="M 1802.96875 250 C 1802.96875 273.730469 1783.730469 292.96875 1760 292.96875 C 1736.269531 292.96875 1717.03125 273.730469 1717.03125 250 C 1717.03125 226.269531 1736.269531 207.03125 1760 207.03125 C 1783.730469 207.03125 1802.96875 226.269531 1802.96875 250 "/>
<path style=" stroke:none;fill-rule:nonzero;fill:rgb(95.686275%,81.568627%,84.705882%);fill-opacity:1;" d="M 1958.609375 250 C 1958.609375 271.324219 1941.324219 288.609375 1920 288.609375 C 1898.675781 288.609375 1881.390625 271.324219 1881.390625 250 C 1881.390625 228.675781 1898.675781 211.390625 1920 211.390625 C 1941.324219 211.390625 1958.609375 228.675781 1958.609375 250 "/>
<path style=" stroke:none;fill-rule:nonzero;fill:rgb(95.686275%,81.568627%,84.705882%);fill-opacity:1;" d="M 2117.035156 250 C 2117.035156 270.453125 2100.453125 287.035156 2080 287.035156 C 2059.546875 287.035156 2042.964844 270.453125 2042.964844 250 C 2042.964844 229.546875 2059.546875 212.964844 2080 212.964844 C 2100.453125 212.964844 2117.035156 229.546875 2117.035156 250 "/>
<path style=" stroke:none;fill-rule:nonzero;fill:rgb(61.176471%,34.509804%,29.803922%);fill-opacity:1;" d="M 2281.628906 250 C 2281.628906 272.992188 2262.992188 291.628906 2240 291.628906 C 2217.007813 291.628906 2198.371094 272.992188 2198.371094 250 C 2198.371094 227.007813 2217.007813 208.371094 2240 208.371094 C 2262.992188 208.371094 2281.628906 227.007813 2281.628906 250 "/>
<path style=" stroke:none;fill-rule:nonzero;fill:rgb(69.019608%,8.235294%,9.411765%);fill-opacity:1;" d="M 2438.738281 250 C 2438.738281 271.394531 2421.394531 288.738281 2400 288.738281 C 2378.605469 288.738281 2361.261719 271.394531 2361.261719 250 C 2361.261719 228.605469 2378.605469 211.261719 2400 211.261719 C 2421.394531 211.261719 2438.738281 228.605469 2438.738281 250 "/>
<path style=" stroke:none;fill-rule:nonzero;fill:rgb(61.176471%,34.509804%,29.803922%);fill-opacity:1;" d="M 198.316406 375 C 198.316406 396.160156 181.160156 413.316406 160 413.316406 C 138.839844 413.316406 121.683594 396.160156 121.683594 375 C 121.683594 353.839844 138.839844 336.683594 160 336.683594 C 181.160156 336.683594 198.316406 353.839844 198.316406 375 "/>
<path style=" stroke:none;fill-rule:nonzero;fill:rgb(69.019608%,8.235294%,9.411765%);fill-opacity:1;" d="M 358.859375 375 C 358.859375 396.460938 341.460938 413.859375 320 413.859375 C 298.539063 413.859375 281.140625 396.460938 281.140625 375 C 281.140625 353.539063 298.539063 336.140625 320 336.140625 C 341.460938 336.140625 358.859375 353.539063 358.859375 375 "/>
<path style=" stroke:none;fill-rule:nonzero;fill:rgb(42.745098%,3.137255%,3.529412%);fill-opacity:1;" d="M 518.289063 375 C 518.289063 396.148438 501.148438 413.289063 480 413.289063 C 458.851563 413.289063 441.710938 396.148438 441.710938 375 C 441.710938 353.851563 458.851563 336.710938 480 336.710938 C 501.148438 336.710938 518.289063 353.851563 518.289063 375 "/>
<path style=" stroke:none;fill-rule:nonzero;fill:rgb(42.745098%,3.137255%,3.529412%);fill-opacity:1;" d="M 676.597656 375 C 676.597656 395.210938 660.210938 411.597656 640 411.597656 C 619.789063 411.597656 603.402344 395.210938 603.402344 375 C 603.402344 354.789063 619.789063 338.402344 640 338.402344 C 660.210938 338.402344 676.597656 354.789063 676.597656 375 "/>
<path style=" stroke:none;fill-rule:nonzero;fill:rgb(69.019608%,8.235294%,9.411765%);fill-opacity:1;" d="M 1162.382813 375 C 1162.382813 398.40625 1143.40625 417.382813 1120 417.382813 C 1096.59375 417.382813 1077.617188 398.40625 1077.617188 375 C 1077.617188 351.59375 1096.59375 332.617188 1120 332.617188 C 1143.40625 332.617188 1162.382813 351.59375 1162.382813 375 "/>
<path style=" stroke:none;fill-rule:nonzero;fill:rgb(95.686275%,81.568627%,84.705882%);fill-opacity:1;" d="M 1318.816406 375 C 1318.816406 396.4375 1301.4375 413.816406 1280 413.816406 C 1258.5625 413.816406 1241.183594 396.4375 1241.183594 375 C 1241.183594 353.5625 1258.5625 336.183594 1280 336.183594 C 1301.4375 336.183594 1318.816406 353.5625 1318.816406 375 "/>
<path style=" stroke:none;fill-rule:nonzero;fill:rgb(42.745098%,3.137255%,3.529412%);fill-opacity:1;" d="M 1481.140625 375 C 1481.140625 397.71875 1462.71875 416.140625 1440 416.140625 C 1417.28125 416.140625 1398.859375 397.71875 1398.859375 375 C 1398.859375 352.28125 1417.28125 333.859375 1440 333.859375 C 1462.71875 333.859375 1481.140625 352.28125 1481.140625 375 "/>
<path style=" stroke:none;fill-rule:nonzero;fill:rgb(35.294118%,18.823529%,13.72549%);fill-opacity:1;" d="M 1638.667969 375 C 1638.667969 396.355469 1621.355469 413.667969 1600 413.667969 C 1578.644531 413.667969 1561.332031 396.355469 1561.332031 375 C 1561.332031 353.644531 1578.644531 336.332031 1600 336.332031 C 1621.355469 336.332031 1638.667969 353.644531 1638.667969 375 "/>
<path style=" stroke:none;fill-rule:nonzero;fill:rgb(42.745098%,3.137255%,3.529412%);fill-opacity:1;" d="M 1801.644531 375 C 1801.644531 398 1783 416.644531 1760 416.644531 C 1737 416.644531 1718.355469 398 1718.355469 375 C 1718.355469 352 1737 333.355469 1760 333.355469 C 1783 333.355469 1801.644531 352 1801.644531 375 "/>
<path style=" stroke:none;fill-rule:nonzero;fill:rgb(42.745098%,3.137255%,3.529412%);fill-opacity:1;" d="M 1958.109375 375 C 1958.109375 396.046875 1941.046875 413.109375 1920 413.109375 C 1898.953125 413.109375 1881.890625 396.046875 1881.890625 375 C 1881.890625 353.953125 1898.953125 336.890625 1920 336.890625 C 1941.046875 336.890625 1958.109375 353.953125 1958.109375 375 "/>
<path style=" stroke:none;fill-rule:nonzero;fill:rgb(61.176471%,34.509804%,29.803922%);fill-opacity:1;" d="M 2120.15625 375 C 2120.15625 397.179688 2102.179688 415.15625 2080 415.15625 C 2057.820313 415.15625 2039.84375 397.179688 2039.84375 375 C 2039.84375 352.820313 2057.820313 334.84375 2080 334.84375 C 2102.179688 334.84375 2120.15625 352.820313 2120.15625 375 "/>
<path style=" stroke:none;fill-rule:nonzero;fill:rgb(69.019608%,8.235294%,9.411765%);fill-opacity:1;" d="M 2275.75 375 C 2275.75 394.742188 2259.742188 410.75 2240 410.75 C 2220.257813 410.75 2204.25 394.742188 2204.25 375 C 2204.25 355.257813 2220.257813 339.25 2240 339.25 C 2259.742188 339.25 2275.75 355.257813 2275.75 375 "/>
<path style=" stroke:none;fill-rule:nonzero;fill:rgb(42.745098%,3.137255%,3.529412%);fill-opacity:1;" d="M 2440.867188 375 C 2440.867188 397.570313 2422.570313 415.867188 2400 415.867188 C 2377.429688 415.867188 2359.132813 397.570313 2359.132813 375 C 2359.132813 352.429688 2377.429688 334.132813 2400 334.132813 C 2422.570313 334.132813 2440.867188 352.429688 2440.867188 375 "/>
<path style=" stroke:none;fill-rule:nonzero;fill:rgb(95.686275%,81.568627%,84.705882%);fill-opacity:1;" d="M 201.402344 500 C 201.402344 522.867188 182.867188 541.402344 160 541.402344 C 137.132813 541.402344 118.597656 522.867188 118.597656 500 C 118.597656 477.132813 137.132813 458.597656 160 458.597656 C 182.867188 458.597656 201.402344 477.132813 201.402344 500 "/>
<path style=" stroke:none;fill-rule:nonzero;fill:rgb(42.745098%,3.137255%,3.529412%);fill-opacity:1;" d="M 361.132813 500 C 361.132813 522.71875 342.71875 541.132813 320 541.132813 C 297.28125 541.132813 278.867188 522.71875 278.867188 500 C 278.867188 477.28125 297.28125 458.867188 320 458.867188 C 342.71875 458.867188 361.132813 477.28125 361.132813 500 "/>
<path style=" stroke:none;fill-rule:nonzero;fill:rgb(69.019608%,8.235294%,9.411765%);fill-opacity:1;" d="M 515.683594 500 C 515.683594 519.707031 499.707031 535.683594 480 535.683594 C 460.292969 535.683594 444.316406 519.707031 444.316406 500 C 444.316406 480.292969 460.292969 464.316406 480 464.316406 C 499.707031 464.316406 515.683594 480.292969 515.683594 500 "/>
<path style=" stroke:none;fill-rule:nonzero;fill:rgb(95.686275%,81.568627%,84.705882%);fill-opacity:1;" d="M 682.609375 500 C 682.609375 523.53125 663.53125 542.609375 640 542.609375 C 616.46875 542.609375 597.390625 523.53125 597.390625 500 C 597.390625 476.46875 616.46875 457.390625 640 457.390625 C 663.53125 457.390625 682.609375 476.46875 682.609375 500 "/>
<path style=" stroke:none;fill-rule:nonzero;fill:rgb(42.745098%,3.137255%,3.529412%);fill-opacity:1;" d="M 842.195313 500 C 842.195313 523.304688 823.304688 542.195313 800 542.195313 C 776.695313 542.195313 757.804688 523.304688 757.804688 500 C 757.804688 476.695313 776.695313 457.804688 800 457.804688 C 823.304688 457.804688 842.195313 476.695313 842.195313 500 "/>
<path style=" stroke:none;fill-rule:nonzero;fill:rgb(92.54902%,30.980392%,29.411765%);fill-opacity:1;" d="M 998.878906 500 C 998.878906 521.472656 981.472656 538.878906 960 538.878906 C 938.527344 538.878906 921.121094 521.472656 921.121094 500 C 921.121094 478.527344 938.527344 461.121094 960 461.121094 C 981.472656 461.121094 998.878906 478.527344 998.878906 500 "/>
<path style=" stroke:none;fill-rule:nonzero;fill:rgb(69.019608%,8.235294%,9.411765%);fill-opacity:1;" d="M 1163.582031 500 C 1163.582031 524.070313 1144.070313 543.582031 1120 543.582031 C 1095.929688 543.582031 1076.417969 524.070313 1076.417969 500 C 1076.417969 475.929688 1095.929688 456.417969 1120 456.417969 C 1144.070313 456.417969 1163.582031 475.929688 1163.582031 500 "/>
<path style=" stroke:none;fill-rule:nonzero;fill:rgb(95.686275%,81.568627%,84.705882%);fill-opacity:1;" d="M 1487.257813 500 C 1487.257813 526.101563 1466.101563 547.257813 1440 547.257813 C 1413.898438 547.257813 1392.742188 526.101563 1392.742188 500 C 1392.742188 473.898438 1413.898438 452.742188 1440 452.742188 C 1466.101563 452.742188 1487.257813 473.898438 1487.257813 500 "/>
<path style=" stroke:none;fill-rule:nonzero;fill:rgb(42.745098%,3.137255%,3.529412%);fill-opacity:1;" d="M 1634.550781 500 C 1634.550781 519.082031 1619.082031 534.550781 1600 534.550781 C 1580.917969 534.550781 1565.449219 519.082031 1565.449219 500 C 1565.449219 480.917969 1580.917969 465.449219 1600 465.449219 C 1619.082031 465.449219 1634.550781 480.917969 1634.550781 500 "/>
<path style=" stroke:none;fill-rule:nonzero;fill:rgb(61.176471%,34.509804%,29.803922%);fill-opacity:1;" d="M 1806.164063 500 C 1806.164063 525.496094 1785.496094 546.164063 1760 546.164063 C 1734.503906 546.164063 1713.835938 525.496094 1713.835938 500 C 1713.835938 474.503906 1734.503906 453.835938 1760 453.835938 C 1785.496094 453.835938 1806.164063 474.503906 1806.164063 500 "/>
<path style=" stroke:none;fill-rule:nonzero;fill:rgb(92.156863%,56.862745%,58.823529%);fill-opacity:1;" d="M 1961.089844 500 C 1961.089844 522.691406 1942.691406 541.089844 1920 541.089844 C 1897.308594 541.089844 1878.910156 522.691406 1878.910156 500 C 1878.910156 477.308594 1897.308594 458.910156 1920 458.910156 C 1942.691406 458.910156 1961.089844 477.308594 1961.089844 500 "/>
<path style=" stroke:none;fill-rule:nonzero;fill:rgb(95.686275%,81.568627%,84.705882%);fill-opacity:1;" d="M 2122.414063 500 C 2122.414063 523.425781 2103.425781 542.414063 2080 542.414063 C 2056.574219 542.414063 2037.585938 523.425781 2037.585938 500 C 2037.585938 476.574219 2056.574219 457.585938 2080 457.585938 C 2103.425781 457.585938 2122.414063 476.574219 2122.414063 500 "/>
<path style=" stroke:none;fill-rule:nonzero;fill:rgb(92.156863%,56.862745%,58.823529%);fill-opacity:1;" d="M 2283.117188 500 C 2283.117188 523.8125 2263.8125 543.117188 2240 543.117188 C 2216.1875 543.117188 2196.882813 523.8125 2196.882813 500 C 2196.882813 476.1875 2216.1875 456.882813 2240 456.882813 C 2263.8125 456.882813 2283.117188 476.1875 2283.117188 500 "/>
<path style=" stroke:none;fill-rule:nonzero;fill:rgb(95.686275%,81.568627%,84.705882%);fill-opacity:1;" d="M 2442.578125 500 C 2442.578125 523.515625 2423.515625 542.578125 2400 542.578125 C 2376.484375 542.578125 2357.421875 523.515625 2357.421875 500 C 2357.421875 476.484375 2376.484375 457.421875 2400 457.421875 C 2423.515625 457.421875 2442.578125 476.484375 2442.578125 500 "/>
<path style=" stroke:none;fill-rule:nonzero;fill:rgb(92.54902%,30.980392%,29.411765%);fill-opacity:1;" d="M 204.316406 625 C 204.316406 649.476563 184.476563 669.316406 160 669.316406 C 135.523438 669.316406 115.683594 649.476563 115.683594 625 C 115.683594 600.523438 135.523438 580.683594 160 580.683594 C 184.476563 580.683594 204.316406 600.523438 204.316406 625 "/>
<path style=" stroke:none;fill-rule:nonzero;fill:rgb(42.745098%,3.137255%,3.529412%);fill-opacity:1;" d="M 361.652344 625 C 361.652344 648.003906 343.003906 666.652344 320 666.652344 C 296.996094 666.652344 278.347656 648.003906 278.347656 625 C 278.347656 601.996094 296.996094 583.347656 320 583.347656 C 343.003906 583.347656 361.652344 601.996094 361.652344 625 "/>
<path style=" stroke:none;fill-rule:nonzero;fill:rgb(69.019608%,8.235294%,9.411765%);fill-opacity:1;" d="M 519.910156 625 C 519.910156 647.042969 502.042969 664.910156 480 664.910156 C 457.957031 664.910156 440.089844 647.042969 440.089844 625 C 440.089844 602.957031 457.957031 585.089844 480 585.089844 C 502.042969 585.089844 519.910156 602.957031 519.910156 625 "/>
<path style=" stroke:none;fill-rule:nonzero;fill:rgb(92.156863%,56.862745%,58.823529%);fill-opacity:1;" d="M 676.492188 625 C 676.492188 645.152344 660.152344 661.492188 640 661.492188 C 619.847656 661.492188 603.507813 645.152344 603.507813 625 C 603.507813 604.847656 619.847656 588.507813 640 588.507813 C 660.152344 588.507813 676.492188 604.847656 676.492188 625 "/>
<path style=" stroke:none;fill-rule:nonzero;fill:rgb(92.54902%,30.980392%,29.411765%);fill-opacity:1;" d="M 841.972656 625 C 841.972656 648.179688 823.179688 666.972656 800 666.972656 C 776.820313 666.972656 758.027344 648.179688 758.027344 625 C 758.027344 601.820313 776.820313 583.027344 800 583.027344 C 823.179688 583.027344 841.972656 601.820313 841.972656 625 "/>
<path style=" stroke:none;fill-rule:nonzero;fill:rgb(92.156863%,56.862745%,58.823529%);fill-opacity:1;" d="M 999.316406 625 C 999.316406 646.714844 981.714844 664.316406 960 664.316406 C 938.285156 664.316406 920.683594 646.714844 920.683594 625 C 920.683594 603.285156 938.285156 585.683594 960 585.683594 C 981.714844 585.683594 999.316406 603.285156 999.316406 625 "/>
<path style=" stroke:none;fill-rule:nonzero;fill:rgb(69.019608%,8.235294%,9.411765%);fill-opacity:1;" d="M 1158.742188 625 C 1158.742188 646.398438 1141.398438 663.742188 1120 663.742188 C 1098.601563 663.742188 1081.257813 646.398438 1081.257813 625 C 1081.257813 603.601563 1098.601563 586.257813 1120 586.257813 C 1141.398438 586.257813 1158.742188 603.601563 1158.742188 625 "/>
<path style=" stroke:none;fill-rule:nonzero;fill:rgb(61.176471%,34.509804%,29.803922%);fill-opacity:1;" d="M 1324.660156 625 C 1324.660156 649.664063 1304.664063 669.660156 1280 669.660156 C 1255.335938 669.660156 1235.339844 649.664063 1235.339844 625 C 1235.339844 600.335938 1255.335938 580.339844 1280 580.339844 C 1304.664063 580.339844 1324.660156 600.335938 1324.660156 625 "/>
<path style=" stroke:none;fill-rule:nonzero;fill:rgb(35.294118%,18.823529%,13.72549%);fill-opacity:1;" d="M 1479.03125 625 C 1479.03125 646.554688 1461.554688 664.03125 1440 664.03125 C 1418.445313 664.03125 1400.96875 646.554688 1400.96875 625 C 1400.96875 603.445313 1418.445313 585.96875 1440 585.96875 C 1461.554688 585.96875 1479.03125 603.445313 1479.03125 625 "/>
<path style=" stroke:none;fill-rule:nonzero;fill:rgb(42.745098%,3.137255%,3.529412%);fill-opacity:1;" d="M 1639.941406 625 C 1639.941406 647.058594 1622.058594 664.941406 1600 664.941406 C 1577.941406 664.941406 1560.058594 647.058594 1560.058594 625 C 1560.058594 602.941406 1577.941406 585.058594 1600 585.058594 C 1622.058594 585.058594 1639.941406 602.941406 1639.941406 625 "/>
<path style=" stroke:none;fill-rule:nonzero;fill:rgb(69.019608%,8.235294%,9.411765%);fill-opacity:1;" d="M 1801.132813 625 C 1801.132813 647.714844 1782.714844 666.132813 1760 666.132813 C 1737.285156 666.132813 1718.867188 647.714844 1718.867188 625 C 1718.867188 602.285156 1737.285156 583.867188 1760 583.867188 C 1782.714844 583.867188 1801.132813 602.285156 1801.132813 625 "/>
<path style=" stroke:none;fill-rule:nonzero;fill:rgb(35.294118%,18.823529%,13.72549%);fill-opacity:1;" d="M 1959.921875 625 C 1959.921875 647.050781 1942.050781 664.921875 1920 664.921875 C 1897.949219 664.921875 1880.078125 647.050781 1880.078125 625 C 1880.078125 602.949219 1897.949219 585.078125 1920 585.078125 C 1942.050781 585.078125 1959.921875 602.949219 1959.921875 625 "/>
<path style=" stroke:none;fill-rule:nonzero;fill:rgb(61.176471%,34.509804%,29.803922%);fill-opacity:1;" d="M 2284.234375 625 C 2284.234375 649.429688 2264.429688 669.234375 2240 669.234375 C 2215.570313 669.234375 2195.765625 649.429688 2195.765625 625 C 2195.765625 600.570313 2215.570313 580.765625 2240 580.765625 C 2264.429688 580.765625 2284.234375 600.570313 2284.234375 625 "/>
<path style=" stroke:none;fill-rule:nonzero;fill:rgb(42.745098%,3.137255%,3.529412%);fill-opacity:1;" d="M 192.253906 750 C 192.253906 767.8125 177.8125 782.253906 160 782.253906 C 142.1875 782.253906 127.746094 767.8125 127.746094 750 C 127.746094 732.1875 142.1875 717.746094 160 717.746094 C 177.8125 717.746094 192.253906 732.1875 192.253906 750 "/>
<path style=" stroke:none;fill-rule:nonzero;fill:rgb(69.019608%,8.235294%,9.411765%);fill-opacity:1;" d="M 362.351563 750 C 362.351563 773.390625 343.390625 792.351563 320 792.351563 C 296.609375 792.351563 277.648438 773.390625 277.648438 750 C 277.648438 726.609375 296.609375 707.648438 320 707.648438 C 343.390625 707.648438 362.351563 726.609375 362.351563 750 "/>
<path style=" stroke:none;fill-rule:nonzero;fill:rgb(42.745098%,3.137255%,3.529412%);fill-opacity:1;" d="M 519.433594 750 C 519.433594 771.777344 501.777344 789.433594 480 789.433594 C 458.222656 789.433594 440.566406 771.777344 440.566406 750 C 440.566406 728.222656 458.222656 710.566406 480 710.566406 C 501.777344 710.566406 519.433594 728.222656 519.433594 750 "/>
<path style=" stroke:none;fill-rule:nonzero;fill:rgb(92.156863%,56.862745%,58.823529%);fill-opacity:1;" d="M 677.972656 750 C 677.972656 770.972656 660.972656 787.972656 640 787.972656 C 619.027344 787.972656 602.027344 770.972656 602.027344 750 C 602.027344 729.027344 619.027344 712.027344 640 712.027344 C 660.972656 712.027344 677.972656 729.027344 677.972656 750 "/>
<path style=" stroke:none;fill-rule:nonzero;fill:rgb(35.294118%,18.823529%,13.72549%);fill-opacity:1;" d="M 840.703125 750 C 840.703125 772.480469 822.480469 790.703125 800 790.703125 C 777.519531 790.703125 759.296875 772.480469 759.296875 750 C 759.296875 727.519531 777.519531 709.296875 800 709.296875 C 822.480469 709.296875 840.703125 727.519531 840.703125 750 "/>
<path style=" stroke:none;fill-rule:nonzero;fill:rgb(69.019608%,8.235294%,9.411765%);fill-opacity:1;" d="M 1003.234375 750 C 1003.234375 773.875 983.875 793.234375 960 793.234375 C 936.125 793.234375 916.765625 773.875 916.765625 750 C 916.765625 726.125 936.125 706.765625 960 706.765625 C 983.875 706.765625 1003.234375 726.125 1003.234375 750 "/>
<path style=" stroke:none;fill-rule:nonzero;fill:rgb(61.176471%,34.509804%,29.803922%);fill-opacity:1;" d="M 1322.878906 750 C 1322.878906 773.683594 1303.683594 792.878906 1280 792.878906 C 1256.316406 792.878906 1237.121094 773.683594 1237.121094 750 C 1237.121094 726.316406 1256.316406 707.121094 1280 707.121094 C 1303.683594 707.121094 1322.878906 726.316406 1322.878906 750 "/>
<path style=" stroke:none;fill-rule:nonzero;fill:rgb(35.294118%,18.823529%,13.72549%);fill-opacity:1;" d="M 1475.945313 750 C 1475.945313 769.851563 1459.851563 785.945313 1440 785.945313 C 1420.148438 785.945313 1404.054688 769.851563 1404.054688 750 C 1404.054688 730.148438 1420.148438 714.054688 1440 714.054688 C 1459.851563 714.054688 1475.945313 730.148438 1475.945313 750 "/>
<path style=" stroke:none;fill-rule:nonzero;fill:rgb(69.019608%,8.235294%,9.411765%);fill-opacity:1;" d="M 1644.609375 750 C 1644.609375 774.636719 1624.636719 794.609375 1600 794.609375 C 1575.363281 794.609375 1555.390625 774.636719 1555.390625 750 C 1555.390625 725.363281 1575.363281 705.390625 1600 705.390625 C 1624.636719 705.390625 1644.609375 725.363281 1644.609375 750 "/>
<path style=" stroke:none;fill-rule:nonzero;fill:rgb(35.294118%,18.823529%,13.72549%);fill-opacity:1;" d="M 1801.144531 750 C 1801.144531 772.722656 1782.722656 791.144531 1760 791.144531 C 1737.277344 791.144531 1718.855469 772.722656 1718.855469 750 C 1718.855469 727.277344 1737.277344 708.855469 1760 708.855469 C 1782.722656 708.855469 1801.144531 727.277344 1801.144531 750 "/>
<path style=" stroke:none;fill-rule:nonzero;fill:rgb(61.176471%,34.509804%,29.803922%);fill-opacity:1;" d="M 1954.898438 750 C 1954.898438 769.273438 1939.273438 784.898438 1920 784.898438 C 1900.726563 784.898438 1885.101563 769.273438 1885.101563 750 C 1885.101563 730.726563 1900.726563 715.101563 1920 715.101563 C 1939.273438 715.101563 1954.898438 730.726563 1954.898438 750 "/>
<path style=" stroke:none;fill-rule:nonzero;fill:rgb(35.294118%,18.823529%,13.72549%);fill-opacity:1;" d="M 2121.488281 750 C 2121.488281 772.914063 2102.914063 791.488281 2080 791.488281 C 2057.085938 791.488281 2038.511719 772.914063 2038.511719 750 C 2038.511719 727.085938 2057.085938 708.511719 2080 708.511719 C 2102.914063 708.511719 2121.488281 727.085938 2121.488281 750 "/>
<path style=" stroke:none;fill-rule:nonzero;fill:rgb(42.745098%,3.137255%,3.529412%);fill-opacity:1;" d="M 2280.453125 750 C 2280.453125 772.34375 2262.34375 790.453125 2240 790.453125 C 2217.65625 790.453125 2199.546875 772.34375 2199.546875 750 C 2199.546875 727.65625 2217.65625 709.546875 2240 709.546875 C 2262.34375 709.546875 2280.453125 727.65625 2280.453125 750 "/>
<path style=" stroke:none;fill-rule:nonzero;fill:rgb(69.019608%,8.235294%,9.411765%);fill-opacity:1;" d="M 2438.34375 750 C 2438.34375 771.175781 2421.175781 788.34375 2400 788.34375 C 2378.824219 788.34375 2361.65625 771.175781 2361.65625 750 C 2361.65625 728.824219 2378.824219 711.65625 2400 711.65625 C 2421.175781 711.65625 2438.34375 728.824219 2438.34375 750 "/>
<path style=" stroke:none;fill-rule:nonzero;fill:rgb(95.686275%,81.568627%,84.705882%);fill-opacity:1;" d="M 197.636719 875 C 197.636719 895.785156 180.785156 912.636719 160 912.636719 C 139.214844 912.636719 122.363281 895.785156 122.363281 875 C 122.363281 854.214844 139.214844 837.363281 160 837.363281 C 180.785156 837.363281 197.636719 854.214844 197.636719 875 "/>
<path style=" stroke:none;fill-rule:nonzero;fill:rgb(42.745098%,3.137255%,3.529412%);fill-opacity:1;" d="M 362.144531 875 C 362.144531 898.273438 343.273438 917.144531 320 917.144531 C 296.726563 917.144531 277.855469 898.273438 277.855469 875 C 277.855469 851.726563 296.726563 832.855469 320 832.855469 C 343.273438 832.855469 362.144531 851.726563 362.144531 875 "/>
<path style=" stroke:none;fill-rule:nonzero;fill:rgb(35.294118%,18.823529%,13.72549%);fill-opacity:1;" d="M 520.28125 875 C 520.28125 897.246094 502.246094 915.28125 480 915.28125 C 457.753906 915.28125 439.71875 897.246094 439.71875 875 C 439.71875 852.753906 457.753906 834.71875 480 834.71875 C 502.246094 834.71875 520.28125 852.753906 520.28125 875 "/>
<path style=" stroke:none;fill-rule:nonzero;fill:rgb(61.176471%,34.509804%,29.803922%);fill-opacity:1;" d="M 681.066406 875 C 681.066406 897.679688 662.679688 916.066406 640 916.066406 C 617.320313 916.066406 598.933594 897.679688 598.933594 875 C 598.933594 852.320313 617.320313 833.933594 640 833.933594 C 662.679688 833.933594 681.066406 852.320313 681.066406 875 "/>
<path style=" stroke:none;fill-rule:nonzero;fill:rgb(35.294118%,18.823529%,13.72549%);fill-opacity:1;" d="M 840.386719 875 C 840.386719 897.304688 822.304688 915.386719 800 915.386719 C 777.695313 915.386719 759.613281 897.304688 759.613281 875 C 759.613281 852.695313 777.695313 834.613281 800 834.613281 C 822.304688 834.613281 840.386719 852.695313 840.386719 875 "/>
<path style=" stroke:none;fill-rule:nonzero;fill:rgb(42.745098%,3.137255%,3.529412%);fill-opacity:1;" d="M 1164.605469 875 C 1164.605469 899.632813 1144.632813 919.605469 1120 919.605469 C 1095.367188 919.605469 1075.394531 899.632813 1075.394531 875 C 1075.394531 850.367188 1095.367188 830.394531 1120 830.394531 C 1144.632813 830.394531 1164.605469 850.367188 1164.605469 875 "/>
<path style=" stroke:none;fill-rule:nonzero;fill:rgb(92.54902%,30.980392%,29.411765%);fill-opacity:1;" d="M 1318.113281 875 C 1318.113281 896.050781 1301.050781 913.113281 1280 913.113281 C 1258.949219 913.113281 1241.886719 896.050781 1241.886719 875 C 1241.886719 853.949219 1258.949219 836.886719 1280 836.886719 C 1301.050781 836.886719 1318.113281 853.949219 1318.113281 875 "/>
<path style=" stroke:none;fill-rule:nonzero;fill:rgb(35.294118%,18.823529%,13.72549%);fill-opacity:1;" d="M 1476.304688 875 C 1476.304688 895.050781 1460.050781 911.304688 1440 911.304688 C 1419.949219 911.304688 1403.695313 895.050781 1403.695313 875 C 1403.695313 854.949219 1419.949219 838.695313 1440 838.695313 C 1460.050781 838.695313 1476.304688 854.949219 1476.304688 875 "/>
<path style=" stroke:none;fill-rule:nonzero;fill:rgb(95.686275%,81.568627%,84.705882%);fill-opacity:1;" d="M 1642.863281 875 C 1642.863281 898.671875 1623.671875 917.863281 1600 917.863281 C 1576.328125 917.863281 1557.136719 898.671875 1557.136719 875 C 1557.136719 851.328125 1576.328125 832.136719 1600 832.136719 C 1623.671875 832.136719 1642.863281 851.328125 1642.863281 875 "/>
<path style=" stroke:none;fill-rule:nonzero;fill:rgb(42.745098%,3.137255%,3.529412%);fill-opacity:1;" d="M 1796.273438 875 C 1796.273438 895.03125 1780.03125 911.273438 1760 911.273438 C 1739.96875 911.273438 1723.726563 895.03125 1723.726563 875 C 1723.726563 854.96875 1739.96875 838.726563 1760 838.726563 C 1780.03125 838.726563 1796.273438 854.96875 1796.273438 875 "/>
<path style=" stroke:none;fill-rule:nonzero;fill:rgb(42.745098%,3.137255%,3.529412%);fill-opacity:1;" d="M 1961.042969 875 C 1961.042969 897.667969 1942.667969 916.042969 1920 916.042969 C 1897.332031 916.042969 1878.957031 897.667969 1878.957031 875 C 1878.957031 852.332031 1897.332031 833.957031 1920 833.957031 C 1942.667969 833.957031 1961.042969 852.332031 1961.042969 875 "/>
<path style=" stroke:none;fill-rule:nonzero;fill:rgb(35.294118%,18.823529%,13.72549%);fill-opacity:1;" d="M 2282.152344 875 C 2282.152344 898.28125 2263.28125 917.152344 2240 917.152344 C 2216.71875 917.152344 2197.847656 898.28125 2197.847656 875 C 2197.847656 851.71875 2216.71875 832.847656 2240 832.847656 C 2263.28125 832.847656 2282.152344 851.71875 2282.152344 875 "/>
<path style=" stroke:none;fill-rule:nonzero;fill:rgb(35.294118%,18.823529%,13.72549%);fill-opacity:1;" d="M 198.621094 1000 C 198.621094 1021.328125 181.328125 1038.621094 160 1038.621094 C 138.671875 1038.621094 121.378906 1021.328125 121.378906 1000 C 121.378906 978.671875 138.671875 961.378906 160 961.378906 C 181.328125 961.378906 198.621094 978.671875 198.621094 1000 "/>
<path style=" stroke:none;fill-rule:nonzero;fill:rgb(69.019608%,8.235294%,9.411765%);fill-opacity:1;" d="M 359.332031 1000 C 359.332031 1021.722656 341.722656 1039.332031 320 1039.332031 C 298.277344 1039.332031 280.667969 1021.722656 280.667969 1000 C 280.667969 978.277344 298.277344 960.667969 320 960.667969 C 341.722656 960.667969 359.332031 978.277344 359.332031 1000 "/>
<path style=" stroke:none;fill-rule:nonzero;fill:rgb(42.745098%,3.137255%,3.529412%);fill-opacity:1;" d="M 522.277344 1000 C 522.277344 1023.351563 503.351563 1042.277344 480 1042.277344 C 456.648438 1042.277344 437.722656 1023.351563 437.722656 1000 C 437.722656 976.648438 456.648438 957.722656 480 957.722656 C 503.351563 957.722656 522.277344 976.648438 522.277344 1000 "/>
<path style=" stroke:none;fill-rule:nonzero;fill:rgb(42.745098%,3.137255%,3.529412%);fill-opacity:1;" d="M 677.621094 1000 C 677.621094 1020.777344 660.777344 1037.621094 640 1037.621094 C 619.222656 1037.621094 602.378906 1020.777344 602.378906 1000 C 602.378906 979.222656 619.222656 962.378906 640 962.378906 C 660.777344 962.378906 677.621094 979.222656 677.621094 1000 "/>
<path style=" stroke:none;fill-rule:nonzero;fill:rgb(92.156863%,56.862745%,58.823529%);fill-opacity:1;" d="M 840.402344 1000 C 840.402344 1022.3125 822.3125 1040.402344 800 1040.402344 C 777.6875 1040.402344 759.597656 1022.3125 759.597656 1000 C 759.597656 977.6875 777.6875 959.597656 800 959.597656 C 822.3125 959.597656 840.402344 977.6875 840.402344 1000 "/>
<path style=" stroke:none;fill-rule:nonzero;fill:rgb(69.019608%,8.235294%,9.411765%);fill-opacity:1;" d="M 994.222656 1000 C 994.222656 1018.898438 978.898438 1034.222656 960 1034.222656 C 941.101563 1034.222656 925.777344 1018.898438 925.777344 1000 C 925.777344 981.101563 941.101563 965.777344 960 965.777344 C 978.898438 965.777344 994.222656 981.101563 994.222656 1000 "/>
<path style=" stroke:none;fill-rule:nonzero;fill:rgb(95.686275%,81.568627%,84.705882%);fill-opacity:1;" d="M 1159.300781 1000 C 1159.300781 1021.703125 1141.703125 1039.300781 1120 1039.300781 C 1098.296875 1039.300781 1080.699219 1021.703125 1080.699219 1000 C 1080.699219 978.296875 1098.296875 960.699219 1120 960.699219 C 1141.703125 960.699219 1159.300781 978.296875 1159.300781 1000 "/>
<path style=" stroke:none;fill-rule:nonzero;fill:rgb(69.019608%,8.235294%,9.411765%);fill-opacity:1;" d="M 1323.488281 1000 C 1323.488281 1024.015625 1304.015625 1043.488281 1280 1043.488281 C 1255.984375 1043.488281 1236.511719 1024.015625 1236.511719 1000 C 1236.511719 975.984375 1255.984375 956.511719 1280 956.511719 C 1304.015625 956.511719 1323.488281 975.984375 1323.488281 1000 "/>
<path style=" stroke:none;fill-rule:nonzero;fill:rgb(42.745098%,3.137255%,3.529412%);fill-opacity:1;" d="M 1481.675781 1000 C 1481.675781 1023.015625 1463.015625 1041.675781 1440 1041.675781 C 1416.984375 1041.675781 1398.324219 1023.015625 1398.324219 1000 C 1398.324219 976.984375 1416.984375 958.324219 1440 958.324219 C 1463.015625 958.324219 1481.675781 976.984375 1481.675781 1000 "/>
<path style=" stroke:none;fill-rule:nonzero;fill:rgb(92.54902%,30.980392%,29.411765%);fill-opacity:1;" d="M 1633.605469 1000 C 1633.605469 1018.558594 1618.558594 1033.605469 1600 1033.605469 C 1581.441406 1033.605469 1566.394531 1018.558594 1566.394531 1000 C 1566.394531 981.441406 1581.441406 966.394531 1600 966.394531 C 1618.558594 966.394531 1633.605469 981.441406 1633.605469 1000 "/>
<path style=" stroke:none;fill-rule:nonzero;fill:rgb(92.156863%,56.862745%,58.823529%);fill-opacity:1;" d="M 1797.910156 1000 C 1797.910156 1020.9375 1780.9375 1037.910156 1760 1037.910156 C 1739.0625 1037.910156 1722.089844 1020.9375 1722.089844 1000 C 1722.089844 979.0625 1739.0625 962.089844 1760 962.089844 C 1780.9375 962.089844 1797.910156 979.0625 1797.910156 1000 "/>
<path style=" stroke:none;fill-rule:nonzero;fill:rgb(92.156863%,56.862745%,58.823529%);fill-opacity:1;" d="M 1960.773438 1000 C 1960.773438 1022.519531 1942.519531 1040.773438 1920 1040.773438 C 1897.480469 1040.773438 1879.226563 1022.519531 1879.226563 1000 C 1879.226563 977.480469 1897.480469 959.226563 1920 959.226563 C 1942.519531 959.226563 1960.773438 977.480469 1960.773438 1000 "/>
<path style=" stroke:none;fill-rule:nonzero;fill:rgb(69.019608%,8.235294%,9.411765%);fill-opacity:1;" d="M 2115.898438 1000 C 2115.898438 1019.828125 2099.828125 1035.898438 2080 1035.898438 C 2060.171875 1035.898438 2044.101563 1019.828125 2044.101563 1000 C 2044.101563 980.171875 2060.171875 964.101563 2080 964.101563 C 2099.828125 964.101563 2115.898438 980.171875 2115.898438 1000 "/>
<path style=" stroke:none;fill-rule:nonzero;fill:rgb(69.019608%,8.235294%,9.411765%);fill-opacity:1;" d="M 2273.945313 1000 C 2273.945313 1018.746094 2258.746094 1033.945313 2240 1033.945313 C 2221.253906 1033.945313 2206.054688 1018.746094 2206.054688 1000 C 2206.054688 981.253906 2221.253906 966.054688 2240 966.054688 C 2258.746094 966.054688 2273.945313 981.253906 2273.945313 1000 "/>
<path style=" stroke:none;fill-rule:nonzero;fill:rgb(35.294118%,18.823529%,13.72549%);fill-opacity:1;" d="M 2446.273438 1000 C 2446.273438 1025.554688 2425.554688 1046.273438 2400 1046.273438 C 2374.445313 1046.273438 2353.726563 1025.554688 2353.726563 1000 C 2353.726563 974.445313 2374.445313 953.726563 2400 953.726563 C 2425.554688 953.726563 2446.273438 974.445313 2446.273438 1000 "/>
<path style=" stroke:none;fill-rule:nonzero;fill:rgb(92.156863%,56.862745%,58.823529%);fill-opacity:1;" d="M 198.628906 1125 C 198.628906 1146.332031 181.332031 1163.628906 160 1163.628906 C 138.667969 1163.628906 121.371094 1146.332031 121.371094 1125 C 121.371094 1103.667969 138.667969 1086.371094 160 1086.371094 C 181.332031 1086.371094 198.628906 1103.667969 198.628906 1125 "/>
<path style=" stroke:none;fill-rule:nonzero;fill:rgb(35.294118%,18.823529%,13.72549%);fill-opacity:1;" d="M 358.574219 1125 C 358.574219 1146.304688 341.304688 1163.574219 320 1163.574219 C 298.695313 1163.574219 281.425781 1146.304688 281.425781 1125 C 281.425781 1103.695313 298.695313 1086.425781 320 1086.425781 C 341.304688 1086.425781 358.574219 1103.695313 358.574219 1125 "/>
<path style=" stroke:none;fill-rule:nonzero;fill:rgb(69.019608%,8.235294%,9.411765%);fill-opacity:1;" d="M 523.796875 1125 C 523.796875 1149.1875 504.1875 1168.796875 480 1168.796875 C 455.8125 1168.796875 436.203125 1149.1875 436.203125 1125 C 436.203125 1100.8125 455.8125 1081.203125 480 1081.203125 C 504.1875 1081.203125 523.796875 1100.8125 523.796875 1125 "/>
<path style=" stroke:none;fill-rule:nonzero;fill:rgb(69.019608%,8.235294%,9.411765%);fill-opacity:1;" d="M 684.628906 1125 C 684.628906 1149.648438 664.648438 1169.628906 640 1169.628906 C 615.351563 1169.628906 595.371094 1149.648438 595.371094 1125 C 595.371094 1100.351563 615.351563 1080.371094 640 1080.371094 C 664.648438 1080.371094 684.628906 1100.351563 684.628906 1125 "/>
<path style=" stroke:none;fill-rule:nonzero;fill:rgb(69.019608%,8.235294%,9.411765%);fill-opacity:1;" d="M 839.949219 1125 C 839.949219 1147.0625 822.0625 1164.949219 800 1164.949219 C 777.9375 1164.949219 760.050781 1147.0625 760.050781 1125 C 760.050781 1102.9375 777.9375 1085.050781 800 1085.050781 C 822.0625 1085.050781 839.949219 1102.9375 839.949219 1125 "/>
<path style=" stroke:none;fill-rule:nonzero;fill:rgb(42.745098%,3.137255%,3.529412%);fill-opacity:1;" d="M 997.347656 1125 C 997.347656 1145.625 980.625 1162.347656 960 1162.347656 C 939.375 1162.347656 922.652344 1145.625 922.652344 1125 C 922.652344 1104.375 939.375 1087.652344 960 1087.652344 C 980.625 1087.652344 997.347656 1104.375 997.347656 1125 "/>
<path style=" stroke:none;fill-rule:nonzero;fill:rgb(42.745098%,3.137255%,3.529412%);fill-opacity:1;" d="M 1155.289063 1125 C 1155.289063 1144.492188 1139.492188 1160.289063 1120 1160.289063 C 1100.507813 1160.289063 1084.710938 1144.492188 1084.710938 1125 C 1084.710938 1105.507813 1100.507813 1089.710938 1120 1089.710938 C 1139.492188 1089.710938 1155.289063 1105.507813 1155.289063 1125 "/>
<path style=" stroke:none;fill-rule:nonzero;fill:rgb(92.156863%,56.862745%,58.823529%);fill-opacity:1;" d="M 1314.226563 1125 C 1314.226563 1143.902344 1298.902344 1159.226563 1280 1159.226563 C 1261.097656 1159.226563 1245.773438 1143.902344 1245.773438 1125 C 1245.773438 1106.097656 1261.097656 1090.773438 1280 1090.773438 C 1298.902344 1090.773438 1314.226563 1106.097656 1314.226563 1125 "/>
<path style=" stroke:none;fill-rule:nonzero;fill:rgb(69.019608%,8.235294%,9.411765%);fill-opacity:1;" d="M 1474.019531 1125 C 1474.019531 1143.789063 1458.789063 1159.019531 1440 1159.019531 C 1421.210938 1159.019531 1405.980469 1143.789063 1405.980469 1125 C 1405.980469 1106.210938 1421.210938 1090.980469 1440 1090.980469 C 1458.789063 1090.980469 1474.019531 1106.210938 1474.019531 1125 "/>
<path style=" stroke:none;fill-rule:nonzero;fill:rgb(92.54902%,30.980392%,29.411765%);fill-opacity:1;" d="M 1798.6875 1125 C 1798.6875 1146.367188 1781.367188 1163.6875 1760 1163.6875 C 1738.632813 1163.6875 1721.3125 1146.367188 1721.3125 1125 C 1721.3125 1103.632813 1738.632813 1086.3125 1760 1086.3125 C 1781.367188 1086.3125 1798.6875 1103.632813 1798.6875 1125 "/>
<path style=" stroke:none;fill-rule:nonzero;fill:rgb(69.019608%,8.235294%,9.411765%);fill-opacity:1;" d="M 1966.53125 1125 C 1966.53125 1150.699219 1945.699219 1171.53125 1920 1171.53125 C 1894.300781 1171.53125 1873.46875 1150.699219 1873.46875 1125 C 1873.46875 1099.300781 1894.300781 1078.46875 1920 1078.46875 C 1945.699219 1078.46875 1966.53125 1099.300781 1966.53125 1125 "/>
<path style=" stroke:none;fill-rule:nonzero;fill:rgb(35.294118%,18.823529%,13.72549%);fill-opacity:1;" d="M 2118.304688 1125 C 2118.304688 1146.15625 2101.15625 1163.304688 2080 1163.304688 C 2058.84375 1163.304688 2041.695313 1146.15625 2041.695313 1125 C 2041.695313 1103.84375 2058.84375 1086.695313 2080 1086.695313 C 2101.15625 1086.695313 2118.304688 1103.84375 2118.304688 1125 "/>
<path style=" stroke:none;fill-rule:nonzero;fill:rgb(42.745098%,3.137255%,3.529412%);fill-opacity:1;" d="M 2436.042969 1125 C 2436.042969 1144.90625 2419.90625 1161.042969 2400 1161.042969 C 2380.09375 1161.042969 2363.957031 1144.90625 2363.957031 1125 C 2363.957031 1105.09375 2380.09375 1088.957031 2400 1088.957031 C 2419.90625 1088.957031 2436.042969 1105.09375 2436.042969 1125 "/>
</g>
</svg>
