<?xml version="1.0" encoding="UTF-8"?>
<svg xmlns="http://www.w3.org/2000/svg" xmlns:xlink="http://www.w3.org/1999/xlink" width="2560pt" height="1280pt" viewBox="0 0 2560 1280" version="1.1">
<g id="surface1">
<path style=" stroke:none;fill-rule:nonzero;fill:rgb(98.039216%,98.039216%,98.039216%);fill-opacity:1;" d="M 0 0 L 2560 0 L 2560 750 L 0 750 Z M 0 0 "/>
<path style=" stroke:none;fill-rule:nonzero;fill:rgb(56.470588%,50.588235%,18.039216%);fill-opacity:1;" d="M 196.285156 125 C 196.285156 145.039063 180.039063 161.285156 160 161.285156 C 139.960938 161.285156 123.714844 145.039063 123.714844 125 C 123.714844 104.960938 139.960938 88.714844 160 88.714844 C 180.039063 88.714844 196.285156 104.960938 196.285156 125 "/>
<path style=" stroke:none;fill-rule:nonzero;fill:rgb(85.882353%,87.45098%,89.411765%);fill-opacity:1;" d="M 365.292969 125 C 365.292969 150.015625 345.015625 170.292969 320 170.292969 C 294.984375 170.292969 274.707031 150.015625 274.707031 125 C 274.707031 99.984375 294.984375 79.707031 320 79.707031 C 345.015625 79.707031 365.292969 99.984375 365.292969 125 "/>
<path style=" stroke:none;fill-rule:nonzero;fill:rgb(85.882353%,87.45098%,89.411765%);fill-opacity:1;" d="M 515.9375 125 C 515.9375 144.847656 499.847656 160.9375 480 160.9375 C 460.152344 160.9375 444.0625 144.847656 444.0625 125 C 444.0625 105.152344 460.152344 89.0625 480 89.0625 C 499.847656 89.0625 515.9375 105.152344 515.9375 125 "/>
<path style=" stroke:none;fill-rule:nonzero;fill:rgb(85.882353%,87.45098%,89.411765%);fill-opacity:1;" d="M 677.679688 125 C 677.679688 145.808594 660.808594 162.679688 640 162.679688 C 619.191406 162.679688 602.320313 145.808594 602.320313 125 C 602.320313 104.191406 619.191406 87.320313 640 87.320313 C 660.808594 87.320313 677.679688 104.191406 677.679688 125 "/>
<path style=" stroke:none;fill-rule:nonzero;fill:rgb(78.823529%,73.333333%,59.607843%);fill-opacity:1;" d="M 842.273438 125 C 842.273438 148.347656 823.347656 167.273438 800 167.273438 C 776.652344 167.273438 757.726563 148.347656 757.726563 125 C 757.726563 101.652344 776.652344 82.726563 800 82.726563 C 823.347656 82.726563 842.273438 101.652344 842.273438 125 "/>
<path style=" stroke:none;fill-rule:nonzero;fill:rgb(56.470588%,50.588235%,18.039216%);fill-opacity:1;" d="M 997.035156 125 C 997.035156 145.453125 980.453125 162.035156 960 162.035156 C 939.546875 162.035156 922.964844 145.453125 922.964844 125 C 922.964844 104.546875 939.546875 87.964844 960 87.964844 C 980.453125 87.964844 997.035156 104.546875 997.035156 125 "/>
<path style=" stroke:none;fill-rule:nonzero;fill:rgb(78.823529%,73.333333%,59.607843%);fill-opacity:1;" d="M 1161.050781 125 C 1161.050781 147.671875 1142.671875 166.050781 1120 166.050781 C 1097.328125 166.050781 1078.949219 147.671875 1078.949219 125 C 1078.949219 102.328125 1097.328125 83.949219 1120 83.949219 C 1142.671875 83.949219 1161.050781 102.328125 1161.050781 125 "/>
<path style=" stroke:none;fill-rule:nonzero;fill:rgb(85.882353%,87.45098%,89.411765%);fill-opacity:1;" d="M 1320.261719 125 C 1320.261719 147.234375 1302.234375 165.261719 1280 165.261719 C 1257.765625 165.261719 1239.738281 147.234375 1239.738281 125 C 1239.738281 102.765625 1257.765625 84.738281 1280 84.738281 C 1302.234375 84.738281 1320.261719 102.765625 1320.261719 125 "/>
<path style=" stroke:none;fill-rule:nonzero;fill:rgb(85.882353%,87.45098%,89.411765%);fill-opacity:1;" d="M 1479.976563 125 C 1479.976563 147.078125 1462.078125 164.976563 1440 164.976563 C 1417.921875 164.976563 1400.023438 147.078125 1400.023438 125 C 1400.023438 102.921875 1417.921875 85.023438 1440 85.023438 C 1462.078125 85.023438 1479.976563 102.921875 1479.976563 125 "/>
<path style=" stroke:none;fill-rule:nonzero;fill:rgb(85.882353%,87.45098%,89.411765%);fill-opacity:1;" d="M 1638.152344 125 C 1638.152344 146.070313 1621.070313 163.152344 1600 163.152344 C 1578.929688 163.152344 1561.847656 146.070313 1561.847656 125 C 1561.847656 103.929688 1578.929688 86.847656 1600 86.847656 C 1621.070313 86.847656 1638.152344 103.929688 1638.152344 125 "/>
<path style=" stroke:none;fill-rule:nonzero;fill:rgb(38.431373%,36.470588%,16.470588%);fill-opacity:1;" d="M 1799.621094 125 C 1799.621094 146.882813 1781.882813 164.621094 1760 164.621094 C 1738.117188 164.621094 1720.378906 146.882813 1720.378906 125 C 1720.378906 103.117188 1738.117188 85.378906 1760 85.378906 C 1781.882813 85.378906 1799.621094 103.117188 1799.621094 125 "/>
<path style=" stroke:none;fill-rule:nonzero;fill:rgb(56.470588%,50.588235%,18.039216%);fill-opacity:1;" d="M 1964.167969 125 C 1964.167969 149.394531 1944.394531 169.167969 1920 169.167969 C 1895.605469 169.167969 1875.832031 149.394531 1875.832031 125 C 1875.832031 100.605469 1895.605469 80.832031 1920 80.832031 C 1944.394531 80.832031 1964.167969 100.605469 1964.167969 125 "/>
<path style=" stroke:none;fill-rule:nonzero;fill:rgb(25.490196%,25.098039%,10.196078%);fill-opacity:1;" d="M 2117.542969 125 C 2117.542969 145.734375 2100.734375 162.542969 2080 162.542969 C 2059.265625 162.542969 2042.457031 145.734375 2042.457031 125 C 2042.457031 104.265625 2059.265625 87.457031 2080 87.457031 C 2100.734375 87.457031 2117.542969 104.265625 2117.542969 125 "/>
<path style=" stroke:none;fill-rule:nonzero;fill:rgb(56.470588%,50.588235%,18.039216%);fill-opacity:1;" d="M 2280.859375 125 C 2280.859375 147.566406 2262.566406 165.859375 2240 165.859375 C 2217.433594 165.859375 2199.140625 147.566406 2199.140625 125 C 2199.140625 102.433594 2217.433594 84.140625 2240 84.140625 C 2262.566406 84.140625 2280.859375 102.433594 2280.859375 125 "/>
<path style=" stroke:none;fill-rule:nonzero;fill:rgb(56.470588%,50.588235%,18.039216%);fill-opacity:1;" d="M 2437.765625 125 C 2437.765625 145.859375 2420.859375 162.765625 2400 162.765625 C 2379.140625 162.765625 2362.234375 145.859375 2362.234375 125 C 2362.234375 104.140625 2379.140625 87.234375 2400 87.234375 C 2420.859375 87.234375 2437.765625 104.140625 2437.765625 125 "/>
<path style=" stroke:none;fill-rule:nonzero;fill:rgb(25.490196%,25.098039%,10.196078%);fill-opacity:1;" d="M 198.675781 250 C 198.675781 271.359375 181.359375 288.675781 160 288.675781 C 138.640625 288.675781 121.324219 271.359375 121.324219 250 C 121.324219 228.640625 138.640625 211.324219 160 211.324219 C 181.359375 211.324219 198.675781 228.640625 198.675781 250 "/>
<path style=" stroke:none;fill-rule:nonzero;fill:rgb(73.333333%,67.058824%,32.156863%);fill-opacity:1;" d="M 356.058594 250 C 356.058594 269.914063 339.914063 286.058594 320 286.058594 C 300.085938 286.058594 283.941406 269.914063 283.941406 250 C 283.941406 230.085938 300.085938 213.941406 320 213.941406 C 339.914063 213.941406 356.058594 230.085938 356.058594 250 "/>
<path style=" stroke:none;fill-rule:nonzero;fill:rgb(85.882353%,87.45098%,89.411765%);fill-opacity:1;" d="M 522.835938 250 C 522.835938 273.65625 503.65625 292.835938 480 292.835938 C 456.34375 292.835938 437.164063 273.65625 437.164063 250 C 437.164063 226.34375 456.34375 207.164063 480 207.164063 C 503.65625 207.164063 522.835938 226.34375 522.835938 250 "/>
<path style=" stroke:none;fill-rule:nonzero;fill:rgb(85.882353%,87.45098%,89.411765%);fill-opacity:1;" d="M 683.894531 250 C 683.894531 274.242188 664.242188 293.894531 640 293.894531 C 615.757813 293.894531 596.105469 274.242188 596.105469 250 C 596.105469 225.757813 615.757813 206.105469 640 206.105469 C 664.242188 206.105469 683.894531 225.757813 683.894531 250 "/>
<path style=" stroke:none;fill-rule:nonzero;fill:rgb(85.882353%,87.45098%,89.411765%);fill-opacity:1;" d="M 837.519531 250 C 837.519531 270.722656 820.722656 287.519531 800 287.519531 C 779.277344 287.519531 762.480469 270.722656 762.480469 250 C 762.480469 229.277344 779.277344 212.480469 800 212.480469 C 820.722656 212.480469 837.519531 229.277344 837.519531 250 "/>
<path style=" stroke:none;fill-rule:nonzero;fill:rgb(38.431373%,36.470588%,16.470588%);fill-opacity:1;" d="M 1002.503906 250 C 1002.503906 273.472656 983.472656 292.503906 960 292.503906 C 936.527344 292.503906 917.496094 273.472656 917.496094 250 C 917.496094 226.527344 936.527344 207.496094 960 207.496094 C 983.472656 207.496094 1002.503906 226.527344 1002.503906 250 "/>
<path style=" stroke:none;fill-rule:nonzero;fill:rgb(25.490196%,25.098039%,10.196078%);fill-opacity:1;" d="M 1167.882813 250 C 1167.882813 276.445313 1146.445313 297.882813 1120 297.882813 C 1093.554688 297.882813 1072.117188 276.445313 1072.117188 250 C 1072.117188 223.554688 1093.554688 202.117188 1120 202.117188 C 1146.445313 202.117188 1167.882813 223.554688 1167.882813 250 "/>
<path style=" stroke:none;fill-rule:nonzero;fill:rgb(53.72549%,49.411765%,38.823529%);fill-opacity:1;" d="M 1320.800781 250 C 1320.800781 272.535156 1302.535156 290.800781 1280 290.800781 C 1257.464844 290.800781 1239.199219 272.535156 1239.199219 250 C 1239.199219 227.464844 1257.464844 209.199219 1280 209.199219 C 1302.535156 209.199219 1320.800781 227.464844 1320.800781 250 "/>
<path style=" stroke:none;fill-rule:nonzero;fill:rgb(85.882353%,87.45098%,89.411765%);fill-opacity:1;" d="M 1481.429688 250 C 1481.429688 272.882813 1462.882813 291.429688 1440 291.429688 C 1417.117188 291.429688 1398.570313 272.882813 1398.570313 250 C 1398.570313 227.117188 1417.117188 208.570313 1440 208.570313 C 1462.882813 208.570313 1481.429688 227.117188 1481.429688 250 "/>
<path style=" stroke:none;fill-rule:nonzero;fill:rgb(78.823529%,73.333333%,59.607843%);fill-opacity:1;" d="M 1647.789063 250 C 1647.789063 276.394531 1626.394531 297.789063 1600 297.789063 C 1573.605469 297.789063 1552.210938 276.394531 1552.210938 250 C 1552.210938 223.605469 1573.605469 202.210938 1600 202.210938 C 1626.394531 202.210938 1647.789063 223.605469 1647.789063 250 "/>
<path style=" stroke:none;fill-rule:nonzero;fill:rgb(38.431373%,36.470588%,16.470588%);fill-opacity:1;" d="M 1794.882813 250 C 1794.882813 269.265625 1779.265625 284.882813 1760 284.882813 C 1740.734375 284.882813 1725.117188 269.265625 1725.117188 250 C 1725.117188 230.734375 1740.734375 215.117188 1760 215.117188 C 1779.265625 215.117188 1794.882813 230.734375 1794.882813 250 "/>
<path style=" stroke:none;fill-rule:nonzero;fill:rgb(53.72549%,49.411765%,38.823529%);fill-opacity:1;" d="M 1954.015625 250 C 1954.015625 268.785156 1938.785156 284.015625 1920 284.015625 C 1901.214844 284.015625 1885.984375 268.785156 1885.984375 250 C 1885.984375 231.214844 1901.214844 215.984375 1920 215.984375 C 1938.785156 215.984375 1954.015625 231.214844 1954.015625 250 "/>
<path style=" stroke:none;fill-rule:nonzero;fill:rgb(25.490196%,25.098039%,10.196078%);fill-opacity:1;" d="M 2117.378906 250 C 2117.378906 270.644531 2100.644531 287.378906 2080 287.378906 C 2059.355469 287.378906 2042.621094 270.644531 2042.621094 250 C 2042.621094 229.355469 2059.355469 212.621094 2080 212.621094 C 2100.644531 212.621094 2117.378906 229.355469 2117.378906 250 "/>
<path style=" stroke:none;fill-rule:nonzero;fill:rgb(78.823529%,73.333333%,59.607843%);fill-opacity:1;" d="M 2282.324219 250 C 2282.324219 273.375 2263.375 292.324219 2240 292.324219 C 2216.625 292.324219 2197.675781 273.375 2197.675781 250 C 2197.675781 226.625 2216.625 207.675781 2240 207.675781 C 2263.375 207.675781 2282.324219 226.625 2282.324219 250 "/>
<path style=" stroke:none;fill-rule:nonzero;fill:rgb(38.431373%,36.470588%,16.470588%);fill-opacity:1;" d="M 2436.578125 250 C 2436.578125 270.203125 2420.203125 286.578125 2400 286.578125 C 2379.796875 286.578125 2363.421875 270.203125 2363.421875 250 C 2363.421875 229.796875 2379.796875 213.421875 2400 213.421875 C 2420.203125 213.421875 2436.578125 229.796875 2436.578125 250 "/>
<path style=" stroke:none;fill-rule:nonzero;fill:rgb(38.431373%,36.470588%,16.470588%);fill-opacity:1;" d="M 199.523438 375 C 199.523438 396.828125 181.828125 414.523438 160 414.523438 C 138.171875 414.523438 120.476563 396.828125 120.476563 375 C 120.476563 353.171875 138.171875 335.476563 160 335.476563 C 181.828125 335.476563 199.523438 353.171875 199.523438 375 "/>
<path style=" stroke:none;fill-rule:nonzero;fill:rgb(25.490196%,25.098039%,10.196078%);fill-opacity:1;" d="M 361.234375 375 C 361.234375 397.773438 342.773438 416.234375 320 416.234375 C 297.226563 416.234375 278.765625 397.773438 278.765625 375 C 278.765625 352.226563 297.226563 333.765625 320 333.765625 C 342.773438 333.765625 361.234375 352.226563 361.234375 375 "/>
<path style=" stroke:none;fill-rule:nonzero;fill:rgb(53.72549%,49.411765%,38.823529%);fill-opacity:1;" d="M 516.003906 375 C 516.003906 394.882813 499.882813 411.003906 480 411.003906 C 460.117188 411.003906 443.996094 394.882813 443.996094 375 C 443.996094 355.117188 460.117188 338.996094 480 338.996094 C 499.882813 338.996094 516.003906 355.117188 516.003906 375 "/>
<path style=" stroke:none;fill-rule:nonzero;fill:rgb(25.490196%,25.098039%,10.196078%);fill-opacity:1;" d="M 679.78125 375 C 679.78125 396.96875 661.96875 414.78125 640 414.78125 C 618.03125 414.78125 600.21875 396.96875 600.21875 375 C 600.21875 353.03125 618.03125 335.21875 640 335.21875 C 661.96875 335.21875 679.78125 353.03125 679.78125 375 "/>
<path style=" stroke:none;fill-rule:nonzero;fill:rgb(38.431373%,36.470588%,16.470588%);fill-opacity:1;" d="M 837.171875 375 C 837.171875 395.527344 820.527344 412.171875 800 412.171875 C 779.472656 412.171875 762.828125 395.527344 762.828125 375 C 762.828125 354.472656 779.472656 337.828125 800 337.828125 C 820.527344 337.828125 837.171875 354.472656 837.171875 375 "/>
<path style=" stroke:none;fill-rule:nonzero;fill:rgb(56.470588%,50.588235%,18.039216%);fill-opacity:1;" d="M 998.242188 375 C 998.242188 396.121094 981.121094 413.242188 960 413.242188 C 938.878906 413.242188 921.757813 396.121094 921.757813 375 C 921.757813 353.878906 938.878906 336.757813 960 336.757813 C 981.121094 336.757813 998.242188 353.878906 998.242188 375 "/>
<path style=" stroke:none;fill-rule:nonzero;fill:rgb(25.490196%,25.098039%,10.196078%);fill-opacity:1;" d="M 1162.453125 375 C 1162.453125 398.445313 1143.445313 417.453125 1120 417.453125 C 1096.554688 417.453125 1077.546875 398.445313 1077.546875 375 C 1077.546875 351.554688 1096.554688 332.546875 1120 332.546875 C 1143.445313 332.546875 1162.453125 351.554688 1162.453125 375 "/>
<path style=" stroke:none;fill-rule:nonzero;fill:rgb(85.882353%,87.45098%,89.411765%);fill-opacity:1;" d="M 1324.558594 375 C 1324.558594 399.609375 1304.609375 419.558594 1280 419.558594 C 1255.390625 419.558594 1235.441406 399.609375 1235.441406 375 C 1235.441406 350.390625 1255.390625 330.441406 1280 330.441406 C 1304.609375 330.441406 1324.558594 350.390625 1324.558594 375 "/>
<path style=" stroke:none;fill-rule:nonzero;fill:rgb(73.333333%,67.058824%,32.156863%);fill-opacity:1;" d="M 1478.628906 375 C 1478.628906 396.332031 1461.332031 413.628906 1440 413.628906 C 1418.667969 413.628906 1401.371094 396.332031 1401.371094 375 C 1401.371094 353.667969 1418.667969 336.371094 1440 336.371094 C 1461.332031 336.371094 1478.628906 353.667969 1478.628906 375 "/>
<path style=" stroke:none;fill-rule:nonzero;fill:rgb(25.490196%,25.098039%,10.196078%);fill-opacity:1;" d="M 1635.878906 375 C 1635.878906 394.8125 1619.8125 410.878906 1600 410.878906 C 1580.1875 410.878906 1564.121094 394.8125 1564.121094 375 C 1564.121094 355.1875 1580.1875 339.121094 1600 339.121094 C 1619.8125 339.121094 1635.878906 355.1875 1635.878906 375 "/>
<path style=" stroke:none;fill-rule:nonzero;fill:rgb(56.470588%,50.588235%,18.039216%);fill-opacity:1;" d="M 1796.398438 375 C 1796.398438 395.101563 1780.101563 411.398438 1760 411.398438 C 1739.898438 411.398438 1723.601563 395.101563 1723.601563 375 C 1723.601563 354.898438 1739.898438 338.601563 1760 338.601563 C 1780.101563 338.601563 1796.398438 354.898438 1796.398438 375 "/>
<path style=" stroke:none;fill-rule:nonzero;fill:rgb(73.333333%,67.058824%,32.156863%);fill-opacity:1;" d="M 1959.128906 375 C 1959.128906 396.609375 1941.609375 414.128906 1920 414.128906 C 1898.390625 414.128906 1880.871094 396.609375 1880.871094 375 C 1880.871094 353.390625 1898.390625 335.871094 1920 335.871094 C 1941.609375 335.871094 1959.128906 353.390625 1959.128906 375 "/>
<path style=" stroke:none;fill-rule:nonzero;fill:rgb(85.882353%,87.45098%,89.411765%);fill-opacity:1;" d="M 2120.703125 375 C 2120.703125 397.480469 2102.480469 415.703125 2080 415.703125 C 2057.519531 415.703125 2039.296875 397.480469 2039.296875 375 C 2039.296875 352.519531 2057.519531 334.296875 2080 334.296875 C 2102.480469 334.296875 2120.703125 352.519531 2120.703125 375 "/>
<path style=" stroke:none;fill-rule:nonzero;fill:rgb(25.490196%,25.098039%,10.196078%);fill-opacity:1;" d="M 2281.671875 375 C 2281.671875 398.015625 2263.015625 416.671875 2240 416.671875 C 2216.984375 416.671875 2198.328125 398.015625 2198.328125 375 C 2198.328125 351.984375 2216.984375 333.328125 2240 333.328125 C 2263.015625 333.328125 2281.671875 351.984375 2281.671875 375 "/>
<path style=" stroke:none;fill-rule:nonzero;fill:rgb(56.470588%,50.588235%,18.039216%);fill-opacity:1;" d="M 2442.710938 375 C 2442.710938 398.589844 2423.589844 417.710938 2400 417.710938 C 2376.410156 417.710938 2357.289063 398.589844 2357.289063 375 C 2357.289063 351.410156 2376.410156 332.289063 2400 332.289063 C 2423.589844 332.289063 2442.710938 351.410156 2442.710938 375 "/>
<path style=" stroke:none;fill-rule:nonzero;fill:rgb(38.431373%,36.470588%,16.470588%);fill-opacity:1;" d="M 198.382813 500 C 198.382813 521.199219 181.199219 538.382813 160 538.382813 C 138.800781 538.382813 121.617188 521.199219 121.617188 500 C 121.617188 478.800781 138.800781 461.617188 160 461.617188 C 181.199219 461.617188 198.382813 478.800781 198.382813 500 "/>
<path style=" stroke:none;fill-rule:nonzero;fill:rgb(73.333333%,67.058824%,32.156863%);fill-opacity:1;" d="M 361.992188 500 C 361.992188 523.191406 343.191406 541.992188 320 541.992188 C 296.808594 541.992188 278.007813 523.191406 278.007813 500 C 278.007813 476.808594 296.808594 458.007813 320 458.007813 C 343.191406 458.007813 361.992188 476.808594 361.992188 500 "/>
<path style=" stroke:none;fill-rule:nonzero;fill:rgb(25.490196%,25.098039%,10.196078%);fill-opacity:1;" d="M 520.703125 500 C 520.703125 522.480469 502.480469 540.703125 480 540.703125 C 457.519531 540.703125 439.296875 522.480469 439.296875 500 C 439.296875 477.519531 457.519531 459.296875 480 459.296875 C 502.480469 459.296875 520.703125 477.519531 520.703125 500 "/>
<path style=" stroke:none;fill-rule:nonzero;fill:rgb(56.470588%,50.588235%,18.039216%);fill-opacity:1;" d="M 678.359375 500 C 678.359375 521.183594 661.183594 538.359375 640 538.359375 C 618.816406 538.359375 601.640625 521.183594 601.640625 500 C 601.640625 478.816406 618.816406 461.640625 640 461.640625 C 661.183594 461.640625 678.359375 478.816406 678.359375 500 "/>
<path style=" stroke:none;fill-rule:nonzero;fill:rgb(25.490196%,25.098039%,10.196078%);fill-opacity:1;" d="M 836.367188 500 C 836.367188 520.085938 820.085938 536.367188 800 536.367188 C 779.914063 536.367188 763.632813 520.085938 763.632813 500 C 763.632813 479.914063 779.914063 463.632813 800 463.632813 C 820.085938 463.632813 836.367188 479.914063 836.367188 500 "/>
<path style=" stroke:none;fill-rule:nonzero;fill:rgb(85.882353%,87.45098%,89.411765%);fill-opacity:1;" d="M 1002.957031 500 C 1002.957031 523.726563 983.726563 542.957031 960 542.957031 C 936.273438 542.957031 917.042969 523.726563 917.042969 500 C 917.042969 476.273438 936.273438 457.042969 960 457.042969 C 983.726563 457.042969 1002.957031 476.273438 1002.957031 500 "/>
<path style=" stroke:none;fill-rule:nonzero;fill:rgb(56.470588%,50.588235%,18.039216%);fill-opacity:1;" d="M 1159.546875 500 C 1159.546875 521.839844 1141.839844 539.546875 1120 539.546875 C 1098.160156 539.546875 1080.453125 521.839844 1080.453125 500 C 1080.453125 478.160156 1098.160156 460.453125 1120 460.453125 C 1141.839844 460.453125 1159.546875 478.160156 1159.546875 500 "/>
<path style=" stroke:none;fill-rule:nonzero;fill:rgb(25.490196%,25.098039%,10.196078%);fill-opacity:1;" d="M 1319.382813 500 C 1319.382813 521.75 1301.75 539.382813 1280 539.382813 C 1258.25 539.382813 1240.617188 521.75 1240.617188 500 C 1240.617188 478.25 1258.25 460.617188 1280 460.617188 C 1301.75 460.617188 1319.382813 478.25 1319.382813 500 "/>
<path style=" stroke:none;fill-rule:nonzero;fill:rgb(85.882353%,87.45098%,89.411765%);fill-opacity:1;" d="M 1475.902344 500 C 1475.902344 519.828125 1459.828125 535.902344 1440 535.902344 C 1420.171875 535.902344 1404.097656 519.828125 1404.097656 500 C 1404.097656 480.171875 1420.171875 464.097656 1440 464.097656 C 1459.828125 464.097656 1475.902344 480.171875 1475.902344 500 "/>
<path style=" stroke:none;fill-rule:nonzero;fill:rgb(56.470588%,50.588235%,18.039216%);fill-opacity:1;" d="M 1636.765625 500 C 1636.765625 520.304688 1620.304688 536.765625 1600 536.765625 C 1579.695313 536.765625 1563.234375 520.304688 1563.234375 500 C 1563.234375 479.695313 1579.695313 463.234375 1600 463.234375 C 1620.304688 463.234375 1636.765625 479.695313 1636.765625 500 "/>
<path style=" stroke:none;fill-rule:nonzero;fill:rgb(25.490196%,25.098039%,10.196078%);fill-opacity:1;" d="M 1800.171875 500 C 1800.171875 522.1875 1782.1875 540.171875 1760 540.171875 C 1737.8125 540.171875 1719.828125 522.1875 1719.828125 500 C 1719.828125 477.8125 1737.8125 459.828125 1760 459.828125 C 1782.1875 459.828125 1800.171875 477.8125 1800.171875 500 "/>
<path style=" stroke:none;fill-rule:nonzero;fill:rgb(85.882353%,87.45098%,89.411765%);fill-opacity:1;" d="M 1961.410156 500 C 1961.410156 522.871094 1942.871094 541.410156 1920 541.410156 C 1897.128906 541.410156 1878.589844 522.871094 1878.589844 500 C 1878.589844 477.128906 1897.128906 458.589844 1920 458.589844 C 1942.871094 458.589844 1961.410156 477.128906 1961.410156 500 "/>
<path style=" stroke:none;fill-rule:nonzero;fill:rgb(25.490196%,25.098039%,10.196078%);fill-opacity:1;" d="M 2123.402344 500 C 2123.402344 523.972656 2103.972656 543.402344 2080 543.402344 C 2056.027344 543.402344 2036.597656 523.972656 2036.597656 500 C 2036.597656 476.027344 2056.027344 456.597656 2080 456.597656 C 2103.972656 456.597656 2123.402344 476.027344 2123.402344 500 "/>
<path style=" stroke:none;fill-rule:nonzero;fill:rgb(73.333333%,67.058824%,32.156863%);fill-opacity:1;" d="M 2282.753906 500 C 2282.753906 523.613281 2263.613281 542.753906 2240 542.753906 C 2216.386719 542.753906 2197.246094 523.613281 2197.246094 500 C 2197.246094 476.386719 2216.386719 457.246094 2240 457.246094 C 2263.613281 457.246094 2282.753906 476.386719 2282.753906 500 "/>
<path style=" stroke:none;fill-rule:nonzero;fill:rgb(25.490196%,25.098039%,10.196078%);fill-opacity:1;" d="M 2442.269531 500 C 2442.269531 523.34375 2423.34375 542.269531 2400 542.269531 C 2376.65625 542.269531 2357.730469 523.34375 2357.730469 500 C 2357.730469 476.65625 2376.65625 457.730469 2400 457.730469 C 2423.34375 457.730469 2442.269531 476.65625 2442.269531 500 "/>
<path style=" stroke:none;fill-rule:nonzero;fill:rgb(25.490196%,25.098039%,10.196078%);fill-opacity:1;" d="M 200.066406 625 C 200.066406 647.128906 182.128906 665.066406 160 665.066406 C 137.871094 665.066406 119.933594 647.128906 119.933594 625 C 119.933594 602.871094 137.871094 584.933594 160 584.933594 C 182.128906 584.933594 200.066406 602.871094 200.066406 625 "/>
<path style=" stroke:none;fill-rule:nonzero;fill:rgb(38.431373%,36.470588%,16.470588%);fill-opacity:1;" d="M 358.023438 625 C 358.023438 646 341 663.023438 320 663.023438 C 299 663.023438 281.976563 646 281.976563 625 C 281.976563 604 299 586.976563 320 586.976563 C 341 586.976563 358.023438 604 358.023438 625 "/>
<path style=" stroke:none;fill-rule:nonzero;fill:rgb(25.490196%,25.098039%,10.196078%);fill-opacity:1;" d="M 521.628906 625 C 521.628906 647.992188 502.992188 666.628906 480 666.628906 C 457.007813 666.628906 438.371094 647.992188 438.371094 625 C 438.371094 602.007813 457.007813 583.371094 480 583.371094 C 502.992188 583.371094 521.628906 602.007813 521.628906 625 "/>
<path style=" stroke:none;fill-rule:nonzero;fill:rgb(85.882353%,87.45098%,89.411765%);fill-opacity:1;" d="M 676.15625 625 C 676.15625 644.96875 659.96875 661.15625 640 661.15625 C 620.03125 661.15625 603.84375 644.96875 603.84375 625 C 603.84375 605.03125 620.03125 588.84375 640 588.84375 C 659.96875 588.84375 676.15625 605.03125 676.15625 625 "/>
<path style=" stroke:none;fill-rule:nonzero;fill:rgb(25.490196%,25.098039%,10.196078%);fill-opacity:1;" d="M 837.558594 625 C 837.558594 645.742188 820.742188 662.558594 800 662.558594 C 779.257813 662.558594 762.441406 645.742188 762.441406 625 C 762.441406 604.257813 779.257813 587.441406 800 587.441406 C 820.742188 587.441406 837.558594 604.257813 837.558594 625 "/>
<path style=" stroke:none;fill-rule:nonzero;fill:rgb(25.490196%,25.098039%,10.196078%);fill-opacity:1;" d="M 995.652344 625 C 995.652344 644.691406 979.691406 660.652344 960 660.652344 C 940.308594 660.652344 924.347656 644.691406 924.347656 625 C 924.347656 605.308594 940.308594 589.347656 960 589.347656 C 979.691406 589.347656 995.652344 605.308594 995.652344 625 "/>
<path style=" stroke:none;fill-rule:nonzero;fill:rgb(85.882353%,87.45098%,89.411765%);fill-opacity:1;" d="M 1165.246094 625 C 1165.246094 649.988281 1144.988281 670.246094 1120 670.246094 C 1095.011719 670.246094 1074.753906 649.988281 1074.753906 625 C 1074.753906 600.011719 1095.011719 579.753906 1120 579.753906 C 1144.988281 579.753906 1165.246094 600.011719 1165.246094 625 "/>
<path style=" stroke:none;fill-rule:nonzero;fill:rgb(25.490196%,25.098039%,10.196078%);fill-opacity:1;" d="M 1322.632813 625 C 1322.632813 648.546875 1303.546875 667.632813 1280 667.632813 C 1256.453125 667.632813 1237.367188 648.546875 1237.367188 625 C 1237.367188 601.453125 1256.453125 582.367188 1280 582.367188 C 1303.546875 582.367188 1322.632813 601.453125 1322.632813 625 "/>
<path style=" stroke:none;fill-rule:nonzero;fill:rgb(25.490196%,25.098039%,10.196078%);fill-opacity:1;" d="M 1483.121094 625 C 1483.121094 648.816406 1463.816406 668.121094 1440 668.121094 C 1416.183594 668.121094 1396.878906 648.816406 1396.878906 625 C 1396.878906 601.183594 1416.183594 581.878906 1440 581.878906 C 1463.816406 581.878906 1483.121094 601.183594 1483.121094 625 "/>
<path style=" stroke:none;fill-rule:nonzero;fill:rgb(73.333333%,67.058824%,32.156863%);fill-opacity:1;" d="M 1639.855469 625 C 1639.855469 647.011719 1622.011719 664.855469 1600 664.855469 C 1577.988281 664.855469 1560.144531 647.011719 1560.144531 625 C 1560.144531 602.988281 1577.988281 585.144531 1600 585.144531 C 1622.011719 585.144531 1639.855469 602.988281 1639.855469 625 "/>
<path style=" stroke:none;fill-rule:nonzero;fill:rgb(85.882353%,87.45098%,89.411765%);fill-opacity:1;" d="M 1802.402344 625 C 1802.402344 648.417969 1783.417969 667.402344 1760 667.402344 C 1736.582031 667.402344 1717.597656 648.417969 1717.597656 625 C 1717.597656 601.582031 1736.582031 582.597656 1760 582.597656 C 1783.417969 582.597656 1802.402344 601.582031 1802.402344 625 "/>
<path style=" stroke:none;fill-rule:nonzero;fill:rgb(73.333333%,67.058824%,32.156863%);fill-opacity:1;" d="M 1964.441406 625 C 1964.441406 649.546875 1944.546875 669.441406 1920 669.441406 C 1895.453125 669.441406 1875.558594 649.546875 1875.558594 625 C 1875.558594 600.453125 1895.453125 580.558594 1920 580.558594 C 1944.546875 580.558594 1964.441406 600.453125 1964.441406 625 "/>
<path style=" stroke:none;fill-rule:nonzero;fill:rgb(25.490196%,25.098039%,10.196078%);fill-opacity:1;" d="M 2119.765625 625 C 2119.765625 646.964844 2101.964844 664.765625 2080 664.765625 C 2058.035156 664.765625 2040.234375 646.964844 2040.234375 625 C 2040.234375 603.035156 2058.035156 585.234375 2080 585.234375 C 2101.964844 585.234375 2119.765625 603.035156 2119.765625 625 "/>
<path style=" stroke:none;fill-rule:nonzero;fill:rgb(85.882353%,87.45098%,89.411765%);fill-opacity:1;" d="M 2282.300781 625 C 2282.300781 648.359375 2263.359375 667.300781 2240 667.300781 C 2216.640625 667.300781 2197.699219 648.359375 2197.699219 625 C 2197.699219 601.640625 2216.640625 582.699219 2240 582.699219 C 2263.359375 582.699219 2282.300781 601.640625 2282.300781 625 "/>
<path style=" stroke:none;fill-rule:nonzero;fill:rgb(38.431373%,36.470588%,16.470588%);fill-opacity:1;" d="M 2444.816406 625 C 2444.816406 649.753906 2424.753906 669.816406 2400 669.816406 C 2375.246094 669.816406 2355.183594 649.753906 2355.183594 625 C 2355.183594 600.246094 2375.246094 580.183594 2400 580.183594 C 2424.753906 580.183594 2444.816406 600.246094 2444.816406 625 "/>
</g>
</svg>
