<?xml version="1.0" encoding="UTF-8"?>
<svg xmlns="http://www.w3.org/2000/svg" xmlns:xlink="http://www.w3.org/1999/xlink" width="2560pt" height="192pt" viewBox="0 0 2560 192" version="1.1">
<g id="surface1">
<rect x="0" y="0" width="2560" height="192" style="fill:rgb(98.039216%,98.039216%,98.039216%);fill-opacity:1;stroke:none;"/>
<path style=" stroke:none;fill-rule:nonzero;fill:rgb(25.490196%,25.098039%,10.196078%);fill-opacity:1;" d="M 208.5 96 C 208.5 122.785156 186.785156 144.5 160 144.5 C 133.214844 144.5 111.5 122.785156 111.5 96 C 111.5 69.214844 133.214844 47.5 160 47.5 C 186.785156 47.5 208.5 69.214844 208.5 96 "/>
<path style=" stroke:none;fill-rule:nonzero;fill:rgb(85.882353%,87.45098%,89.411765%);fill-opacity:1;" d="M 372.523438 96 C 372.523438 125.007813 349.007813 148.523438 320 148.523438 C 290.992188 148.523438 267.476563 125.007813 267.476563 96 C 267.476563 66.992188 290.992188 43.476563 320 43.476563 C 349.007813 43.476563 372.523438 66.992188 372.523438 96 L 540.503906 96 C 540.503906 129.414063 513.414063 156.503906 480 156.503906 C 446.585938 156.503906 419.496094 129.414063 419.496094 96 C 419.496094 62.585938 446.585938 35.496094 480 35.496094 C 513.414063 35.496094 540.503906 62.585938 540.503906 96 "/>
<path style=" stroke:none;fill-rule:nonzero;fill:rgb(73.333333%,67.058824%,32.156863%);fill-opacity:1;" d="M 692.785156 96 C 692.785156 125.152344 669.152344 148.785156 640 148.785156 C 610.847656 148.785156 587.214844 125.152344 587.214844 96 C 587.214844 66.847656 610.847656 43.214844 640 43.214844 C 669.152344 43.214844 692.785156 66.847656 692.785156 96 "/>
<path style=" stroke:none;fill-rule:nonzero;fill:rgb(38.431373%,36.470588%,16.470588%);fill-opacity:1;" d="M 856.859375 96 C 856.859375 127.402344 831.402344 152.859375 800 152.859375 C 768.597656 152.859375 743.140625 127.402344 743.140625 96 C 743.140625 64.597656 768.597656 39.140625 800 39.140625 C 831.402344 39.140625 856.859375 64.597656 856.859375 96 L 1016.203125 96 C 1016.203125 127.039063 991.039063 152.203125 960 152.203125 C 928.960938 152.203125 903.796875 127.039063 903.796875 96 C 903.796875 64.960938 928.960938 39.796875 960 39.796875 C 991.039063 39.796875 1016.203125 64.960938 1016.203125 96 "/>
<path style=" stroke:none;fill-rule:nonzero;fill:rgb(85.882353%,87.45098%,89.411765%);fill-opacity:1;" d="M 1175.605469 96 C 1175.605469 126.710938 1150.710938 151.605469 1120 151.605469 C 1089.289063 151.605469 1064.394531 126.710938 1064.394531 96 C 1064.394531 65.289063 1089.289063 40.394531 1120 40.394531 C 1150.710938 40.394531 1175.605469 65.289063 1175.605469 96 L 1339.195313 96 C 1339.195313 128.695313 1312.695313 155.195313 1280 155.195313 C 1247.304688 155.195313 1220.804688 128.695313 1220.804688 96 C 1220.804688 63.304688 1247.304688 36.804688 1280 36.804688 C 1312.695313 36.804688 1339.195313 63.304688 1339.195313 96 "/>
<path style=" stroke:none;fill-rule:nonzero;fill:rgb(56.470588%,50.588235%,18.039216%);fill-opacity:1;" d="M 1498.585938 96 C 1498.585938 128.355469 1472.355469 154.585938 1440 154.585938 C 1407.644531 154.585938 1381.414063 128.355469 1381.414063 96 C 1381.414063 63.644531 1407.644531 37.414063 1440 37.414063 C 1472.355469 37.414063 1498.585938 63.644531 1498.585938 96 "/>
<path style=" stroke:none;fill-rule:nonzero;fill:rgb(25.490196%,25.098039%,10.196078%);fill-opacity:1;" d="M 1659.726563 96 C 1659.726563 128.984375 1632.984375 155.726563 1600 155.726563 C 1567.015625 155.726563 1540.273438 128.984375 1540.273438 96 C 1540.273438 63.015625 1567.015625 36.273438 1600 36.273438 C 1632.984375 36.273438 1659.726563 63.015625 1659.726563 96 L 1817.972656 96 C 1817.972656 128.015625 1792.015625 153.972656 1760 153.972656 C 1727.984375 153.972656 1702.027344 128.015625 1702.027344 96 C 1702.027344 63.984375 1727.984375 38.027344 1760 38.027344 C 1792.015625 38.027344 1817.972656 63.984375 1817.972656 96 "/>
<path style=" stroke:none;fill-rule:nonzero;fill:rgb(73.333333%,67.058824%,32.156863%);fill-opacity:1;" d="M 1974.628906 96 C 1974.628906 126.171875 1950.171875 150.628906 1920 150.628906 C 1889.828125 150.628906 1865.371094 126.171875 1865.371094 96 C 1865.371094 65.828125 1889.828125 41.371094 1920 41.371094 C 1950.171875 41.371094 1974.628906 65.828125 1974.628906 96 "/>
<path style=" stroke:none;fill-rule:nonzero;fill:rgb(38.431373%,36.470588%,16.470588%);fill-opacity:1;" d="M 2136.359375 96 C 2136.359375 127.128906 2111.128906 152.359375 2080 152.359375 C 2048.871094 152.359375 2023.640625 127.128906 2023.640625 96 C 2023.640625 64.871094 2048.871094 39.640625 2080 39.640625 C 2111.128906 39.640625 2136.359375 64.871094 2136.359375 96 "/>
<path style=" stroke:none;fill-rule:nonzero;fill:rgb(53.72549%,49.411765%,38.823529%);fill-opacity:1;" d="M 2297.464844 96 C 2297.464844 127.738281 2271.738281 153.464844 2240 153.464844 C 2208.261719 153.464844 2182.535156 127.738281 2182.535156 96 C 2182.535156 64.261719 2208.261719 38.535156 2240 38.535156 C 2271.738281 38.535156 2297.464844 64.261719 2297.464844 96 L 2451.238281 96 C 2451.238281 124.296875 2428.296875 147.238281 2400 147.238281 C 2371.703125 147.238281 2348.761719 124.296875 2348.761719 96 C 2348.761719 67.703125 2371.703125 44.761719 2400 44.761719 C 2428.296875 44.761719 2451.238281 67.703125 2451.238281 96 "/>
</g>
</svg>
