<?xml version="1.0" encoding="UTF-8"?>
<svg xmlns="http://www.w3.org/2000/svg" xmlns:xlink="http://www.w3.org/1999/xlink" width="2560pt" height="1280pt" viewBox="0 0 2560 1280" version="1.1">
<g id="surface1">
<path style=" stroke:none;fill-rule:nonzero;fill:rgb(98.823529%,98.823529%,98.823529%);fill-opacity:1;" d="M 0 0 L 2560 0 L 2560 750 L 0 750 Z M 0 0 "/>
<path style=" stroke:none;fill-rule:nonzero;fill:rgb(25.490196%,25.098039%,10.196078%);fill-opacity:1;" d="M 208.320313 125 C 208.320313 151.6875 186.6875 173.320313 160 173.320313 C 133.3125 173.320313 111.679688 151.6875 111.679688 125 C 111.679688 98.3125 133.3125 76.679688 160 76.679688 C 186.6875 76.679688 208.320313 98.3125 208.320313 125 "/>
<path style=" stroke:none;fill-rule:nonzero;fill:rgb(78.823529%,73.333333%,59.607843%);fill-opacity:1;" d="M 362.460938 125 C 362.460938 148.449219 343.449219 167.460938 320 167.460938 C 296.550781 167.460938 277.539063 148.449219 277.539063 125 C 277.539063 101.550781 296.550781 82.539063 320 82.539063 C 343.449219 82.539063 362.460938 101.550781 362.460938 125 "/>
<path style=" stroke:none;fill-rule:nonzero;fill:rgb(73.333333%,67.058824%,32.156863%);fill-opacity:1;" d="M 519.261719 125 C 519.261719 146.683594 501.683594 164.261719 480 164.261719 C 458.316406 164.261719 440.738281 146.683594 440.738281 125 C 440.738281 103.316406 458.316406 85.738281 480 85.738281 C 501.683594 85.738281 519.261719 103.316406 519.261719 125 "/>
<path style=" stroke:none;fill-rule:nonzero;fill:rgb(25.490196%,25.098039%,10.196078%);fill-opacity:1;" d="M 685.4375 125 C 685.4375 150.09375 665.09375 170.4375 640 170.4375 C 614.90625 170.4375 594.5625 150.09375 594.5625 125 C 594.5625 99.90625 614.90625 79.5625 640 79.5625 C 665.09375 79.5625 685.4375 99.90625 685.4375 125 "/>
<path style=" stroke:none;fill-rule:nonzero;fill:rgb(56.470588%,50.588235%,18.039216%);fill-opacity:1;" d="M 847.566406 125 C 847.566406 151.269531 826.269531 172.566406 800 172.566406 C 773.730469 172.566406 752.433594 151.269531 752.433594 125 C 752.433594 98.730469 773.730469 77.433594 800 77.433594 C 826.269531 77.433594 847.566406 98.730469 847.566406 125 "/>
<path style=" stroke:none;fill-rule:nonzero;fill:rgb(25.490196%,25.098039%,10.196078%);fill-opacity:1;" d="M 995.097656 125 C 995.097656 144.386719 979.386719 160.097656 960 160.097656 C 940.613281 160.097656 924.902344 144.386719 924.902344 125 C 924.902344 105.613281 940.613281 89.902344 960 89.902344 C 979.386719 89.902344 995.097656 105.613281 995.097656 125 "/>
<path style=" stroke:none;fill-rule:nonzero;fill:rgb(38.431373%,36.470588%,16.470588%);fill-opacity:1;" d="M 1157.929688 125 C 1157.929688 145.949219 1140.949219 162.929688 1120 162.929688 C 1099.050781 162.929688 1082.070313 145.949219 1082.070313 125 C 1082.070313 104.050781 1099.050781 87.070313 1120 87.070313 C 1140.949219 87.070313 1157.929688 104.050781 1157.929688 125 "/>
<path style=" stroke:none;fill-rule:nonzero;fill:rgb(25.490196%,25.098039%,10.196078%);fill-opacity:1;" d="M 1313.140625 125 C 1313.140625 143.304688 1298.304688 158.140625 1280 158.140625 C 1261.695313 158.140625 1246.859375 143.304688 1246.859375 125 C 1246.859375 106.695313 1261.695313 91.859375 1280 91.859375 C 1298.304688 91.859375 1313.140625 106.695313 1313.140625 125 "/>
<path style=" stroke:none;fill-rule:nonzero;fill:rgb(85.882353%,87.45098%,89.411765%);fill-opacity:1;" d="M 1481.121094 125 C 1481.121094 147.710938 1462.710938 166.121094 1440 166.121094 C 1417.289063 166.121094 1398.878906 147.710938 1398.878906 125 C 1398.878906 102.289063 1417.289063 83.878906 1440 83.878906 C 1462.710938 83.878906 1481.121094 102.289063 1481.121094 125 "/>
<path style=" stroke:none;fill-rule:nonzero;fill:rgb(25.490196%,25.098039%,10.196078%);fill-opacity:1;" d="M 1632.5 125 C 1632.5 142.949219 1617.949219 157.5 1600 157.5 C 1582.050781 157.5 1567.5 142.949219 1567.5 125 C 1567.5 107.050781 1582.050781 92.5 1600 92.5 C 1617.949219 92.5 1632.5 107.050781 1632.5 125 "/>
<path style=" stroke:none;fill-rule:nonzero;fill:rgb(53.72549%,49.411765%,38.823529%);fill-opacity:1;" d="M 1791.972656 125 C 1791.972656 142.65625 1777.65625 156.972656 1760 156.972656 C 1742.34375 156.972656 1728.027344 142.65625 1728.027344 125 C 1728.027344 107.34375 1742.34375 93.027344 1760 93.027344 C 1777.65625 93.027344 1791.972656 107.34375 1791.972656 125 "/>
<path style=" stroke:none;fill-rule:nonzero;fill:rgb(53.72549%,49.411765%,38.823529%);fill-opacity:1;" d="M 1951.761719 125 C 1951.761719 142.542969 1937.542969 156.761719 1920 156.761719 C 1902.457031 156.761719 1888.238281 142.542969 1888.238281 125 C 1888.238281 107.457031 1902.457031 93.238281 1920 93.238281 C 1937.542969 93.238281 1951.761719 107.457031 1951.761719 125 "/>
<path style=" stroke:none;fill-rule:nonzero;fill:rgb(85.882353%,87.45098%,89.411765%);fill-opacity:1;" d="M 2118.90625 125 C 2118.90625 146.484375 2101.484375 163.90625 2080 163.90625 C 2058.515625 163.90625 2041.09375 146.484375 2041.09375 125 C 2041.09375 103.515625 2058.515625 86.09375 2080 86.09375 C 2101.484375 86.09375 2118.90625 103.515625 2118.90625 125 "/>
<path style=" stroke:none;fill-rule:nonzero;fill:rgb(85.882353%,87.45098%,89.411765%);fill-opacity:1;" d="M 2274.835938 125 C 2274.835938 144.238281 2259.238281 159.835938 2240 159.835938 C 2220.761719 159.835938 2205.164063 144.238281 2205.164063 125 C 2205.164063 105.761719 2220.761719 90.164063 2240 90.164063 C 2259.238281 90.164063 2274.835938 105.761719 2274.835938 125 "/>
<path style=" stroke:none;fill-rule:nonzero;fill:rgb(25.490196%,25.098039%,10.196078%);fill-opacity:1;" d="M 2438.296875 125 C 2438.296875 146.148438 2421.148438 163.296875 2400 163.296875 C 2378.851563 163.296875 2361.703125 146.148438 2361.703125 125 C 2361.703125 103.851563 2378.851563 86.703125 2400 86.703125 C 2421.148438 86.703125 2438.296875 103.851563 2438.296875 125 "/>
<path style=" stroke:none;fill-rule:nonzero;fill:rgb(85.882353%,87.45098%,89.411765%);fill-opacity:1;" d="M 193.925781 250 C 193.925781 268.738281 178.738281 283.925781 160 283.925781 C 141.261719 283.925781 126.074219 268.738281 126.074219 250 C 126.074219 231.261719 141.261719 216.074219 160 216.074219 C 178.738281 216.074219 193.925781 231.261719 193.925781 250 "/>
<path style=" stroke:none;fill-rule:nonzero;fill:rgb(25.490196%,25.098039%,10.196078%);fill-opacity:1;" d="M 356.707031 250 C 356.707031 270.273438 340.273438 286.707031 320 286.707031 C 299.726563 286.707031 283.292969 270.273438 283.292969 250 C 283.292969 229.726563 299.726563 213.292969 320 213.292969 C 340.273438 213.292969 356.707031 229.726563 356.707031 250 "/>
<path style=" stroke:none;fill-rule:nonzero;fill:rgb(85.882353%,87.45098%,89.411765%);fill-opacity:1;" d="M 520.5 250 C 520.5 272.367188 502.367188 290.5 480 290.5 C 457.632813 290.5 439.5 272.367188 439.5 250 C 439.5 227.632813 457.632813 209.5 480 209.5 C 502.367188 209.5 520.5 227.632813 520.5 250 "/>
<path style=" stroke:none;fill-rule:nonzero;fill:rgb(38.431373%,36.470588%,16.470588%);fill-opacity:1;" d="M 672.195313 250 C 672.195313 267.78125 657.78125 282.195313 640 282.195313 C 622.21875 282.195313 607.804688 267.78125 607.804688 250 C 607.804688 232.21875 622.21875 217.804688 640 217.804688 C 657.78125 217.804688 672.195313 232.21875 672.195313 250 "/>
<path style=" stroke:none;fill-rule:nonzero;fill:rgb(85.882353%,87.45098%,89.411765%);fill-opacity:1;" d="M 840.105469 250 C 840.105469 272.148438 822.148438 290.105469 800 290.105469 C 777.851563 290.105469 759.894531 272.148438 759.894531 250 C 759.894531 227.851563 777.851563 209.894531 800 209.894531 C 822.148438 209.894531 840.105469 227.851563 840.105469 250 "/>
<path style=" stroke:none;fill-rule:nonzero;fill:rgb(53.72549%,49.411765%,38.823529%);fill-opacity:1;" d="M 993.863281 250 C 993.863281 268.703125 978.703125 283.863281 960 283.863281 C 941.296875 283.863281 926.136719 268.703125 926.136719 250 C 926.136719 231.296875 941.296875 216.136719 960 216.136719 C 978.703125 216.136719 993.863281 231.296875 993.863281 250 "/>
<path style=" stroke:none;fill-rule:nonzero;fill:rgb(56.470588%,50.588235%,18.039216%);fill-opacity:1;" d="M 1162.464844 250 C 1162.464844 273.453125 1143.453125 292.464844 1120 292.464844 C 1096.546875 292.464844 1077.535156 273.453125 1077.535156 250 C 1077.535156 226.546875 1096.546875 207.535156 1120 207.535156 C 1143.453125 207.535156 1162.464844 226.546875 1162.464844 250 "/>
<path style=" stroke:none;fill-rule:nonzero;fill:rgb(73.333333%,67.058824%,32.156863%);fill-opacity:1;" d="M 1315.277344 250 C 1315.277344 269.480469 1299.480469 285.277344 1280 285.277344 C 1260.519531 285.277344 1244.722656 269.480469 1244.722656 250 C 1244.722656 230.519531 1260.519531 214.722656 1280 214.722656 C 1299.480469 214.722656 1315.277344 230.519531 1315.277344 250 "/>
<path style=" stroke:none;fill-rule:nonzero;fill:rgb(25.490196%,25.098039%,10.196078%);fill-opacity:1;" d="M 1490.730469 250 C 1490.730469 278.015625 1468.015625 300.730469 1440 300.730469 C 1411.984375 300.730469 1389.269531 278.015625 1389.269531 250 C 1389.269531 221.984375 1411.984375 199.269531 1440 199.269531 C 1468.015625 199.269531 1490.730469 221.984375 1490.730469 250 "/>
<path style=" stroke:none;fill-rule:nonzero;fill:rgb(25.490196%,25.098039%,10.196078%);fill-opacity:1;" d="M 1636.316406 250 C 1636.316406 270.058594 1620.058594 286.316406 1600 286.316406 C 1579.941406 286.316406 1563.683594 270.058594 1563.683594 250 C 1563.683594 229.941406 1579.941406 213.683594 1600 213.683594 C 1620.058594 213.683594 1636.316406 229.941406 1636.316406 250 "/>
<path style=" stroke:none;fill-rule:nonzero;fill:rgb(38.431373%,36.470588%,16.470588%);fill-opacity:1;" d="M 1793.492188 250 C 1793.492188 268.496094 1778.496094 283.492188 1760 283.492188 C 1741.503906 283.492188 1726.507813 268.496094 1726.507813 250 C 1726.507813 231.503906 1741.503906 216.507813 1760 216.507813 C 1778.496094 216.507813 1793.492188 231.503906 1793.492188 250 "/>
<path style=" stroke:none;fill-rule:nonzero;fill:rgb(25.490196%,25.098039%,10.196078%);fill-opacity:1;" d="M 1957.5625 250 C 1957.5625 270.746094 1940.746094 287.5625 1920 287.5625 C 1899.253906 287.5625 1882.4375 270.746094 1882.4375 250 C 1882.4375 229.253906 1899.253906 212.4375 1920 212.4375 C 1940.746094 212.4375 1957.5625 229.253906 1957.5625 250 "/>
<path style=" stroke:none;fill-rule:nonzero;fill:rgb(38.431373%,36.470588%,16.470588%);fill-opacity:1;" d="M 2127.75 250 C 2127.75 276.371094 2106.371094 297.75 2080 297.75 C 2053.628906 297.75 2032.25 276.371094 2032.25 250 C 2032.25 223.628906 2053.628906 202.25 2080 202.25 C 2106.371094 202.25 2127.75 223.628906 2127.75 250 "/>
<path style=" stroke:none;fill-rule:nonzero;fill:rgb(85.882353%,87.45098%,89.411765%);fill-opacity:1;" d="M 2273.40625 250 C 2273.40625 268.449219 2258.449219 283.40625 2240 283.40625 C 2221.550781 283.40625 2206.59375 268.449219 2206.59375 250 C 2206.59375 231.550781 2221.550781 216.59375 2240 216.59375 C 2258.449219 216.59375 2273.40625 231.550781 2273.40625 250 "/>
<path style=" stroke:none;fill-rule:nonzero;fill:rgb(25.490196%,25.098039%,10.196078%);fill-opacity:1;" d="M 2439 250 C 2439 271.539063 2421.539063 289 2400 289 C 2378.460938 289 2361 271.539063 2361 250 C 2361 228.460938 2378.460938 211 2400 211 C 2421.539063 211 2439 228.460938 2439 250 "/>
<path style=" stroke:none;fill-rule:nonzero;fill:rgb(85.882353%,87.45098%,89.411765%);fill-opacity:1;" d="M 195.566406 375 C 195.566406 394.644531 179.644531 410.566406 160 410.566406 C 140.355469 410.566406 124.433594 394.644531 124.433594 375 C 124.433594 355.355469 140.355469 339.433594 160 339.433594 C 179.644531 339.433594 195.566406 355.355469 195.566406 375 "/>
<path style=" stroke:none;fill-rule:nonzero;fill:rgb(38.431373%,36.470588%,16.470588%);fill-opacity:1;" d="M 362.574219 375 C 362.574219 398.511719 343.511719 417.574219 320 417.574219 C 296.488281 417.574219 277.425781 398.511719 277.425781 375 C 277.425781 351.488281 296.488281 332.425781 320 332.425781 C 343.511719 332.425781 362.574219 351.488281 362.574219 375 "/>
<path style=" stroke:none;fill-rule:nonzero;fill:rgb(85.882353%,87.45098%,89.411765%);fill-opacity:1;" d="M 520.859375 375 C 520.859375 397.566406 502.566406 415.859375 480 415.859375 C 457.433594 415.859375 439.140625 397.566406 439.140625 375 C 439.140625 352.433594 457.433594 334.140625 480 334.140625 C 502.566406 334.140625 520.859375 352.433594 520.859375 375 "/>
<path style=" stroke:none;fill-rule:nonzero;fill:rgb(85.882353%,87.45098%,89.411765%);fill-opacity:1;" d="M 678.675781 375 C 678.675781 396.359375 661.359375 413.675781 640 413.675781 C 618.640625 413.675781 601.324219 396.359375 601.324219 375 C 601.324219 353.640625 618.640625 336.324219 640 336.324219 C 661.359375 336.324219 678.675781 353.640625 678.675781 375 "/>
<path style=" stroke:none;fill-rule:nonzero;fill:rgb(25.490196%,25.098039%,10.196078%);fill-opacity:1;" d="M 836.105469 375 C 836.105469 394.941406 819.941406 411.105469 800 411.105469 C 780.058594 411.105469 763.894531 394.941406 763.894531 375 C 763.894531 355.058594 780.058594 338.894531 800 338.894531 C 819.941406 338.894531 836.105469 355.058594 836.105469 375 "/>
<path style=" stroke:none;fill-rule:nonzero;fill:rgb(25.490196%,25.098039%,10.196078%);fill-opacity:1;" d="M 993.53125 375 C 993.53125 393.519531 978.519531 408.53125 960 408.53125 C 941.480469 408.53125 926.46875 393.519531 926.46875 375 C 926.46875 356.480469 941.480469 341.46875 960 341.46875 C 978.519531 341.46875 993.53125 356.480469 993.53125 375 "/>
<path style=" stroke:none;fill-rule:nonzero;fill:rgb(56.470588%,50.588235%,18.039216%);fill-opacity:1;" d="M 1152.277344 375 C 1152.277344 392.824219 1137.824219 407.277344 1120 407.277344 C 1102.175781 407.277344 1087.722656 392.824219 1087.722656 375 C 1087.722656 357.175781 1102.175781 342.722656 1120 342.722656 C 1137.824219 342.722656 1152.277344 357.175781 1152.277344 375 "/>
<path style=" stroke:none;fill-rule:nonzero;fill:rgb(73.333333%,67.058824%,32.156863%);fill-opacity:1;" d="M 1319.441406 375 C 1319.441406 396.78125 1301.78125 414.441406 1280 414.441406 C 1258.21875 414.441406 1240.558594 396.78125 1240.558594 375 C 1240.558594 353.21875 1258.21875 335.558594 1280 335.558594 C 1301.78125 335.558594 1319.441406 353.21875 1319.441406 375 "/>
<path style=" stroke:none;fill-rule:nonzero;fill:rgb(73.333333%,67.058824%,32.156863%);fill-opacity:1;" d="M 1476.828125 375 C 1476.828125 395.339844 1460.339844 411.828125 1440 411.828125 C 1419.660156 411.828125 1403.171875 395.339844 1403.171875 375 C 1403.171875 354.660156 1419.660156 338.171875 1440 338.171875 C 1460.339844 338.171875 1476.828125 354.660156 1476.828125 375 "/>
<path style=" stroke:none;fill-rule:nonzero;fill:rgb(56.470588%,50.588235%,18.039216%);fill-opacity:1;" d="M 1638.179688 375 C 1638.179688 396.085938 1621.085938 413.179688 1600 413.179688 C 1578.914063 413.179688 1561.820313 396.085938 1561.820313 375 C 1561.820313 353.914063 1578.914063 336.820313 1600 336.820313 C 1621.085938 336.820313 1638.179688 353.914063 1638.179688 375 "/>
<path style=" stroke:none;fill-rule:nonzero;fill:rgb(56.470588%,50.588235%,18.039216%);fill-opacity:1;" d="M 1797.6875 375 C 1797.6875 395.816406 1780.816406 412.6875 1760 412.6875 C 1739.183594 412.6875 1722.3125 395.816406 1722.3125 375 C 1722.3125 354.183594 1739.183594 337.3125 1760 337.3125 C 1780.816406 337.3125 1797.6875 354.183594 1797.6875 375 "/>
<path style=" stroke:none;fill-rule:nonzero;fill:rgb(25.490196%,25.098039%,10.196078%);fill-opacity:1;" d="M 1957.144531 375 C 1957.144531 395.511719 1940.511719 412.144531 1920 412.144531 C 1899.488281 412.144531 1882.855469 395.511719 1882.855469 375 C 1882.855469 354.488281 1899.488281 337.855469 1920 337.855469 C 1940.511719 337.855469 1957.144531 354.488281 1957.144531 375 "/>
<path style=" stroke:none;fill-rule:nonzero;fill:rgb(25.490196%,25.098039%,10.196078%);fill-opacity:1;" d="M 2119.601563 375 C 2119.601563 396.871094 2101.871094 414.601563 2080 414.601563 C 2058.128906 414.601563 2040.398438 396.871094 2040.398438 375 C 2040.398438 353.128906 2058.128906 335.398438 2080 335.398438 C 2101.871094 335.398438 2119.601563 353.128906 2119.601563 375 "/>
<path style=" stroke:none;fill-rule:nonzero;fill:rgb(85.882353%,87.45098%,89.411765%);fill-opacity:1;" d="M 2290.152344 375 C 2290.152344 402.699219 2267.699219 425.152344 2240 425.152344 C 2212.300781 425.152344 2189.847656 402.699219 2189.847656 375 C 2189.847656 347.300781 2212.300781 324.847656 2240 324.847656 C 2267.699219 324.847656 2290.152344 347.300781 2290.152344 375 "/>
<path style=" stroke:none;fill-rule:nonzero;fill:rgb(25.490196%,25.098039%,10.196078%);fill-opacity:1;" d="M 2442.488281 375 C 2442.488281 398.464844 2423.464844 417.488281 2400 417.488281 C 2376.535156 417.488281 2357.511719 398.464844 2357.511719 375 C 2357.511719 351.535156 2376.535156 332.511719 2400 332.511719 C 2423.464844 332.511719 2442.488281 351.535156 2442.488281 375 "/>
<path style=" stroke:none;fill-rule:nonzero;fill:rgb(85.882353%,87.45098%,89.411765%);fill-opacity:1;" d="M 193.339844 500 C 193.339844 518.414063 178.414063 533.339844 160 533.339844 C 141.585938 533.339844 126.660156 518.414063 126.660156 500 C 126.660156 481.585938 141.585938 466.660156 160 466.660156 C 178.414063 466.660156 193.339844 481.585938 193.339844 500 "/>
<path style=" stroke:none;fill-rule:nonzero;fill:rgb(25.490196%,25.098039%,10.196078%);fill-opacity:1;" d="M 363.039063 500 C 363.039063 523.769531 343.769531 543.039063 320 543.039063 C 296.230469 543.039063 276.960938 523.769531 276.960938 500 C 276.960938 476.230469 296.230469 456.960938 320 456.960938 C 343.769531 456.960938 363.039063 476.230469 363.039063 500 "/>
<path style=" stroke:none;fill-rule:nonzero;fill:rgb(56.470588%,50.588235%,18.039216%);fill-opacity:1;" d="M 520.148438 500 C 520.148438 522.175781 502.175781 540.148438 480 540.148438 C 457.824219 540.148438 439.851563 522.175781 439.851563 500 C 439.851563 477.824219 457.824219 459.851563 480 459.851563 C 502.175781 459.851563 520.148438 477.824219 520.148438 500 "/>
<path style=" stroke:none;fill-rule:nonzero;fill:rgb(85.882353%,87.45098%,89.411765%);fill-opacity:1;" d="M 683.707031 500 C 683.707031 524.140625 664.140625 543.707031 640 543.707031 C 615.859375 543.707031 596.292969 524.140625 596.292969 500 C 596.292969 475.859375 615.859375 456.292969 640 456.292969 C 664.140625 456.292969 683.707031 475.859375 683.707031 500 "/>
<path style=" stroke:none;fill-rule:nonzero;fill:rgb(53.72549%,49.411765%,38.823529%);fill-opacity:1;" d="M 834.335938 500 C 834.335938 518.964844 818.964844 534.335938 800 534.335938 C 781.035156 534.335938 765.664063 518.964844 765.664063 500 C 765.664063 481.035156 781.035156 465.664063 800 465.664063 C 818.964844 465.664063 834.335938 481.035156 834.335938 500 "/>
<path style=" stroke:none;fill-rule:nonzero;fill:rgb(25.490196%,25.098039%,10.196078%);fill-opacity:1;" d="M 997.757813 500 C 997.757813 520.855469 980.855469 537.757813 960 537.757813 C 939.144531 537.757813 922.242188 520.855469 922.242188 500 C 922.242188 479.144531 939.144531 462.242188 960 462.242188 C 980.855469 462.242188 997.757813 479.144531 997.757813 500 "/>
<path style=" stroke:none;fill-rule:nonzero;fill:rgb(85.882353%,87.45098%,89.411765%);fill-opacity:1;" d="M 1149.234375 500 C 1149.234375 516.144531 1136.144531 529.234375 1120 529.234375 C 1103.855469 529.234375 1090.765625 516.144531 1090.765625 500 C 1090.765625 483.855469 1103.855469 470.765625 1120 470.765625 C 1136.144531 470.765625 1149.234375 483.855469 1149.234375 500 "/>
<path style=" stroke:none;fill-rule:nonzero;fill:rgb(25.490196%,25.098039%,10.196078%);fill-opacity:1;" d="M 1319.503906 500 C 1319.503906 521.816406 1301.816406 539.503906 1280 539.503906 C 1258.183594 539.503906 1240.496094 521.816406 1240.496094 500 C 1240.496094 478.183594 1258.183594 460.496094 1280 460.496094 C 1301.816406 460.496094 1319.503906 478.183594 1319.503906 500 "/>
<path style=" stroke:none;fill-rule:nonzero;fill:rgb(78.823529%,73.333333%,59.607843%);fill-opacity:1;" d="M 1471.226563 500 C 1471.226563 517.246094 1457.246094 531.226563 1440 531.226563 C 1422.753906 531.226563 1408.773438 517.246094 1408.773438 500 C 1408.773438 482.753906 1422.753906 468.773438 1440 468.773438 C 1457.246094 468.773438 1471.226563 482.753906 1471.226563 500 "/>
<path style=" stroke:none;fill-rule:nonzero;fill:rgb(78.823529%,73.333333%,59.607843%);fill-opacity:1;" d="M 1642.785156 500 C 1642.785156 523.628906 1623.628906 542.785156 1600 542.785156 C 1576.371094 542.785156 1557.214844 523.628906 1557.214844 500 C 1557.214844 476.371094 1576.371094 457.214844 1600 457.214844 C 1623.628906 457.214844 1642.785156 476.371094 1642.785156 500 "/>
<path style=" stroke:none;fill-rule:nonzero;fill:rgb(25.490196%,25.098039%,10.196078%);fill-opacity:1;" d="M 1802.476563 500 C 1802.476563 523.460938 1783.460938 542.476563 1760 542.476563 C 1736.539063 542.476563 1717.523438 523.460938 1717.523438 500 C 1717.523438 476.539063 1736.539063 457.523438 1760 457.523438 C 1783.460938 457.523438 1802.476563 476.539063 1802.476563 500 "/>
<path style=" stroke:none;fill-rule:nonzero;fill:rgb(25.490196%,25.098039%,10.196078%);fill-opacity:1;" d="M 1952.679688 500 C 1952.679688 518.046875 1938.046875 532.679688 1920 532.679688 C 1901.953125 532.679688 1887.320313 518.046875 1887.320313 500 C 1887.320313 481.953125 1901.953125 467.320313 1920 467.320313 C 1938.046875 467.320313 1952.679688 481.953125 1952.679688 500 "/>
<path style=" stroke:none;fill-rule:nonzero;fill:rgb(38.431373%,36.470588%,16.470588%);fill-opacity:1;" d="M 2123.140625 500 C 2123.140625 523.824219 2103.824219 543.140625 2080 543.140625 C 2056.175781 543.140625 2036.859375 523.824219 2036.859375 500 C 2036.859375 476.175781 2056.175781 456.859375 2080 456.859375 C 2103.824219 456.859375 2123.140625 476.175781 2123.140625 500 "/>
<path style=" stroke:none;fill-rule:nonzero;fill:rgb(53.72549%,49.411765%,38.823529%);fill-opacity:1;" d="M 2285.589844 500 C 2285.589844 525.179688 2265.179688 545.589844 2240 545.589844 C 2214.820313 545.589844 2194.410156 525.179688 2194.410156 500 C 2194.410156 474.820313 2214.820313 454.410156 2240 454.410156 C 2265.179688 454.410156 2285.589844 474.820313 2285.589844 500 "/>
<path style=" stroke:none;fill-rule:nonzero;fill:rgb(25.490196%,25.098039%,10.196078%);fill-opacity:1;" d="M 2445.035156 500 C 2445.035156 524.871094 2424.871094 545.035156 2400 545.035156 C 2375.128906 545.035156 2354.964844 524.871094 2354.964844 500 C 2354.964844 475.128906 2375.128906 454.964844 2400 454.964844 C 2424.871094 454.964844 2445.035156 475.128906 2445.035156 500 "/>
<path style=" stroke:none;fill-rule:nonzero;fill:rgb(85.882353%,87.45098%,89.411765%);fill-opacity:1;" d="M 198.675781 625 C 198.675781 646.359375 181.359375 663.675781 160 663.675781 C 138.640625 663.675781 121.324219 646.359375 121.324219 625 C 121.324219 603.640625 138.640625 586.324219 160 586.324219 C 181.359375 586.324219 198.675781 603.640625 198.675781 625 "/>
<path style=" stroke:none;fill-rule:nonzero;fill:rgb(25.490196%,25.098039%,10.196078%);fill-opacity:1;" d="M 357.480469 625 C 357.480469 645.699219 340.699219 662.480469 320 662.480469 C 299.300781 662.480469 282.519531 645.699219 282.519531 625 C 282.519531 604.300781 299.300781 587.519531 320 587.519531 C 340.699219 587.519531 357.480469 604.300781 357.480469 625 "/>
<path style=" stroke:none;fill-rule:nonzero;fill:rgb(85.882353%,87.45098%,89.411765%);fill-opacity:1;" d="M 513.824219 625 C 513.824219 643.679688 498.679688 658.824219 480 658.824219 C 461.320313 658.824219 446.175781 643.679688 446.175781 625 C 446.175781 606.320313 461.320313 591.175781 480 591.175781 C 498.679688 591.175781 513.824219 606.320313 513.824219 625 "/>
<path style=" stroke:none;fill-rule:nonzero;fill:rgb(38.431373%,36.470588%,16.470588%);fill-opacity:1;" d="M 680.878906 625 C 680.878906 647.578125 662.578125 665.878906 640 665.878906 C 617.421875 665.878906 599.121094 647.578125 599.121094 625 C 599.121094 602.421875 617.421875 584.121094 640 584.121094 C 662.578125 584.121094 680.878906 602.421875 680.878906 625 "/>
<path style=" stroke:none;fill-rule:nonzero;fill:rgb(85.882353%,87.45098%,89.411765%);fill-opacity:1;" d="M 833.117188 625 C 833.117188 643.289063 818.289063 658.117188 800 658.117188 C 781.710938 658.117188 766.882813 643.289063 766.882813 625 C 766.882813 606.710938 781.710938 591.882813 800 591.882813 C 818.289063 591.882813 833.117188 606.710938 833.117188 625 "/>
<path style=" stroke:none;fill-rule:nonzero;fill:rgb(38.431373%,36.470588%,16.470588%);fill-opacity:1;" d="M 1002.011719 625 C 1002.011719 648.203125 983.203125 667.011719 960 667.011719 C 936.796875 667.011719 917.988281 648.203125 917.988281 625 C 917.988281 601.796875 936.796875 582.988281 960 582.988281 C 983.203125 582.988281 1002.011719 601.796875 1002.011719 625 "/>
<path style=" stroke:none;fill-rule:nonzero;fill:rgb(38.431373%,36.470588%,16.470588%);fill-opacity:1;" d="M 1160.300781 625 C 1160.300781 647.257813 1142.257813 665.300781 1120 665.300781 C 1097.742188 665.300781 1079.699219 647.257813 1079.699219 625 C 1079.699219 602.742188 1097.742188 584.699219 1120 584.699219 C 1142.257813 584.699219 1160.300781 602.742188 1160.300781 625 "/>
<path style=" stroke:none;fill-rule:nonzero;fill:rgb(85.882353%,87.45098%,89.411765%);fill-opacity:1;" d="M 1318.914063 625 C 1318.914063 646.492188 1301.492188 663.914063 1280 663.914063 C 1258.507813 663.914063 1241.085938 646.492188 1241.085938 625 C 1241.085938 603.507813 1258.507813 586.085938 1280 586.085938 C 1301.492188 586.085938 1318.914063 603.507813 1318.914063 625 "/>
<path style=" stroke:none;fill-rule:nonzero;fill:rgb(53.72549%,49.411765%,38.823529%);fill-opacity:1;" d="M 1490.359375 625 C 1490.359375 652.8125 1467.8125 675.359375 1440 675.359375 C 1412.1875 675.359375 1389.640625 652.8125 1389.640625 625 C 1389.640625 597.1875 1412.1875 574.640625 1440 574.640625 C 1467.8125 574.640625 1490.359375 597.1875 1490.359375 625 "/>
<path style=" stroke:none;fill-rule:nonzero;fill:rgb(78.823529%,73.333333%,59.607843%);fill-opacity:1;" d="M 1639.082031 625 C 1639.082031 646.582031 1621.582031 664.082031 1600 664.082031 C 1578.417969 664.082031 1560.917969 646.582031 1560.917969 625 C 1560.917969 603.417969 1578.417969 585.917969 1600 585.917969 C 1621.582031 585.917969 1639.082031 603.417969 1639.082031 625 "/>
<path style=" stroke:none;fill-rule:nonzero;fill:rgb(53.72549%,49.411765%,38.823529%);fill-opacity:1;" d="M 1796.21875 625 C 1796.21875 645.003906 1780.003906 661.21875 1760 661.21875 C 1739.996094 661.21875 1723.78125 645.003906 1723.78125 625 C 1723.78125 604.996094 1739.996094 588.78125 1760 588.78125 C 1780.003906 588.78125 1796.21875 604.996094 1796.21875 625 "/>
<path style=" stroke:none;fill-rule:nonzero;fill:rgb(25.490196%,25.098039%,10.196078%);fill-opacity:1;" d="M 1961.554688 625 C 1961.554688 647.949219 1942.949219 666.554688 1920 666.554688 C 1897.050781 666.554688 1878.445313 647.949219 1878.445313 625 C 1878.445313 602.050781 1897.050781 583.445313 1920 583.445313 C 1942.949219 583.445313 1961.554688 602.050781 1961.554688 625 "/>
<path style=" stroke:none;fill-rule:nonzero;fill:rgb(38.431373%,36.470588%,16.470588%);fill-opacity:1;" d="M 2112.796875 625 C 2112.796875 643.113281 2098.113281 657.796875 2080 657.796875 C 2061.886719 657.796875 2047.203125 643.113281 2047.203125 625 C 2047.203125 606.886719 2061.886719 592.203125 2080 592.203125 C 2098.113281 592.203125 2112.796875 606.886719 2112.796875 625 "/>
<path style=" stroke:none;fill-rule:nonzero;fill:rgb(85.882353%,87.45098%,89.411765%);fill-opacity:1;" d="M 2285.957031 625 C 2285.957031 650.378906 2265.378906 670.957031 2240 670.957031 C 2214.621094 670.957031 2194.042969 650.378906 2194.042969 625 C 2194.042969 599.621094 2214.621094 579.042969 2240 579.042969 C 2265.378906 579.042969 2285.957031 599.621094 2285.957031 625 "/>
<path style=" stroke:none;fill-rule:nonzero;fill:rgb(38.431373%,36.470588%,16.470588%);fill-opacity:1;" d="M 2444.230469 625 C 2444.230469 649.429688 2424.429688 669.230469 2400 669.230469 C 2375.570313 669.230469 2355.769531 649.429688 2355.769531 625 C 2355.769531 600.570313 2375.570313 580.769531 2400 580.769531 C 2424.429688 580.769531 2444.230469 600.570313 2444.230469 625 "/>
</g>
</svg>
