<?xml version="1.0" encoding="UTF-8"?>
<svg xmlns="http://www.w3.org/2000/svg" xmlns:xlink="http://www.w3.org/1999/xlink" width="2560pt" height="1280pt" viewBox="0 0 2560 1280" version="1.1">
<g id="surface1">
<path style=" stroke:none;fill-rule:nonzero;fill:rgb(98.039216%,98.039216%,98.039216%);fill-opacity:1;" d="M 0 0 L 2560 0 L 2560 750 L 0 750 Z M 0 0 "/>
<path style=" stroke:none;fill-rule:nonzero;fill:rgb(83.137255%,79.215686%,72.156863%);fill-opacity:1;" d="M 207.644531 125 C 207.644531 151.3125 186.3125 172.644531 160 172.644531 C 133.6875 172.644531 112.355469 151.3125 112.355469 125 C 112.355469 98.6875 133.6875 77.355469 160 77.355469 C 186.3125 77.355469 207.644531 98.6875 207.644531 125 "/>
<path style=" stroke:none;fill-rule:nonzero;fill:rgb(60.392157%,63.921569%,60.392157%);fill-opacity:1;" d="M 358.257813 125 C 358.257813 146.128906 341.128906 163.257813 320 163.257813 C 298.871094 163.257813 281.742188 146.128906 281.742188 125 C 281.742188 103.871094 298.871094 86.742188 320 86.742188 C 341.128906 86.742188 358.257813 103.871094 358.257813 125 "/>
<path style=" stroke:none;fill-rule:nonzero;fill:rgb(60.392157%,63.921569%,60.392157%);fill-opacity:1;" d="M 518.625 125 C 518.625 146.332031 501.332031 163.625 480 163.625 C 458.667969 163.625 441.375 146.332031 441.375 125 C 441.375 103.667969 458.667969 86.375 480 86.375 C 501.332031 86.375 518.625 103.667969 518.625 125 "/>
<path style=" stroke:none;fill-rule:nonzero;fill:rgb(21.960784%,23.137255%,24.705882%);fill-opacity:1;" d="M 682.78125 125 C 682.78125 148.628906 663.628906 167.78125 640 167.78125 C 616.371094 167.78125 597.21875 148.628906 597.21875 125 C 597.21875 101.371094 616.371094 82.21875 640 82.21875 C 663.628906 82.21875 682.78125 101.371094 682.78125 125 "/>
<path style=" stroke:none;fill-rule:nonzero;fill:rgb(80.784314%,68.627451%,50.980392%);fill-opacity:1;" d="M 839.007813 125 C 839.007813 146.542969 821.542969 164.007813 800 164.007813 C 778.457031 164.007813 760.992188 146.542969 760.992188 125 C 760.992188 103.457031 778.457031 85.992188 800 85.992188 C 821.542969 85.992188 839.007813 103.457031 839.007813 125 "/>
<path style=" stroke:none;fill-rule:nonzero;fill:rgb(55.294118%,51.372549%,44.313725%);fill-opacity:1;" d="M 1002.285156 125 C 1002.285156 148.351563 983.351563 167.285156 960 167.285156 C 936.648438 167.285156 917.714844 148.351563 917.714844 125 C 917.714844 101.648438 936.648438 82.714844 960 82.714844 C 983.351563 82.714844 1002.285156 101.648438 1002.285156 125 "/>
<path style=" stroke:none;fill-rule:nonzero;fill:rgb(55.294118%,51.372549%,44.313725%);fill-opacity:1;" d="M 1158.085938 125 C 1158.085938 146.035156 1141.035156 163.085938 1120 163.085938 C 1098.964844 163.085938 1081.914063 146.035156 1081.914063 125 C 1081.914063 103.964844 1098.964844 86.914063 1120 86.914063 C 1141.035156 86.914063 1158.085938 103.964844 1158.085938 125 "/>
<path style=" stroke:none;fill-rule:nonzero;fill:rgb(60.392157%,63.921569%,60.392157%);fill-opacity:1;" d="M 1321.367188 125 C 1321.367188 147.847656 1302.847656 166.367188 1280 166.367188 C 1257.152344 166.367188 1238.632813 147.847656 1238.632813 125 C 1238.632813 102.152344 1257.152344 83.632813 1280 83.632813 C 1302.847656 83.632813 1321.367188 102.152344 1321.367188 125 "/>
<path style=" stroke:none;fill-rule:nonzero;fill:rgb(80.784314%,68.627451%,50.980392%);fill-opacity:1;" d="M 1479.453125 125 C 1479.453125 146.789063 1461.789063 164.453125 1440 164.453125 C 1418.210938 164.453125 1400.546875 146.789063 1400.546875 125 C 1400.546875 103.210938 1418.210938 85.546875 1440 85.546875 C 1461.789063 85.546875 1479.453125 103.210938 1479.453125 125 "/>
<path style=" stroke:none;fill-rule:nonzero;fill:rgb(21.960784%,23.137255%,24.705882%);fill-opacity:1;" d="M 1640.667969 125 C 1640.667969 147.460938 1622.460938 165.667969 1600 165.667969 C 1577.539063 165.667969 1559.332031 147.460938 1559.332031 125 C 1559.332031 102.539063 1577.539063 84.332031 1600 84.332031 C 1622.460938 84.332031 1640.667969 102.539063 1640.667969 125 "/>
<path style=" stroke:none;fill-rule:nonzero;fill:rgb(42.745098%,36.078431%,30.980392%);fill-opacity:1;" d="M 1803.855469 125 C 1803.855469 149.21875 1784.21875 168.855469 1760 168.855469 C 1735.78125 168.855469 1716.144531 149.21875 1716.144531 125 C 1716.144531 100.78125 1735.78125 81.144531 1760 81.144531 C 1784.21875 81.144531 1803.855469 100.78125 1803.855469 125 "/>
<path style=" stroke:none;fill-rule:nonzero;fill:rgb(83.137255%,79.215686%,72.156863%);fill-opacity:1;" d="M 1956.15625 125 C 1956.15625 144.96875 1939.96875 161.15625 1920 161.15625 C 1900.03125 161.15625 1883.84375 144.96875 1883.84375 125 C 1883.84375 105.03125 1900.03125 88.84375 1920 88.84375 C 1939.96875 88.84375 1956.15625 105.03125 1956.15625 125 "/>
<path style=" stroke:none;fill-rule:nonzero;fill:rgb(60.392157%,63.921569%,60.392157%);fill-opacity:1;" d="M 2119.605469 125 C 2119.605469 146.875 2101.875 164.605469 2080 164.605469 C 2058.125 164.605469 2040.394531 146.875 2040.394531 125 C 2040.394531 103.125 2058.125 85.394531 2080 85.394531 C 2101.875 85.394531 2119.605469 103.125 2119.605469 125 "/>
<path style=" stroke:none;fill-rule:nonzero;fill:rgb(83.137255%,79.215686%,72.156863%);fill-opacity:1;" d="M 2284.792969 125 C 2284.792969 149.738281 2264.738281 169.792969 2240 169.792969 C 2215.261719 169.792969 2195.207031 149.738281 2195.207031 125 C 2195.207031 100.261719 2215.261719 80.207031 2240 80.207031 C 2264.738281 80.207031 2284.792969 100.261719 2284.792969 125 "/>
<path style=" stroke:none;fill-rule:nonzero;fill:rgb(83.137255%,79.215686%,72.156863%);fill-opacity:1;" d="M 2440.621094 125 C 2440.621094 147.433594 2422.433594 165.621094 2400 165.621094 C 2377.566406 165.621094 2359.378906 147.433594 2359.378906 125 C 2359.378906 102.566406 2377.566406 84.378906 2400 84.378906 C 2422.433594 84.378906 2440.621094 102.566406 2440.621094 125 "/>
<path style=" stroke:none;fill-rule:nonzero;fill:rgb(55.294118%,51.372549%,44.313725%);fill-opacity:1;" d="M 201.964844 250 C 201.964844 273.175781 183.175781 291.964844 160 291.964844 C 136.824219 291.964844 118.035156 273.175781 118.035156 250 C 118.035156 226.824219 136.824219 208.035156 160 208.035156 C 183.175781 208.035156 201.964844 226.824219 201.964844 250 "/>
<path style=" stroke:none;fill-rule:nonzero;fill:rgb(42.745098%,36.078431%,30.980392%);fill-opacity:1;" d="M 360.011719 250 C 360.011719 272.097656 342.097656 290.011719 320 290.011719 C 297.902344 290.011719 279.988281 272.097656 279.988281 250 C 279.988281 227.902344 297.902344 209.988281 320 209.988281 C 342.097656 209.988281 360.011719 227.902344 360.011719 250 "/>
<path style=" stroke:none;fill-rule:nonzero;fill:rgb(60.392157%,63.921569%,60.392157%);fill-opacity:1;" d="M 514.808594 250 C 514.808594 269.222656 499.222656 284.808594 480 284.808594 C 460.777344 284.808594 445.191406 269.222656 445.191406 250 C 445.191406 230.777344 460.777344 215.191406 480 215.191406 C 499.222656 215.191406 514.808594 230.777344 514.808594 250 "/>
<path style=" stroke:none;fill-rule:nonzero;fill:rgb(83.137255%,79.215686%,72.156863%);fill-opacity:1;" d="M 678.371094 250 C 678.371094 271.191406 661.191406 288.371094 640 288.371094 C 618.808594 288.371094 601.628906 271.191406 601.628906 250 C 601.628906 228.808594 618.808594 211.628906 640 211.628906 C 661.191406 211.628906 678.371094 228.808594 678.371094 250 "/>
<path style=" stroke:none;fill-rule:nonzero;fill:rgb(83.137255%,79.215686%,72.156863%);fill-opacity:1;" d="M 836.773438 250 C 836.773438 270.308594 820.308594 286.773438 800 286.773438 C 779.691406 286.773438 763.226563 270.308594 763.226563 250 C 763.226563 229.691406 779.691406 213.226563 800 213.226563 C 820.308594 213.226563 836.773438 229.691406 836.773438 250 "/>
<path style=" stroke:none;fill-rule:nonzero;fill:rgb(38.431373%,51.372549%,58.431373%);fill-opacity:1;" d="M 998.855469 250 C 998.855469 271.460938 981.460938 288.855469 960 288.855469 C 938.539063 288.855469 921.144531 271.460938 921.144531 250 C 921.144531 228.539063 938.539063 211.144531 960 211.144531 C 981.460938 211.144531 998.855469 228.539063 998.855469 250 "/>
<path style=" stroke:none;fill-rule:nonzero;fill:rgb(83.137255%,79.215686%,72.156863%);fill-opacity:1;" d="M 1163.628906 250 C 1163.628906 274.09375 1144.09375 293.628906 1120 293.628906 C 1095.90625 293.628906 1076.371094 274.09375 1076.371094 250 C 1076.371094 225.90625 1095.90625 206.371094 1120 206.371094 C 1144.09375 206.371094 1163.628906 225.90625 1163.628906 250 "/>
<path style=" stroke:none;fill-rule:nonzero;fill:rgb(42.745098%,36.078431%,30.980392%);fill-opacity:1;" d="M 1318.695313 250 C 1318.695313 271.371094 1301.371094 288.695313 1280 288.695313 C 1258.628906 288.695313 1241.304688 271.371094 1241.304688 250 C 1241.304688 228.628906 1258.628906 211.304688 1280 211.304688 C 1301.371094 211.304688 1318.695313 228.628906 1318.695313 250 "/>
<path style=" stroke:none;fill-rule:nonzero;fill:rgb(83.137255%,79.215686%,72.156863%);fill-opacity:1;" d="M 1481.394531 250 C 1481.394531 272.859375 1462.859375 291.394531 1440 291.394531 C 1417.140625 291.394531 1398.605469 272.859375 1398.605469 250 C 1398.605469 227.140625 1417.140625 208.605469 1440 208.605469 C 1462.859375 208.605469 1481.394531 227.140625 1481.394531 250 "/>
<path style=" stroke:none;fill-rule:nonzero;fill:rgb(55.294118%,51.372549%,44.313725%);fill-opacity:1;" d="M 1639.984375 250 C 1639.984375 272.082031 1622.082031 289.984375 1600 289.984375 C 1577.917969 289.984375 1560.015625 272.082031 1560.015625 250 C 1560.015625 227.917969 1577.917969 210.015625 1600 210.015625 C 1622.082031 210.015625 1639.984375 227.917969 1639.984375 250 "/>
<path style=" stroke:none;fill-rule:nonzero;fill:rgb(83.137255%,79.215686%,72.156863%);fill-opacity:1;" d="M 1800.511719 250 C 1800.511719 272.375 1782.375 290.511719 1760 290.511719 C 1737.625 290.511719 1719.488281 272.375 1719.488281 250 C 1719.488281 227.625 1737.625 209.488281 1760 209.488281 C 1782.375 209.488281 1800.511719 227.625 1800.511719 250 "/>
<path style=" stroke:none;fill-rule:nonzero;fill:rgb(55.294118%,51.372549%,44.313725%);fill-opacity:1;" d="M 1960.75 250 C 1960.75 272.503906 1942.503906 290.75 1920 290.75 C 1897.496094 290.75 1879.25 272.503906 1879.25 250 C 1879.25 227.496094 1897.496094 209.25 1920 209.25 C 1942.503906 209.25 1960.75 227.496094 1960.75 250 "/>
<path style=" stroke:none;fill-rule:nonzero;fill:rgb(21.960784%,23.137255%,24.705882%);fill-opacity:1;" d="M 2117.332031 250 C 2117.332031 270.617188 2100.617188 287.332031 2080 287.332031 C 2059.382813 287.332031 2042.667969 270.617188 2042.667969 250 C 2042.667969 229.382813 2059.382813 212.667969 2080 212.667969 C 2100.617188 212.667969 2117.332031 229.382813 2117.332031 250 "/>
<path style=" stroke:none;fill-rule:nonzero;fill:rgb(83.137255%,79.215686%,72.156863%);fill-opacity:1;" d="M 2276.539063 250 C 2276.539063 270.179688 2260.179688 286.539063 2240 286.539063 C 2219.820313 286.539063 2203.460938 270.179688 2203.460938 250 C 2203.460938 229.820313 2219.820313 213.460938 2240 213.460938 C 2260.179688 213.460938 2276.539063 229.820313 2276.539063 250 "/>
<path style=" stroke:none;fill-rule:nonzero;fill:rgb(83.137255%,79.215686%,72.156863%);fill-opacity:1;" d="M 2436.195313 250 C 2436.195313 269.988281 2419.988281 286.195313 2400 286.195313 C 2380.011719 286.195313 2363.804688 269.988281 2363.804688 250 C 2363.804688 230.011719 2380.011719 213.804688 2400 213.804688 C 2419.988281 213.804688 2436.195313 230.011719 2436.195313 250 "/>
<path style=" stroke:none;fill-rule:nonzero;fill:rgb(83.137255%,79.215686%,72.156863%);fill-opacity:1;" d="M 198.457031 375 C 198.457031 396.238281 181.238281 413.457031 160 413.457031 C 138.761719 413.457031 121.542969 396.238281 121.542969 375 C 121.542969 353.761719 138.761719 336.542969 160 336.542969 C 181.238281 336.542969 198.457031 353.761719 198.457031 375 "/>
<path style=" stroke:none;fill-rule:nonzero;fill:rgb(83.137255%,79.215686%,72.156863%);fill-opacity:1;" d="M 358.164063 375 C 358.164063 396.078125 341.078125 413.164063 320 413.164063 C 298.921875 413.164063 281.835938 396.078125 281.835938 375 C 281.835938 353.921875 298.921875 336.835938 320 336.835938 C 341.078125 336.835938 358.164063 353.921875 358.164063 375 "/>
<path style=" stroke:none;fill-rule:nonzero;fill:rgb(55.294118%,51.372549%,44.313725%);fill-opacity:1;" d="M 515.460938 375 C 515.460938 394.585938 499.585938 410.460938 480 410.460938 C 460.414063 410.460938 444.539063 394.585938 444.539063 375 C 444.539063 355.414063 460.414063 339.539063 480 339.539063 C 499.585938 339.539063 515.460938 355.414063 515.460938 375 "/>
<path style=" stroke:none;fill-rule:nonzero;fill:rgb(21.960784%,23.137255%,24.705882%);fill-opacity:1;" d="M 674.941406 375 C 674.941406 394.296875 659.296875 409.941406 640 409.941406 C 620.703125 409.941406 605.058594 394.296875 605.058594 375 C 605.058594 355.703125 620.703125 340.058594 640 340.058594 C 659.296875 340.058594 674.941406 355.703125 674.941406 375 "/>
<path style=" stroke:none;fill-rule:nonzero;fill:rgb(55.294118%,51.372549%,44.313725%);fill-opacity:1;" d="M 838.648438 375 C 838.648438 396.34375 821.34375 413.648438 800 413.648438 C 778.65625 413.648438 761.351563 396.34375 761.351563 375 C 761.351563 353.65625 778.65625 336.351563 800 336.351563 C 821.34375 336.351563 838.648438 353.65625 838.648438 375 "/>
<path style=" stroke:none;fill-rule:nonzero;fill:rgb(83.137255%,79.215686%,72.156863%);fill-opacity:1;" d="M 997.398438 375 C 997.398438 395.652344 980.652344 412.398438 960 412.398438 C 939.347656 412.398438 922.601563 395.652344 922.601563 375 C 922.601563 354.347656 939.347656 337.601563 960 337.601563 C 980.652344 337.601563 997.398438 354.347656 997.398438 375 "/>
<path style=" stroke:none;fill-rule:nonzero;fill:rgb(83.137255%,79.215686%,72.156863%);fill-opacity:1;" d="M 1156.121094 375 C 1156.121094 394.949219 1139.949219 411.121094 1120 411.121094 C 1100.050781 411.121094 1083.878906 394.949219 1083.878906 375 C 1083.878906 355.050781 1100.050781 338.878906 1120 338.878906 C 1139.949219 338.878906 1156.121094 355.050781 1156.121094 375 "/>
<path style=" stroke:none;fill-rule:nonzero;fill:rgb(83.137255%,79.215686%,72.156863%);fill-opacity:1;" d="M 1316.449219 375 C 1316.449219 395.128906 1300.128906 411.449219 1280 411.449219 C 1259.871094 411.449219 1243.550781 395.128906 1243.550781 375 C 1243.550781 354.871094 1259.871094 338.550781 1280 338.550781 C 1300.128906 338.550781 1316.449219 354.871094 1316.449219 375 "/>
<path style=" stroke:none;fill-rule:nonzero;fill:rgb(55.294118%,51.372549%,44.313725%);fill-opacity:1;" d="M 1474.355469 375 C 1474.355469 393.972656 1458.972656 409.355469 1440 409.355469 C 1421.027344 409.355469 1405.644531 393.972656 1405.644531 375 C 1405.644531 356.027344 1421.027344 340.644531 1440 340.644531 C 1458.972656 340.644531 1474.355469 356.027344 1474.355469 375 "/>
<path style=" stroke:none;fill-rule:nonzero;fill:rgb(80.784314%,68.627451%,50.980392%);fill-opacity:1;" d="M 1638.769531 375 C 1638.769531 396.410156 1621.410156 413.769531 1600 413.769531 C 1578.589844 413.769531 1561.230469 396.410156 1561.230469 375 C 1561.230469 353.589844 1578.589844 336.230469 1600 336.230469 C 1621.410156 336.230469 1638.769531 353.589844 1638.769531 375 "/>
<path style=" stroke:none;fill-rule:nonzero;fill:rgb(42.745098%,36.078431%,30.980392%);fill-opacity:1;" d="M 1797.226563 375 C 1797.226563 395.558594 1780.558594 412.226563 1760 412.226563 C 1739.441406 412.226563 1722.773438 395.558594 1722.773438 375 C 1722.773438 354.441406 1739.441406 337.773438 1760 337.773438 C 1780.558594 337.773438 1797.226563 354.441406 1797.226563 375 "/>
<path style=" stroke:none;fill-rule:nonzero;fill:rgb(83.137255%,79.215686%,72.156863%);fill-opacity:1;" d="M 1958.570313 375 C 1958.570313 396.300781 1941.300781 413.570313 1920 413.570313 C 1898.699219 413.570313 1881.429688 396.300781 1881.429688 375 C 1881.429688 353.699219 1898.699219 336.429688 1920 336.429688 C 1941.300781 336.429688 1958.570313 353.699219 1958.570313 375 "/>
<path style=" stroke:none;fill-rule:nonzero;fill:rgb(83.137255%,79.215686%,72.156863%);fill-opacity:1;" d="M 2117.417969 375 C 2117.417969 395.664063 2100.664063 412.417969 2080 412.417969 C 2059.335938 412.417969 2042.582031 395.664063 2042.582031 375 C 2042.582031 354.335938 2059.335938 337.582031 2080 337.582031 C 2100.664063 337.582031 2117.417969 354.335938 2117.417969 375 "/>
<path style=" stroke:none;fill-rule:nonzero;fill:rgb(80.784314%,68.627451%,50.980392%);fill-opacity:1;" d="M 2279.6875 375 C 2279.6875 396.917969 2261.917969 414.6875 2240 414.6875 C 2218.082031 414.6875 2200.3125 396.917969 2200.3125 375 C 2200.3125 353.082031 2218.082031 335.3125 2240 335.3125 C 2261.917969 335.3125 2279.6875 353.082031 2279.6875 375 "/>
<path style=" stroke:none;fill-rule:nonzero;fill:rgb(83.137255%,79.215686%,72.156863%);fill-opacity:1;" d="M 2440.839844 375 C 2440.839844 397.554688 2422.554688 415.839844 2400 415.839844 C 2377.445313 415.839844 2359.160156 397.554688 2359.160156 375 C 2359.160156 352.445313 2377.445313 334.160156 2400 334.160156 C 2422.554688 334.160156 2440.839844 352.445313 2440.839844 375 "/>
<path style=" stroke:none;fill-rule:nonzero;fill:rgb(21.960784%,23.137255%,24.705882%);fill-opacity:1;" d="M 196.5625 500 C 196.5625 520.191406 180.191406 536.5625 160 536.5625 C 139.808594 536.5625 123.4375 520.191406 123.4375 500 C 123.4375 479.808594 139.808594 463.4375 160 463.4375 C 180.191406 463.4375 196.5625 479.808594 196.5625 500 "/>
<path style=" stroke:none;fill-rule:nonzero;fill:rgb(83.137255%,79.215686%,72.156863%);fill-opacity:1;" d="M 359.617188 500 C 359.617188 521.878906 341.878906 539.617188 320 539.617188 C 298.121094 539.617188 280.382813 521.878906 280.382813 500 C 280.382813 478.121094 298.121094 460.382813 320 460.382813 C 341.878906 460.382813 359.617188 478.121094 359.617188 500 "/>
<path style=" stroke:none;fill-rule:nonzero;fill:rgb(80.784314%,68.627451%,50.980392%);fill-opacity:1;" d="M 518.195313 500 C 518.195313 521.09375 501.09375 538.195313 480 538.195313 C 458.90625 538.195313 441.804688 521.09375 441.804688 500 C 441.804688 478.90625 458.90625 461.804688 480 461.804688 C 501.09375 461.804688 518.195313 478.90625 518.195313 500 "/>
<path style=" stroke:none;fill-rule:nonzero;fill:rgb(42.745098%,36.078431%,30.980392%);fill-opacity:1;" d="M 682.113281 500 C 682.113281 523.257813 663.257813 542.113281 640 542.113281 C 616.742188 542.113281 597.886719 523.257813 597.886719 500 C 597.886719 476.742188 616.742188 457.886719 640 457.886719 C 663.257813 457.886719 682.113281 476.742188 682.113281 500 "/>
<path style=" stroke:none;fill-rule:nonzero;fill:rgb(55.294118%,51.372549%,44.313725%);fill-opacity:1;" d="M 838.878906 500 C 838.878906 521.472656 821.472656 538.878906 800 538.878906 C 778.527344 538.878906 761.121094 521.472656 761.121094 500 C 761.121094 478.527344 778.527344 461.121094 800 461.121094 C 821.472656 461.121094 838.878906 478.527344 838.878906 500 "/>
<path style=" stroke:none;fill-rule:nonzero;fill:rgb(83.137255%,79.215686%,72.156863%);fill-opacity:1;" d="M 1001.347656 500 C 1001.347656 522.835938 982.835938 541.347656 960 541.347656 C 937.164063 541.347656 918.652344 522.835938 918.652344 500 C 918.652344 477.164063 937.164063 458.652344 960 458.652344 C 982.835938 458.652344 1001.347656 477.164063 1001.347656 500 "/>
<path style=" stroke:none;fill-rule:nonzero;fill:rgb(83.137255%,79.215686%,72.156863%);fill-opacity:1;" d="M 1159.855469 500 C 1159.855469 522.011719 1142.011719 539.855469 1120 539.855469 C 1097.988281 539.855469 1080.144531 522.011719 1080.144531 500 C 1080.144531 477.988281 1097.988281 460.144531 1120 460.144531 C 1142.011719 460.144531 1159.855469 477.988281 1159.855469 500 "/>
<path style=" stroke:none;fill-rule:nonzero;fill:rgb(83.137255%,79.215686%,72.156863%);fill-opacity:1;" d="M 1319.761719 500 C 1319.761719 521.960938 1301.960938 539.761719 1280 539.761719 C 1258.039063 539.761719 1240.238281 521.960938 1240.238281 500 C 1240.238281 478.039063 1258.039063 460.238281 1280 460.238281 C 1301.960938 460.238281 1319.761719 478.039063 1319.761719 500 "/>
<path style=" stroke:none;fill-rule:nonzero;fill:rgb(83.137255%,79.215686%,72.156863%);fill-opacity:1;" d="M 1473.742188 500 C 1473.742188 518.636719 1458.636719 533.742188 1440 533.742188 C 1421.363281 533.742188 1406.257813 518.636719 1406.257813 500 C 1406.257813 481.363281 1421.363281 466.257813 1440 466.257813 C 1458.636719 466.257813 1473.742188 481.363281 1473.742188 500 "/>
<path style=" stroke:none;fill-rule:nonzero;fill:rgb(38.431373%,51.372549%,58.431373%);fill-opacity:1;" d="M 1642.0625 500 C 1642.0625 523.230469 1623.230469 542.0625 1600 542.0625 C 1576.769531 542.0625 1557.9375 523.230469 1557.9375 500 C 1557.9375 476.769531 1576.769531 457.9375 1600 457.9375 C 1623.230469 457.9375 1642.0625 476.769531 1642.0625 500 "/>
<path style=" stroke:none;fill-rule:nonzero;fill:rgb(83.137255%,79.215686%,72.156863%);fill-opacity:1;" d="M 1800.636719 500 C 1800.636719 522.441406 1782.441406 540.636719 1760 540.636719 C 1737.558594 540.636719 1719.363281 522.441406 1719.363281 500 C 1719.363281 477.558594 1737.558594 459.363281 1760 459.363281 C 1782.441406 459.363281 1800.636719 477.558594 1800.636719 500 "/>
<path style=" stroke:none;fill-rule:nonzero;fill:rgb(55.294118%,51.372549%,44.313725%);fill-opacity:1;" d="M 1962.609375 500 C 1962.609375 523.53125 1943.53125 542.609375 1920 542.609375 C 1896.46875 542.609375 1877.390625 523.53125 1877.390625 500 C 1877.390625 476.46875 1896.46875 457.390625 1920 457.390625 C 1943.53125 457.390625 1962.609375 476.46875 1962.609375 500 "/>
<path style=" stroke:none;fill-rule:nonzero;fill:rgb(42.745098%,36.078431%,30.980392%);fill-opacity:1;" d="M 2118.773438 500 C 2118.773438 521.414063 2101.414063 538.773438 2080 538.773438 C 2058.585938 538.773438 2041.226563 521.414063 2041.226563 500 C 2041.226563 478.585938 2058.585938 461.226563 2080 461.226563 C 2101.414063 461.226563 2118.773438 478.585938 2118.773438 500 "/>
<path style=" stroke:none;fill-rule:nonzero;fill:rgb(83.137255%,79.215686%,72.156863%);fill-opacity:1;" d="M 2282.363281 500 C 2282.363281 523.398438 2263.398438 542.363281 2240 542.363281 C 2216.601563 542.363281 2197.636719 523.398438 2197.636719 500 C 2197.636719 476.601563 2216.601563 457.636719 2240 457.636719 C 2263.398438 457.636719 2282.363281 476.601563 2282.363281 500 "/>
<path style=" stroke:none;fill-rule:nonzero;fill:rgb(83.137255%,79.215686%,72.156863%);fill-opacity:1;" d="M 2441.933594 500 C 2441.933594 523.160156 2423.160156 541.933594 2400 541.933594 C 2376.839844 541.933594 2358.066406 523.160156 2358.066406 500 C 2358.066406 476.839844 2376.839844 458.066406 2400 458.066406 C 2423.160156 458.066406 2441.933594 476.839844 2441.933594 500 "/>
<path style=" stroke:none;fill-rule:nonzero;fill:rgb(60.392157%,63.921569%,60.392157%);fill-opacity:1;" d="M 198.71875 625 C 198.71875 646.382813 181.382813 663.71875 160 663.71875 C 138.617188 663.71875 121.28125 646.382813 121.28125 625 C 121.28125 603.617188 138.617188 586.28125 160 586.28125 C 181.382813 586.28125 198.71875 603.617188 198.71875 625 "/>
<path style=" stroke:none;fill-rule:nonzero;fill:rgb(80.784314%,68.627451%,50.980392%);fill-opacity:1;" d="M 359.34375 625 C 359.34375 646.730469 341.730469 664.34375 320 664.34375 C 298.269531 664.34375 280.65625 646.730469 280.65625 625 C 280.65625 603.269531 298.269531 585.65625 320 585.65625 C 341.730469 585.65625 359.34375 603.269531 359.34375 625 "/>
<path style=" stroke:none;fill-rule:nonzero;fill:rgb(83.137255%,79.215686%,72.156863%);fill-opacity:1;" d="M 524.097656 625 C 524.097656 649.355469 504.355469 669.097656 480 669.097656 C 455.644531 669.097656 435.902344 649.355469 435.902344 625 C 435.902344 600.644531 455.644531 580.902344 480 580.902344 C 504.355469 580.902344 524.097656 600.644531 524.097656 625 "/>
<path style=" stroke:none;fill-rule:nonzero;fill:rgb(38.431373%,51.372549%,58.431373%);fill-opacity:1;" d="M 682.765625 625 C 682.765625 648.621094 663.621094 667.765625 640 667.765625 C 616.378906 667.765625 597.234375 648.621094 597.234375 625 C 597.234375 601.378906 616.378906 582.234375 640 582.234375 C 663.621094 582.234375 682.765625 601.378906 682.765625 625 "/>
<path style=" stroke:none;fill-rule:nonzero;fill:rgb(21.960784%,23.137255%,24.705882%);fill-opacity:1;" d="M 838.953125 625 C 838.953125 646.515625 821.515625 663.953125 800 663.953125 C 778.484375 663.953125 761.046875 646.515625 761.046875 625 C 761.046875 603.484375 778.484375 586.046875 800 586.046875 C 821.515625 586.046875 838.953125 603.484375 838.953125 625 "/>
<path style=" stroke:none;fill-rule:nonzero;fill:rgb(38.431373%,51.372549%,58.431373%);fill-opacity:1;" d="M 992.328125 625 C 992.328125 642.855469 977.855469 657.328125 960 657.328125 C 942.144531 657.328125 927.671875 642.855469 927.671875 625 C 927.671875 607.144531 942.144531 592.671875 960 592.671875 C 977.855469 592.671875 992.328125 607.144531 992.328125 625 "/>
<path style=" stroke:none;fill-rule:nonzero;fill:rgb(21.960784%,23.137255%,24.705882%);fill-opacity:1;" d="M 1160.695313 625 C 1160.695313 647.476563 1142.476563 665.695313 1120 665.695313 C 1097.523438 665.695313 1079.304688 647.476563 1079.304688 625 C 1079.304688 602.523438 1097.523438 584.304688 1120 584.304688 C 1142.476563 584.304688 1160.695313 602.523438 1160.695313 625 "/>
<path style=" stroke:none;fill-rule:nonzero;fill:rgb(21.960784%,23.137255%,24.705882%);fill-opacity:1;" d="M 1317.386719 625 C 1317.386719 645.648438 1300.648438 662.386719 1280 662.386719 C 1259.351563 662.386719 1242.613281 645.648438 1242.613281 625 C 1242.613281 604.351563 1259.351563 587.613281 1280 587.613281 C 1300.648438 587.613281 1317.386719 604.351563 1317.386719 625 "/>
<path style=" stroke:none;fill-rule:nonzero;fill:rgb(55.294118%,51.372549%,44.313725%);fill-opacity:1;" d="M 1485.535156 625 C 1485.535156 650.148438 1465.148438 670.535156 1440 670.535156 C 1414.851563 670.535156 1394.464844 650.148438 1394.464844 625 C 1394.464844 599.851563 1414.851563 579.464844 1440 579.464844 C 1465.148438 579.464844 1485.535156 599.851563 1485.535156 625 "/>
<path style=" stroke:none;fill-rule:nonzero;fill:rgb(83.137255%,79.215686%,72.156863%);fill-opacity:1;" d="M 1640.699219 625 C 1640.699219 647.476563 1622.476563 665.699219 1600 665.699219 C 1577.523438 665.699219 1559.300781 647.476563 1559.300781 625 C 1559.300781 602.523438 1577.523438 584.300781 1600 584.300781 C 1622.476563 584.300781 1640.699219 602.523438 1640.699219 625 "/>
<path style=" stroke:none;fill-rule:nonzero;fill:rgb(60.392157%,63.921569%,60.392157%);fill-opacity:1;" d="M 1798.394531 625 C 1798.394531 646.203125 1781.203125 663.394531 1760 663.394531 C 1738.796875 663.394531 1721.605469 646.203125 1721.605469 625 C 1721.605469 603.796875 1738.796875 586.605469 1760 586.605469 C 1781.203125 586.605469 1798.394531 603.796875 1798.394531 625 "/>
<path style=" stroke:none;fill-rule:nonzero;fill:rgb(55.294118%,51.372549%,44.313725%);fill-opacity:1;" d="M 1962.585938 625 C 1962.585938 648.519531 1943.519531 667.585938 1920 667.585938 C 1896.480469 667.585938 1877.414063 648.519531 1877.414063 625 C 1877.414063 601.480469 1896.480469 582.414063 1920 582.414063 C 1943.519531 582.414063 1962.585938 601.480469 1962.585938 625 "/>
<path style=" stroke:none;fill-rule:nonzero;fill:rgb(83.137255%,79.215686%,72.156863%);fill-opacity:1;" d="M 2120.390625 625 C 2120.390625 647.308594 2102.308594 665.390625 2080 665.390625 C 2057.691406 665.390625 2039.609375 647.308594 2039.609375 625 C 2039.609375 602.691406 2057.691406 584.609375 2080 584.609375 C 2102.308594 584.609375 2120.390625 602.691406 2120.390625 625 "/>
<path style=" stroke:none;fill-rule:nonzero;fill:rgb(83.137255%,79.215686%,72.156863%);fill-opacity:1;" d="M 2279.246094 625 C 2279.246094 646.675781 2261.675781 664.246094 2240 664.246094 C 2218.324219 664.246094 2200.753906 646.675781 2200.753906 625 C 2200.753906 603.324219 2218.324219 585.753906 2240 585.753906 C 2261.675781 585.753906 2279.246094 603.324219 2279.246094 625 "/>
<path style=" stroke:none;fill-rule:nonzero;fill:rgb(38.431373%,51.372549%,58.431373%);fill-opacity:1;" d="M 2439.074219 625 C 2439.074219 646.582031 2421.582031 664.074219 2400 664.074219 C 2378.417969 664.074219 2360.925781 646.582031 2360.925781 625 C 2360.925781 603.417969 2378.417969 585.925781 2400 585.925781 C 2421.582031 585.925781 2439.074219 603.417969 2439.074219 625 "/>
</g>
</svg>
