<?xml version="1.0" encoding="UTF-8"?>
<svg xmlns="http://www.w3.org/2000/svg" xmlns:xlink="http://www.w3.org/1999/xlink" width="2560pt" height="192pt" viewBox="0 0 2560 192" version="1.1">
<g id="surface1">
<rect x="0" y="0" width="2560" height="192" style="fill:rgb(98.039216%,98.039216%,98.039216%);fill-opacity:1;stroke:none;"/>
<path style=" stroke:none;fill-rule:nonzero;fill:rgb(94.117647%,63.921569%,74.509804%);fill-opacity:1;" d="M 213.808594 96 C 213.808594 125.71875 189.71875 149.808594 160 149.808594 C 130.28125 149.808594 106.191406 125.71875 106.191406 96 C 106.191406 66.28125 130.28125 42.191406 160 42.191406 C 189.71875 42.191406 213.808594 66.28125 213.808594 96 L 376.125 96 C 376.125 126.996094 350.996094 152.125 320 152.125 C 289.003906 152.125 263.875 126.996094 263.875 96 C 263.875 65.003906 289.003906 39.875 320 39.875 C 350.996094 39.875 376.125 65.003906 376.125 96 L 536.238281 96 C 536.238281 127.058594 511.058594 152.238281 480 152.238281 C 448.941406 152.238281 423.761719 127.058594 423.761719 96 C 423.761719 64.941406 448.941406 39.761719 480 39.761719 C 511.058594 39.761719 536.238281 64.941406 536.238281 96 "/>
<path style=" stroke:none;fill-rule:nonzero;fill:rgb(94.117647%,63.921569%,74.509804%);fill-opacity:1;" d="M 699.324219 96 C 699.324219 128.761719 672.761719 155.324219 640 155.324219 C 607.238281 155.324219 580.675781 128.761719 580.675781 96 C 580.675781 63.238281 607.238281 36.675781 640 36.675781 C 672.761719 36.675781 699.324219 63.238281 699.324219 96 "/>
<path style=" stroke:none;fill-rule:nonzero;fill:rgb(85.490196%,80.392157%,38.823529%);fill-opacity:1;" d="M 853.648438 96 C 853.648438 125.628906 829.628906 149.648438 800 149.648438 C 770.371094 149.648438 746.351563 125.628906 746.351563 96 C 746.351563 66.371094 770.371094 42.351563 800 42.351563 C 829.628906 42.351563 853.648438 66.371094 853.648438 96 L 1007.722656 96 C 1007.722656 122.359375 986.359375 143.722656 960 143.722656 C 933.640625 143.722656 912.277344 122.359375 912.277344 96 C 912.277344 69.640625 933.640625 48.277344 960 48.277344 C 986.359375 48.277344 1007.722656 69.640625 1007.722656 96 "/>
<path style=" stroke:none;fill-rule:nonzero;fill:rgb(21.568627%,49.019608%,65.882353%);fill-opacity:1;" d="M 1177.308594 96 C 1177.308594 127.648438 1151.648438 153.308594 1120 153.308594 C 1088.351563 153.308594 1062.691406 127.648438 1062.691406 96 C 1062.691406 64.351563 1088.351563 38.691406 1120 38.691406 C 1151.648438 38.691406 1177.308594 64.351563 1177.308594 96 L 1336.808594 96 C 1336.808594 127.375 1311.375 152.808594 1280 152.808594 C 1248.625 152.808594 1223.191406 127.375 1223.191406 96 C 1223.191406 64.625 1248.625 39.191406 1280 39.191406 C 1311.375 39.191406 1336.808594 64.625 1336.808594 96 "/>
<path style=" stroke:none;fill-rule:nonzero;fill:rgb(60%,95.294118%,92.54902%);fill-opacity:1;" d="M 1500.96875 96 C 1500.96875 129.671875 1473.671875 156.96875 1440 156.96875 C 1406.328125 156.96875 1379.03125 129.671875 1379.03125 96 C 1379.03125 62.328125 1406.328125 35.03125 1440 35.03125 C 1473.671875 35.03125 1500.96875 62.328125 1500.96875 96 "/>
<path style=" stroke:none;fill-rule:nonzero;fill:rgb(60%,95.294118%,92.54902%);fill-opacity:1;" d="M 1659.496094 96 C 1659.496094 128.859375 1632.859375 155.496094 1600 155.496094 C 1567.140625 155.496094 1540.503906 128.859375 1540.503906 96 C 1540.503906 63.140625 1567.140625 36.503906 1600 36.503906 C 1632.859375 36.503906 1659.496094 63.140625 1659.496094 96 L 1819.539063 96 C 1819.539063 128.882813 1792.882813 155.539063 1760 155.539063 C 1727.117188 155.539063 1700.460938 128.882813 1700.460938 96 C 1700.460938 63.117188 1727.117188 36.460938 1760 36.460938 C 1792.882813 36.460938 1819.539063 63.117188 1819.539063 96 "/>
<path style=" stroke:none;fill-rule:nonzero;fill:rgb(60%,95.294118%,92.54902%);fill-opacity:1;" d="M 1973.65625 96 C 1973.65625 125.632813 1949.632813 149.65625 1920 149.65625 C 1890.367188 149.65625 1866.34375 125.632813 1866.34375 96 C 1866.34375 66.367188 1890.367188 42.34375 1920 42.34375 C 1949.632813 42.34375 1973.65625 66.367188 1973.65625 96 L 2135.378906 96 C 2135.378906 126.585938 2110.585938 151.378906 2080 151.378906 C 2049.414063 151.378906 2024.621094 126.585938 2024.621094 96 C 2024.621094 65.414063 2049.414063 40.621094 2080 40.621094 C 2110.585938 40.621094 2135.378906 65.414063 2135.378906 96 "/>
</g>
</svg>
